<svg width="40" height="32" viewBox="0 0 40 32" fill="none" xmlns="http://www.w3.org/2000/svg">
<g clip-path="url(#clip0_4932_88105)">
<path d="M24.5287 11.4762C25.2519 11.1406 25.9043 10.4715 26.7654 10.6132C28.1168 10.7157 28.9033 12.6635 27.8707 13.6104C27.8707 13.4873 27.9005 13.2376 27.9117 13.122C27.9527 12.6784 28.0422 12.19 27.7943 11.7818C27.5688 11.4501 27.2351 11.2227 26.9238 10.9729C27.2519 11.5694 27.7533 12.3559 27.1196 12.9449C26.0068 13.3047 25.1867 12.1956 24.5287 11.4762ZM26.661 11.8918C26.661 12.0148 26.6405 12.2646 26.6331 12.3783L27.1196 12.3466C27.0972 12.2553 27.0506 12.0689 27.0264 11.9738L26.661 11.8918Z" fill="#765C4F"/>
<path d="M30.2476 14.5239C31.008 14.4139 32.1115 14.5947 32.2718 15.4969C32.434 16.084 31.9232 16.5052 31.4498 16.7177C31.5318 16.2368 31.7182 15.7858 31.7592 15.29C31.3734 14.8389 30.6539 14.9675 30.2476 14.5239Z" fill="#765C4F"/>
<path d="M26.6616 11.8916L27.0344 11.9755C27.0586 12.0687 27.1052 12.2551 27.1276 12.3483L26.6411 12.38C26.6411 12.2569 26.6542 12.0146 26.6616 11.8916Z" fill="#FEFEFA"/>
<path d="M21.0245 20.2354C21.4399 20.5346 21.829 20.8689 22.1876 21.2344C21.6518 21.2519 21.1189 21.15 20.6274 20.9362C20.7561 20.6995 20.8903 20.4683 21.0245 20.2354Z" fill="#FEFEFA"/>
<path d="M21.6843 4.51974C23.6768 1.86364 27.3842 0.745279 30.5361 1.7108C32.5436 2.16746 34.167 3.81331 36.3143 3.7052C35.9247 3.82822 35.5296 3.92329 35.1363 4.02767C35.6451 4.16373 36.2547 4.18424 36.5995 4.64649C38.182 6.5477 38.6852 9.22058 38.0589 11.5971C37.77 12.9373 36.9275 14.0519 36.0086 15.0342C35.4494 14.5719 34.73 14.0333 33.9713 14.3725C33.0095 14.695 33.3581 16.4564 34.3851 16.2905C35.1307 16.229 35.0953 15.2989 35.3171 14.7714C35.5747 15.3837 35.6096 16.067 35.4159 16.7024C34.6517 16.7471 33.6601 16.5552 33.1475 17.2821C32.6834 17.9214 32.4466 18.9596 33.0207 19.5934C33.4595 20.1013 33.8577 20.6429 34.2118 21.2131C32.5342 22.8441 29.9732 22.913 27.8036 22.5179C27.4606 22.5067 27.3003 22.201 27.058 22.0053C26.5566 22.0053 26.031 22.0594 25.5669 21.8021C24.4821 21.256 23.2332 21.0398 22.2826 20.242C20.6722 18.9745 19.181 17.366 18.5697 15.3697C18.2379 14.406 18.6461 13.4219 18.5958 12.4489C18.1055 11.9978 17.4886 11.7033 17.0151 11.2355L17.496 11.1274C17.5818 10.8907 17.6694 10.6539 17.7588 10.4191C17.7801 10.6742 17.8571 10.9216 17.9843 11.1438C18.1115 11.366 18.2859 11.5576 18.4951 11.7052C18.5391 11.1308 18.4216 10.5556 18.1559 10.0444C18.7654 9.69775 19.8334 9.60642 19.8334 8.72105C19.9862 7.15534 20.8101 5.7779 21.6843 4.51974ZM27.6079 7.56727C28.1764 8.06867 28.9369 8.22897 29.634 8.47128C29.6433 8.21779 29.7346 7.87296 29.4327 7.74621C28.8735 7.45544 28.2136 7.51322 27.6079 7.56727ZM24.5286 11.4815C25.1866 12.201 26.0068 13.3101 27.1195 12.9503C27.0095 13.1013 26.8958 13.2523 26.784 13.4014L27.716 13.6698C27.7849 13.4834 27.8483 13.3101 27.9024 13.1274C27.8912 13.2504 27.8707 13.5002 27.8614 13.6157C28.894 12.6689 28.1074 10.721 26.7561 10.6185C25.9042 10.4713 25.2519 11.1404 24.5286 11.4759V11.4815ZM36.2957 11.735C36.6889 12.1078 37.0934 12.4806 37.5128 12.8366C37.5874 12.201 37.1922 11.7183 36.7318 11.3455L36.2957 11.735ZM23.3171 12.6745C22.6013 12.9708 21.8837 13.6064 21.9154 14.4526C21.8728 14.7583 21.9056 15.0697 22.0109 15.3598C22.1161 15.6499 22.2907 15.9099 22.5193 16.1171C23.4774 17.2355 25.6246 16.8049 25.9937 15.3473C26.1149 14.557 26.2118 13.5169 25.4718 12.9876C24.8903 12.4638 24.0273 12.4881 23.3171 12.6745ZM30.2472 14.5253C30.6535 14.969 31.3656 14.8403 31.7588 15.2914C31.7178 15.7798 31.5314 16.2383 31.4494 16.7192C31.9229 16.5067 32.4336 16.0854 32.2714 15.4983C32.1018 14.5943 31.0077 14.4135 30.2472 14.5235V14.5253ZM30.1689 15.5896C30.2416 15.776 30.3162 15.9457 30.3944 16.1227L30.907 15.7667C30.6591 15.7033 30.4131 15.6437 30.1689 15.5878V15.5896ZM26.2547 15.8655C26.5603 17.2802 27.7644 18.3781 29.0841 18.8702C29.8614 19.2057 30.6554 18.7844 31.3842 18.5216C31.3842 18.3855 31.3991 18.1134 31.4028 17.9792C30.7971 18.3855 30.0515 18.6894 29.3059 18.4303C28.1223 17.9997 27.0487 17.0752 26.6964 15.832L26.2547 15.8655Z" fill="#FFE1CC"/>
<path d="M25.6382 24.6763C26.1265 24.3463 26.8553 24.0462 27.366 24.4899C28.0892 25.0155 28.7546 25.6418 29.5916 25.9941C31.1405 26.6651 32.9466 26.9372 34.5757 26.3668C34.5589 26.4638 34.5272 26.6595 34.5105 26.7564C35.0231 26.8757 35.5375 27.0584 36.0724 27.0285C36.846 26.7937 37.4629 26.2326 38.1414 25.8133L37.4928 25.4144C37.4928 25.228 37.4928 25.0416 37.4816 24.8552C37.9321 25.2518 38.4105 25.6156 38.9131 25.9437C38.8534 26.0369 38.7957 26.1301 38.7397 26.2252C39.038 26.5141 39.4741 26.803 39.3548 27.2876C39.3548 27.7722 38.8702 27.9941 38.5422 28.2587C38.6186 27.9083 38.7118 27.5653 38.805 27.2205C38.147 27.8021 37.5934 28.5439 36.7751 28.913C36.229 29.159 35.6288 28.9652 35.0715 28.8813C34.3576 29.5448 33.4163 29.8543 32.5067 30.1394C31.2877 30.296 30.0352 30.4544 28.8367 30.0854C28.9373 29.7797 29.0417 29.4759 29.1368 29.1702C28.7765 29.4069 28.4656 29.7114 28.2216 30.0667C26.6316 29.7107 25.092 29.0211 23.8823 27.912C23.9066 27.8561 23.9532 27.7462 23.9755 27.6902C24.5049 26.6874 24.6465 25.3901 25.6382 24.6763Z" fill="#FFE1CC"/>
<path d="M22.2026 1.49155C24.8699 -0.391027 28.5773 -0.437625 31.4123 1.11876C32.691 1.73199 34.2269 2.87086 35.6304 1.92771C35.3023 2.19052 35.019 2.5894 34.5698 2.63041C33.7851 2.71429 33.0694 2.30236 32.3853 1.9799C30.3461 0.921182 27.9752 0.302356 25.6751 0.751564C23.047 1.20823 20.6556 3.04793 19.7217 5.57356C19.2539 6.65837 19.2986 7.85688 19.2502 9.01252C18.609 9.0237 17.8205 8.75529 17.334 9.3182C16.7749 9.79723 16.7301 10.623 17.0302 11.2604C17.5036 11.732 18.1206 12.0228 18.6108 12.4738C18.6612 13.4468 18.253 14.431 18.5847 15.3946C19.1961 17.3909 20.6872 18.9995 22.2977 20.2669C23.2483 21.0647 24.4971 21.2809 25.5819 21.8271C26.0367 22.0843 26.5624 22.0302 27.0731 22.0302C27.3079 22.2166 27.4682 22.5316 27.8187 22.5428C29.9883 22.9324 32.5493 22.8634 34.2269 21.2381C35.293 20.0433 36.0908 18.3154 35.431 16.7273C35.6247 16.0919 35.5897 15.4087 35.3322 14.7963C35.1122 15.3238 35.1458 16.2539 34.4002 16.3154C33.3732 16.4813 33.0246 14.7199 33.9864 14.3974C34.745 14.0582 35.4664 14.5969 36.0237 15.0591C36.9389 14.0768 37.7814 12.9622 38.074 11.622C38.7003 9.24551 38.197 6.57263 36.6146 4.67141C36.2716 4.20916 35.6602 4.18866 35.1514 4.05259C35.5447 3.94821 35.9398 3.85315 36.3294 3.73013C37.2912 3.03675 37.0749 1.43563 36.0479 0.923046C35.5297 0.58381 34.9296 0.889495 34.389 0.98642C34.7432 0.745972 35.088 0.378778 35.5521 0.414192C36.0668 0.468813 36.541 0.718526 36.8773 1.112C37.2136 1.50548 37.3864 2.01283 37.3601 2.52976C37.3844 3.2045 36.868 3.69658 36.4915 4.19238C37.5959 5.27711 38.3547 6.66431 38.6723 8.17934C38.9985 9.72267 38.7674 11.3704 38.2306 12.8615C37.8578 13.8904 37.0228 14.6509 36.4766 15.581C36.0572 16.252 36.1821 17.0722 36.0796 17.8177C36.0032 19.294 35.2632 20.6789 34.2511 21.732C33.101 22.8783 31.4682 23.2865 29.9025 23.4636C31.1607 24.4403 32.6462 25.0945 34.1653 25.5475C34.4617 25.5978 34.814 25.7935 35.0973 25.5791C35.7143 25.1821 36.2567 24.5335 37.0526 24.5465C37.8093 24.4533 38.3238 25.1057 38.9072 25.4785C39.6938 25.9948 39.6043 27.0293 39.8559 27.8289C39.9557 28.1144 39.958 28.425 39.8626 28.712C39.7672 28.9989 39.5793 29.2462 39.3284 29.4151C38.6798 29.7491 37.9571 29.9132 37.2278 29.8923C36.5344 29.8271 35.9119 29.4151 35.2073 29.4077C34.4375 29.5307 33.828 30.198 33.0321 30.2092L32.512 30.1588C33.4216 29.8737 34.3629 29.5642 35.0768 28.9007C35.636 28.9846 36.2343 29.1784 36.7804 28.9324C37.5987 28.5596 38.1523 27.814 38.8103 27.2399C38.7171 27.5847 38.6239 27.9277 38.5475 28.2781C38.8755 28.0134 39.3508 27.7916 39.3601 27.307C39.4794 26.8224 39.0433 26.5335 38.745 26.2446C38.8009 26.1495 38.8587 26.0582 38.9184 25.9631C38.4158 25.635 37.9374 25.2712 37.4869 24.8746C36.2958 24.7255 35.5204 25.8531 34.581 26.3825C32.9575 26.9417 31.1458 26.6751 29.5968 26.0097C28.7599 25.6574 28.0945 25.0312 27.3713 24.5055C26.8606 24.0563 26.1318 24.3564 25.6434 24.6919C24.6574 25.4058 24.5102 26.7031 23.9808 27.7208C23.9491 26.7646 24.02 25.7469 24.5903 24.9398C25.0116 24.2669 25.6975 23.8401 26.3517 23.4226C25.7534 22.841 25.1346 22.2353 24.335 21.9445C23.5111 21.6071 22.6201 21.9091 21.7683 21.8494C21.2091 21.8289 20.7133 21.5792 20.2194 21.3629C18.8065 22.3993 17.1178 23.0964 15.3452 23.0852C15.8483 22.8425 16.3662 22.6321 16.896 22.4552L16.7096 22.1104L17.0973 21.9836C17.3825 22.116 17.7012 22.3079 18.0088 22.1141C18.8034 21.6924 19.5335 21.1589 20.1765 20.5298C20.3536 20.3135 20.7208 20.0899 20.5493 19.7693C20.0293 19.0591 19.2576 18.5577 18.8326 17.7711C17.9007 16.3564 17.6192 14.649 17.7143 12.9864C17.2203 12.4627 16.4766 12.116 16.2753 11.3685C15.9025 10.4943 16.1896 9.45986 16.8345 8.79816C17.2707 8.35641 17.8876 8.19238 18.4543 7.98922C18.5608 6.69665 18.9521 5.44369 19.6002 4.32027C20.2483 3.19685 21.137 2.23083 22.2026 1.49155ZM34.279 15.2679C34.1821 15.5698 34.279 15.6742 34.594 15.5773C34.6872 15.266 34.5829 15.1616 34.279 15.2586V15.2679ZM21.0246 20.2446C20.8904 20.4776 20.7562 20.7087 20.6276 20.9454C21.1191 21.1592 21.652 21.2611 22.1877 21.2436C21.8296 20.8749 21.4404 20.5375 21.0246 20.2353V20.2446ZM27.2557 23.2511C28.8345 25.2325 31.4216 26.2558 33.9286 26.0787C33.4254 25.8476 32.9146 25.6332 32.3946 25.4449C30.6108 24.841 29.2017 23.335 27.2557 23.2511ZM39.2241 29.0778C39.636 28.7777 39.636 28.2688 39.6397 27.8103C39.2427 28.1197 39.1439 28.5838 39.2241 29.0778ZM38.2269 28.5093C38.2269 28.882 38.2418 29.2548 38.2604 29.6276C38.4388 29.5041 38.5899 29.3452 38.7044 29.1608C38.8189 28.9765 38.8942 28.7705 38.9258 28.5558L38.2269 28.5093ZM36.9221 29.5642C37.1801 29.5454 37.4371 29.5137 37.6919 29.4692C37.817 29.1911 37.9222 28.9046 38.0069 28.6118C37.5748 28.8316 37.205 29.1565 36.9314 29.5568L36.9221 29.5642Z" fill="#745D51"/>
<path d="M27.6089 7.56805C28.2147 7.51399 28.8745 7.45621 29.4337 7.75444C29.7356 7.88119 29.6443 8.22602 29.635 8.47951C28.9341 8.22974 28.1774 8.06944 27.6089 7.56805Z" fill="#785D48"/>
<path d="M39.2244 29.077C39.1443 28.5906 39.2431 28.1264 39.6401 27.8096C39.6364 28.2606 39.6364 28.7695 39.2244 29.077Z" fill="#FEE2CD"/>
<path d="M36.9312 29.557C37.2063 29.1528 37.5796 28.8251 38.016 28.6045C37.9313 28.8974 37.826 29.1839 37.701 29.4619C37.4461 29.5064 37.1892 29.5381 36.9312 29.557Z" fill="#FEE2CD"/>
<path d="M18.1466 10.0449C18.4156 10.5551 18.5363 11.1304 18.4952 11.7057C18.2928 11.5554 18.1253 11.3631 18.004 11.1421C17.8828 10.9212 17.8106 10.6766 17.7925 10.4252L18.1466 10.0449Z" fill="#725B56"/>
<path d="M26.9239 10.9727C27.2278 11.2243 27.5689 11.4498 27.7944 11.7816C28.0423 12.1861 27.9528 12.6782 27.9118 13.1218C27.8503 13.3082 27.7869 13.4852 27.7254 13.6642L26.7935 13.3958C26.9053 13.2467 27.019 13.0957 27.129 12.9447C27.7534 12.3557 27.2557 11.5691 26.9239 10.9727Z" fill="#FFFEF6"/>
<path d="M36.2963 11.7296L36.7324 11.3438C37.1928 11.7165 37.588 12.1956 37.5134 12.8349C37.094 12.4882 36.6896 12.1154 36.2963 11.7296Z" fill="#6E5541"/>
<path d="M23.3173 12.6744C24.0274 12.488 24.8904 12.4656 25.472 12.9875C26.2175 13.5169 26.115 14.557 25.9939 15.3473C25.6211 16.8049 23.4775 17.2298 22.5195 16.1171C22.2908 15.9098 22.1163 15.6499 22.011 15.3598C21.9058 15.0697 21.873 14.7582 21.9156 14.4526C21.8839 13.6064 22.5959 12.9689 23.3173 12.6744Z" fill="#FFD4C1"/>
<path d="M34.2798 15.2587C34.5837 15.1618 34.688 15.2587 34.5949 15.5681C34.2892 15.6576 34.1829 15.5607 34.2798 15.2587Z" fill="#F7E8E0"/>
<path d="M30.1687 15.5879C30.4129 15.6438 30.6589 15.7035 30.9143 15.7743L30.4017 16.1303C30.316 15.9439 30.2377 15.765 30.1687 15.5879Z" fill="#775D50"/>
<path d="M26.2587 15.8637L26.6948 15.832C27.0452 17.0753 28.1189 17.9998 29.3043 18.4304C30.0499 18.6894 30.7955 18.3856 31.4087 17.9774C31.4087 18.1116 31.3957 18.3838 31.3901 18.5198C30.6613 18.7826 29.8672 19.2039 29.09 18.8684C27.7685 18.3763 26.5644 17.2784 26.2587 15.8637Z" fill="#795E4B"/>
<path d="M33.1557 17.2828C33.6683 16.5559 34.6599 16.7479 35.4241 16.7031C36.0858 18.2912 35.2861 20.0191 34.22 21.2138C33.8659 20.6436 33.4677 20.102 33.0289 19.5941C32.4548 18.951 32.6916 17.9221 33.1557 17.2828Z" fill="#FFD4C0"/>
<path d="M8.73213 20.2949C9.85049 19.7898 11.0825 20.0079 12.2606 19.8867C14.1077 19.6649 15.7908 20.7814 17.0956 21.9688L16.7079 22.0955C15.5616 21.3667 14.4376 20.3807 13.0061 20.3583C11.9654 20.347 10.9248 20.3955 9.88963 20.5037C8.77127 20.6565 7.87472 21.4357 7.24844 22.3229C6.38916 23.5158 5.87286 25.0703 4.45254 25.7414C5.05459 24.9231 5.70324 23.9986 5.67155 22.9455C5.39196 22.0359 4.00706 21.9259 3.40501 22.5727C2.27547 23.6537 1.0229 24.7013 0.389165 26.1701C1.17388 25.9837 1.41433 25.1617 1.92691 24.6323C2.35934 24.1458 2.95766 23.8625 3.53735 23.5978C2.91479 24.4142 1.99774 25.0405 1.67341 26.0564C1.35841 27.0163 1.41246 28.2465 2.23259 28.9436C3.13847 29.7246 4.41899 29.7078 5.54667 29.6798C6.7284 29.6798 7.85608 29.2866 8.97444 28.9436L8.95766 28.1048C10.0909 29.7153 12.0145 30.4459 13.8356 30.9697C16.529 31.7395 19.5224 31.6575 22.0648 30.4105C22.8554 30.0073 23.566 29.4635 24.1618 28.8057C23.4777 28.2092 22.6706 27.6444 22.4339 26.7087C22.9547 27.0613 23.4392 27.4646 23.8803 27.9128C25.09 29.0219 26.6296 29.7115 28.2195 30.0675C28.4636 29.7122 28.7744 29.4077 29.1347 29.171C29.0397 29.4767 28.9353 29.7805 28.8346 30.0862C30.0332 30.459 31.2857 30.2968 32.5047 30.1402L33.0248 30.1906C31.1757 30.9604 29.0639 30.8075 27.1739 30.267C26.3929 30.0694 25.7237 29.5829 24.9465 29.3835C22.1506 31.514 18.4227 32.5112 14.9614 31.7078C13.4497 31.335 11.8915 30.9622 10.5961 30.0601C10.2829 29.8737 9.99028 29.6277 9.62495 29.568C9.03595 29.6482 8.48795 29.9054 7.912 30.0433C6.59538 30.3892 5.22916 30.5065 3.87286 30.39C2.7284 30.2949 1.55599 29.6985 1.06204 28.6193C0.754496 28.0098 0.773135 27.3145 0.791774 26.6528L0.0462011 26.3956C0.0246175 26.1198 0.037768 25.8424 0.0853436 25.5699C1.11237 24.3788 2.09839 23.1207 3.40314 22.2148C3.89895 21.8905 4.53082 21.9408 5.09187 22.0023C5.62309 22.075 5.82439 22.6398 6.08907 23.0275C6.81787 21.9948 7.4982 20.7889 8.73213 20.2949Z" fill="#705E54"/>
<path d="M9.88989 20.5034C10.9251 20.3953 11.9656 20.3467 13.0064 20.358C14.4379 20.3804 15.5618 21.3664 16.7082 22.0952L16.8946 22.4401C16.3648 22.617 15.8468 22.8274 15.3438 23.0701C17.1164 23.0813 18.8051 22.3841 20.2179 21.3478C20.7119 21.564 21.2152 21.8138 21.7669 21.8343C22.6187 21.8939 23.5097 21.592 24.3335 21.9293C25.1331 22.2201 25.752 22.8259 26.3503 23.4074C25.696 23.825 25.0101 24.2518 24.5889 24.9247C24.0185 25.7318 23.9477 26.7495 23.9794 27.7057C23.957 27.7616 23.9104 27.8716 23.8862 27.9275C23.445 27.4793 22.9605 27.0759 22.4398 26.7234C22.669 27.6553 23.4836 28.2145 24.1676 28.8203C23.5719 29.4781 22.8613 30.0219 22.0707 30.4251C19.5283 31.6628 16.5348 31.7448 13.8414 30.9843C12.0204 30.4606 10.0968 29.7299 8.96352 28.1195L8.9803 28.9582C7.86194 29.3012 6.74358 29.6852 5.55252 29.6945C4.42484 29.7224 3.14432 29.7392 2.23845 28.9582C1.41645 28.2611 1.3624 27.0309 1.67927 26.071C2.00173 25.0552 2.91878 24.4289 3.5432 23.6125C2.96352 23.8772 2.3652 24.1605 1.93276 24.647C1.42018 25.1763 1.18719 25.9964 0.39502 26.1847C1.02876 24.7159 2.28132 23.6684 3.41086 22.5873C4.01291 21.9312 5.39782 22.0412 5.67741 22.9601C5.70909 24.0169 5.06044 24.9415 4.45839 25.756C5.88057 25.085 6.39688 23.5305 7.25429 22.3375C7.87125 21.4354 8.77899 20.6563 9.88989 20.5034Z" fill="#DFECF2"/>
<path d="M27.2563 23.251C29.2116 23.3349 30.6114 24.8409 32.3952 25.4448C32.9152 25.6312 33.426 25.8474 33.9292 26.0786C31.4129 26.2556 28.8258 25.2323 27.2563 23.251Z" fill="#FFE1CD"/>
<path d="M34.575 26.3778C35.507 25.8485 36.2898 24.7208 37.4809 24.8699C37.4809 25.0563 37.4809 25.2427 37.4921 25.4291L38.1407 25.828C37.4622 26.2474 36.836 26.8084 36.0717 27.0433C35.5368 27.0731 35.0223 26.8904 34.5098 26.7711C34.5247 26.6705 34.5582 26.4673 34.575 26.3778Z" fill="#FEFDF9"/>
<path d="M38.2275 28.501L38.9265 28.542C38.8949 28.7567 38.8195 28.9626 38.7051 29.1469C38.5906 29.3313 38.4395 29.4902 38.2611 29.6137C38.2424 29.2428 38.235 28.8719 38.2275 28.501Z" fill="#FFDFD0"/>
</g>
<defs>
<clipPath id="clip0_4932_88105">
<rect width="39.8826" height="32" fill="white" transform="translate(0.0424805)"/>
</clipPath>
</defs>
</svg>
