<svg width="29" height="32" viewBox="0 0 29 32" fill="none" xmlns="http://www.w3.org/2000/svg">
<g clip-path="url(#clip0_4932_88157)">
<path d="M15.6268 0.0864261C15.8653 -0.00596042 16.126 0.0193714 16.3719 0C16.4255 0.257788 16.4717 0.518556 16.509 0.779325C16.4106 0.874691 16.3138 0.970058 16.2199 1.06542C16.2765 0.767404 16.4777 0.375506 16.1216 0.186263C15.451 0.305471 15.2185 1.02966 15.3005 1.62719C15.4167 2.25304 15.6507 2.93104 16.2184 3.28717C16.6654 3.57327 17.1706 3.78189 17.6221 4.07693C16.6148 4.48969 15.5196 3.77891 15.1545 2.82822C15.057 2.42272 14.9809 2.01238 14.9265 1.59888C14.6538 1.96247 14.3737 2.36182 13.9326 2.53318C12.6436 3.07856 11.2623 3.43618 10.0717 4.19315C9.41608 4.62081 8.77683 5.16172 8.49371 5.91572C8.08095 7.01541 8.17632 8.21048 8.148 9.36382C8.12714 11.2011 7.11834 12.8745 7.1541 14.7193C7.1969 15.4594 7.46115 16.1696 7.91257 16.7577C8.49073 17.5028 9.29389 18.0362 10.1045 18.5041C11.4739 19.3386 13.0847 19.5815 14.618 19.9719C14.2694 20.1447 13.9192 20.3206 13.575 20.5113C14.1516 21.0641 14.9578 21.532 15.7818 21.2563C16.2288 21.1625 16.3168 20.6424 16.4866 20.2863C16.3376 20.1045 16.2005 19.9272 16.0694 19.7394C16.9635 19.6873 17.8694 19.6083 18.689 19.2268C19.6771 18.7789 20.5983 18.1962 21.4263 17.4953C22.1565 16.8784 22.5394 15.9352 22.5931 14.9934C22.6974 13.4765 22.4441 11.9387 22.7659 10.4367C23.0058 9.22375 23.35 7.94226 22.903 6.7308C22.5975 5.7831 21.9032 5.02165 21.1149 4.44051C20.1874 3.75995 19.1718 3.20854 18.0959 2.8014C17.862 2.70901 17.6266 2.62258 17.3867 2.55106C17.3022 2.34543 17.2173 2.14128 17.1318 1.93863C18.0259 2.88037 19.4415 2.79395 20.4727 3.50026C21.6782 4.34962 22.9269 5.35544 23.3679 6.82766C24.0355 8.96894 23.4111 11.2115 23.3188 13.3841C23.7658 13.6017 24.4304 13.5048 24.6599 14.0472C25.0175 14.9413 24.6196 16.1602 23.6883 16.5178C23.3679 16.6042 23.0341 16.558 22.7093 16.5625C22.1216 17.7102 21.1816 18.6392 20.0271 19.2134C19.3931 19.4944 18.7278 19.6985 18.0453 19.8214C18.4959 20.088 18.9192 20.3985 19.3089 20.7482C20.2879 21.6929 20.7155 23.0773 21.775 23.9519C22.9 24.8803 24.268 25.4316 25.4854 26.2229L25.4049 26.734C26.1723 26.6803 27.0246 26.6431 27.6669 27.1452C27.8984 27.3009 28.0858 27.5137 28.2111 27.763C28.3364 28.0123 28.3953 28.2896 28.3821 28.5683C28.4268 28.9885 28.0171 29.2299 27.7593 29.4907C27.5536 29.7261 27.2228 29.665 26.9472 29.7052C26.7177 29.9869 26.4137 30.2894 26.0188 30.1299C25.5241 29.811 25.3185 28.9766 24.6077 29.0868C23.8165 29.2731 23.1176 29.896 22.2578 29.7082C22.2321 29.4842 22.2531 29.2574 22.3195 29.0419C22.386 28.8265 22.4964 28.6271 22.6437 28.4565C22.046 28.33 21.4852 28.068 21.0046 27.6906C20.1106 27.0037 19.2448 26.2422 18.6681 25.2632C18.5549 25.1306 18.5087 24.8848 18.2971 24.8997C18.0408 25.4793 17.8158 26.0917 17.3852 26.5701C16.9381 27.1005 16.3615 27.479 15.7595 27.8024C16.0396 28.0825 16.4106 28.3492 16.4538 28.7754C16.5057 29.3392 16.5137 29.9061 16.4777 30.4712C16.4565 30.6032 16.3948 30.7253 16.3011 30.8206C16.2074 30.916 16.0863 30.9797 15.9547 31.0031C15.3154 30.9212 15.2096 30.1985 14.9503 29.7321C14.9131 30.4086 15.1724 31.2147 14.6791 31.781C14.25 31.9613 13.9043 31.6319 13.648 31.3339C13.499 31.5679 13.4528 31.9911 13.1011 31.9791C12.7494 32.073 12.5557 31.7139 12.3412 31.5112C12.1248 31.4841 11.915 31.419 11.7213 31.319C11.4665 31.0091 11.3756 30.5963 11.2266 30.2193C10.5277 30.0003 10.4606 29.1882 10.0509 28.6815C9.78712 28.2196 9.20598 28.1958 8.75746 28.0333C8.13012 27.8843 7.58474 27.5401 7.0036 27.2883C5.68784 27.561 4.29012 27.7994 2.96989 27.406C2.70752 27.3291 2.46765 27.1898 2.27072 27.0002C2.07379 26.8105 1.92564 26.576 1.8389 26.3167C1.70628 25.8861 1.25627 25.7043 1.01189 25.3556C0.932333 25.0639 0.921885 24.7577 0.981378 24.4613C1.04087 24.1648 1.16867 23.8864 1.35462 23.648C1.80165 23.0355 2.48412 22.6541 3.16658 22.3546C3.60318 22.1653 4.09343 22.0029 4.57324 22.1191C4.89063 22.2175 5.08435 22.5095 5.30339 22.7405C5.91285 22.0804 6.66237 21.3994 7.61455 21.3875C8.41771 21.456 9.27452 21.6408 10.0449 21.307C10.3429 21.0626 10.5664 20.7393 10.866 20.4949C11.2653 20.1492 11.7943 20.0345 12.2726 19.8422C10.8317 19.4146 9.28048 18.9869 8.23741 17.8306C7.31205 16.7518 6.88141 15.3257 6.76668 13.9295C6.4016 13.7805 5.94712 13.7015 5.76384 13.3096C5.42856 12.6838 5.38833 11.7793 5.96351 11.2786C6.32263 10.9135 6.87396 10.9806 7.34186 10.9612C7.54588 9.94265 7.67734 8.91089 7.73524 7.87371C7.8023 7.18678 7.847 6.47749 8.1331 5.83972C8.44602 5.11404 9.05846 4.57015 9.70963 4.15143C10.7661 3.48088 11.9582 3.07409 13.1294 2.66133C13.6495 2.46761 14.2202 2.24112 14.5107 1.73448C14.7015 1.46179 14.3856 1.24573 14.2649 1.03115L14.3304 0.922375C14.5331 1.00582 14.7343 1.09225 14.9369 1.17867C15.1008 0.777835 15.2126 0.298021 15.6268 0.0864261ZM6.47462 11.3248C5.49711 11.7003 5.55522 13.621 6.75625 13.5272C6.65492 13.1919 6.49399 12.8745 6.44183 12.5258C6.7175 12.2278 7.0036 11.9506 7.17198 11.5796C6.95294 11.4738 6.74581 11.1475 6.47462 11.3248ZM23.3605 14.2812C23.2696 14.6567 23.6585 14.8906 23.8075 15.1931C23.578 15.3421 23.3426 15.4688 23.1057 15.5984C23.1772 15.8547 23.3635 16.1512 23.6794 16.0231C24.3574 15.7146 24.5734 14.7714 24.3141 14.1143C24.0996 13.6956 23.4976 13.9086 23.3605 14.2812ZM17.2689 20.0821L17.2928 20.5098C17.2183 20.857 17.3449 21.3666 16.9769 21.5693C17.0186 21.3368 17.0588 21.1029 17.0946 20.8704C16.7042 21.2876 16.3302 21.8792 15.673 21.8181C14.5927 21.8718 13.8298 21.0462 13.119 20.3668L12.97 20.4189C12.1653 20.0166 11.2027 20.5351 10.6991 21.1923C9.25366 22.6988 8.40728 25.0665 9.26111 27.0797C9.67685 27.941 10.3608 28.6353 10.8436 29.4638C11.0969 28.9855 11.3607 28.467 11.8599 28.2017C12.371 27.859 13.0072 27.8501 13.6003 27.8858C12.8552 28.1257 11.9806 28.3776 11.6036 29.1286C11.4456 29.8379 11.5514 30.7066 12.0968 31.2341C12.2649 30.9977 12.4144 30.7486 12.5438 30.489C12.6422 30.9644 12.6928 31.5053 13.1399 31.7899C13.4006 31.1342 13.2203 30.4369 13.1875 29.7604L13.4409 29.7335C13.7657 30.3087 13.7955 31.0583 14.3215 31.5098L14.5718 31.3876C14.7015 30.6529 14.545 29.9094 14.5331 29.1703C14.7656 29.2552 15.0785 29.2433 15.223 29.4817C15.4734 29.9019 15.603 30.3966 15.9562 30.7513C16.1052 30.4533 16.2989 30.1553 16.2274 29.8125C16.123 29.1822 15.5851 28.7784 15.1843 28.3224C15.5106 28.3969 15.8369 28.4878 16.1663 28.5608C15.9606 28.3656 15.8057 28.0453 15.4868 28.0393C14.9608 27.9991 14.4348 27.9708 13.9132 27.8903C13.4662 27.5118 13.0013 27.1557 12.6645 26.6744C12.441 26.3927 12.2711 26.0575 11.9791 25.8399C11.5752 25.7594 11.164 25.825 10.7602 25.8399C11.0582 25.6581 11.3696 25.4793 11.6706 25.2915C11.2549 25.3228 10.8406 25.3661 10.4264 25.3854C10.9121 24.9548 11.5708 25.0174 12.1638 24.8952C12.5557 24.4556 12.7182 23.8745 12.9417 23.3425C12.9748 24.0864 12.7849 24.8232 12.3963 25.4584C12.8329 26.2542 13.3455 27.1393 14.2351 27.485C14.737 27.511 15.2388 27.4295 15.7067 27.246C16.1746 27.0625 16.598 26.7813 16.9486 26.421C17.8575 25.5687 18.1764 24.3349 18.6279 23.2203C18.5879 23.6045 18.583 23.9915 18.613 24.3766C18.8797 24.9727 19.3446 25.4659 19.7619 25.9666C20.4309 26.7563 21.2252 27.476 22.1952 27.8709C22.4932 27.9708 22.8926 28.1153 23.1668 27.8709C23.6347 27.4686 24.0429 26.9903 24.5868 26.6788L25.1918 26.652C25.0537 26.4889 24.9006 26.3393 24.7344 26.205C23.6034 25.4599 22.3427 24.8758 21.3339 23.9519C20.3251 23.0281 19.9094 21.6423 18.841 20.7855C18.3832 20.4246 17.8431 20.1829 17.2689 20.0821ZM6.34498 22.3695C5.50307 22.8925 5.27657 24.0086 4.48086 24.5942C4.58108 24.1349 4.76603 23.6983 5.02623 23.3067C5.0471 22.8031 4.78633 22.21 4.19774 22.2637C3.27834 22.432 2.31126 22.8597 1.76887 23.6509C1.29799 24.1308 1.25925 24.9533 1.60644 25.527C1.82698 25.1083 1.99536 24.6597 2.28593 24.2887C2.5237 24.0024 2.82192 23.7723 3.15916 23.6149C3.4964 23.4574 3.86431 23.3766 4.23648 23.3783C3.73133 24.0622 2.70167 24.1367 2.32914 24.9399C1.97152 25.6015 2.13096 26.6088 2.89687 26.8979C4.05618 27.3315 5.3332 27.1497 6.52379 26.95C6.40557 26.7454 6.28736 26.5427 6.16914 26.3421C7.01615 27.0097 8.01921 27.4508 9.08379 27.6236C8.74255 26.7414 8.50414 25.7997 8.60696 24.8475C8.64421 23.9043 9.08379 23.0594 9.42353 22.2011H9.55764C9.61327 22.0511 9.67139 21.9021 9.73198 21.754C9.07038 21.8107 8.41473 21.7168 7.7576 21.6915C7.20328 21.6825 6.7175 21.9835 6.34498 22.3695ZM24.4617 27.3226C24.0146 27.3553 23.815 27.8277 23.5676 28.1287C23.2696 28.5966 22.7913 28.8738 22.3532 29.1718C22.5335 29.2627 22.7078 29.522 22.9403 29.4147C23.5855 29.1599 24.1771 28.6085 24.9161 28.7098C25.5807 28.762 25.7879 29.4936 26.2572 29.8587C26.6149 29.7589 26.67 29.3327 26.5821 29.0258C26.4942 28.5713 26.1172 28.2807 25.837 27.9365C26.5746 28.0468 26.8339 28.7799 27.0843 29.3789L27.4717 29.446C27.5507 29.0943 27.6535 28.7173 27.4881 28.3731C27.4285 28.1123 27.1796 27.8113 27.4106 27.5669C27.6967 27.9737 27.8502 28.4476 28.0334 28.908C28.4492 27.8933 27.2988 26.7906 26.2856 27.0886C25.6657 27.1393 25.0681 27.2689 24.4617 27.3226Z" fill="#765C4F"/>
<path d="M18.677 8.81445H19.2239C19.2105 8.97687 19.1985 9.14079 19.1881 9.3047L18.7187 9.28682C18.7023 9.12588 18.6889 8.97091 18.677 8.81445Z" fill="#765C4F"/>
<path d="M13.4268 12.3049C13.5963 12.2723 13.764 12.2305 13.9289 12.1797C13.9453 12.3063 13.9766 12.5612 13.9915 12.6878C13.7576 12.6982 13.5251 12.7221 13.2957 12.7534C13.3359 12.6029 13.3791 12.4539 13.4268 12.3049Z" fill="#765C4F"/>
<path d="M13.3959 18.2479C13.7401 17.9142 14.3078 17.5714 14.7042 18.0349C14.2721 18.1288 13.8354 18.1999 13.3959 18.2479Z" fill="#765C4F"/>
<path d="M13.9327 2.53344C14.3798 2.36059 14.6539 1.96124 14.9326 1.59766C14.9868 2.01265 15.0629 2.42449 15.1606 2.83146C14.3291 3.58844 13.1877 3.76874 12.2027 4.23961C11.4308 4.57892 10.6954 4.99581 10.0078 5.48385C9.26275 6.0486 9.00794 7.01121 8.85297 7.88888C8.63243 9.34024 8.58326 10.811 8.44021 12.2698C8.40892 12.4829 8.37166 12.696 8.3359 12.909C7.86801 14.1488 8.08109 15.478 7.91271 16.7625C7.46129 16.1743 7.19704 15.4641 7.15425 14.724C7.11849 12.8792 8.12729 11.2059 8.14815 9.36855C8.17646 8.21521 8.08109 7.02015 8.49385 5.92045C8.77697 5.16646 9.41623 4.62555 10.0719 4.19789C11.2625 3.43794 12.6438 3.08031 13.9327 2.53344Z" fill="#FEFEFA"/>
<path d="M18.072 11.5276C18.4267 11.4129 18.5727 11.6603 18.6681 11.9657L18.0959 12.0939L18.072 11.5276Z" fill="#FEFEFA"/>
<path d="M13.1184 20.3672C13.8292 21.0467 14.5921 21.8722 15.6724 21.8186C16.3296 21.8796 16.7036 21.2881 17.094 20.8708C17.0582 21.1033 17.018 21.3372 16.9763 21.5697C16.5538 21.8489 16.0609 22.0029 15.5546 22.0137C15.0483 22.0245 14.5493 21.8917 14.1153 21.6308C13.6489 21.3372 13.3538 20.8515 13.1184 20.3672Z" fill="#FEFEFA"/>
<path d="M15.3062 1.62695C15.409 1.72977 15.5192 1.83408 15.628 1.93689C16.2926 1.85494 16.7456 2.49717 17.3923 2.56125C17.6322 2.63277 17.8676 2.7192 18.1016 2.81159C17.9526 2.86374 17.7931 2.91738 17.6426 2.97103C18.7498 3.56707 19.8271 4.34192 21.1205 4.44623C21.9088 5.02737 22.6032 5.78733 22.9087 6.73652C23.3557 7.94798 23.0115 9.22947 22.7716 10.4424C22.4542 11.9444 22.703 13.4822 22.5987 14.9992C22.5451 15.9409 22.1621 16.8841 21.432 17.501C20.6039 18.2019 19.6827 18.7846 18.6947 19.2325C17.8751 19.614 16.9646 19.693 16.075 19.7451C16.2062 19.9329 16.3492 20.1102 16.4923 20.292C16.3224 20.6481 16.2419 21.1682 15.7875 21.2621C14.9634 21.5333 14.1573 21.0654 13.5806 20.517C13.9189 20.3263 14.269 20.1504 14.6237 19.9776C13.0933 19.5872 11.4796 19.3443 10.1102 18.5098C9.29954 18.0419 8.49637 17.513 7.91821 16.7634C8.08659 15.479 7.87351 14.1498 8.3414 12.91C8.28478 13.4778 8.19239 14.0649 8.32948 14.6281C8.53065 15.0543 9.05367 15.1675 9.47537 15.2569C10.1727 15.4432 10.6809 14.8099 11.3127 14.6609C12.6672 15.4372 14.3421 15.8738 15.8635 15.3419C16.5012 15.1049 17.1658 14.9649 17.817 14.7667C18.191 15.2838 18.6961 15.8575 19.401 15.7993C20.4992 15.8396 21.5199 14.6073 21.0401 13.5538C20.8911 13.0277 20.3427 12.8415 19.8823 12.6761L20.5618 12.6299L20.4485 12.4585C19.9523 11.782 19.6334 10.73 18.6529 10.651C17.7589 10.6287 17.3312 11.5972 16.68 12.0592C16.6696 12.1098 16.6502 12.2082 16.6398 12.2618L16.9661 12.2901C17.2135 11.9385 17.4623 11.5883 17.7291 11.2471C17.7574 11.633 17.7812 12.0219 17.8065 12.4094C18.1314 12.4094 18.4592 12.4094 18.787 12.4243C18.1552 12.8549 17.8796 13.5746 17.5577 14.2332C16.8961 14.4135 16.5072 15.0841 15.8247 15.2078C15.019 15.4125 14.1782 15.438 13.3616 15.2823C12.5748 15.1124 11.9415 14.567 11.4155 13.9859C11.2873 13.5239 11.3157 13.0173 11.0877 12.5882C10.8202 12.2881 10.467 12.0774 10.0759 11.9847C9.5171 11.8252 8.96427 12.0905 8.44869 12.2738C8.5977 10.8149 8.64091 9.34421 8.86145 7.89284C9.01046 7.01517 9.27123 6.05256 10.0163 5.48781C10.7039 4.99978 11.4393 4.58289 12.2112 4.24358C13.1872 3.76525 14.3286 3.58495 15.1601 2.83096C15.5252 3.78015 16.6204 4.49242 17.6277 4.07967C17.1807 3.78164 16.6785 3.57601 16.2241 3.28991C15.6563 2.93079 15.4224 2.2528 15.3062 1.62695ZM10.5423 8.64237C10.8671 8.80236 11.2233 8.88837 11.5854 8.89419C11.5854 8.69899 11.5764 8.50379 11.5734 8.31007C11.2188 8.38335 10.873 8.49476 10.5423 8.64237ZM18.6768 8.81373C18.6887 8.97019 18.7021 9.12516 18.7185 9.28162L19.1879 9.2995C19.1983 9.13559 19.2102 8.97168 19.2236 8.80926L18.6768 8.81373ZM9.4113 11.481C9.73732 11.2759 10.0405 11.0367 10.3158 10.7673C10.3158 11.0365 10.3203 11.3062 10.3292 11.5764C10.7762 11.703 11.2233 11.8476 11.6703 11.9936C11.7791 11.779 11.8849 11.5645 11.9862 11.3469C12.1356 11.5632 12.2968 11.7712 12.469 11.9698C12.399 11.2933 12.3632 10.435 11.7031 10.0505C10.7569 9.61838 9.40683 10.4111 9.4113 11.481ZM13.0486 12.1352C13.7162 11.8252 14.5 11.5972 15.2167 11.8833C15.5297 12.1233 15.7204 12.4794 15.9856 12.767C16.4625 12.2618 15.8992 11.5645 15.3494 11.4438C14.5611 11.2471 13.4614 11.3082 13.0486 12.1352ZM13.4271 12.305C13.3794 12.4541 13.3362 12.6031 13.296 12.7521C13.5255 12.7208 13.7579 12.6969 13.9919 12.6865C13.977 12.5599 13.9457 12.305 13.9293 12.1784C13.7643 12.2297 13.5967 12.272 13.4271 12.305ZM14.7682 12.4541C14.7787 12.5673 14.7965 12.7953 14.807 12.9011H15.2361C15.2451 12.7849 15.2644 12.5494 15.2734 12.4332L14.7682 12.4541ZM13.3988 18.2431C13.8374 18.195 14.2731 18.1239 14.7041 18.03C14.3078 17.5711 13.7401 17.9138 13.3958 18.2476L13.3988 18.2431Z" fill="#FFE1CC"/>
<path d="M17.6418 2.97096C17.7909 2.91732 17.9399 2.86368 18.1008 2.81152C19.1767 3.21866 20.1923 3.77008 21.1197 4.45064C19.8263 4.34186 18.749 3.56552 17.6418 2.97096Z" fill="#FFF6EF"/>
<path d="M10.5421 8.64284C10.8709 8.49564 11.2147 8.38424 11.5673 8.31055C11.5673 8.50426 11.5673 8.69946 11.5792 8.89467C11.2192 8.88797 10.8651 8.80198 10.5421 8.64284Z" fill="#795E49"/>
<path d="M9.41089 11.4813C9.41089 10.4114 10.752 9.6187 11.7086 10.0508C12.3687 10.4353 12.4045 11.2936 12.4745 11.9701C12.3023 11.7715 12.1411 11.5635 11.9917 11.3472C11.8904 11.5648 11.7846 11.7793 11.6758 11.9939C11.2288 11.8449 10.7818 11.7034 10.3348 11.5767C10.3248 11.3065 10.3203 11.0368 10.3213 10.7676C10.0442 11.0373 9.73898 11.2766 9.41089 11.4813ZM10.4942 10.848C10.5449 11.0984 10.5523 11.4441 10.9114 11.3308C11.2631 11.3308 10.9904 10.8838 10.9561 10.6931L10.4942 10.848Z" fill="#775D4F"/>
<path d="M10.4949 10.8482L10.9568 10.6992C10.9911 10.878 11.2638 11.3251 10.9121 11.3251C10.553 11.4428 10.5455 11.0986 10.4949 10.8482Z" fill="#F0E3DB"/>
<path d="M16.6713 12.0472C17.3225 11.5853 17.7457 10.6167 18.6442 10.6391C19.6247 10.718 19.9436 11.77 20.4398 12.4465C19.8855 12.4704 19.3297 12.4465 18.7783 12.4167C18.4505 12.4048 18.1227 12.4033 17.7979 12.4018C17.7725 12.0144 17.7487 11.6255 17.7204 11.2396C17.4536 11.5763 17.2048 11.9265 16.9574 12.2826L16.6311 12.2543C16.6415 12.1992 16.6609 12.0979 16.6713 12.0472ZM18.072 11.5272L18.0899 12.0934L18.6621 11.9652C18.5727 11.6598 18.4267 11.4124 18.072 11.5272ZM19.4385 11.4169C19.428 11.6628 19.4236 11.9071 19.4206 12.153L19.6784 12.1083C19.5994 11.8773 19.5219 11.6464 19.4385 11.4169Z" fill="#775E52"/>
<path d="M6.47403 11.3246C6.74523 11.1488 6.95235 11.4737 7.17438 11.5809C7.006 11.952 6.7199 12.2366 6.44423 12.5272C6.49638 12.8758 6.65731 13.1932 6.75864 13.5285C5.55464 13.6209 5.49652 11.7001 6.47403 11.3246Z" fill="#FFFCF8"/>
<path d="M13.0483 12.1354C13.4536 11.3084 14.5608 11.2414 15.3491 11.444C15.8989 11.5647 16.4622 12.2621 15.9853 12.7672C15.7201 12.4811 15.5294 12.1235 15.2164 11.8836C14.5042 11.5975 13.7159 11.8255 13.0483 12.1354Z" fill="#7C5F4E"/>
<path d="M19.4387 11.417C19.5221 11.6465 19.5996 11.8774 19.6786 12.1084L19.4208 12.1531C19.4223 11.9072 19.4223 11.6629 19.4387 11.417Z" fill="#FEE2CD"/>
<path d="M13.5955 27.8799L13.9085 27.8948C14.43 27.9723 14.9515 28.0006 15.482 28.0438C15.8009 28.0438 15.9559 28.3701 16.1615 28.5653C15.8322 28.4923 15.5059 28.4014 15.1795 28.3269C15.5759 28.7739 16.1138 29.1807 16.2226 29.817C16.2941 30.1583 16.0944 30.4637 15.9514 30.7558C15.5982 30.4011 15.4686 29.9064 15.2183 29.4862C15.0693 29.2478 14.7608 29.2597 14.5283 29.1748C14.5403 29.9198 14.6967 30.6649 14.5671 31.3921L14.3167 31.5142C13.7907 31.0672 13.7609 30.3132 13.4361 29.738L13.1828 29.7649C13.2156 30.4414 13.3959 31.1387 13.1351 31.7944C12.6881 31.5098 12.6404 30.9689 12.5391 30.4935C12.4096 30.7531 12.2602 31.0022 12.092 31.2386C11.5466 30.7111 11.4408 29.8423 11.5988 29.1331C11.9713 28.3716 12.855 28.1198 13.5955 27.8799Z" fill="#FEE2CD"/>
<path d="M8.43956 12.2662C8.95513 12.0829 9.50796 11.8191 10.0668 11.9771C10.4574 12.0701 10.81 12.2807 11.077 12.5806C11.305 13.0097 11.2767 13.5164 11.4049 13.9783C11.2871 14.0469 11.1724 14.1154 11.0592 14.1854C11.1381 14.3344 11.2216 14.4939 11.305 14.6489C10.6732 14.8098 10.1651 15.4386 9.46773 15.2449C9.04603 15.1555 8.523 15.0422 8.32184 14.6161C8.18326 14.0528 8.27714 13.4657 8.33376 12.898C8.37101 12.6924 8.40827 12.4793 8.43956 12.2662Z" fill="#FFD5BF"/>
<path d="M20.439 12.4463L20.5523 12.6176L19.8683 12.6653C20.3288 12.8307 20.8712 13.017 21.0261 13.543C21.5089 14.598 20.4882 15.8288 19.387 15.7886C18.6822 15.8467 18.177 15.273 17.803 14.7559C17.7092 14.5816 17.6227 14.4043 17.5408 14.227C17.8626 13.5683 18.1368 12.8486 18.7701 12.418C19.3289 12.4433 19.8847 12.4701 20.439 12.4463Z" fill="#FFD5BF"/>
<path d="M14.7659 12.4583L15.271 12.4434C15.2621 12.5596 15.2427 12.795 15.2338 12.9113H14.8031C14.7942 12.7995 14.7763 12.5715 14.7659 12.4583Z" fill="#967A66"/>
<path d="M23.3604 14.2813C23.4975 13.9088 24.1054 13.6957 24.3155 14.1144C24.5808 14.7715 24.3587 15.7148 23.6807 16.0232C23.3648 16.1514 23.1786 15.8548 23.1071 15.5985C23.344 15.4689 23.5794 15.3348 23.8089 15.1932C23.6569 14.8907 23.2695 14.6568 23.3604 14.2813Z" fill="#FFE9D6"/>
<path d="M11.0609 14.1856C11.1742 14.1156 11.2889 14.0471 11.4066 13.9785C11.9326 14.5597 12.5659 15.105 13.3527 15.2749C14.1694 15.4301 15.0102 15.4042 15.8158 15.1989C16.4983 15.0752 16.8872 14.4047 17.5488 14.2244C17.6308 14.4017 17.7172 14.579 17.8111 14.7534C17.1599 14.9516 16.4953 15.0916 15.8576 15.3286C14.3362 15.8605 12.6613 15.4239 11.3068 14.6476C11.2263 14.4941 11.1399 14.3406 11.0609 14.1856Z" fill="#765947"/>
<path d="M17.2683 20.082C17.8416 20.1857 18.3802 20.4299 18.8359 20.7928C19.9043 21.6496 20.326 23.0444 21.3288 23.9593C22.3317 24.8742 23.5983 25.4613 24.7293 26.2123C24.8955 26.3466 25.0486 26.4963 25.1867 26.6594L24.5817 26.6862C23.5491 26.2391 22.6759 25.5164 21.7759 24.8593C21.0205 24.3283 20.3861 23.6432 19.9147 22.8492C19.2806 21.8364 18.3708 21.0254 17.2922 20.5112L17.2683 20.082Z" fill="#FFFCF2"/>
<path d="M10.6946 21.1921C11.1982 20.535 12.1608 20.0164 12.9655 20.4187C12.2115 20.6855 11.4396 20.9015 10.6946 21.1921Z" fill="#FFFAEF"/>
<path d="M12.9658 20.4145L13.1148 20.3623C13.3503 20.8466 13.6453 21.3324 14.1117 21.6259C14.5457 21.8869 15.0447 22.0196 15.551 22.0088C16.0573 21.998 16.5502 21.8441 16.9727 21.5648C17.3408 21.3622 17.2141 20.8526 17.2886 20.5054C18.3673 21.0195 19.277 21.8305 19.9112 22.8433C20.3826 23.6373 21.0169 24.3224 21.7723 24.8535C22.6664 25.5106 23.5456 26.2363 24.5782 26.6804C24.0343 26.9903 23.626 27.4686 23.1581 27.8724C22.8839 28.1213 22.4906 27.9767 22.1866 27.8724C21.2165 27.4776 20.4223 26.7578 19.7532 25.9681C19.336 25.4674 18.8711 24.9816 18.6044 24.3781C18.5743 23.993 18.5793 23.606 18.6193 23.2218C18.1722 24.3364 17.8489 25.5702 16.9399 26.4226C16.5894 26.7828 16.166 27.064 15.6981 27.2475C15.2301 27.431 14.7284 27.5125 14.2264 27.4865C13.3324 27.1408 12.8242 26.2557 12.3876 25.46C12.7763 24.8248 12.9662 24.0879 12.933 23.344C12.7095 23.876 12.5471 24.4571 12.1552 24.8967C11.5591 25.0189 10.9035 24.9563 10.4177 25.3869C10.832 25.3676 11.2462 25.3244 11.662 25.2931C11.3639 25.4808 11.0555 25.6596 10.7515 25.8414C11.1553 25.822 11.5666 25.7565 11.9704 25.8414C12.2684 26.059 12.4323 26.3943 12.6559 26.6759C12.9926 27.1572 13.4635 27.5133 13.9046 27.8918L13.5917 27.8769C12.9956 27.8411 12.3623 27.8501 11.8512 28.1928C11.352 28.458 11.0883 28.9766 10.835 29.4549C10.3522 28.6324 9.66821 27.938 9.25247 27.0708C8.39864 25.0561 9.24502 22.6898 10.6904 21.1834C11.4399 20.9017 12.2118 20.6857 12.9658 20.4145Z" fill="#F7B6A4"/>
<path d="M6.34553 22.3691C7.36499 22.2101 8.39788 22.1542 9.42856 22.2022C9.08881 23.0605 8.64923 23.9054 8.61198 24.8486C8.50916 25.8008 8.74758 26.7426 9.08881 27.6247C8.02423 27.4519 7.02118 27.0109 6.17417 26.3432C6.29338 26.5419 6.41159 26.7445 6.52881 26.9512C5.33673 27.1509 4.0612 27.3326 2.9019 26.899C2.13598 26.6099 1.97654 25.6026 2.33417 24.941C2.70669 24.1379 3.73636 24.0634 4.2415 23.3794C3.8687 23.3769 3.49999 23.4572 3.16193 23.6144C2.82388 23.7715 2.52488 24.0017 2.28649 24.2884C1.98846 24.6579 1.82306 25.1064 1.60253 25.5192C1.25533 24.9455 1.29408 24.123 1.76495 23.6431C2.38334 23.3451 2.9764 22.9741 3.63801 22.7685C4.17445 22.5569 4.60807 23.0411 5.02232 23.3049C4.76212 23.6964 4.57717 24.133 4.47694 24.5923C5.27713 24.0082 5.50362 22.8921 6.34553 22.3691Z" fill="#F7B6A4"/>
<path d="M6.34448 22.3698C6.71701 21.9839 7.20576 21.6829 7.76157 21.6978C8.41871 21.7231 9.07435 21.817 9.73596 21.7604C9.67536 21.9084 9.61725 22.0574 9.56162 22.2074H9.42751C8.39699 22.1579 7.3641 22.2123 6.34448 22.3698Z" fill="#FBFEED"/>
<path d="M1.76831 23.6449C2.31071 22.8492 3.27779 22.426 4.19718 22.2576C4.79322 22.2099 5.04654 22.803 5.02568 23.3007C4.61143 23.0369 4.17781 22.5556 3.64137 22.7642C2.97977 22.9758 2.3867 23.3424 1.76831 23.6449Z" fill="#FFF6F4"/>
<path d="M24.4615 27.3222C25.068 27.2656 25.6655 27.139 26.2735 27.0928C26.0857 27.2105 25.9054 27.3371 25.7266 27.4638C26.2741 27.592 26.8389 27.6292 27.3985 27.5741C27.1675 27.8185 27.4164 28.1195 27.476 28.3802C27.6414 28.7244 27.5386 29.1014 27.4596 29.4531L27.0721 29.386C26.8218 28.79 26.5625 28.0539 25.8249 27.9436C26.1021 28.2819 26.4791 28.5784 26.57 29.0329C26.6579 29.3398 26.6028 29.766 26.2451 29.8659C25.7832 29.5008 25.5761 28.7691 24.904 28.717C24.159 28.6157 23.5734 29.164 22.9282 29.4218C22.6957 29.5291 22.5214 29.2728 22.3411 29.1789C22.7792 28.8705 23.2649 28.5963 23.5555 28.1358C23.8148 27.8274 24.0145 27.355 24.4615 27.3222Z" fill="#FDE2CD"/>
<path d="M26.2766 27.0935C27.2899 26.7954 28.4402 27.8981 28.0245 28.9129C27.8412 28.4554 27.6877 27.9816 27.4016 27.5718C26.8421 27.6269 26.2772 27.5897 25.7297 27.4615C25.9056 27.3378 26.0859 27.2112 26.2766 27.0935Z" fill="#FFFCF4"/>
</g>
<defs>
<clipPath id="clip0_4932_88157">
<rect width="27.4462" height="32" fill="white" transform="translate(0.94458)"/>
</clipPath>
</defs>
</svg>
