<svg width="62" height="32" viewBox="0 0 62 32" fill="none" xmlns="http://www.w3.org/2000/svg">
<g clip-path="url(#clip0_4932_88132)">
<path d="M9.66089 18.7207C10.2018 18.9208 11.0132 19.4104 10.3722 19.9972C9.49591 20.2434 9.76366 19.2697 9.66089 18.7207Z" fill="#765C4F"/>
<path d="M36.4409 1.21164C36.9196 0.462483 37.8851 0.795141 38.6045 0.830299C37.9906 1.37121 37.3577 1.88777 36.7762 2.45302C37.5146 2.06053 38.2998 1.76336 39.113 1.56864C38.6694 2.0825 38.2015 2.57472 37.7607 3.08047C38.6613 2.49899 39.5835 1.85261 40.7113 1.87695C40.1894 2.72888 39.3293 3.25085 38.5477 3.8134C39.3591 3.58892 40.1867 3.34281 41.017 3.15349C40.6978 3.74849 40.3057 4.31644 40.1163 4.97093C40.2191 5.84991 40.7708 6.59365 41.1468 7.36985C40.898 8.09467 40.6059 8.83571 40.6681 9.62002C40.7519 11.1941 40.3381 12.8492 39.2888 14.0527C38.856 14.5693 38.1312 14.5342 37.5254 14.6288C37.6147 15.4402 37.8472 16.3083 37.5011 17.1008C36.5545 19.7377 34.5017 21.6985 32.9656 23.9838C34.9507 22.4179 36.3543 20.2678 37.7688 18.2069C38.5991 17.0899 38.6856 15.4375 40.0082 14.7289C39.881 16.4544 39.2482 18.2258 39.8486 19.9297C40.1948 21.1467 41.1035 22.0582 41.9338 22.9642C42.518 23.5402 42.4233 24.4219 42.5531 25.1711C42.6586 26.5477 43.1698 27.8404 43.735 29.0845C40.0401 29.2661 36.3364 29.0439 32.6897 28.4219C31.1833 28.0487 30.0663 26.902 28.779 26.1122C27.8567 25.5362 26.7749 24.9223 25.6931 25.3333C23.6458 25.7715 22.7776 27.9811 20.9574 28.7897C20.3381 28.7438 19.7756 28.4652 19.1968 28.2732C19.2184 29.0034 19.3374 29.7471 19.1968 30.4747C18.0014 31.286 16.3327 31.1021 15.0345 30.6288C13.8824 30.0879 14.6045 28.714 14.7965 27.8107C12.925 28.952 10.6532 28.7113 8.57611 28.6734C7.06739 28.6292 5.6016 28.1611 4.34654 27.3226C3.09148 26.4842 2.09786 25.3093 1.47943 23.9324C0.938519 22.5801 0.608567 21.1711 0.194774 19.7864C0.194774 20.1758 0.194774 20.5653 0.194774 20.9574C-0.383996 20.1677 0.427363 19.5051 0.762725 18.8262C1.07645 18.3502 0.949338 17.7634 0.933111 17.2306C1.68767 15.735 2.03656 14.0636 2.97503 12.6545C3.7323 11.524 4.94122 10.8398 6.07983 10.1528C5.5822 10.1961 5.08727 10.2421 4.59504 10.2799C5.83372 9.10616 7.50782 8.56796 9.14677 8.22989C10.9426 7.89724 12.6113 8.87357 14.3719 9.0115C14.1015 9.77959 13.3604 10.8317 14.1393 11.5186C14.6532 12.1163 15.451 11.6917 16.0866 11.5862C16.1758 11.1941 16.2678 10.8046 16.3787 10.4179C16.76 9.50914 17.3604 8.63557 18.2881 8.22448C19.47 7.71062 20.806 7.75119 22.0744 7.81881C23.4862 7.90265 24.7492 8.58419 26.0663 9.03314C26.8263 10.5179 26.7289 12.2299 27.0481 13.8283C27.2888 15.0913 27.9649 16.2083 28.5653 17.3279C26.9426 18.6991 25.1954 20.5003 25.4605 22.8181C25.5281 24.0649 26.756 24.6464 27.7512 25.0791C27.1454 24.311 26.0609 23.6782 26.1718 22.5666C26.2529 20.7735 27.4997 19.2779 28.9547 18.3448C29.3794 18.6153 29.8743 19.0426 30.3936 18.7181C32.3462 17.8878 33.1522 15.7918 34.1231 14.069C35.0183 12.4111 36.8601 11.6079 37.9094 10.0879C38.2773 9.63625 37.9446 9.06289 37.8608 8.57066C38.0717 7.92158 38.3584 7.18865 38.0528 6.52874C37.6147 5.62814 36.8087 4.952 36.4815 3.9946C36.1731 3.11833 35.7999 2.04193 36.4409 1.21164ZM9.7039 11.3888C9.76611 11.4412 9.8382 11.4806 9.9159 11.5046C9.99359 11.5287 10.0753 11.5369 10.1563 11.5289C10.2372 11.5208 10.3157 11.4966 10.3871 11.4577C10.4585 11.4187 10.5214 11.3659 10.5721 11.3022C10.5953 10.8747 10.5653 10.4459 10.4828 10.0257C10.0906 10.4016 9.5822 10.7722 9.7039 11.3888ZM19.8188 10.5774C19.7945 11.7052 20.238 12.7708 20.3138 13.8851C20.1461 15.3617 19.2509 16.5896 18.5017 17.8364C18.4774 18.1068 18.3665 18.3773 18.5017 18.7018C18.9128 18.5909 19.3131 18.4828 19.7377 18.3665C19.781 17.0899 20.3949 15.9703 20.8195 14.7965C21.071 13.4064 20.6329 12.0027 20.6518 10.6045L19.8188 10.5774ZM16.5355 12.1704C15.1048 12.7465 15.0129 14.5287 15.0913 15.8486C15.4808 15.0832 15.7053 14.2069 16.2894 13.5578C16.7167 13.3577 17.1765 13.2279 17.6228 13.0683C17.5173 12.5571 17.136 11.8999 16.5355 12.1704ZM2.26374 17.1738C2.83848 16.6115 3.30832 15.9511 3.65116 15.2238C4.16502 14.2204 5.03318 13.4713 5.66063 12.5436C3.94325 13.474 2.38274 15.1454 2.26374 17.1738ZM25.071 14.4097C25.1223 15.3146 25.4014 16.1919 25.8824 16.9601C26.7884 16.0811 25.7959 15.0453 25.071 14.4097ZM16.7681 14.8317C16.2543 15.0859 16.6167 15.8296 17.136 15.7079C17.5795 15.4348 17.309 14.5747 16.7681 14.8317ZM9.66063 18.7208C9.7634 19.2617 9.49565 20.2434 10.3719 19.9973C11.0075 19.4104 10.1988 18.9317 9.66063 18.7208ZM14.4531 19.2346L14.6234 19.0183C13.4443 19.0534 12.7681 20.1704 12.5707 21.2116C12.3003 22.2394 13.1116 23.4672 14.2205 23.4402C14.9209 23.2806 15.1779 22.5612 15.5024 22.0068C15.8129 20.9396 15.7294 19.7964 15.2671 18.7857C14.9913 18.9317 14.7127 19.0669 14.4531 19.2346ZM17.8986 20.5274C15.8243 21.3983 15.4646 24.641 17.3577 25.8851C19.2833 27.3158 22.2178 25.3928 22.0366 23.121C21.785 21.2684 19.6674 19.8864 17.8986 20.5274ZM15.9811 29.9932C16.5977 30.4206 17.3631 30.1907 18.0393 30.0798C17.95 29.6417 17.9419 29.163 17.6579 28.7978C17.1684 28.8573 16.7519 29.1359 16.3246 29.3577L15.808 28.43C15.7215 28.9385 15.3645 29.6903 15.9811 29.996V29.9932Z" fill="#FFE1CC"/>
<path d="M40.5672 4.98661C41.2352 4.44571 41.9411 3.92103 42.4604 3.20703C42.9851 3.57485 43.6747 3.86423 43.8965 4.52143C44.1372 5.60324 43.5584 6.70669 43.8965 7.76687C44.7809 8.93523 46.3306 9.52211 46.9175 10.9393C47.5395 12.5945 47.5179 14.4281 47.334 16.1644C47.2312 17.1895 46.3414 18.0765 46.5794 19.1394C46.8147 19.7696 47.4232 19.6803 47.9641 19.6452C47.8722 18.2604 48.002 16.7189 49.0108 15.6668C49.7584 14.9445 50.6468 14.3838 51.6206 14.0197C52.1322 14.0048 52.644 14.0402 53.1487 14.1252C54.5902 14.85 56.2156 15.7479 56.6646 17.4383C57.1502 19.4301 56.8693 21.5317 55.8776 23.326C55.5625 23.8814 55.1249 24.3576 54.5982 24.7184C54.0714 25.0793 53.4693 25.3153 52.8377 25.4085C49.8113 25.8196 46.7146 25.0272 44.0804 23.5451C42.382 22.5498 40.7619 21.0542 40.3941 19.0339C40.1047 17.2868 40.9675 15.656 41.3813 14.0062C41.9438 12.0779 41.5436 10.0603 41.7356 8.09412C41.9384 6.88519 40.7349 6.10358 40.5672 4.98661Z" fill="#FFE1CC"/>
<path d="M35.8035 1.3898C35.8688 1.13661 35.9872 0.9002 36.1508 0.69624C36.3144 0.492281 36.5195 0.325435 36.7525 0.206767C36.9855 0.0880997 37.241 0.020323 37.5022 0.0079319C37.7634 -0.00445917 38.0242 0.0388186 38.2674 0.134895C39.5169 0.716369 40.7663 1.35193 41.8022 2.27688C42.7434 2.59602 43.7954 2.84483 44.3985 3.71569C45.2099 4.75694 44.669 6.11732 44.8853 7.29379C45.9672 8.42698 47.2761 9.38709 48.0226 10.8097C50.4729 9.6332 53.3613 9.12746 55.9901 9.99832C58.3864 10.8638 59.9144 13.1031 60.907 15.3371C61.8941 17.4628 61.8211 19.8699 61.6372 22.1498C61.4425 23.8212 61.191 25.544 60.3553 27.0179C59.8711 27.8969 59.0895 28.5487 58.335 29.1815C59.5412 29.1815 60.8691 28.8705 61.9455 29.5575C60.9302 29.7949 59.8915 29.9174 58.8488 29.9226C52.1795 30.0308 45.5074 29.9821 38.8353 30.0713C33.3343 30.2444 27.836 30.0497 22.3377 30.0443C21.7334 30.022 21.1284 30.0582 20.531 30.1525C19.9388 30.7421 19.4817 31.5642 18.6108 31.7752C16.7447 32.2458 14.2836 31.9753 13.3586 30.0416C9.52091 30.0227 5.67777 30.02 1.84816 29.6927C1.84816 29.6224 1.84816 29.4763 1.84816 29.4033C3.0084 29.3682 4.16864 29.3087 5.32618 29.1951C3.41678 28.1133 1.73186 26.5365 0.947548 24.454C0.566548 23.3139 0.315244 22.1345 0.198393 20.9381C0.198393 20.546 0.18487 20.1565 0.198393 19.7671C0.612186 21.1518 0.93132 22.5717 1.48304 23.9131C2.09752 25.2885 3.08612 26.4635 4.33611 27.3041C5.58609 28.1448 7.04716 28.6173 8.55269 28.6677C10.6433 28.7056 12.9151 28.9381 14.7866 27.8049C14.5946 28.7083 13.8725 30.074 15.0246 30.6231C16.3228 31.0964 17.9996 31.2938 19.1869 30.4689C19.3356 29.7414 19.2166 28.9976 19.1869 28.2674C19.7657 28.4594 20.3282 28.738 20.9475 28.784C22.7677 27.9726 23.6358 25.7657 25.6832 25.3276C26.765 24.9165 27.8468 25.5304 28.7528 26.1119C30.0402 26.9016 31.1571 28.0483 32.6636 28.4216C36.3103 29.0436 40.014 29.2658 43.7089 29.0842C43.1436 27.8401 42.6271 26.5473 42.527 25.1707C42.3972 24.4216 42.4918 23.548 41.9077 22.9638C41.0774 22.0578 40.1686 21.1464 39.8225 19.9294C39.2221 18.2255 39.8549 16.454 39.982 14.7285C38.6595 15.4371 38.573 17.0896 37.7427 18.2066C36.3363 20.2836 34.9327 22.4229 32.9475 23.9888C34.4837 21.7143 36.5365 19.7427 37.483 17.1058C37.8292 16.3134 37.5966 15.4506 37.5074 14.6339C38.1132 14.5392 38.838 14.5744 39.2707 14.0578C40.3201 12.8543 40.7339 11.1991 40.6501 9.62509C40.5851 8.84078 40.8799 8.09974 41.1288 7.37492C40.7528 6.59331 40.2011 5.85498 40.0983 4.976C40.2876 4.32151 40.6798 3.75356 40.9989 3.15856C40.1686 3.34788 39.3519 3.59399 38.5297 3.81846C39.3248 3.25592 40.1849 2.73665 40.6933 1.88202C39.5655 1.85768 38.6433 2.50406 37.7427 3.08554C38.1916 2.57979 38.6595 2.08757 39.0949 1.57371C38.2901 1.77038 37.5132 2.0675 36.7826 2.45809C37.364 1.88743 37.9969 1.37627 38.6108 0.835368C37.8887 0.800209 36.9232 0.467552 36.4472 1.21671C35.8062 2.047 36.1768 3.10988 36.504 3.99967C36.8313 4.95707 37.6372 5.62239 38.0753 6.53381C38.3809 7.19372 38.0943 7.92665 37.8833 8.57573C36.7312 9.77925 35.3438 10.7394 34.2728 12.0267C33.2018 13.3141 32.9962 15.1234 31.7873 16.2999C30.9327 17.095 29.9104 17.6738 28.9611 18.3445C27.506 19.2776 26.2565 20.7786 26.1781 22.5663C26.0672 23.6778 27.1517 24.3107 27.7576 25.0788C26.7758 24.6461 25.5344 24.07 25.4668 22.8178C25.1964 20.5 26.9462 18.6988 28.5716 17.3276C27.9712 16.2079 27.2951 15.0909 27.0544 13.8279C26.7352 12.2296 26.8326 10.5176 26.0726 9.0328C24.6717 6.72583 21.621 5.94964 19.122 6.63659C17.4019 7.01522 16.7745 9.00846 15.0652 9.41955C15.5006 9.73598 15.9577 10.0767 16.3904 10.4175C16.2795 10.8043 16.1876 11.1937 16.0983 11.5859C15.4628 11.6914 14.6649 12.1268 14.1511 11.5183C13.3722 10.8313 14.1105 9.77925 14.3837 9.01116C15.076 8.74071 15.7359 8.41346 16.4283 8.10785C15.3789 8.12408 14.3079 8.10785 13.3073 7.76437C11.7278 7.2451 10.0618 6.49865 8.37148 6.95302C5.31536 7.71299 2.92456 10.1985 1.73727 13.0382C2.57873 12.008 3.53921 11.0812 4.59866 10.2769C5.09089 10.239 5.58582 10.193 6.08345 10.1498C4.94484 10.8367 3.73592 11.521 2.97865 12.6515C2.03747 14.0632 1.68859 15.7346 0.942139 17.2302C0.238961 16.0916 0.6203 14.7096 0.863707 13.4899C1.76972 9.8712 4.69603 6.72854 8.38501 5.86579C9.54708 5.53585 10.7809 5.5575 11.9306 5.928C13.3424 6.28229 14.6352 7.12611 16.1146 7.16667C17.0179 7.00711 17.7562 6.41211 18.6027 6.10109C21.7643 4.89216 25.8536 6.30663 27.3167 9.46552C27.9793 10.8475 27.8576 12.4405 28.3147 13.8766C28.6663 14.8692 29.2532 15.7563 29.767 16.6731C30.5459 16.2458 31.3897 15.8374 31.8955 15.0504C32.4986 14.0659 32.742 12.9003 33.4235 11.9591C34.5594 10.3012 36.6419 9.36546 37.31 7.38033C37.3235 6.73124 36.8069 6.22009 36.5121 5.67918C36.1014 5.05315 35.8262 4.34814 35.7042 3.60943C35.5822 2.87072 35.616 2.11465 35.8035 1.3898ZM40.5689 4.98682C40.742 6.10379 41.9455 6.87999 41.7183 8.09162C41.5263 10.0578 41.9266 12.0754 41.364 14.0037C40.9503 15.6535 40.0875 17.2843 40.3769 19.0314C40.7447 21.0517 42.3647 22.5473 44.0632 23.5426C46.6974 25.0247 49.7941 25.8171 52.8204 25.406C53.4521 25.3128 54.0542 25.0768 54.5809 24.7159C55.1077 24.3551 55.5452 23.8789 55.8603 23.3235C56.8521 21.5292 57.133 19.4276 56.6473 17.4358C56.2065 15.7536 54.5811 14.8475 53.1315 14.1227C54.8218 14.212 56.1741 15.475 56.9827 16.8813C58.0645 19.2451 57.5696 22.074 56.2254 24.2214C55.5709 25.3033 54.4648 25.9686 53.4398 26.6555C55.3897 26.2471 56.8069 24.5838 57.3803 22.7421C57.9645 21.1193 57.84 19.3884 57.6994 17.7062C58.8569 19.3993 58.4567 21.6305 57.8644 23.4588C57.0692 25.8604 54.5351 27.2884 52.0902 27.2884C49.5669 27.3181 47.2653 26.1606 45.0584 25.0625C45.0979 26.5142 45.5573 27.9233 46.381 29.1193C49.3559 29.1193 52.3553 29.1572 55.3438 29.1572C56.0307 29.2086 56.5473 28.6785 57.1369 28.4135C57.9834 27.9402 59.0652 27.6968 59.5709 26.7907C60.6068 25.0896 60.7528 23.0369 60.9692 21.1112C61.3749 17.7333 60.1578 14.1606 57.6345 11.8563C55.9956 10.3553 53.5642 9.96316 51.4601 10.5446C50.4107 10.8557 49.2234 11.072 48.4093 11.8455C48.3742 12.83 48.4959 13.8144 48.5311 14.7989C49.5182 14.4392 50.5189 14.0118 51.5926 14.0281C50.6188 14.3921 49.7304 14.9528 48.9827 15.6751C47.9739 16.7272 47.8441 18.2688 47.9361 19.6535C47.3951 19.6832 46.7866 19.7779 46.5513 19.1477C46.3133 18.093 47.2031 17.2059 47.3059 16.1728C47.4898 14.4364 47.5114 12.6028 46.8894 10.9476C46.3052 9.53043 44.7528 8.94355 43.8684 7.77519C43.5331 6.70961 44.1118 5.61157 43.8684 4.52976C43.6467 3.87256 42.957 3.58317 42.4323 3.21535C41.9374 3.92124 41.2315 4.4378 40.5689 4.98682ZM44.5581 28.9679L45.3478 29.0788C44.9935 28.3107 44.5797 27.5561 44.4229 26.7177C44.2119 25.7008 44.3661 24.4676 43.3411 23.8563C43.1579 24.7451 43.1715 25.6633 43.3808 26.5463C43.5901 27.4293 43.9901 28.2558 44.5527 28.9679H44.5581ZM22.9732 28.9922C25.7643 28.9922 28.5554 28.9571 31.3573 28.9922C29.9347 28.0619 28.834 26.6312 27.2194 26.0172C25.3451 26.1308 24.0713 27.6616 22.9678 28.9922H22.9732Z" fill="#745E51"/>
<path d="M8.3837 6.94522C10.074 6.49897 11.74 7.24542 13.3195 7.75658C14.3066 8.11358 15.3776 8.11358 16.427 8.11358C15.7481 8.41919 15.0747 8.74103 14.3823 9.01689C12.6217 8.87896 10.953 7.90262 9.15719 8.23528C7.51825 8.56794 5.84414 9.10614 4.59736 10.2772C3.53837 11.0789 2.57791 12.0031 1.73596 13.0304C2.92325 10.1771 5.31406 7.70519 8.3837 6.94522Z" fill="#FFFCF8"/>
<path d="M9.70428 11.3884C9.58258 10.7718 10.091 10.4012 10.4832 10.0361C10.5657 10.4563 10.5957 10.8851 10.5724 11.3127C10.521 11.3755 10.4575 11.4275 10.3857 11.4654C10.3139 11.5033 10.2352 11.5265 10.1543 11.5336C10.0734 11.5406 9.99191 11.5314 9.91462 11.5065C9.83733 11.4816 9.76581 11.4414 9.70428 11.3884Z" fill="#755D4F"/>
<path d="M19.1208 6.63724C21.6198 5.9557 24.6705 6.72649 26.0715 9.03345C24.7544 8.5845 23.4914 7.90296 22.0796 7.81912C20.8166 7.7515 19.4805 7.71094 18.2932 8.2248C17.3656 8.63588 16.7652 9.50945 16.3839 10.4182C15.9565 10.0774 15.4995 9.73663 15.0532 9.4202C16.7679 9.00911 17.4008 7.01587 19.1208 6.63724Z" fill="#FFFCF6"/>
<path d="M34.2657 12.0213C35.3475 10.7366 36.7241 9.77383 37.8762 8.57031C37.9601 9.06254 38.2927 9.6359 37.9249 10.0876C36.8647 11.6075 35.023 12.4107 34.1386 14.0686C33.1676 15.7914 32.3617 17.8874 30.409 18.7177C29.8898 19.0423 29.3948 18.6068 28.9702 18.3445C29.9195 17.6738 30.9418 17.095 31.7964 16.2999C32.9946 15.1234 33.1839 13.2978 34.2657 12.0213Z" fill="#FFFCF6"/>
<path d="M51.4719 10.548C53.5761 9.9665 56.0074 10.3587 57.6464 11.8597C60.1751 14.1504 61.3922 17.7231 60.9811 21.0956C60.7647 23.0267 60.6187 25.0794 59.5828 26.7752C59.0744 27.6839 57.9926 27.9273 57.1487 28.3979C56.5592 28.6683 56.0426 29.193 55.3556 29.1416C52.3807 29.1416 49.3786 29.1092 46.3928 29.1038C45.5692 27.9077 45.1098 26.4986 45.0703 25.047C47.2691 26.145 49.5707 27.3025 52.1021 27.2728C54.5362 27.2728 57.0811 25.8448 57.8763 23.4432C58.4686 21.6149 58.8688 19.3864 57.7113 17.6906C57.8519 19.3729 57.9817 21.1065 57.3922 22.7265C56.8188 24.5683 55.4016 26.2424 53.4517 26.6399C54.4767 25.9503 55.5828 25.2877 56.2373 24.2059C57.5896 22.0585 58.0656 19.2295 56.9946 16.8658C56.1832 15.4702 54.831 14.1964 53.1433 14.1071C52.6387 14.0221 52.1269 13.9868 51.6153 14.0017C50.5335 13.9854 49.5409 14.4127 48.5537 14.7725C48.5186 13.788 48.3969 12.8036 48.432 11.8191C49.2353 11.0618 50.4226 10.8455 51.4719 10.548Z" fill="#FDFEFD"/>
<path d="M2.26404 17.1741C2.38304 15.1457 3.94355 13.4743 5.66093 12.5439C5.03348 13.4716 4.16532 14.2208 3.65146 15.2241C3.30861 15.9515 2.83878 16.6118 2.26404 17.1741Z" fill="#775D50"/>
<path d="M16.7683 14.8316C17.3092 14.5611 17.5932 15.4347 17.1361 15.7079C16.606 15.8296 16.2436 15.0858 16.7683 14.8316Z" fill="#775D50"/>
<path d="M19.8181 10.5859L20.6457 10.613C20.6267 12.0112 21.0649 13.4149 20.8134 14.805C20.3942 15.9788 19.7802 17.0984 19.7315 18.375C19.3205 18.4913 18.9202 18.5995 18.4956 18.7103C18.3603 18.3912 18.4712 18.1181 18.4956 17.8449C19.2447 16.6089 20.1399 15.3703 20.3076 13.8936C20.2373 12.7793 19.7937 11.7137 19.8181 10.5859Z" fill="#775A48"/>
<path d="M16.5361 12.1701C17.1365 11.9185 17.5179 12.5703 17.6179 13.068C17.1717 13.2275 16.7119 13.3573 16.2846 13.5575C15.7004 14.2066 15.4733 15.0828 15.0865 15.8482C15.0135 14.5149 15.1054 12.7326 16.5361 12.1701Z" fill="#775A4A"/>
<path d="M25.0703 14.4102C25.7951 15.0457 26.7877 16.0816 25.8817 16.9605C25.4007 16.1923 25.1216 15.3151 25.0703 14.4102Z" fill="#715746"/>
<path d="M14.4532 19.2351C14.7237 19.0674 14.9941 18.9295 15.2646 18.7861C15.7268 19.7969 15.8103 20.9401 15.4999 22.0072C15.0964 21.2305 14.4739 20.5892 13.7095 20.1627C13.9556 19.8517 14.199 19.5407 14.4532 19.2351Z" fill="#FEF8F9"/>
<path d="M12.57 21.2119C12.7675 20.1707 13.4436 19.0483 14.6228 19.0186L14.4524 19.2349C14.1982 19.5405 13.9548 19.8516 13.7113 20.1626C14.4757 20.589 15.0983 21.2303 15.5017 22.0071C15.1772 22.548 14.9203 23.2809 14.2198 23.4405C13.1191 23.4675 12.2915 22.2397 12.57 21.2119ZM14.2793 20.9766C13.9277 21.1632 13.9277 21.3472 14.2793 21.5175C14.6336 21.3417 14.6336 21.1578 14.2793 20.9766Z" fill="#755C4E"/>
<path d="M17.8983 20.5273C19.667 19.8863 21.7847 21.2683 22.0362 23.1209C22.2174 25.3927 19.283 27.3157 17.3709 25.885C15.4723 24.6409 15.8239 21.3982 17.8983 20.5273Z" fill="#FFD4BF"/>
<path d="M14.2793 20.9766C14.6336 21.1578 14.6336 21.3417 14.2793 21.5175C13.9277 21.3471 13.9277 21.1632 14.2793 20.9766Z" fill="#CAB5AB"/>
<path d="M44.5523 28.968C43.9883 28.2566 43.5869 27.4304 43.3762 26.5474C43.1655 25.6643 43.1506 24.7458 43.3326 23.8564C44.3603 24.4677 44.2062 25.7009 44.4144 26.7178C44.5713 27.5562 44.9851 28.3108 45.3394 29.0789L44.5523 28.968Z" fill="#FFFCF7"/>
<path d="M22.9672 28.9926C24.0679 27.6619 25.3444 26.1312 27.2052 26.0176C28.8279 26.6342 29.9097 28.0649 31.3431 28.9926C28.5493 28.9574 25.7582 28.9926 22.9672 28.9926Z" fill="#FCFEFE"/>
<path d="M15.9814 29.9958C15.3648 29.6902 15.711 28.9357 15.8083 28.4326L16.3249 29.3603C16.7522 29.1385 17.1687 28.8599 17.6582 28.8004C17.9287 29.1655 17.9503 29.6442 18.0396 30.0824C17.3634 30.1933 16.598 30.4232 15.9814 29.9958Z" fill="#735C4C"/>
</g>
<defs>
<clipPath id="clip0_4932_88132">
<rect width="61.9446" height="32" fill="white"/>
</clipPath>
</defs>
</svg>
