<svg width="48" height="32" viewBox="0 0 48 32" fill="none" xmlns="http://www.w3.org/2000/svg">
<g clip-path="url(#clip0_4932_88069)">
<path d="M36.79 16.3621L37.36 16.3076C37.4834 16.549 37.6051 16.7905 37.723 17.0337C37.5216 17.0158 37.3286 16.9439 37.1645 16.8258C37.0003 16.7076 36.871 16.5474 36.79 16.3621Z" fill="#765C4F"/>
<path d="M33.0075 2.29267C34.79 1.33606 36.9228 1.22896 38.8705 1.66279C39.9507 1.85309 40.9845 2.24802 41.9164 2.82633C43.1036 3.5869 43.5011 5.07354 44.6247 5.91216C44.8207 6.30787 45.0331 6.6945 45.2673 7.07025L45.5414 6.67998L45.6684 6.70177C46.0408 6.74296 46.4156 6.75873 46.7902 6.74896C46.4834 7.23543 46.2039 7.83807 45.614 8.01959C45.1869 8.11942 44.7421 8.1153 44.317 8.00759C43.8918 7.89989 43.4987 7.69173 43.1707 7.40061C42.3103 6.68543 41.9527 5.58542 41.3555 4.67783C41.6478 5.76694 41.9908 6.93592 42.8912 7.67834C43.6173 8.33907 44.6083 8.56778 45.565 8.61135C45.5867 8.8691 45.6067 9.12686 45.6267 9.38643L44.6773 9.49897C44.5248 10.1089 44.3778 10.7188 44.2199 11.3287C43.4938 11.2779 42.6842 11.0582 42.0634 11.5411C41.1958 12.0747 40.5387 13.0422 40.6422 14.0823C40.8455 14.6087 41.3301 14.9899 41.4427 15.5581C41.4608 16.0861 41.3408 16.6098 41.0944 17.0772C40.8479 17.5446 40.4837 17.9395 40.0377 18.2228C39.386 18.613 38.689 19.0251 37.9176 19.0904C36.6161 18.9725 35.7992 17.8543 34.8317 17.121C34.7137 17.4187 34.5994 17.72 34.4832 18.0195L34.0603 17.9505C34.0603 17.5566 34.0875 17.15 33.9768 16.767C33.8261 16.4548 33.5411 16.2388 33.3033 15.9974C33.4065 16.4655 33.4613 16.943 33.4667 17.4223C33.0637 17.7853 32.4502 17.5602 32.0037 17.8343C31.6116 18.0159 31.2249 18.4769 30.7693 18.1974C29.9017 17.8852 29.7655 16.9068 29.6802 16.1135L29.0122 16.3713C29.3371 17.4168 30.3282 18.0558 30.6677 19.0796C32.1797 18.6294 33.8533 18.2827 35.3872 18.8272C35.9481 18.9942 36.175 19.5533 36.3746 20.0489C34.1075 19.8074 31.8167 19.6332 29.5423 19.9127C28.5439 20.0616 27.4221 19.6568 26.8885 18.771C26.3548 17.8852 25.9881 16.8814 26.2422 15.8612C26.52 14.6505 26.9429 13.3944 26.6252 12.1455C26.4746 11.4594 25.9809 10.933 25.5361 10.4175C25.9536 9.75492 26.5853 9.2866 27.2442 8.88362C26.952 8.59138 26.6507 8.30458 26.3493 8.01959L26.2913 7.69286C26.6289 7.64203 26.9919 7.64748 27.3023 7.48411C27.6345 7.27718 27.7071 6.85424 27.8705 6.52569C27.3804 6.74715 26.8993 6.98675 26.4183 7.21183C26.687 6.45853 27.0772 5.71793 27.8106 5.32767C28.0683 5.71249 28.3188 6.10094 28.5766 6.48394C29.3444 5.96843 29.653 5.0808 30.0433 4.28938C30.0705 4.36924 30.1268 4.52535 30.154 4.6034C31.0561 3.78112 31.9002 2.85538 33.0075 2.29267ZM42.2649 5.22057C42.628 6.20259 43.3958 7.05391 44.4649 7.2318C43.6878 6.60825 42.9506 5.93652 42.2577 5.22057H42.2649ZM30.2266 10.8204C30.1685 11.2815 30.1268 11.7426 30.0995 12.2072C29.8454 11.9785 29.6094 11.6318 29.2282 11.6391C28.7832 11.6298 28.3437 11.7381 27.954 11.9531C26.8358 12.6647 26.8957 14.4726 27.8342 15.3058C28.6583 15.8667 29.8999 15.9211 30.6386 15.1769C31.1287 14.852 31.2376 14.2294 31.165 13.6866C31.5535 13.9807 32.0418 13.9916 32.5047 13.9153C32.4738 13.035 31.5626 12.6447 31.234 11.9041C30.9545 11.2561 30.8837 10.5463 30.6895 9.8729C30.5102 10.1759 30.3554 10.4928 30.2266 10.8204ZM33.3995 11.8533C33.4746 12.0421 33.5508 12.2308 33.6283 12.4196L34.289 12.4051C34.2382 12.2236 34.1819 12.0529 34.122 11.8805C33.8849 11.827 33.64 11.8178 33.3995 11.8533ZM36.7994 16.3622C36.8798 16.5482 37.009 16.7092 37.1732 16.828C37.3373 16.9468 37.5305 17.0192 37.7324 17.0375C37.6144 16.7906 37.4928 16.5492 37.3694 16.3114L36.7994 16.3622ZM31.4446 16.4911C31.2413 16.7488 31.6824 17.0738 31.8712 16.8069C32.0599 16.5401 31.6243 16.2206 31.4355 16.4911H31.4446Z" fill="#FFE1CC"/>
<path d="M11.7262 11.6774C13.3327 11.3234 15.3566 11.8208 16.0827 13.4435C16.5423 14.2082 16.8442 15.0571 16.9708 15.9403C17.0974 16.8234 17.046 17.723 16.8197 18.586C16.5674 19.5753 15.9357 20.5301 14.9446 20.8967C13.5977 21.4013 12.1147 20.9439 10.9239 20.2469C9.70413 19.4983 8.56108 18.6313 7.51136 17.6584C6.9668 17.1865 6.64189 16.5421 6.31878 15.914C6.34601 16.7309 6.78529 17.4188 7.15014 18.1177C6.92506 19.156 5.80871 19.6914 5.54733 20.7134C5.43478 21.0292 5.45657 21.454 5.04452 21.5175C4.6361 21.2071 4.75046 20.7007 4.78858 20.2614C4.46668 20.4623 4.14116 20.6565 3.812 20.8441L3.53246 20.2995C3.80656 20.0563 4.07702 19.8149 4.3493 19.5734C3.95359 19.6279 3.55969 19.6951 3.16216 19.7423C3.39088 19.4591 3.59418 19.1505 3.80837 18.8564C3.47619 18.9654 3.15309 19.0979 2.82272 19.2086C2.92074 18.9272 3.02784 18.6513 3.14038 18.3754L2.77734 18.0923L2.92982 18.0596C4.34022 17.9452 4.81217 16.268 6.11367 15.8941C7.07935 15.6109 8.09041 15.5582 9.07606 15.3931C10.4955 15.1553 11.9277 15.3931 13.3363 15.5909C13.9026 15.6054 13.9154 16.1936 13.8609 16.6201L14.3401 16.5893C14.3637 16.2716 14.4908 15.9068 14.2348 15.6454C13.6685 14.9592 12.8226 14.5944 12.0348 14.2277C11.1436 13.8102 10.1652 13.7049 9.1886 13.6596C9.3556 12.4234 10.6589 11.9115 11.7262 11.6774Z" fill="#FFE1CC"/>
<path d="M21.7643 14.841C21.8206 14.2965 22.4141 14.1567 22.8534 14.0659C23.4181 13.9763 23.9964 14.0324 24.5333 14.2291C25.0702 14.4257 25.5479 14.7563 25.9211 15.1895C25.6264 15.9465 25.475 16.7516 25.4745 17.5638C25.4637 18.2645 25.1424 18.898 24.9536 19.5605C24.9772 20.3737 25.4074 21.1089 25.5889 21.893C25.9338 23.0384 25.9846 24.2528 26.2914 25.3982C26.8214 26.3366 27.8416 27.0028 28.0757 28.1101C27.9995 28.6546 27.6491 29.1465 27.7127 29.7165C27.7127 30.3827 27.8161 31.2086 27.2044 31.6642L26.9467 31.6406C26.8486 30.8782 27.0247 30.0705 26.6798 29.3553L26.4184 29.4588C26.2369 30.1739 26.4965 31.0616 25.9501 31.637C25.1605 31.3647 25.8031 30.0868 25.0189 29.7583C24.5198 30.2302 24.3564 30.9781 23.7247 31.3266C23.6448 30.7258 23.81 30.1304 23.8064 29.5314C23.594 28.8289 23.1257 28.1627 23.2618 27.3931C23.3272 26.667 23.9697 26.2295 24.4671 25.7848C24.0169 25.8756 23.5686 26.0498 23.1039 26.0172C22.3942 25.4218 22.1291 24.4924 21.8333 23.6574C21.5392 22.7226 21.1671 21.6389 21.7062 20.7204C21.4811 20.4826 21.0927 20.3066 21.1417 19.9217C21.2047 18.2136 21.413 16.5139 21.7643 14.841Z" fill="#FFE1CC"/>
<path d="M44.9908 9.87793C45.6823 9.9941 46.3213 10.5132 46.4429 11.2248C46.3904 11.6177 46.3011 12.0049 46.1761 12.3811L45.5807 12.4991C45.9437 12.8621 46.3993 13.2088 46.4629 13.7534C46.5772 14.5648 46.2323 15.3525 45.8421 16.0441C45.3683 16.8628 44.8346 17.6778 44.0469 18.2351C42.6419 19.2044 41.0391 19.8288 39.4199 20.3352C38.9098 20.4919 38.3736 20.5455 37.8425 20.4932C38.7265 19.6346 39.9899 19.3605 40.9175 18.5618C41.698 18.0281 42.3242 17.1714 43.319 17.0443C42.6057 16.2999 42.1683 15.3341 42.0792 14.307L41.1389 14.4268C41.1389 14.1636 40.9138 13.777 41.2388 13.6263C41.6508 13.4067 42.1155 13.3159 42.5529 13.1562C42.1899 13.0291 41.8269 12.8911 41.4784 12.7496C41.776 12.5408 42.0374 12.1505 42.4477 12.2195C43.0267 12.3194 43.5713 12.5826 44.1648 12.6225C43.6797 12.3123 43.2114 11.9766 42.7617 11.6169C43.6275 11.5697 44.7856 12.5517 45.3974 11.5497C45.3102 10.9779 45.0997 10.4388 44.9908 9.87793ZM44.4571 12.706C44.134 12.775 44.2756 13.305 44.586 13.2015C44.9036 13.1271 44.7711 12.6025 44.4571 12.706ZM43.034 13.2233C42.8234 13.4865 43.2808 13.7915 43.4624 13.5246C43.6747 13.2506 43.2173 12.9547 43.034 13.2215V13.2233Z" fill="#FEE2CD"/>
<path d="M30.0997 12.2071C30.1269 11.7424 30.1687 11.2814 30.2268 10.8203C30.1723 11.8622 30.5735 12.8424 31.1561 13.6865C31.2287 14.2311 31.1198 14.8519 30.6297 15.1768C29.891 15.921 28.6494 15.8665 27.8253 15.3056C26.8868 14.4725 26.8269 12.6645 27.9451 11.953C28.3364 11.7371 28.7779 11.6287 29.2248 11.639C29.6096 11.6317 29.8456 11.9802 30.0997 12.2071Z" fill="#FFD5BF"/>
<path d="M31.3834 1.5933C33.4327 0.117554 36.1228 -0.312646 38.5624 0.215575C40.3522 0.578613 42.1928 1.40452 43.1875 3.0146C43.557 3.66132 44.0283 4.24422 44.5834 4.74085C43.2329 4.19629 42.8172 2.608 41.6156 1.86014C39.8067 0.727223 37.6734 0.225506 35.5492 0.433398C34.1443 0.614917 32.6794 1.00155 31.6248 2.00717C30.9096 2.6207 30.4268 3.44298 30.0383 4.28886C29.648 5.08029 29.3395 5.96792 28.5716 6.48343C28.3139 6.10042 28.0634 5.71197 27.8056 5.32715C27.0795 5.71742 26.682 6.45802 26.4134 7.21132C26.9016 6.98624 27.3827 6.74663 27.8655 6.52518C27.7021 6.85373 27.6295 7.27667 27.2974 7.4836C26.987 7.64697 26.6239 7.64152 26.2863 7.69235L26.3444 8.01908C26.6457 8.30407 26.947 8.59087 27.2393 8.88311C26.5804 9.28608 25.9487 9.7544 25.5312 10.4169C25.9741 10.9325 26.4678 11.4589 26.6203 12.145C26.938 13.3939 26.515 14.65 26.2373 15.8607C25.9832 16.8754 26.3535 17.9209 26.8762 18.785C27.399 19.649 28.5317 20.0756 29.53 19.9267C31.8045 19.6472 34.0953 19.8215 36.3624 20.0629C36.1628 19.571 35.9359 19.0082 35.375 18.8412C33.8411 18.2967 32.1675 18.6434 30.6555 19.0936C30.316 18.0698 29.3249 17.4308 29 16.3853L29.668 16.1275C29.7533 16.9208 29.8895 17.8992 30.7571 18.2114C31.2127 18.4855 31.5994 18.0153 31.9914 17.8483C32.438 17.5742 33.0515 17.7957 33.4545 17.4363C33.4491 16.957 33.3943 16.4795 33.2911 16.0114C33.5289 16.2528 33.8139 16.4688 33.9646 16.781C34.0753 17.164 34.0408 17.5706 34.0481 17.9645L34.471 18.0335C34.5872 17.734 34.7015 17.4327 34.8195 17.135C35.7888 17.861 36.6057 18.9865 37.9053 19.1045C38.6768 19.0391 39.3738 18.6271 40.0255 18.2368C40.4715 17.9535 40.8357 17.5586 41.0821 17.0912C41.3286 16.6238 41.4486 16.1001 41.4304 15.5721C41.3179 15.0112 40.8332 14.6227 40.6299 14.0963C40.5265 13.0472 41.1745 12.0797 42.0512 11.5551C42.672 11.0722 43.4907 11.2919 44.2077 11.3427C44.3656 10.7328 44.5126 10.1229 44.6651 9.51298L45.6145 9.40044C45.5945 9.14087 45.5745 8.88311 45.5527 8.62535C44.5961 8.58179 43.6069 8.35308 42.879 7.69235C41.9714 6.94993 41.6356 5.7755 41.3433 4.69184C41.9459 5.59943 42.3035 6.70125 43.1585 7.41462C43.4865 7.70574 43.8796 7.9139 44.3048 8.0216C44.7299 8.12931 45.1747 8.13342 45.6017 8.0336C46.1917 7.85208 46.4712 7.24036 46.778 6.76297C46.6232 6.4653 46.433 6.18739 46.2117 5.93524C45.9671 5.8806 45.7199 5.83819 45.4711 5.80818C45.5328 6.10587 45.5999 6.40356 45.6689 6.70125L45.5418 6.67947L45.2314 6.62138C45.2289 6.31766 45.2501 6.01419 45.295 5.71379C45.9975 5.18557 47.0993 5.7991 47.0394 6.67039C47.0956 7.44003 46.4839 7.98459 45.9739 8.46017C46.0029 8.82321 46.0192 9.2044 46.0719 9.5747C46.1481 10.1792 46.68 10.6148 46.7526 11.2193C46.7925 11.88 46.6382 12.548 46.7852 13.2033C47.112 14.6554 46.4349 16.1076 45.5999 17.2693C44.1224 19.3023 41.67 20.2716 39.3357 20.9378C39.7822 21.1992 40.2433 21.4424 40.6681 21.7401C39.7351 21.6167 38.8964 21.1574 37.9798 20.9705C34.0113 20.0808 29.8864 20.1655 25.9578 21.2173C26.0939 22.2411 26.3535 23.2467 26.4551 24.2759C26.5459 24.7624 26.5241 25.3106 26.8417 25.7281C27.402 26.4366 28.0052 27.1101 28.6479 27.7448C29.0545 28.1659 29.3013 28.8339 29.0109 29.3784C28.5716 30.1935 28.3828 31.1755 27.655 31.8072C27.4135 32.0976 27.016 31.9633 26.6929 31.9705C26.3008 31.9379 25.9051 32.0504 25.5167 31.9705C25.2172 31.4986 25.1046 30.9413 24.894 30.4294C24.6181 30.8433 24.5092 31.4332 24.0572 31.7001C23.6815 31.9705 23.2259 31.573 23.1932 31.1773C23.1333 30.4893 23.4165 29.7705 23.0897 29.117C22.7468 28.396 22.6697 27.5769 22.8719 26.8045C21.9026 25.7154 21.5595 24.2632 21.0567 22.9254C19.9204 23.47 18.9602 24.2832 17.9546 25.0274C18.6534 23.8475 19.846 23.1142 20.9714 22.399C20.9859 21.7038 20.9714 20.9923 20.6519 20.3587C19.4485 20.3243 18.2432 20.2789 17.0397 20.3315C16.5115 20.3007 16.2011 20.7817 15.8036 21.0413C15.0321 21.6385 13.9993 21.7456 13.059 21.6312C12.5852 21.5804 12.1187 21.417 11.6395 21.4624C9.96229 21.8254 8.53192 22.822 7.01623 23.5698C7.85122 22.6895 8.99842 22.2175 9.98407 21.5404C8.60488 21.4316 7.26819 21.0121 6.07415 20.3134C5.80913 20.8071 5.89263 21.9198 5.08124 21.7655C4.53668 21.4388 3.96127 21.1592 3.42216 20.8343C3.01737 20.0901 2.58717 19.3205 2.52908 18.4564C1.6832 18.1751 0.831878 17.803 0.205637 17.1477C0.106221 17.0455 0.0390927 16.9163 0.0126232 16.7762C-0.0138462 16.6361 0.00151511 16.4913 0.0567913 16.3599C0.601349 15.3633 1.38914 14.5193 1.96456 13.5409C2.20779 13.0417 2.9738 13.167 3.30417 13.5064C3.83783 14.1236 4.21176 14.8859 4.90154 15.367C5.27547 15.0965 5.59675 14.748 5.99065 14.5156C6.75122 14.2161 7.75502 14.385 8.3504 13.7678C8.6735 12.7059 8.92218 11.5841 9.65734 10.7092C10.7465 9.23163 12.7686 8.8105 14.5021 9.05737C15.8762 9.22618 17.0887 9.93592 18.3521 10.4405C19.791 11.009 21.3908 11.0174 22.8356 10.4641C23.4759 10.223 24.1609 10.1239 24.8432 10.1737C25.0937 9.76348 25.3636 9.36777 25.6528 8.98658C25.2172 8.01363 25.6528 6.96627 26.1048 6.08227C26.4025 5.55405 26.8436 5.04035 27.4535 4.88606C27.9182 4.75174 28.2721 5.15471 28.6333 5.37253C29.4865 4.08375 30.0855 2.54083 31.3834 1.5933ZM9.64826 12.1505C10.6575 11.6785 11.7267 11.2429 12.8666 11.3009C13.8686 11.2701 14.7853 11.7203 15.6257 12.2085C15.7196 12.0778 15.8471 11.975 15.9948 11.9111C16.1425 11.8472 16.3048 11.8245 16.4643 11.8455C16.3681 12.2194 16.0377 12.6297 16.3155 13.0036C16.7584 13.8077 17.2067 14.6264 17.4046 15.5449C17.666 16.5632 17.4554 17.6087 17.4046 18.6307C17.4427 19.4058 18.3793 19.58 19.0019 19.5074C19.4688 19.4763 19.909 19.2784 20.2422 18.9499C20.5754 18.6214 20.7794 18.184 20.8171 17.7176C20.9406 16.3671 21.4706 15.0838 21.4652 13.7242C21.4853 13.4093 21.5284 13.0963 21.594 12.7876C21.6539 13.0508 21.712 13.3176 21.7756 13.5845C21.8826 13.4628 21.9897 13.343 22.0987 13.2214C22.0805 13.4501 22.0642 13.6807 22.0478 13.9112C22.8193 13.8005 23.6143 13.6879 24.384 13.8676C25.0465 14.0219 25.5893 14.4539 26.1375 14.8333C26.319 14.2506 26.4751 13.6462 26.4097 13.0326C26.319 11.8637 25.3333 10.7745 24.1317 10.731C23.2985 10.7546 22.6378 11.477 21.7719 11.3736C20.4868 11.2592 19.1853 11.0831 17.9727 10.6184C16.4371 10.0521 14.9141 9.17536 13.2242 9.30605C11.5905 9.43856 10.1928 10.6348 9.64826 12.1505ZM44.9918 9.87784C45.1008 10.4387 45.3113 10.9778 45.3984 11.5442C44.7867 12.5462 43.6286 11.5641 42.7628 11.6113C43.2117 11.9728 43.6795 12.3103 44.1641 12.6224C43.5705 12.5752 43.026 12.3193 42.4469 12.2194C42.0367 12.1505 41.7753 12.5407 41.4776 12.7495C41.8407 12.8911 42.191 13.029 42.5522 13.1561C42.1148 13.3158 41.6446 13.4066 41.238 13.6262C40.9131 13.7769 41.14 14.1708 41.1382 14.4267L42.0785 14.3069C42.1676 15.334 42.605 16.2998 43.3182 17.0442C42.3235 17.1713 41.6973 18.028 40.9167 18.5617C39.9892 19.3604 38.7258 19.6345 37.8418 20.4931C38.3729 20.5454 38.9091 20.4918 39.4192 20.3352C41.0384 19.8287 42.6412 19.2043 44.0461 18.235C44.8339 17.6904 45.3676 16.8627 45.8414 16.044C46.2316 15.3525 46.5674 14.5647 46.4621 13.7533C46.3986 13.2087 45.9394 12.8602 45.58 12.499L46.1753 12.381C46.3004 12.0048 46.3897 11.6176 46.4422 11.2247C46.3224 10.5132 45.6834 9.99401 44.9918 9.87784ZM11.7267 11.6767C10.6593 11.9109 9.35601 12.4227 9.18539 13.6589C10.1547 13.7043 11.1403 13.8095 12.028 14.227C12.8158 14.5901 13.6616 14.9531 14.228 15.6447C14.4839 15.9061 14.3569 16.2709 14.3333 16.5886L13.8595 16.6195C13.914 16.1929 13.9013 15.6048 13.3349 15.5902C12.2149 14.748 10.8554 14.0292 9.41047 14.1526C8.62994 14.1998 7.93654 14.6264 7.16326 14.7226C6.71491 14.8043 6.20484 14.7734 5.83636 15.0856C4.78173 15.9732 3.44938 16.6775 2.92842 18.0535L2.77595 18.0861L3.13899 18.3693C3.02644 18.6452 2.91935 18.9139 2.82133 19.2025C3.15169 19.0917 3.4748 18.9592 3.80698 18.8503C3.59278 19.1444 3.38948 19.453 3.16077 19.7361C3.55829 19.6889 3.95219 19.6218 4.3479 19.5673C4.07925 19.8178 3.80335 20.0592 3.53107 20.2934L3.81061 20.838C4.14097 20.6504 4.4665 20.4562 4.78718 20.2553C4.74906 20.6946 4.6347 21.201 5.04312 21.5114C5.45517 21.4479 5.43339 21.0231 5.54593 20.7073C5.80732 19.6853 6.92366 19.1498 7.14874 18.1115C6.7857 17.4127 6.34461 16.7247 6.31738 15.9079C6.64049 16.536 6.96722 17.1785 7.50997 17.6523C8.55969 18.6251 9.70273 19.4921 10.9225 20.2408C12.1133 20.9378 13.5963 21.3952 14.9432 20.8906C15.9343 20.5276 16.566 19.5691 16.8183 18.5799C17.0446 17.7169 17.096 16.8173 16.9694 15.9342C16.8428 15.051 16.5409 14.2021 16.0813 13.4374C15.357 11.8201 13.3331 11.3227 11.7267 11.6767ZM2.50367 13.599C2.41291 13.962 2.09707 14.3904 2.38024 14.7462C2.59525 14.9072 2.8222 15.0516 3.05912 15.1782C3.00753 15.3751 2.88875 15.5478 2.72331 15.6665C2.36027 15.3416 2.02083 15.0112 1.66505 14.6917C1.61241 14.8152 1.50894 15.0548 1.45812 15.1873C1.74855 15.4505 2.02446 15.7318 2.28948 16.0168C1.78304 16.1602 1.41274 15.7808 1.04426 15.5049C0.848215 16.0186 0.499698 16.5487 0.610425 17.1223C1.19113 17.5338 1.83483 17.8483 2.51637 18.0535C3.02644 17.1858 3.60549 16.349 4.41869 15.7336C3.77793 15.0203 3.42942 14.0056 2.50367 13.599ZM21.7647 14.8406C21.4121 16.5139 21.2026 18.2142 21.1384 19.9231C21.0894 20.3079 21.4779 20.484 21.7029 20.7218C21.1584 21.6403 21.5359 22.7185 21.83 23.6588C22.1277 24.4974 22.3927 25.4268 23.1006 26.0185C23.5653 26.0512 24.0082 25.8769 24.4639 25.7862C23.9665 26.2309 23.3239 26.6684 23.2586 27.3944C23.117 28.1641 23.5853 28.8302 23.8031 29.5327C23.8031 30.1317 23.6416 30.7271 23.7214 31.3279C24.3531 30.9794 24.5165 30.2388 25.0157 29.7596C25.7998 30.0882 25.1573 31.3661 25.9469 31.6383C26.4914 31.0557 26.2318 30.168 26.4152 29.4601L26.6766 29.3566C27.0215 30.0718 26.8454 30.8796 26.9434 31.642L27.2012 31.6656C27.8129 31.21 27.7058 30.384 27.7094 29.7179C27.6531 29.1479 28.0035 28.6578 28.0724 28.1114C27.8383 27.0042 26.8182 26.338 26.2881 25.3995C25.9813 24.2469 25.9251 23.0398 25.5856 21.8944C25.4041 21.1102 24.9739 20.3751 24.9503 19.5619C25.1318 18.903 25.4604 18.2695 25.4713 17.5652C25.4717 16.7529 25.6231 15.9478 25.9178 15.1909C25.5446 14.7577 25.0669 14.4271 24.53 14.2304C23.9931 14.0338 23.4148 13.9776 22.8501 14.0673C22.4145 14.1581 21.8209 14.3051 21.7647 14.8406ZM7.29577 19.0264C7.04528 19.3368 6.78933 19.6454 6.53521 19.954C7.74776 20.5675 9.11641 21.0267 10.4887 20.8997C9.68819 19.9104 8.50106 19.3513 7.29577 19.0264ZM28.3284 27.8682C28.3983 28.372 28.5094 28.8692 28.6606 29.3548C29.1434 28.8284 28.6551 28.3165 28.3284 27.8682ZM28.1596 29.4801C27.9526 29.5763 28.0198 30.0119 28.2776 29.9448C28.4881 29.8486 28.4173 29.4057 28.1596 29.4801Z" fill="#755D4F"/>
<path d="M42.2577 5.2207C42.9483 5.93642 43.6831 6.60815 44.4577 7.23193C43.3831 7.05405 42.6153 6.20272 42.2577 5.2207Z" fill="#775D50"/>
<path d="M45.47 5.80859C45.7228 5.83339 45.9742 5.87095 46.2233 5.92114C46.4446 6.17328 46.6348 6.4512 46.7896 6.74886C46.415 6.75863 46.0402 6.74286 45.6678 6.70167C45.5988 6.39672 45.5317 6.09902 45.47 5.80859Z" fill="#FEFDFB"/>
<path d="M30.2261 10.8206C30.3538 10.493 30.5073 10.1762 30.6854 9.87305C30.8814 10.5465 30.9522 11.2562 31.2299 11.9042C31.5512 12.6485 32.4624 13.0351 32.5006 13.9155C32.0377 13.9917 31.5494 13.9808 31.161 13.6868C30.5728 12.8427 30.1717 11.8625 30.2261 10.8206Z" fill="#785B4C"/>
<path d="M33.3999 11.8535C33.6415 11.8176 33.8877 11.8268 34.126 11.8807C34.1859 12.0623 34.2422 12.2274 34.293 12.4053L33.6322 12.4199C33.5463 12.2311 33.4689 12.0423 33.3999 11.8535Z" fill="#745749"/>
<path d="M44.4582 12.7064C44.7722 12.6047 44.9047 13.1293 44.587 13.2019C44.2694 13.3036 44.1351 12.7735 44.4582 12.7064Z" fill="#C7AA94"/>
<path d="M43.0343 13.2216C43.2158 12.9548 43.675 13.2579 43.4626 13.523C43.2811 13.7952 42.8237 13.4848 43.0343 13.2216Z" fill="#B19580"/>
<path d="M31.4357 16.4912C31.6173 16.2208 32.0638 16.5475 31.8623 16.8071C31.6608 17.0666 31.2324 16.749 31.4357 16.4912Z" fill="#947863"/>
</g>
<defs>
<clipPath id="clip0_4932_88069">
<rect width="47.0425" height="32" fill="white"/>
</clipPath>
</defs>
</svg>
