<svg width="38" height="32" viewBox="0 0 38 32" fill="none" xmlns="http://www.w3.org/2000/svg">
<g clip-path="url(#clip0_4932_88190)">
<path d="M29.2451 0.970651C30.0901 0.939226 30.8928 0.593011 31.4956 0C31.5371 0.0730136 31.623 0.217609 31.666 0.286328L31.4384 0.94345C32.1542 0.994989 32.9502 0.94345 33.4985 1.48747L33.3825 1.466C32.7025 1.29134 31.9752 1.27559 31.3338 1.59771C32.2215 1.97423 33.1463 2.33071 33.8449 3.02935C35.1105 4.24624 36.293 5.67359 36.7483 7.40444C36.8461 7.704 37.0028 7.98097 37.2093 8.21904C37.1864 8.29778 37.1635 8.37652 37.1406 8.45812C36.8734 8.09903 36.5019 7.83107 36.0769 7.69077C36.326 8.44094 36.8986 9.04796 37.0575 9.83822C37.2752 10.8146 37.3052 11.8826 36.9144 12.8189C36.7111 13.32 36.1986 13.6006 35.7147 13.7609C35.1076 13.9613 34.4763 13.7323 33.8535 13.7609C33.4484 13.7609 33.2379 14.1503 33.0031 14.4152C33.2508 14.3436 33.4971 14.272 33.7433 14.1904C33.7504 14.6213 33.8751 15.0421 34.1041 15.4073C34.0282 15.5247 33.9509 15.6407 33.8736 15.7595C33.7161 15.6292 33.5586 15.4989 33.4011 15.3729C33.4255 15.5161 33.4527 15.6736 33.4827 15.8239C33.0876 16.0344 32.5937 16.1661 32.3374 16.5598C32.1728 17.0165 32.1871 17.5948 32.5064 17.9914C32.8757 18.2777 33.3653 18.345 33.8034 18.4853C33.4627 19.0351 32.9559 19.5075 32.3131 19.6607C31.258 19.9041 30.1656 19.5934 29.2122 19.1367C28.3804 18.7459 27.676 18.1475 26.9215 17.6321C26.9215 17.8125 26.9215 17.9957 26.9144 18.179C26.7412 18.2591 26.5694 18.3422 26.3976 18.4266C25.9194 17.8812 25.4341 17.3228 24.8013 16.9535C24.293 16.6428 23.7089 16.5054 23.1406 16.3579C23.1706 15.5691 23.2136 14.6958 22.7111 14.0315C22.1585 13.3014 21.3038 12.8361 20.8786 12.0014C19.7175 9.86686 19.6273 7.0995 20.8886 4.9864C21.4341 3.98425 22.4419 3.36722 23.1792 2.52112C23.6761 2.2661 24.1381 1.94803 24.5536 1.5748C25.1114 1.29166 25.7025 1.07956 26.3131 0.94345C27.288 0.798855 28.2673 1.05798 29.2451 0.970651ZM34.0726 4.13171C34.0826 4.80458 34.6123 5.28561 34.8843 5.86256C35.3882 6.76306 35.52 7.79671 35.7662 8.78167C35.9666 7.0723 35.1735 5.39298 34.0726 4.13171ZM26.8199 11.8726C26.4133 12.7316 26.7984 13.8898 27.6789 14.262C27.8056 14.2427 27.9235 14.1854 28.0171 14.0978C28.1106 14.0101 28.1754 13.8962 28.2029 13.7709C27.8464 13.6135 27.3739 13.4846 27.2694 13.0551C26.9158 12.2391 27.6087 11.3185 28.4147 11.1639C28.8113 11.1983 29.1406 11.4503 29.4899 11.6135C29.4613 11.267 29.4054 10.8576 29.0375 10.7072C28.127 10.4123 27.1492 11.0236 26.8199 11.8726ZM27.8707 13.1611L28.525 13.1238C28.4987 12.7591 28.4156 12.4007 28.2787 12.0616C27.8449 12.282 27.8063 12.7258 27.8707 13.1596V13.1611ZM35.1291 12.3665C35.2935 12.7546 35.5646 13.0882 35.9108 13.3286C35.8836 13.0852 36.054 12.816 35.8535 12.6127C35.6961 12.3679 35.3768 12.408 35.1291 12.3651V12.3665ZM22.0797 12.6528C22.807 13.1152 23.6789 13.5118 24.5579 13.3414C24.5293 13.2899 24.472 13.1883 24.4448 13.1367C23.6631 12.9535 22.8585 12.8661 22.0797 12.6586V12.6528Z" fill="#FFE1CC"/>
<path d="M35.5043 20.5699C35.6904 20.401 35.918 20.5398 36.1242 20.5828C35.6131 20.9951 34.7498 21.0681 34.5308 21.7639C35.1564 21.562 35.6875 21.1397 36.3246 20.9736C36.5408 20.8934 36.6868 21.0982 36.8486 21.1998C36.2888 21.3959 35.7205 21.5706 35.1807 21.8183V22.1991C35.7691 21.9572 36.5064 21.436 37.1049 21.9257C36.7169 22.4983 35.7691 22.1533 35.3869 22.7846C35.9452 22.7488 36.5322 22.5484 37.0719 22.7846L37.0319 23.0567C36.4492 23.1626 35.8393 23.2127 35.3253 23.5377C34.5938 23.8942 33.8178 24.5226 32.9574 24.2435C32.2559 23.887 32.0283 22.955 32.0984 22.2392C32.7198 21.7639 33.1321 21.1111 33.5973 20.4969C33.688 20.8842 33.6451 21.2908 33.4757 21.6508C34.2903 21.6179 34.8601 20.9994 35.5043 20.5699Z" fill="#FFE1CC"/>
<path d="M21.2451 30.2267C22.2559 30.0334 23.2337 29.6655 24.2616 29.5696C24.8457 29.5524 25.5944 29.5853 25.9094 30.1666C25.2185 30.2145 24.5254 30.2231 23.8335 30.1924C23.875 30.3828 23.918 30.576 23.9609 30.765C23.185 30.7235 22.3962 30.8552 21.6317 30.6992C21.4899 30.5546 21.3725 30.3856 21.2451 30.2267Z" fill="#FFE1CC"/>
<path d="M34.0723 4.13184C35.1718 5.39311 35.9649 7.07242 35.7659 8.7818C35.5197 7.79683 35.3879 6.76319 34.884 5.86269C34.6134 5.28574 34.0837 4.80471 34.0723 4.13184Z" fill="#775D50"/>
<path d="M22.08 12.6582C22.8588 12.8658 23.6633 12.9531 24.445 13.1421C24.4722 13.1936 24.5295 13.2953 24.5581 13.3468C23.6791 13.51 22.8072 13.1206 22.08 12.6582Z" fill="#775D50"/>
<path d="M21.4579 19.1109C22.1408 18.889 22.324 18.1288 22.7306 17.622C23.7685 17.5662 24.7163 18.1245 25.5008 18.7516C24.732 18.8003 23.9675 19.0136 23.3834 19.5404C23.8845 19.9255 24.4242 19.3157 24.9725 19.3557C25.9031 19.3915 26.7735 19.8396 27.5423 20.3393L27.2259 20.3536C28.1665 21.738 29.8473 22.3006 31.4149 22.6113C31.3722 23.2427 31.3674 23.8762 31.4006 24.5082C29.8458 24.4237 28.3641 23.8983 26.8294 23.6864C25.7857 23.5433 24.7392 23.4001 23.6798 23.3271C23.3282 23.2971 22.9745 23.3526 22.649 23.4889C23.4421 23.8139 24.3226 23.7437 25.1515 23.9255C24.2066 25.2011 22.6561 25.894 21.1214 26.1374C20.6791 26.1861 20.1737 26.3908 19.7671 26.1217C19.5352 25.6378 19.4149 25.0923 19.0513 24.6786C18.3483 23.8196 17.2875 23.297 16.2052 23.1324C15.9976 23.1324 15.5008 23.1324 15.7542 23.4101C16.5817 23.8597 17.5323 24.1116 18.2367 24.7759C18.8781 25.2899 19.3505 26.1804 19.0226 27.0007C18.5932 28.1875 17.4049 28.9033 16.2496 29.2613C15.4006 29.5719 14.4801 29.5676 13.6225 29.8425C14.3741 29.9398 15.1329 29.9484 15.8859 30.0229C16.4715 30.1546 16.7449 30.7988 16.7807 31.3486C15.8931 31.6349 14.9854 31.2283 14.0878 31.3872C13.2288 31.4316 12.2939 31.6592 11.5008 31.2441C11.0799 31.0436 11.0885 30.5197 11.2846 30.1618C11.7141 29.2584 12.4772 28.5726 13.2317 27.9427C13.7771 27.5132 14.3555 27.0837 15.0384 26.9019C15.5438 26.8146 16.0549 26.9162 16.5631 26.9019C16.3383 26.4653 15.8043 26.4438 15.3777 26.5154C15.1544 26.5154 14.8924 26.6313 14.702 26.4638C13.7442 25.6893 12.5473 25.2899 11.3877 24.9105C12.2467 25.5089 13.2059 26 13.9217 26.7831C13.4822 27.4545 12.7893 27.8668 12.1193 28.2706C11.5194 28.6027 11.2202 29.3242 10.5445 29.539C9.60964 29.8668 8.63413 30.0643 7.64541 30.126C6.6719 30.1832 5.66975 30.0129 4.72344 30.3164C3.58246 30.6795 2.38346 30.8252 1.18872 30.7459C1.78858 30.6671 2.48865 30.5726 2.85801 30.03C3.11714 29.7308 3.05558 29.3142 2.9525 28.9692L3.44928 29.2641C3.36338 28.9033 3.26889 28.5483 3.18443 28.1861C4.61606 28.1374 6.06918 28.219 7.47934 27.9112C7.97326 27.7752 8.56309 27.6822 8.8666 27.2197L8.99545 26.8962L8.48865 26.8146C9.08421 26.3665 9.79144 25.9756 10.1322 25.2813C10.3297 24.2863 10.0463 23.277 9.97612 22.282C10.732 20.7788 12.1236 19.5533 13.7771 19.1653C15.0914 18.869 16.3183 19.5948 17.6082 19.6922C17.9289 19.7323 18.2438 19.8654 18.5703 19.8167C19.5409 19.6134 20.5273 19.4517 21.4579 19.1109Z" fill="#DFECF2"/>
<path d="M27.2251 20.3542L27.5415 20.3398C28.1027 20.5689 28.6052 20.924 29.1664 21.1573C29.9381 21.5059 30.759 21.7329 31.6002 21.8302C31.5372 22.0898 31.4732 22.3503 31.4083 22.6119C29.8464 22.3012 28.1657 21.7386 27.2251 20.3542Z" fill="#FCFEFE"/>
<path d="M20.526 5.15426C21.1488 4.06765 21.9491 2.92377 23.1846 2.5C22.4459 3.3461 21.438 3.95884 20.894 4.96528C19.6327 7.07981 19.7229 9.84717 20.8839 11.9803C21.3134 12.815 22.1638 13.2802 22.7164 14.0104C23.2175 14.6747 23.1746 15.548 23.1459 16.3368C23.7186 16.48 24.2912 16.6231 24.8066 16.9324C25.4394 17.3017 25.9247 17.8601 26.4029 18.4055C26.5747 18.321 26.7465 18.238 26.9197 18.1578C26.9197 17.9746 26.9197 17.7913 26.9269 17.611C27.6785 18.1263 28.3829 18.7248 29.2175 19.1156C30.1696 19.5723 31.2633 19.883 32.3184 19.6396C32.9613 19.4864 33.4638 19.014 33.8088 18.4642C34.1567 17.568 33.7701 16.6603 33.4895 15.8099C33.4595 15.6668 33.4323 15.5079 33.4079 15.359C33.5654 15.485 33.7229 15.6152 33.8804 15.7455C33.9577 15.6267 34.035 15.5107 34.1109 15.3933C33.8794 15.028 33.7526 14.606 33.7444 14.1736C33.4981 14.2509 33.2519 14.3268 33.0042 14.3984C33.239 14.1335 33.4494 13.7398 33.8546 13.7441C34.4716 13.7226 35.103 13.9517 35.7157 13.7441C36.2053 13.5838 36.7179 13.3031 36.9154 12.8021C37.3106 11.8658 37.2805 10.7978 37.0586 9.8214C36.8997 9.03543 36.327 8.42842 36.0779 7.67394C36.5037 7.81578 36.8753 8.08581 37.1416 8.44703C37.9305 9.97602 38.1438 12.0018 37.1731 13.5036C36.8023 14.1378 36.0192 14.2523 35.4552 14.6489C35.1248 14.8668 34.8737 15.1857 34.7393 15.558C34.5623 15.932 34.4765 16.3427 34.4888 16.7563L35.0457 16.5229C35.0686 16.2795 35.0901 16.0361 35.1187 15.7942C35.2529 15.9622 35.3646 16.147 35.4509 16.344C35.3736 16.6632 35.1016 16.8665 34.8782 17.087C34.4287 17.4492 34.4659 18.0891 34.1896 18.5616C33.2791 20.3969 30.6721 20.9624 28.987 19.8873C28.5275 19.6181 28.0221 19.3275 27.4681 19.4707C28.1753 20.0848 29.0257 20.5157 29.8789 20.8908C30.6864 21.2487 31.5969 21.1986 32.4244 21.4635C32.7107 21.044 32.8997 20.5616 33.239 20.175C33.4275 20.1279 33.6187 20.0925 33.8116 20.0691C33.9351 20.3923 34.0407 20.7221 34.128 21.0569C34.7007 20.6976 35.1917 19.9703 35.9505 20.0963C36.3084 20.344 36.6205 20.6589 37.0156 20.8579C37.1087 21.3661 37.4108 21.8329 37.3607 22.364C37.3249 22.6933 37.5124 23.16 37.1459 23.3547C36.7422 23.4979 36.2984 23.5136 35.9004 23.684C35.176 23.9932 34.5676 24.5272 33.8145 24.7792C33.4108 24.9223 32.9655 24.8006 32.5618 24.9481C32.1581 25.0956 31.7028 25.1929 31.2733 25.1271C29.531 24.908 27.8374 24.3984 26.108 24.1249C25.6785 24.4112 25.3922 24.8865 24.9741 25.2029C24.6363 25.4893 24.181 25.6496 23.9133 26.0147C23.5468 26.7563 23.5568 27.6009 23.4838 28.4069C23.4237 28.7233 23.6771 28.9581 23.8231 29.2101C24.5103 29.1815 25.2733 29.0583 25.8875 29.452C26.1739 29.6253 26.2669 29.9746 26.3958 30.2666C25.846 30.5272 25.2347 30.5444 24.6391 30.5802C24.2096 31.3046 23.2705 31.2473 22.5389 31.2674C21.9992 31.213 21.2504 31.2101 21.0114 30.6145C20.8209 30.1607 20.4731 29.7398 20.5003 29.2244C20.5275 28.4442 20.7351 27.6868 20.9412 26.9338C20.5446 26.9581 20.1481 26.9853 19.7515 27.0082C19.5454 27.5265 19.3421 28.0662 18.9541 28.4814C18.2579 29.1757 17.3743 29.6518 16.4115 29.8515C16.778 30.281 17.1273 30.7691 17.1416 31.3504C17.093 31.7069 16.725 31.8772 16.3986 31.8801C15.5482 31.9073 14.6978 31.7813 13.8503 31.8801C12.9111 31.9617 11.8303 32.1779 11.0056 31.5938C10.5475 31.2659 10.5475 30.6704 10.5518 30.1621C9.88842 30.3356 9.21532 30.4694 8.53605 30.563C7.62267 30.6475 6.70356 30.563 5.79017 30.6403C4.1624 30.7448 2.56755 31.3475 0.922597 31.0927C0.561824 31.0283 0.115152 30.898 0.00634766 30.4971C0.23541 29.7942 1.1717 29.8429 1.58115 29.3089C1.85889 28.8379 1.7959 28.248 2.05359 27.7684C2.28122 27.3848 2.7236 27.2072 3.13877 27.1099C4.38287 26.8021 5.71572 27.0841 6.92689 26.6117C7.78587 26.311 8.74221 26.039 9.31057 25.2874C9.88323 24.3311 9.52818 23.1872 9.39647 22.1636C9.2533 20.9252 10.0851 19.8286 11.0471 19.15C11.8632 18.6117 12.7036 18.0247 13.6713 17.7527C14.5303 17.5322 15.3564 17.9216 16.181 18.0877C16.9813 18.2309 17.7673 18.5673 18.5962 18.4442C19.6398 18.3096 20.7293 18.1578 21.6484 17.611C21.9348 17.4979 21.9018 17.1557 21.982 16.9152C21.9949 16.5573 22.4115 16.4857 22.6148 16.2638C22.8181 15.7298 22.7179 15.1328 22.5303 14.6102C22.2784 13.9574 21.6585 13.5752 21.176 13.1099C20.3657 12.3941 20.055 11.3046 19.8188 10.2881C19.428 8.56729 19.6413 6.70043 20.526 5.15426ZM21.8932 17.8443C20.4215 18.6847 18.7007 18.9223 17.0257 18.9481C17.5145 19.2766 18.0297 19.5639 18.5661 19.8071C18.2397 19.8558 17.9247 19.7226 17.6041 19.6825C16.7912 19.0922 15.8833 18.6453 14.9197 18.3611C13.8804 18.0748 12.8324 18.5487 11.972 19.0999C11.2433 19.578 10.423 20.0519 10.0335 20.8708C9.81451 21.3089 9.89038 21.81 9.97199 22.2724C10.0421 23.2674 10.3256 24.2767 10.128 25.2717C9.78731 25.966 9.08008 26.3568 8.48451 26.8049L8.99131 26.8865L8.86247 27.2101C7.65273 27.4105 6.42868 27.2903 5.20606 27.4019C4.36998 27.4749 3.40792 27.2989 2.69353 27.8429C2.34994 28.3411 2.39003 29.0125 2.0994 29.5465C1.63412 29.8772 1.0629 30.0276 0.610499 30.3826C0.793324 30.5131 0.984633 30.6312 1.18316 30.7362C2.37789 30.8155 3.5769 30.6698 4.71787 30.3067C5.66419 30.0032 6.66633 30.1736 7.63985 30.1163C8.62856 30.0546 9.60408 29.8571 10.5389 29.5293C11.2118 29.3146 11.511 28.5931 12.1137 28.2609C12.7837 27.8572 13.4766 27.4449 13.9162 26.7734C13.2003 25.9903 12.244 25.4993 11.3822 24.9009C12.5418 25.2874 13.7386 25.6868 14.7079 26.4599C14.8983 26.6274 15.1602 26.5129 15.3836 26.5115C15.8131 26.4399 16.3442 26.4613 16.569 26.898C16.0607 26.9152 15.5497 26.8135 15.0443 26.898C14.3614 27.0741 13.783 27.5079 13.2376 27.9388C12.4831 28.5687 11.7186 29.2545 11.2905 30.1578C11.0944 30.5157 11.0858 31.0397 11.5067 31.2402C12.2998 31.6539 13.2419 31.4263 14.0937 31.3833C14.9913 31.2244 15.899 31.6267 16.7866 31.3447C16.7565 30.7949 16.4774 30.1507 15.8918 30.019C15.1388 29.9445 14.38 29.9359 13.6284 29.8386C14.4874 29.5637 15.4065 29.568 16.2555 29.2573C17.4108 28.8994 18.5919 28.1836 19.0285 26.9968C19.3564 26.1765 18.8854 25.286 18.2426 24.772C17.5382 24.1077 16.5876 23.8558 15.7601 23.4062C15.5067 23.1199 16.0035 23.1199 16.2111 23.1285C17.2934 23.2931 18.3585 23.8214 19.0572 24.6747C19.4165 25.0884 19.5368 25.6339 19.773 26.1178C20.1796 26.3869 20.6849 26.1822 21.1273 26.1335C22.662 25.8901 24.2125 25.1972 25.1574 23.9216C24.3285 23.7398 23.448 23.8099 22.6549 23.485C22.9804 23.3487 23.334 23.2932 23.6857 23.3232C24.7379 23.3976 25.7844 23.5365 26.8353 23.6825C28.37 23.8944 29.8517 24.4198 31.4065 24.5043C31.3733 23.8723 31.3781 23.2388 31.4208 22.6074C31.4848 22.3459 31.5487 22.0853 31.6126 21.8257C30.7715 21.7284 29.9505 21.5014 29.1789 21.1528C28.6177 20.9195 28.1152 20.5644 27.554 20.3354C26.7852 19.8357 25.9147 19.3876 24.9842 19.3518C24.4358 19.3117 23.8961 19.9245 23.395 19.5365C23.9791 19.0097 24.7436 18.7963 25.5124 18.7477C25.6943 18.8651 25.9204 18.8694 26.1252 18.9238C25.2218 17.7427 23.8346 16.9896 22.4029 16.6732C22.065 16.9853 22.1323 17.4893 21.8932 17.8457V17.8443ZM35.4938 20.5644C34.8553 20.9939 34.2855 21.6052 33.4595 21.6324C33.6289 21.2725 33.6718 20.8659 33.5812 20.4785C33.1159 21.0927 32.7036 21.7455 32.0822 22.2208C32.0164 22.9452 32.244 23.8744 32.9412 24.2251C33.8002 24.5115 34.5776 23.8758 35.3091 23.5193C35.8231 23.1943 36.433 23.1442 37.0156 23.0383L37.0557 22.7663C36.5117 22.5329 35.929 22.7334 35.3707 22.7663C35.7487 22.1392 36.6964 22.48 37.0887 21.9073C36.4902 21.4177 35.7529 21.9388 35.1645 22.1807V21.7999C35.7043 21.5523 36.2726 21.3704 36.8324 21.1815C36.6706 21.0798 36.5246 20.8751 36.3084 20.9553C35.6713 21.1213 35.1402 21.5437 34.5146 21.7455C34.7336 21.0497 35.5969 20.9767 36.108 20.5644C35.9133 20.5401 35.6857 20.4012 35.5053 20.5701L35.4938 20.5644ZM21.3106 26.8722C21.0586 27.7727 20.8653 28.709 20.9083 29.6482L21.1044 29.8386C21.8632 29.8386 22.5761 29.5322 23.2819 29.2845C22.7794 28.3654 23.156 27.306 23.2376 26.3311C22.6048 26.5315 21.9677 26.7291 21.3163 26.878L21.3106 26.8722ZM21.2404 30.2208C21.3678 30.3797 21.4852 30.5487 21.627 30.6976C22.3915 30.8536 23.1803 30.7219 23.9562 30.7634C23.9133 30.5702 23.8703 30.3769 23.8288 30.1908C24.5207 30.2216 25.2138 30.2129 25.9047 30.165C25.5897 29.5837 24.841 29.5508 24.2569 29.568C23.2347 29.6654 22.2569 30.0333 21.2461 30.2266L21.2404 30.2208Z" fill="#745D52"/>
<path d="M31.334 1.5975C31.9754 1.27538 32.7026 1.29112 33.3827 1.46578C32.999 1.55168 32.6096 1.59177 32.2202 1.64044C34.3347 2.44073 35.9682 4.20022 36.9904 6.17588C37.2452 6.8058 37.7706 7.59463 37.2094 8.21167C37.003 7.9736 36.8462 7.69663 36.7484 7.39707C36.2932 5.66621 35.1106 4.23887 33.8451 3.02198C33.1464 2.33049 32.2216 1.97402 31.334 1.5975Z" fill="#735D50"/>
<path d="M26.8205 11.8729C27.1498 11.0139 28.1276 10.4127 29.0353 10.7061C29.4032 10.8493 29.4648 11.2659 29.4877 11.6124C29.1383 11.4463 28.8091 11.1972 28.4125 11.1628C27.6036 11.3175 26.9107 12.238 27.2672 13.054C27.3717 13.4835 27.8398 13.6138 28.2006 13.7699C28.174 13.8933 28.1111 14.006 28.0201 14.0934C27.929 14.1809 27.8139 14.2392 27.6895 14.2609C26.799 13.8872 26.4139 12.7276 26.8205 11.8729Z" fill="#775A49"/>
<path d="M27.8707 13.1591C27.8063 12.7296 27.845 12.2815 28.2788 12.0596C28.4156 12.3987 28.4987 12.7571 28.525 13.1218L27.8707 13.1591Z" fill="#7A5D4C"/>
<path d="M35.13 12.3652C35.3777 12.4082 35.7027 12.3652 35.8544 12.6129C36.0606 12.8148 35.8845 13.0839 35.9117 13.3287C35.5652 13.088 35.2942 12.7539 35.13 12.3652Z" fill="#7C634D"/>
<path d="M34.7465 15.5615C34.8725 15.6388 34.9999 15.7176 35.1259 15.7977C35.0972 16.0397 35.0757 16.2831 35.0528 16.5264L34.5031 16.7598C34.4885 16.3468 34.5719 15.9361 34.7465 15.5615Z" fill="#FFE3CC"/>
<path d="M32.3362 16.5484C32.5939 16.1547 33.0879 16.023 33.4816 15.8125C33.7679 16.6629 34.1487 17.5706 33.8008 18.4668C33.3627 18.3236 32.8731 18.2649 32.5037 17.9728C32.1859 17.5834 32.1716 17.0051 32.3362 16.5484Z" fill="#FED5BF"/>
<path d="M21.8925 17.845C22.1316 17.4885 22.0643 16.986 22.3879 16.6768C23.8195 16.9932 25.2096 17.7462 26.1101 18.9273C25.9054 18.8729 25.6806 18.8686 25.4974 18.7512C24.7128 18.1241 23.7651 17.5658 22.7272 17.6216C22.3206 18.1284 22.1373 18.8886 21.4544 19.1105C20.5239 19.4513 19.5375 19.613 18.5668 19.8049C18.0304 19.5617 17.5152 19.2744 17.0264 18.9459C18.7 18.923 20.4208 18.6853 21.8925 17.845Z" fill="#FDFEFB"/>
<path d="M11.9758 19.0986C12.8348 18.5474 13.8841 18.0778 14.9235 18.3599C15.8876 18.6439 16.796 19.0908 17.6093 19.6813C16.3208 19.581 15.0925 18.8581 13.7782 19.1544C12.1232 19.5424 10.7374 20.7679 9.97577 22.2711C9.88701 21.8087 9.81829 21.3076 10.0373 20.8695C10.4267 20.0506 11.2471 19.5768 11.9758 19.0986Z" fill="#FDFEFB"/>
<path d="M21.3155 26.8781C21.9669 26.7349 22.604 26.5316 23.2425 26.3369C23.1609 27.3119 22.7844 28.3713 23.2869 29.2904C22.5811 29.5381 21.8681 29.8401 21.1094 29.8444L20.9132 29.654C20.8703 28.7149 21.0635 27.7743 21.3155 26.8781Z" fill="#E1EDF3"/>
<path d="M5.20936 27.3998C6.42626 27.2882 7.65604 27.4084 8.86577 27.208C8.56226 27.6704 7.97243 27.7635 7.47851 27.8995C6.07121 28.2073 4.61523 28.1257 3.18359 28.1744L2.6725 28.13C2.76556 28.4049 2.86434 28.6783 2.95167 28.9575C3.05475 29.3039 3.11631 29.7191 2.85718 30.0183C2.48782 30.5609 1.78775 30.6554 1.18789 30.7341C0.989368 30.6291 0.798059 30.511 0.615234 30.3805C1.06763 30.0255 1.63886 29.8752 2.10414 29.5444C2.39047 29.0104 2.35468 28.339 2.69827 27.8408C3.41123 27.2968 4.37329 27.4729 5.20936 27.3998Z" fill="#FBFEFB"/>
</g>
<defs>
<clipPath id="clip0_4932_88190">
<rect width="37.8196" height="32" fill="white"/>
</clipPath>
</defs>
</svg>
