<svg width="40" height="40" viewBox="0 0 40 40" fill="none" xmlns="http://www.w3.org/2000/svg">
<path d="M9.30748 4.62955C16.993 4.62955 22.2708 0.648438 25.9741 0.648438C29.6775 0.648438 37.4553 2.77733 37.4553 19.814C37.4553 36.8507 26.9919 39.3507 22.9186 39.3507C3.84414 39.3518 -4.30363 4.62955 9.30748 4.62955Z" fill="#EFEFEF"/>
<path d="M19.7015 27.8141L12.9359 31.8597C12.4948 32.123 11.9537 31.7297 12.067 31.2275L13.8148 23.5275C13.8626 23.3175 13.7915 23.0986 13.6304 22.9575L7.70035 17.7575C7.31369 17.4186 7.52035 16.7808 8.03258 16.7341L15.8792 16.0208C16.0926 16.0019 16.2792 15.8664 16.3637 15.6686L19.4648 8.40969C19.667 7.93635 20.3359 7.93635 20.5381 8.40969L23.6392 15.6686C23.7237 15.8664 23.9092 16.0019 24.1237 16.0208L31.9704 16.7341C32.4815 16.7808 32.6881 17.4186 32.3026 17.7575L26.3726 22.9564C26.2115 23.0975 26.1404 23.3175 26.1881 23.5264L27.9359 31.2264C28.0504 31.7286 27.5081 32.1219 27.067 31.8586L20.3015 27.813C20.1148 27.7041 19.8859 27.7041 19.7015 27.8141Z" fill="white"/>
<path d="M16.3151 23.5275C16.3629 23.3175 16.2918 23.0986 16.1307 22.9575L10.2007 17.7575C9.81403 17.4186 10.0207 16.7808 10.5329 16.7341L18.0918 16.6664C18.3051 16.6475 18.4918 16.5119 18.5763 16.3141L21.2507 10.0797L20.5374 8.40969C20.3351 7.93635 19.6663 7.93635 19.464 8.40969L16.3629 15.6686C16.2785 15.8664 16.0929 16.0019 15.8785 16.0208L8.03181 16.7341C7.5207 16.7808 7.31403 17.4186 7.69959 17.7575L13.6296 22.9564C13.7907 23.0975 13.8618 23.3175 13.814 23.5264L12.0663 31.2264C11.9518 31.7286 12.494 32.1219 12.9351 31.8586L14.6574 30.8286L16.3151 23.5275Z" fill="#FFD9CE"/>
<path d="M22.7989 27.8149C22.6144 27.7049 22.3844 27.7049 22.2011 27.8149L21.25 28.3838L27.0644 31.8616C27.5056 32.1249 28.0467 31.7316 27.9333 31.2294L27.8433 30.8316L22.7989 27.8149Z" fill="#FFD9CE"/>
<path d="M12.6354 32.7771C12.3432 32.7771 12.0532 32.686 11.8054 32.5071C11.3443 32.1727 11.1287 31.5982 11.2543 31.0438L12.9698 23.4871L7.15205 18.3849C6.72427 18.0115 6.56205 17.4193 6.7376 16.8793C6.91205 16.3393 7.39094 15.956 7.95649 15.9049L15.6543 15.206L18.6976 8.08377C18.9209 7.56043 19.432 7.22266 19.9998 7.22266C20.5676 7.22266 21.0787 7.56043 21.3032 8.08266L24.3465 15.206L25.6298 15.3227L25.4798 16.9827L24.0465 16.8527C23.5232 16.8049 23.0732 16.476 22.8687 15.9938L19.9998 9.27488L17.1276 15.9971C16.9254 16.476 16.4754 16.8049 15.9532 16.8527L8.68427 17.5127L14.1776 22.3304C14.5709 22.6749 14.7432 23.2038 14.6265 23.7127L13.0076 30.8449L19.272 27.0993C19.7209 26.8315 20.2765 26.8315 20.7265 27.0993L26.9909 30.846L25.372 23.7138C25.2565 23.206 25.4287 22.676 25.8209 22.3327L31.3143 17.5149L27.7009 17.1871L27.8532 15.5271L32.0432 15.9082C32.6087 15.9593 33.0865 16.3427 33.262 16.8827C33.4376 17.4227 33.2754 18.0149 32.8476 18.3882L27.0298 23.4893L28.7454 31.046C28.8709 31.6015 28.6554 32.176 28.1943 32.5093C27.7343 32.8427 27.1209 32.8682 26.6365 32.5771L19.9998 28.6071L13.362 32.576C13.1376 32.7093 12.8876 32.7771 12.6354 32.7771ZM15.5943 15.3438C15.5943 15.3438 15.5943 15.3449 15.5932 15.346L15.5943 15.3438ZM24.4032 15.3404L24.4043 15.3427C24.4043 15.3415 24.4043 15.3415 24.4032 15.3404Z" fill="#525252"/>
</svg>
