<svg width="40" height="40" viewBox="0 0 40 40" fill="none" xmlns="http://www.w3.org/2000/svg">
<path d="M4.63004 30.6927C4.63004 23.0071 0.648926 17.7294 0.648926 14.026C0.648926 10.3227 2.77782 2.54492 19.8145 2.54492C36.8512 2.54492 39.3512 13.0083 39.3512 17.0816C39.3523 36.156 4.63004 44.3038 4.63004 30.6927Z" fill="#EFEFEF"/>
<path d="M29.1659 32.4996H10.8325C10.2192 32.4996 9.72144 32.0018 9.72144 31.3885V20.2773H30.277V31.3885C30.277 32.0018 29.7792 32.4996 29.1659 32.4996Z" fill="white"/>
<path d="M31.3889 20.2773H8.61111C7.99778 20.2773 7.5 19.7796 7.5 19.1662V16.3885C7.5 15.7751 7.99778 15.2773 8.61111 15.2773H31.3889C32.0022 15.2773 32.5 15.7751 32.5 16.3885V19.1662C32.5 19.7796 32.0022 20.2773 31.3889 20.2773Z" fill="white"/>
<path d="M20 14.7712C20 14.7712 21.0822 7.45117 27.0322 7.45117C32.9822 7.45117 30.8189 14.7712 20 14.7712Z" fill="white"/>
<path d="M20.0015 14.7712C20.0015 14.7712 18.9192 7.45117 12.9692 7.45117C7.01924 7.45117 9.18368 14.7712 20.0015 14.7712Z" fill="white"/>
<path d="M14.1051 7.55228C13.7462 7.49006 13.3706 7.45117 12.9695 7.45117C7.01951 7.45117 9.18285 14.7712 20.0017 14.7712C20.0017 14.7712 19.9928 14.7201 19.9795 14.6467C11.7895 13.7856 9.93951 8.34228 14.1051 7.55228Z" fill="#FFD9CE"/>
<path d="M28.1189 7.55228C27.7911 7.49006 27.4333 7.45117 27.0322 7.45117C21.0822 7.45117 20 14.7712 20 14.7712C20.8 14.7712 21.5378 14.7201 22.2444 14.6467C22.3989 13.7856 23.56 8.34228 28.1189 7.55228Z" fill="#FFD9CE"/>
<path d="M11.9437 31.3885V20.2773H9.72144V31.3885C9.72144 32.0018 10.2192 32.4996 10.8325 32.4996H13.0548C12.4414 32.4996 11.9437 32.0018 11.9437 31.3885Z" fill="#FFD9CE"/>
<path d="M9.72222 19.1662V16.3885C9.72222 15.7751 10.22 15.2773 10.8333 15.2773H8.61111C7.99778 15.2773 7.5 15.7751 7.5 16.3885V19.1662C7.5 19.7796 7.99778 20.2773 8.61111 20.2773H10.8333C10.22 20.2773 9.72222 19.7796 9.72222 19.1662Z" fill="#FFD9CE"/>
<path d="M29.1671 33.3342H10.8337C9.7615 33.3342 8.88928 32.462 8.88928 31.3898V20.2786C8.88928 19.8186 9.26262 19.4453 9.72262 19.4453H24.0315V21.112H10.5559V31.3898C10.5559 31.5431 10.6804 31.6675 10.8337 31.6675H29.1671C29.3204 31.6675 29.4448 31.5431 29.4448 31.3898V21.112H27.0537V19.4453H30.2782C30.7382 19.4453 31.1115 19.8186 31.1115 20.2786V31.3898C31.1115 32.462 30.2393 33.3342 29.1671 33.3342Z" fill="#525252"/>
<path d="M31.3884 21.112H27.0872V19.4453H31.3884C31.5417 19.4453 31.6661 19.3209 31.6661 19.1675V16.3898C31.6661 16.2364 31.5417 16.112 31.3884 16.112H8.61058C8.45725 16.112 8.3328 16.2364 8.3328 16.3898V19.1675C8.3328 19.3209 8.45725 19.4453 8.61058 19.4453H24.0584V21.112H8.61058C7.53836 21.112 6.66614 20.2398 6.66614 19.1675V16.3898C6.66614 15.3175 7.53836 14.4453 8.61058 14.4453H31.3884C32.4606 14.4453 33.3328 15.3175 33.3328 16.3898V19.1675C33.3328 20.2398 32.4606 21.112 31.3884 21.112Z" fill="#525252"/>
<path d="M20.0009 15.605C19.7587 15.605 19.5275 15.4994 19.3709 15.3161C19.212 15.1327 19.142 14.8894 19.1764 14.6494C19.5875 11.8716 21.7575 6.61719 27.0331 6.61719C30.0442 6.6183 31.112 8.24497 31.112 9.6383C31.112 12.115 27.6642 15.605 20.0009 15.605ZM27.0331 8.28497C23.0531 8.28497 21.542 12.0683 21.0409 13.9139C24.1809 13.7672 26.1609 12.9727 27.3009 12.2961C28.882 11.3572 29.4453 10.3072 29.4453 9.63719C29.4453 8.63941 28.1998 8.28497 27.0331 8.28497Z" fill="#525252"/>
<path d="M20.0004 15.6039C12.3371 15.6039 8.88928 12.1139 8.88928 9.63719C8.88928 8.24385 9.95817 6.61719 12.9693 6.61719C18.2437 6.61719 20.4137 11.8716 20.8248 14.6494C20.8593 14.8894 20.7893 15.1327 20.6304 15.3161C20.4737 15.4983 20.2426 15.6039 20.0004 15.6039ZM12.9693 8.28385C11.8026 8.28385 10.5559 8.63941 10.5559 9.63719C10.5559 11.0561 13.0371 13.6416 18.9593 13.9139C18.4593 12.0672 16.9482 8.28385 12.9693 8.28385Z" fill="#525252"/>
<path d="M19.1661 15H20.8328V32.5H19.1661V15Z" fill="#525252"/>
</svg>
