<svg width="40" height="40" viewBox="0 0 40 40" fill="none" xmlns="http://www.w3.org/2000/svg">
<path d="M30.692 4.62955C23.0064 4.62955 17.7286 0.648438 14.0253 0.648438C10.322 0.648438 2.54419 2.77733 2.54419 19.814C2.54419 36.8507 13.0075 39.3507 17.0809 39.3507C36.1553 39.3518 44.3031 4.62955 30.692 4.62955Z" fill="#EFEFEF"/>
<path d="M29.667 21.6445L27.2448 30.8668C27.1003 31.389 26.7559 31.8668 26.2559 32.1779C25.7225 32.5001 25.1225 32.5668 24.567 32.4334L19.6892 31.2445L29.667 21.6445Z" fill="white"/>
<path d="M31.4567 19.9222C32.0989 19.3144 32.5 18.4544 32.5 17.5V9.72222C32.5 8.49444 31.5056 7.5 30.2778 7.5H22.5C21.5467 7.5 20.6856 7.90111 20.0778 8.54222L8.10778 20.9733C7.73111 21.3711 7.5 21.9089 7.5 22.5C7.5 23.1133 7.74889 23.6689 8.15111 24.0711L15.9289 31.8489C16.3311 32.2511 16.8867 32.5 17.5 32.5C18.0911 32.5 18.6289 32.2689 19.0267 31.8922L31.4567 19.9222Z" fill="white"/>
<path d="M27.7782 13.6118C28.5452 13.6118 29.1671 12.9899 29.1671 12.2229C29.1671 11.4558 28.5452 10.834 27.7782 10.834C27.0111 10.834 26.3893 11.4558 26.3893 12.2229C26.3893 12.9899 27.0111 13.6118 27.7782 13.6118Z" fill="#2FDF84"/>
<path d="M18.4289 31.8489L10.6511 24.0711C10.2489 23.6689 10 23.1133 10 22.5C10 21.9089 10.2311 21.3711 10.6078 20.9733L22.5778 8.54222C23.1856 7.9 24.0456 7.5 25 7.5H22.5C21.5467 7.5 20.6856 7.90111 20.0778 8.54222L8.10778 20.9733C7.73111 21.3711 7.5 21.9089 7.5 22.5C7.5 23.1133 7.74889 23.6689 8.15111 24.0711L15.9289 31.8489C16.3311 32.2511 16.8867 32.5 17.5 32.5C17.9633 32.5 18.3911 32.3544 18.7467 32.1122C18.6333 32.0333 18.5256 31.9467 18.4289 31.8489Z" fill="#FFD9CE"/>
<path d="M22.1892 31.2445L28.8214 24.8634L29.667 21.6445L19.6892 31.2445L24.567 32.4334C25.0948 32.5601 25.6625 32.499 26.1748 32.2156L22.1892 31.2445Z" fill="#FFD9CE"/>
<path d="M28.8893 12.2229C28.8893 12.0118 28.9437 11.8173 29.0282 11.6384C28.8059 11.1662 28.3337 10.834 27.7782 10.834C27.0115 10.834 26.3893 11.4562 26.3893 12.2229C26.3893 12.9895 27.0115 13.6118 27.7782 13.6118C28.3337 13.6118 28.8059 13.2795 29.0282 12.8073C28.9437 12.6284 28.8893 12.434 28.8893 12.2229Z" fill="white"/>
<path d="M25.106 33.3305C24.8616 33.3305 24.616 33.3016 24.3727 33.2428L19.4905 32.0528L19.8849 30.4339L24.7638 31.6228C25.0227 31.685 25.4194 31.7094 25.8238 31.4639C26.1249 31.2772 26.346 30.9839 26.4405 30.6439L28.8605 21.4316L30.4727 21.855L28.0494 31.0772C27.8405 31.8328 27.3605 32.4705 26.6938 32.885C26.2071 33.1794 25.6616 33.3305 25.106 33.3305Z" fill="#525252"/>
<path d="M17.4995 33.3327C16.6828 33.3327 15.9139 33.0149 15.3384 32.4371L7.56169 24.6593C6.98392 24.0838 6.66614 23.316 6.66614 22.4993C6.66614 21.7149 6.9628 20.9693 7.50169 20.3994L19.4773 7.96379C20.255 7.14157 21.3595 6.66602 22.4995 6.66602H30.2773C31.9628 6.66602 33.3328 8.03602 33.3328 9.72157V17.4993C33.3328 18.6382 32.8584 19.7405 32.0317 20.5238L19.605 32.4916C19.0295 33.036 18.2828 33.3327 17.4995 33.3327ZM22.4995 8.33268C21.805 8.33268 21.1606 8.61046 20.6828 9.11491L8.70725 21.5505C8.46725 21.8038 8.3328 22.1427 8.3328 22.4993C8.3328 22.8705 8.47725 23.2193 8.73947 23.4805L16.5172 31.2582C17.0317 31.7727 17.9261 31.786 18.4528 31.2849L30.8784 19.3216C30.8806 19.3193 30.8828 19.3182 30.8839 19.316C31.3884 18.8393 31.6661 18.1938 31.6661 17.4993V9.72157C31.6661 8.95602 31.0428 8.33268 30.2773 8.33268H22.4995Z" fill="#525252"/>
<path d="M27.7778 14.4444C26.5522 14.4444 25.5555 13.4478 25.5555 12.2222C25.5555 10.9967 26.5522 10 27.7778 10C29.0033 10 30 10.9967 30 12.2222C30 13.4478 29.0033 14.4444 27.7778 14.4444ZM27.7778 11.6667C27.4722 11.6667 27.2222 11.9156 27.2222 12.2222C27.2222 12.5289 27.4722 12.7778 27.7778 12.7778C28.0833 12.7778 28.3333 12.5289 28.3333 12.2222C28.3333 11.9156 28.0833 11.6667 27.7778 11.6667Z" fill="#525252"/>
</svg>
