<svg width="40" height="40" viewBox="0 0 40 40" fill="none" xmlns="http://www.w3.org/2000/svg">
<path d="M9.30748 35.3707C16.993 35.3707 22.2708 39.3518 25.9741 39.3518C29.6775 39.3518 37.4553 37.2229 37.4553 20.1862C37.4553 3.14955 26.9919 0.648438 22.9186 0.648438C3.84414 0.648438 -4.30363 35.3707 9.30748 35.3707Z" fill="#EFEFEF"/>
<path d="M20.9959 8.70904L23.1837 7.71459C24.4526 7.13793 25.9448 7.7557 26.4348 9.06126L27.2793 11.3113C27.5237 11.9624 28.0371 12.4757 28.6882 12.7201L30.9382 13.5646C32.2437 14.0546 32.8615 15.5468 32.2848 16.8157L31.2904 19.0035C31.0026 19.6368 31.0026 20.3624 31.2904 20.9957L32.2848 23.1835C32.8615 24.4524 32.2437 25.9446 30.9382 26.4346L28.6882 27.279C28.0371 27.5235 27.5237 28.0368 27.2793 28.6879L26.4348 30.9379C25.9448 32.2435 24.4526 32.8613 23.1837 32.2846L20.9959 31.2901C20.3626 31.0024 19.6371 31.0024 19.0037 31.2901L16.8159 32.2846C15.5471 32.8613 14.0548 32.2435 13.5648 30.9379L12.7204 28.6879C12.4759 28.0368 11.9626 27.5235 11.3115 27.279L9.0615 26.4346C7.75595 25.9446 7.13817 24.4524 7.71484 23.1835L8.70928 20.9957C8.99706 20.3624 8.99706 19.6368 8.70928 19.0035L7.71484 16.8157C7.13817 15.5468 7.75595 14.0546 9.0615 13.5646L11.3115 12.7201C11.9626 12.4757 12.4759 11.9624 12.7204 11.3113L13.5648 9.06126C14.0548 7.7557 15.5471 7.13793 16.8159 7.71459L19.0037 8.70904C19.6359 8.99681 20.3626 8.99681 20.9959 8.70904Z" fill="white"/>
<path d="M16.0648 30.9368L15.2204 28.6868C14.9759 28.0357 14.4626 27.5224 13.8115 27.2779L11.5615 26.4335C10.2559 25.9435 9.63817 24.4513 10.2148 23.1824L11.2093 20.9946C11.4971 20.3613 11.4971 19.6357 11.2093 19.0024L10.2148 16.8146C9.63817 15.5457 10.2559 14.0535 11.5615 13.5635L13.8115 12.719C14.4626 12.4746 14.9759 11.9613 15.2204 11.3101L16.0648 9.06015C16.2659 8.52237 16.6426 8.11126 17.0982 7.84237L16.8159 7.71459C15.5471 7.13793 14.0548 7.7557 13.5648 9.06126L12.7204 11.3113C12.4759 11.9624 11.9626 12.4757 11.3115 12.7201L9.0615 13.5646C7.75595 14.0546 7.13817 15.5468 7.71484 16.8157L8.70928 19.0035C8.99706 19.6368 8.99706 20.3624 8.70928 20.9957L7.71484 23.1835C7.13817 24.4524 7.75595 25.9446 9.0615 26.4346L11.3115 27.279C11.9626 27.5235 12.4759 28.0368 12.7204 28.6879L13.5648 30.9379C14.0548 32.2435 15.5471 32.8613 16.8159 32.2846L17.0982 32.1568C16.6426 31.8868 16.2659 31.4746 16.0648 30.9368Z" fill="#FFD9CE"/>
<path d="M15.8209 33.3308C15.3986 33.3308 14.9775 33.2497 14.5809 33.0852C13.7542 32.7419 13.0998 32.0663 12.7864 31.2286L11.942 28.9797C11.782 28.5541 11.4464 28.2175 11.0209 28.0586L8.77086 27.2141C7.9342 26.9008 7.25753 26.2463 6.91531 25.4208C6.57308 24.5941 6.58864 23.653 6.95975 22.8386L7.9542 20.6508C8.14197 20.2375 8.14197 19.7619 7.9542 19.3486L6.95975 17.1608C6.58975 16.3463 6.57308 15.4052 6.91531 14.5786C7.25753 13.753 7.9342 13.0986 8.77197 12.7852L11.0209 11.9408C11.4475 11.7808 11.7831 11.4452 11.9431 11.0197L12.7875 8.77079C13.102 7.93301 13.7553 7.25745 14.582 6.91412C15.4075 6.5719 16.3486 6.58745 17.1631 6.95856L19.3497 7.95301C19.7631 8.13856 20.2375 8.13967 20.6531 7.95301L22.8409 6.95856C23.6542 6.58634 24.5953 6.5719 25.422 6.91412C26.2486 7.25745 26.9031 7.93301 27.2164 8.77079L28.0609 11.0197C28.2209 11.4452 28.5564 11.7819 28.982 11.9408L31.232 12.7852C32.0686 13.0986 32.7453 13.753 33.0875 14.5786C33.4298 15.4052 33.4142 16.3463 33.0431 17.1608L32.0486 19.3486C31.8609 19.7619 31.8609 20.2375 32.0486 20.6508L33.0431 22.8386C33.4131 23.653 33.4298 24.5941 33.0875 25.4208C32.7453 26.2463 32.0686 26.9008 31.2309 27.2141L28.982 28.0586C28.5553 28.2186 28.2198 28.5541 28.0598 28.9797L27.2153 31.2286C26.9009 32.0663 26.2475 32.7419 25.4209 33.0852C24.5953 33.4275 23.6542 33.4108 22.8398 33.0408L20.6531 32.0463C20.2386 31.8597 19.7642 31.8597 19.3497 32.0463L17.162 33.0408C16.7375 33.2341 16.2786 33.3308 15.8209 33.3308ZM15.8209 8.33301C15.6175 8.33301 15.4131 8.37301 15.2186 8.45301C14.8109 8.6219 14.502 8.9419 14.3464 9.35634L13.502 11.6052C13.1742 12.4808 12.482 13.1719 11.6053 13.5008L9.35642 14.3452C8.94308 14.5008 8.62308 14.8097 8.4542 15.2163C8.28531 15.623 8.29308 16.0697 8.47531 16.4708L9.46975 18.6586C9.85753 19.5119 9.85753 20.4875 9.46975 21.3408L8.47531 23.5286C8.29308 23.9297 8.28531 24.3763 8.4542 24.783C8.62308 25.1897 8.94308 25.4997 9.35642 25.6541L11.6064 26.4986C12.4831 26.8275 13.1742 27.5186 13.5031 28.3941L14.3475 30.643C14.5031 31.0563 14.812 31.3763 15.2197 31.5463C15.6275 31.713 16.0731 31.7063 16.4731 31.5241L18.6609 30.5297C19.5131 30.1408 20.4898 30.1408 21.342 30.5297L23.5298 31.5241C23.9309 31.7052 24.3764 31.713 24.7842 31.5463C25.192 31.3775 25.5009 31.0575 25.6564 30.643L26.5009 28.3941C26.8286 27.5186 27.5209 26.8275 28.3975 26.4986L30.6464 25.6541C31.0597 25.4986 31.3797 25.1897 31.5486 24.783C31.7175 24.3763 31.7098 23.9297 31.5275 23.5286L30.5331 21.3408C30.1453 20.4875 30.1453 19.5119 30.5331 18.6586L31.5275 16.4708C31.7098 16.0697 31.7175 15.623 31.5486 15.2163C31.3797 14.8097 31.0597 14.4997 30.6464 14.3452L28.3964 13.5008C27.5198 13.1719 26.8286 12.4808 26.4998 11.6052L25.6553 9.35634C25.4998 8.94301 25.1909 8.62301 24.7831 8.45301C24.3753 8.28523 23.9298 8.2919 23.5298 8.47523L21.342 9.46967C20.4898 9.85856 19.5131 9.85856 18.6609 9.46967L16.4731 8.47523C16.2631 8.38078 16.0431 8.33301 15.8209 8.33301Z" fill="#525252"/>
<path fill-rule="evenodd" clip-rule="evenodd" d="M27.3786 19.4431C27.2399 18.9434 27.0996 18.4453 26.9591 17.9466L26.9134 17.7841C26.8483 17.5523 26.7835 17.3204 26.7187 17.0885L26.7186 17.0884L26.7186 17.0881C26.5545 16.5009 26.3905 15.9138 26.2212 15.3282C26.1031 14.9197 25.7112 14.7019 25.3244 14.8113C24.9244 14.9247 24.7167 15.288 24.8205 15.7036C24.8548 15.8399 24.8936 15.9749 24.9324 16.1097L24.9324 16.1097C24.9513 16.1754 24.9702 16.241 24.9885 16.3067C25.1188 16.7714 25.2481 17.2361 25.3946 17.763C25.3088 17.6963 25.2278 17.6339 25.1503 17.5742C24.9844 17.4464 24.8346 17.3311 24.6882 17.212C24.4307 17.0033 24.1477 16.942 23.8433 17.0836C23.5451 17.2221 23.4219 17.477 23.4199 17.7941C23.4185 17.9768 23.419 18.159 23.4194 18.3413C23.4197 18.4325 23.4199 18.5238 23.4199 18.6151C23.3975 18.6191 23.3751 18.6232 23.3517 18.6272C23.2446 18.4732 23.1378 18.3191 23.031 18.165L23.0307 18.1645C22.7499 17.7593 22.4692 17.3541 22.1831 16.9521C21.9276 16.5928 21.4909 16.5135 21.1489 16.7514C20.8201 16.9802 20.7458 17.4108 20.9901 17.764C21.8004 18.9353 22.6137 20.1035 23.4301 21.2708C23.6387 21.5689 23.9472 21.6853 24.2546 21.6C24.5722 21.5127 24.7747 21.2477 24.789 20.8773C24.8015 20.5639 24.8093 20.25 24.8171 19.9362C24.8214 19.7648 24.8257 19.5934 24.8307 19.4221C24.832 19.3763 24.8364 19.3309 24.8418 19.2745V19.2745L24.8418 19.2745C24.8447 19.2444 24.8479 19.2112 24.8511 19.1732C25.0286 19.3116 25.201 19.4465 25.3705 19.579C25.6519 19.7991 25.9249 20.0126 26.1988 20.225C26.5072 20.4638 26.8126 20.4859 27.0976 20.2942C27.3704 20.1136 27.4763 19.7954 27.3786 19.4431ZM17.6061 20.8241C17.5441 20.6927 17.4825 20.5612 17.4209 20.4297L17.4209 20.4297C17.2668 20.1009 17.1128 19.7722 16.9536 19.4461C16.7999 19.1329 16.5098 18.9894 16.1698 19.0386C15.8726 19.0807 15.611 19.3226 15.5815 19.6368C15.5672 19.7913 15.6089 19.9629 15.669 20.1095C15.7668 20.3459 15.879 20.5765 15.9913 20.8074L15.9913 20.8074C16.0344 20.8961 16.0776 20.9849 16.1199 21.074C16.0232 21.0639 15.9642 21.0238 15.9082 20.9806C15.787 20.8862 15.666 20.7914 15.5451 20.6967L15.545 20.6966L15.545 20.6966C15.2986 20.5034 15.0523 20.3104 14.8038 20.1205C14.4913 19.8817 14.1391 19.8756 13.8642 20.0934C13.5874 20.3132 13.5171 20.6474 13.681 21.0027C13.7922 21.2454 13.9067 21.486 14.0212 21.7267C14.0639 21.8165 14.1067 21.9063 14.1492 21.9963C14.2962 22.3071 14.4428 22.618 14.5895 22.9289C14.8829 23.5507 15.1763 24.1725 15.4715 24.7935C15.6405 25.1478 15.9754 25.3264 16.3133 25.2522C16.7744 25.1508 17.0096 24.6801 16.8111 24.2365C16.6995 23.9865 16.5813 23.7396 16.4629 23.4925L16.4629 23.4924C16.415 23.3923 16.367 23.2921 16.3194 23.1917L16.3571 23.1666C16.5103 23.2864 16.6633 23.4064 16.8162 23.5263L16.8169 23.5268L16.8176 23.5274C17.0767 23.7306 17.3357 23.9337 17.5959 24.1361C17.9349 24.3991 18.2911 24.4242 18.5751 24.2074C18.8612 23.9886 18.9284 23.6222 18.7462 23.2358C18.4195 22.5414 18.0913 21.8485 17.7629 21.1551L17.6061 20.8241ZM20.6605 21.6833C20.8089 21.6154 20.9513 21.5502 21.0957 21.4885C21.5059 21.3139 21.9223 21.4584 22.0923 21.8298C22.2592 22.1951 22.1045 22.5976 21.7116 22.7852C21.2902 22.987 20.8657 23.1827 20.4371 23.3704C20.033 23.547 19.6371 23.4065 19.4477 23.009C18.8329 21.7214 18.2211 20.4307 17.6165 19.138C17.4363 18.7546 17.587 18.3652 17.9748 18.1785C18.4095 17.9687 18.8472 17.766 19.2889 17.5713C19.6676 17.4047 20.0809 17.5572 20.2519 17.9105C20.4249 18.2688 20.2865 18.6693 19.9149 18.86C19.7689 18.9354 19.619 19.0038 19.4621 19.0755C19.3894 19.1087 19.3151 19.1425 19.2391 19.1781C19.2878 19.2815 19.3353 19.3827 19.3836 19.4856C19.4352 19.5955 19.4877 19.7073 19.5434 19.8255C19.6185 19.7912 19.6917 19.7572 19.7638 19.7238C19.8942 19.6634 20.0209 19.6047 20.1481 19.5485C20.5573 19.3668 20.9756 19.5023 21.1527 19.8706C21.3309 20.242 21.1761 20.6424 20.7741 20.8412C20.6479 20.9034 20.5205 20.9622 20.3868 21.0239C20.3134 21.0578 20.2382 21.0926 20.1603 21.1292C20.2631 21.347 20.3608 21.5538 20.4646 21.7726C20.5314 21.7423 20.5965 21.7126 20.6605 21.6833Z" fill="#525252"/>
</svg>
