<svg width="40" height="40" viewBox="0 0 40 40" fill="none" xmlns="http://www.w3.org/2000/svg">
<g clip-path="url(#clip0_4932_87445)">
<path d="M3.8245 26.5365C10.5589 30.2399 13.2656 36.271 16.5101 38.0554C19.7556 39.8399 27.5967 41.721 35.8056 26.7921C44.0145 11.8632 36.0512 4.63098 32.4812 2.66764C15.7678 -6.52125 -8.10217 19.9788 3.8245 26.5365Z" fill="#EFEFEF"/>
<path d="M26.1116 27.4765V31.5176C26.1116 32.2665 25.4594 32.832 24.7072 32.7742C15.3627 32.0498 7.9016 24.6109 7.22494 15.3053C7.1716 14.5642 7.73383 13.9231 8.4816 13.9176L12.4283 13.8887C13.0105 13.8887 13.5183 14.282 13.6594 14.8431L14.4838 18.1176C14.6072 18.6098 14.4227 19.1276 14.0138 19.432L11.9972 20.9342C13.5072 23.9587 15.9694 26.4165 18.9772 27.9542L20.5272 25.9009C20.8338 25.4953 21.3549 25.3109 21.8505 25.4342L25.1483 26.2531C25.716 26.3942 26.1116 26.8987 26.1116 27.4765Z" fill="white"/>
<path d="M25.4662 32.5998C25.244 32.7331 24.9884 32.7998 24.7107 32.7776C15.3662 32.0442 7.89956 24.6109 7.22178 15.2998C7.16622 14.5665 7.73289 13.922 8.47733 13.922L12.4329 13.8887C12.4884 13.8887 12.544 13.8887 12.5996 13.9109L10.6996 13.922C9.95511 13.922 9.38844 14.5665 9.444 15.2998C10.0884 24.122 16.8218 31.2553 25.4662 32.5998Z" fill="#FFD9CE"/>
<path d="M24.8117 33.6111C24.755 33.6111 24.6983 33.6089 24.6428 33.6044C14.9406 32.8533 7.095 25.0122 6.395 15.3655C6.35167 14.7744 6.55611 14.1878 6.95389 13.7566C7.34945 13.3266 7.89056 13.0878 8.47611 13.0844L12.4228 13.0566C13.395 13.0566 14.2328 13.7078 14.4683 14.6411L15.2928 17.9166C15.5006 18.7378 15.1939 19.5955 14.5128 20.1022L13.0694 21.1766C14.3917 23.5344 16.3739 25.5266 18.745 26.8811L19.8639 25.4C20.3728 24.7266 21.2294 24.4233 22.0528 24.6266L25.3506 25.4455C26.2894 25.6789 26.945 26.5144 26.945 27.4778V31.5189C26.945 32.1033 26.7083 32.6444 26.2772 33.0433C25.8806 33.4078 25.3539 33.6111 24.8117 33.6111ZM12.4283 14.7222L8.48723 14.75C8.33389 14.7511 8.23389 14.8244 8.17834 14.8866C8.08945 14.9822 8.04722 15.11 8.05722 15.2444C8.69834 24.0755 15.8839 31.2544 24.7717 31.9422C24.9117 31.9566 25.0483 31.9078 25.145 31.8178C25.205 31.7622 25.2772 31.6644 25.2772 31.5166V27.4755C25.2772 27.28 25.1417 27.1089 24.9483 27.0611L21.6506 26.2422C21.4783 26.1966 21.2994 26.2622 21.1939 26.4022L19.6428 28.4555C19.3983 28.7778 18.9583 28.8778 18.5983 28.6955C15.4317 27.0766 12.8228 24.4522 11.2517 21.3055C11.0706 20.9444 11.1761 20.5066 11.4994 20.2644L13.5161 18.7622C13.655 18.6589 13.7172 18.4855 13.6761 18.3211L12.8517 15.0455C12.8039 14.8566 12.6294 14.7222 12.4283 14.7222Z" fill="#525252"/>
<path d="M33.75 15.9317V10.4355H37.3913V11.384H34.9003V12.7018H37.2504V13.6007H34.9003V14.9833H37.3913V15.9317H33.75Z" fill="#FD6F7F"/>
<path d="M29.2782 15.9317V10.4355H32.9195V11.384H30.4285V12.7018H32.7786V13.6007H30.4285V14.9833H32.9195V15.9317H29.2782Z" fill="#FD6F7F"/>
<path d="M24.2816 15.9317V10.4355H26.5517C27.7858 10.4355 28.5171 11.0907 28.5171 12.1952V12.2029C28.5171 12.9265 28.1324 13.5284 27.523 13.7683L28.6809 15.9317H27.3782L26.3536 13.9397H25.4319V15.9317H24.2816ZM25.4319 13.0675H26.426C26.9973 13.0675 27.3401 12.7437 27.3401 12.2029V12.1952C27.3401 11.6696 26.9783 11.3344 26.4108 11.3344H25.4319V13.0675Z" fill="#FD6F7F"/>
<path d="M20 15.9317V10.4355H23.5994V11.384H21.1503V12.858H23.3861V13.7683H21.1503V15.9317H20Z" fill="#FD6F7F"/>
</g>
<defs>
<clipPath id="clip0_4932_87445">
<rect width="40" height="40" fill="white"/>
</clipPath>
</defs>
</svg>
