<svg width="40" height="40" viewBox="0 0 40 40" fill="none" xmlns="http://www.w3.org/2000/svg">
<path d="M9.30748 35.3707C16.993 35.3707 22.2708 39.3518 25.9741 39.3518C29.6775 39.3518 37.4553 37.2229 37.4553 20.1862C37.4553 3.14955 26.9919 0.648438 22.9186 0.648438C3.84414 0.648438 -4.30363 35.3707 9.30748 35.3707Z" fill="#EFEFEF"/>
<path d="M14.2105 19.2906C14.0783 16.584 14.9405 11.5306 18.9183 7.71284C19.3838 7.26506 20.1138 7.56395 20.2116 8.23506C21.1505 14.6584 27.9394 17.5584 25.1783 25.5795C23.486 30.4962 17.7594 32.8484 13.3816 30.4295C10.0016 28.5628 8.22159 24.9317 8.68492 20.8906C8.90937 18.9351 9.42381 16.8973 10.8394 15.6595C11.2649 15.2873 11.9083 15.5384 12.0727 16.1084C12.4994 17.5962 13.1316 18.4528 14.2105 19.2906Z" fill="white"/>
<path d="M23.3333 25.8325C24.1004 25.8325 24.7222 25.2106 24.7222 24.4436C24.7222 23.6765 24.1004 23.0547 23.3333 23.0547C22.5663 23.0547 21.9445 23.6765 21.9445 24.4436C21.9445 25.2106 22.5663 25.8325 23.3333 25.8325Z" fill="#2FDF84"/>
<path d="M29.9996 32.5004C30.7667 32.5004 31.3885 31.8786 31.3885 31.1115C31.3885 30.3445 30.7667 29.7227 29.9996 29.7227C29.2325 29.7227 28.6107 30.3445 28.6107 31.1115C28.6107 31.8786 29.2325 32.5004 29.9996 32.5004Z" fill="#2FDF84"/>
<path d="M15.8816 30.4291C12.5016 28.5624 10.7204 24.9313 11.1849 20.8902C11.346 19.4858 11.6627 18.0424 12.3504 16.8802C12.2516 16.6369 12.1538 16.3936 12.0727 16.1091C11.9093 15.5391 11.2649 15.288 10.8393 15.6602C9.42378 16.8969 8.90934 18.9358 8.68489 20.8913C8.22156 24.9336 10.0027 28.5636 13.3816 30.4302C14.9527 31.298 16.6949 31.5424 18.3649 31.2836C17.5138 31.1447 16.6749 30.868 15.8816 30.4291Z" fill="#FFD9CE"/>
<path d="M24.4445 24.4436C24.4445 24.2325 24.4989 24.038 24.5833 23.8591C24.3611 23.3869 23.8889 23.0547 23.3333 23.0547C22.5667 23.0547 21.9445 23.6769 21.9445 24.4436C21.9445 25.2102 22.5667 25.8325 23.3333 25.8325C23.8889 25.8325 24.3611 25.5002 24.5833 25.028C24.4989 24.8491 24.4445 24.6547 24.4445 24.4436Z" fill="#FFD9CE"/>
<path d="M31.1107 31.1115C31.1107 30.9004 31.1652 30.706 31.2496 30.5271C31.0274 30.0549 30.5552 29.7227 29.9996 29.7227C29.2329 29.7227 28.6107 30.3449 28.6107 31.1115C28.6107 31.8782 29.2329 32.5004 29.9996 32.5004C30.5552 32.5004 31.0274 32.1682 31.2496 31.696C31.1652 31.5171 31.1107 31.3227 31.1107 31.1115Z" fill="#FFD9CE"/>
<path d="M17.3459 32.2242C15.867 32.2242 14.4204 31.8687 13.1104 31.1676C9.34816 29.1431 7.33705 25.1664 7.85816 20.7898C8.06371 19.052 8.54482 16.5609 10.3582 15.0198C10.7648 14.6776 11.3104 14.562 11.8193 14.7131C12.3659 14.8753 12.7948 15.3076 12.9648 15.8687C13.1337 16.4453 13.3293 16.9076 13.5904 17.3153C13.9248 14.1576 15.3559 10.162 18.6282 7.10756C19.0682 6.69089 19.6704 6.55534 20.2426 6.75422C20.8293 6.95756 21.2526 7.47978 21.3459 8.11756C21.7026 10.472 22.8482 12.3887 24.0582 14.4176C25.077 16.1231 26.1304 17.8864 26.6393 19.9031C26.7515 20.3498 26.4804 20.8031 26.0348 20.9153C25.5948 21.0276 25.1348 20.7587 25.0226 20.312C24.5748 18.532 23.6282 16.9498 22.6282 15.2731C21.387 13.1953 20.1037 11.0464 19.697 8.36422C16.1582 11.692 15.0459 16.3153 15.1882 19.2531C15.2048 19.5764 15.0304 19.8798 14.7459 20.0309C14.4593 20.1809 14.1126 20.1542 13.8537 19.9587C12.5537 18.9753 11.8337 17.9298 11.367 16.3476C10.397 17.1742 9.78482 18.6664 9.5126 20.9876C9.0726 24.6709 10.7526 28.0087 13.897 29.7009C15.6393 30.6342 17.6937 30.8131 19.6726 30.2031C20.1104 30.0687 20.577 30.3142 20.7148 30.7542C20.8504 31.1942 20.6026 31.6609 20.1637 31.7964C19.2315 32.082 18.2815 32.2242 17.3459 32.2242Z" fill="#525252"/>
<path d="M23.3329 26.6671C22.1074 26.6671 21.1107 25.6704 21.1107 24.4449C21.1107 23.2193 22.1074 22.2227 23.3329 22.2227C24.5585 22.2227 25.5552 23.2193 25.5552 24.4449C25.5552 25.6704 24.5585 26.6671 23.3329 26.6671ZM23.3329 23.8893C23.0274 23.8893 22.7774 24.1382 22.7774 24.4449C22.7774 24.7515 23.0274 25.0004 23.3329 25.0004C23.6385 25.0004 23.8885 24.7515 23.8885 24.4449C23.8885 24.1382 23.6385 23.8893 23.3329 23.8893Z" fill="#525252"/>
<path d="M30.0008 33.3331C28.7752 33.3331 27.7786 32.3364 27.7786 31.1109C27.7786 29.8853 28.7752 28.8887 30.0008 28.8887C31.2263 28.8887 32.223 29.8853 32.223 31.1109C32.223 32.3364 31.2263 33.3331 30.0008 33.3331ZM30.0008 30.5553C29.6952 30.5553 29.4452 30.8042 29.4452 31.1109C29.4452 31.4176 29.6952 31.6664 30.0008 31.6664C30.3063 31.6664 30.5563 31.4176 30.5563 31.1109C30.5563 30.8042 30.3063 30.5553 30.0008 30.5553Z" fill="#525252"/>
<path d="M22.3947 32.0137L29.6231 22.5739L30.9464 23.5872L23.718 33.027L22.3947 32.0137Z" fill="#525252"/>
</svg>
