<svg width="40" height="40" viewBox="0 0 40 40" fill="none" xmlns="http://www.w3.org/2000/svg">
<path d="M35.3701 30.6927C35.3701 23.0071 39.3512 17.7294 39.3512 14.026C39.3512 10.3227 37.2223 2.54492 20.1856 2.54492C3.14894 2.54492 0.647827 13.0083 0.647827 17.0816C0.647827 36.156 35.3701 44.3038 35.3701 30.6927Z" fill="#EFEFEF"/>
<path d="M11.7333 10.5547C10.5888 10.5547 9.63328 11.4214 9.52217 12.5547L7.74439 30.0547C7.61105 31.3658 8.64439 32.4991 9.9555 32.4991H20.0111H30.0444C31.3555 32.4991 32.3888 31.3658 32.2555 30.0547L30.4777 12.5547C30.3666 11.4214 29.4111 10.5547 28.2666 10.5547H11.7333Z" fill="white"/>
<path d="M24.7223 12.2922C24.7223 16.2378 20.0001 20.2789 20.0001 20.2789C20.0001 20.2789 15.2778 16.2389 15.2778 12.2922C15.2778 9.64556 17.3923 7.5 20.0001 7.5C22.6078 7.5 24.7223 9.64556 24.7223 12.2922Z" fill="white"/>
<path d="M20 13.6118C20.767 13.6118 21.3889 12.9899 21.3889 12.2229C21.3889 11.4558 20.767 10.834 20 10.834C19.2329 10.834 18.6111 11.4558 18.6111 12.2229C18.6111 12.9899 19.2329 13.6118 20 13.6118Z" fill="#F3F3F1"/>
<path d="M17.7778 12.2922C17.7778 10.0878 19.2534 8.25111 21.2501 7.69222C20.8489 7.57889 20.4356 7.5 20.0001 7.5C17.3923 7.5 15.2778 9.64556 15.2778 12.2922C15.2778 16.2378 20.0001 20.2789 20.0001 20.2789C20.0001 20.2789 20.5401 19.8133 21.2501 19.0544C19.8512 17.56 17.7778 14.9089 17.7778 12.2922Z" fill="#FFD9CE"/>
<path d="M10.2444 30.0547L12.0222 12.5547C12.1333 11.4214 13.0888 10.5547 14.2333 10.5547H11.7333C10.5888 10.5547 9.63328 11.4214 9.52217 12.5547L7.74439 30.0547C7.61105 31.3658 8.64439 32.4991 9.9555 32.4991H12.4555C11.1444 32.4991 10.1111 31.3658 10.2444 30.0547Z" fill="#FFD9CE"/>
<path d="M21.1111 12.2229C21.1111 12.0118 21.1655 11.8173 21.25 11.6384C21.0278 11.1662 20.5555 10.834 20 10.834C19.2333 10.834 18.6111 11.4562 18.6111 12.2229C18.6111 12.9895 19.2333 13.6118 20 13.6118C20.5555 13.6118 21.0278 13.2795 21.25 12.8073C21.1655 12.6284 21.1111 12.434 21.1111 12.2229Z" fill="white"/>
<path d="M20 21.1105C19.8067 21.1105 19.6133 21.0438 19.4589 20.9105C19.2533 20.7349 14.4445 16.5716 14.4445 12.2916C14.4445 9.18935 16.9367 6.66602 20 6.66602C23.0633 6.66602 25.5556 9.18935 25.5556 12.2916C25.5556 16.5727 20.7467 20.736 20.5411 20.9105C20.3867 21.0438 20.1933 21.1105 20 21.1105ZM20 8.33268C17.8556 8.33268 16.1111 10.1082 16.1111 12.2916C16.1111 15.0493 18.8178 17.9871 20 19.1405C21.1822 17.9882 23.8889 15.0493 23.8889 12.2916C23.8889 10.1082 22.1445 8.33268 20 8.33268Z" fill="#525252"/>
<path d="M20.0001 14.4444C18.7745 14.4444 17.7778 13.4478 17.7778 12.2222C17.7778 10.9967 18.7745 10 20.0001 10C21.2256 10 22.2223 10.9967 22.2223 12.2222C22.2223 13.4478 21.2256 14.4444 20.0001 14.4444ZM20.0001 11.6667C19.6945 11.6667 19.4445 11.9156 19.4445 12.2222C19.4445 12.5289 19.6945 12.7778 20.0001 12.7778C20.3056 12.7778 20.5556 12.5289 20.5556 12.2222C20.5556 11.9156 20.3056 11.6667 20.0001 11.6667Z" fill="#525252"/>
<path d="M30.0444 33.3338H9.9555C9.09328 33.3338 8.2655 32.966 7.68661 32.3249C7.10884 31.6849 6.82884 30.8271 6.9155 29.9704L8.69439 12.4715C8.81914 11.1885 9.71926 10.1622 10.9098 9.83356C11.3534 9.71109 11.7333 10.0958 11.7333 10.556C11.7333 11.0162 11.3287 11.3706 10.9481 11.6293C10.62 11.8524 10.3931 12.2135 10.3522 12.6371L8.57328 30.1415C8.53328 30.5349 8.65773 30.9138 8.92328 31.2082C9.19106 31.5038 9.55773 31.6671 9.9555 31.6671H30.0444C30.4422 31.6671 30.8088 31.5038 31.0766 31.2082C31.3422 30.9138 31.4677 30.5349 31.4266 30.1404L29.6477 12.6393C29.6061 12.2151 29.3794 11.8534 29.0516 11.6299C28.6713 11.3706 28.2666 11.0162 28.2666 10.556C28.2666 10.0958 28.6465 9.71108 29.0901 9.83358C30.2806 10.1623 31.1808 11.1891 31.3055 12.4749L33.0844 29.9704C33.1711 30.8282 32.8899 31.686 32.3133 32.326C31.7344 32.966 30.9066 33.3338 30.0444 33.3338Z" fill="#525252"/>
<path d="M8.8811 21.125L16.3255 21.1176L16.3272 22.7842L8.88277 22.7917L8.8811 21.125Z" fill="#525252"/>
<path d="M17.1666 32.7607L15.7977 31.8107L22.9822 21.4696C23.1377 21.2452 23.3933 21.1107 23.6655 21.1107L31.11 21.0996L31.1122 22.7663L24.1022 22.7774L17.1666 32.7607Z" fill="#525252"/>
</svg>
