<svg width="40" height="40" viewBox="0 0 40 40" fill="none" xmlns="http://www.w3.org/2000/svg">
<path d="M9.30748 4.68228C16.993 4.68228 22.2708 0.701172 25.9741 0.701172C29.6775 0.701172 37.4553 2.83006 37.4553 19.8678C37.4553 36.9056 26.9919 39.4045 22.9186 39.4045C3.84414 39.4045 -4.30363 4.68228 9.30748 4.68228Z" fill="#EFEFEF"/>
<path d="M26.9411 9.71853V13.0519H9.71893C8.4967 13.0519 7.4967 12.063 7.4967 10.8296C7.4967 10.2185 7.74115 9.66298 8.15226 9.26298C8.55226 8.85187 9.10781 8.60742 9.71893 8.60742H25.83C26.4523 8.60742 26.9411 9.10742 26.9411 9.71853Z" fill="white"/>
<path d="M9.9967 10.8296C9.9967 10.2185 10.2411 9.66298 10.6523 9.26298C11.0523 8.85187 11.6078 8.60742 12.2189 8.60742H9.71893C9.10781 8.60742 8.55226 8.85187 8.15226 9.26298C7.74115 9.66298 7.4967 10.2185 7.4967 10.8296C7.4967 12.063 8.4967 13.0519 9.71893 13.0519H12.2189C10.9967 13.0519 9.9967 12.063 9.9967 10.8296Z" fill="#FFD9CE"/>
<path d="M30.2745 14.1634V29.1634C30.2745 29.7745 29.7745 30.2745 29.1634 30.2745H9.71893C8.4967 30.2745 7.4967 29.2745 7.4967 28.0523V10.8301C7.4967 12.0634 8.4967 13.0523 9.71893 13.0523H29.1634C29.7745 13.0523 30.2745 13.5523 30.2745 14.1634Z" fill="white"/>
<path d="M9.9967 28.0523V13.0523H9.71893C8.4967 13.0523 7.4967 12.0634 7.4967 10.8301V28.0523C7.4967 29.2745 8.4967 30.2745 9.71893 30.2745H12.2189C10.9967 30.2745 9.9967 29.2745 9.9967 28.0523Z" fill="#FFD9CE"/>
<path d="M32.5007 24.166H28.334C26.9529 24.166 25.834 23.0471 25.834 21.666C25.834 20.2849 26.9529 19.166 28.334 19.166H32.5007V24.166Z" fill="white"/>
<path d="M28.334 21.666C28.334 20.2849 29.4529 19.166 30.834 19.166H28.334C26.9529 19.166 25.834 20.2849 25.834 21.666C25.834 23.0471 26.9529 24.166 28.334 24.166H30.834C29.4529 24.166 28.334 23.0471 28.334 21.666Z" fill="#FFD9CE"/>
<path d="M29.1661 31.1098H9.72169C8.03614 31.1098 6.66614 29.7398 6.66614 28.0543V10.832H8.3328V28.0543C8.3328 28.8198 8.95614 29.4431 9.72169 29.4431H29.1661C29.3172 29.4431 29.4439 29.3165 29.4439 29.1654V24.1654H31.1106V29.1654C31.1106 30.2376 30.2384 31.1098 29.1661 31.1098Z" fill="#525252"/>
<path d="M32.5 24.9987H28.3333C26.4956 24.9987 25 23.5031 25 21.6654C25 19.8276 26.4956 18.332 28.3333 18.332H32.5C32.96 18.332 33.3333 18.7054 33.3333 19.1654V24.1654C33.3333 24.6254 32.96 24.9987 32.5 24.9987ZM28.3333 19.9987C27.4144 19.9987 26.6667 20.7465 26.6667 21.6654C26.6667 22.5843 27.4144 23.332 28.3333 23.332H31.6667V19.9987H28.3333Z" fill="#525252"/>
<path d="M31.1106 19.1662H29.4439V14.1662C29.4439 14.0151 29.3172 13.8885 29.1661 13.8885H9.72169C8.03614 13.8885 6.66614 12.5185 6.66614 10.8329C6.66614 9.14734 8.03614 7.77734 9.72169 7.77734H25.8328C26.905 7.77734 27.7773 8.64957 27.7773 9.72179V12.2218H29.1661C30.2384 12.2218 31.1106 13.094 31.1106 14.1662V19.1662ZM9.72169 9.44401C8.95503 9.44401 8.3328 10.0673 8.3328 10.8329C8.3328 11.5985 8.95503 12.2218 9.72169 12.2218H26.1106V9.72179C26.1106 9.56846 25.9861 9.44401 25.8328 9.44401H9.72169Z" fill="#525252"/>
</svg>
