<svg width="14" height="15" viewBox="0 0 14 15" fill="none" xmlns="http://www.w3.org/2000/svg">
<path d="M12.8152 11.1926C12.8152 11.4026 12.7685 11.6184 12.6693 11.8284C12.5702 12.0384 12.4418 12.2367 12.2727 12.4234C11.9868 12.7384 11.6718 12.9659 11.316 13.1117C10.966 13.2576 10.5868 13.3334 10.1785 13.3334C9.58352 13.3334 8.94768 13.1934 8.27685 12.9076C7.60602 12.6217 6.93518 12.2367 6.27018 11.7526C5.59935 11.2626 4.96352 10.7201 4.35685 10.1192C3.75602 9.51258 3.21352 8.87675 2.72935 8.21175C2.25102 7.54675 1.86602 6.88175 1.58602 6.22258C1.30602 5.55758 1.16602 4.92175 1.16602 4.31508C1.16602 3.91841 1.23602 3.53925 1.37602 3.18925C1.51602 2.83341 1.73768 2.50675 2.04685 2.21508C2.42018 1.84758 2.82852 1.66675 3.26018 1.66675C3.42352 1.66675 3.58685 1.70175 3.73268 1.77175C3.88435 1.84175 4.01852 1.94675 4.12352 2.09841L5.47685 4.00592C5.58185 4.15175 5.65768 4.28591 5.71018 4.41425C5.76268 4.53675 5.79185 4.65925 5.79185 4.77008C5.79185 4.91008 5.75102 5.05008 5.66935 5.18425C5.59352 5.31841 5.48268 5.45841 5.34268 5.59841L4.89935 6.05925C4.83518 6.12341 4.80602 6.19925 4.80602 6.29258C4.80602 6.33925 4.81185 6.38008 4.82352 6.42675C4.84102 6.47341 4.85852 6.50841 4.87018 6.54341C4.97518 6.73591 5.15602 6.98675 5.41268 7.29008C5.67518 7.59342 5.95518 7.90258 6.25852 8.21175C6.57352 8.52092 6.87685 8.80675 7.18602 9.06925C7.48935 9.32591 7.74018 9.50092 7.93852 9.60592C7.96768 9.61758 8.00268 9.63508 8.04352 9.65258C8.09018 9.67008 8.13685 9.67591 8.18935 9.67591C8.28852 9.67591 8.36435 9.64092 8.42852 9.57675L8.87185 9.13925C9.01768 8.99342 9.15768 8.88258 9.29185 8.81258C9.42602 8.73092 9.56018 8.69008 9.70601 8.69008C9.81685 8.69008 9.93352 8.71342 10.0618 8.76592C10.1902 8.81842 10.3243 8.89425 10.4702 8.99342L12.401 10.3642C12.5527 10.4692 12.6577 10.5917 12.7218 10.7376C12.7802 10.8834 12.8152 11.0292 12.8152 11.1926Z" stroke="#919191" stroke-miterlimit="10"/>
<path d="M10.7917 5.74992C10.7917 5.39992 10.5175 4.86325 10.1092 4.42575C9.73583 4.02325 9.24 3.70825 8.75 3.70825" stroke="#919191" stroke-linecap="round" stroke-linejoin="round"/>
<path d="M12.8333 5.75008C12.8333 3.49258 11.0075 1.66675 8.75 1.66675" stroke="#919191" stroke-linecap="round" stroke-linejoin="round"/>
</svg>
