<svg width="60" height="60" viewBox="0 0 60 60" fill="none" xmlns="http://www.w3.org/2000/svg">
<path d="M17.7036 12.3246C26.542 12.3246 32.6114 7.74634 36.8702 7.74634C41.1291 7.74634 50.0735 10.1946 50.0735 29.7867C50.0735 49.3789 38.0407 52.2539 33.3563 52.2539C11.4207 52.2552 2.05078 12.3246 17.7036 12.3246Z" fill="#EFEFEF"/>
<path d="M29.6567 38.9865L21.8763 43.6389C21.369 43.9418 20.7467 43.4894 20.8771 42.9119L22.887 34.0569C22.942 33.8154 22.8602 33.5637 22.6749 33.4014L15.8554 27.4214C15.4107 27.0317 15.6484 26.2982 16.2375 26.2445L25.2611 25.4242C25.5065 25.4025 25.7211 25.2466 25.8182 25.0192L29.3845 16.6714C29.6171 16.1271 30.3863 16.1271 30.6189 16.6714L34.1851 25.0192C34.2822 25.2466 34.4956 25.4025 34.7422 25.4242L43.7659 26.2445C44.3537 26.2982 44.5914 27.0317 44.148 27.4214L37.3285 33.4001C37.1432 33.5624 37.0614 33.8154 37.1164 34.0556L39.1263 42.9106C39.2579 43.4882 38.6344 43.9405 38.1271 43.6377L30.3467 38.9853C30.132 38.86 29.8688 38.86 29.6567 38.9865Z" fill="white"/>
<path d="M25.7624 34.0569C25.8174 33.8154 25.7356 33.5637 25.5503 33.4014L18.7308 27.4214C18.2861 27.0317 18.5238 26.2982 19.1129 26.2445L27.8056 26.1666C28.0509 26.1449 28.2656 25.989 28.3627 25.7615L31.4383 18.5919L30.618 16.6714C30.3854 16.1271 29.6162 16.1271 29.3836 16.6714L25.8174 25.0192C25.7203 25.2466 25.5069 25.4025 25.2603 25.4242L16.2366 26.2445C15.6488 26.2982 15.4111 27.0317 15.8545 27.4214L22.674 33.4001C22.8593 33.5624 22.9411 33.8154 22.8861 34.0556L20.8762 42.9106C20.7446 43.4882 21.3681 43.9405 21.8754 43.6377L23.856 42.4532L25.7624 34.0569Z" fill="#FFD9CE"/>
<path d="M33.2187 38.9865C33.0066 38.86 32.7421 38.86 32.5313 38.9865L31.4375 39.6407L38.1241 43.6401C38.6314 43.943 39.2537 43.4906 39.1233 42.9131L39.0198 42.4556L33.2187 38.9865Z" fill="#FFD9CE"/>
<path d="M21.5306 44.6933C21.1946 44.6933 20.8611 44.5885 20.5761 44.3828C20.0459 43.9982 19.798 43.3376 19.9424 42.6999L21.9152 34.0098L15.2248 28.1422C14.7329 27.7129 14.5463 27.0318 14.7482 26.4108C14.9488 25.7898 15.4995 25.349 16.1499 25.2902L25.0024 24.4865L28.5022 16.2959C28.759 15.6941 29.3468 15.3057 29.9997 15.3057C30.6527 15.3057 31.2405 15.6941 31.4986 16.2947L34.9984 24.4865L36.4742 24.6207L36.3017 26.5297L34.6534 26.3802C34.0516 26.3252 33.5341 25.947 33.299 25.3924L29.9997 17.6657L26.6967 25.3963C26.4641 25.947 25.9466 26.3252 25.3461 26.3802L16.9869 27.1392L23.3042 32.6796C23.7565 33.0757 23.9546 33.6839 23.8204 34.2692L21.9587 42.4712L29.1628 38.1638C29.679 37.8559 30.3179 37.8559 30.8354 38.1638L38.0395 42.4725L36.1778 34.2704C36.0449 33.6865 36.243 33.077 36.694 32.6822L43.0114 27.1417L38.856 26.7648L39.0311 24.8558L43.8496 25.2941C44.5 25.3528 45.0494 25.7937 45.2513 26.4147C45.4532 27.0357 45.2666 27.7167 44.7747 28.1461L38.0842 34.0123L40.0571 42.7025C40.2015 43.3414 39.9536 44.002 39.4234 44.3853C38.8944 44.7687 38.189 44.7981 37.6319 44.4633L29.9997 39.8978L22.3663 44.462C22.1082 44.6153 21.8207 44.6933 21.5306 44.6933ZM24.9334 24.6449C24.9334 24.6449 24.9334 24.6462 24.9321 24.6475L24.9334 24.6449ZM35.0636 24.6411L35.0649 24.6437C35.0649 24.6424 35.0649 24.6424 35.0636 24.6411Z" fill="#525252"/>
</svg>
