<svg width="60" height="60" viewBox="0 0 60 60" fill="none" xmlns="http://www.w3.org/2000/svg">
<path d="M12.3244 42.296C12.3244 33.4576 7.74609 27.3881 7.74609 23.1293C7.74609 18.8705 10.1943 9.92603 29.7865 9.92603C49.3787 9.92603 52.2537 21.9589 52.2537 26.6432C52.2549 48.5788 12.3244 57.9487 12.3244 42.296Z" fill="#EFEFEF"/>
<path d="M40.5408 44.3749H19.4575C18.7521 44.3749 18.1797 43.8024 18.1797 43.0971V30.3193H41.8186V43.0971C41.8186 43.8024 41.2461 44.3749 40.5408 44.3749Z" fill="white"/>
<path d="M43.0972 30.3193H16.9028C16.1974 30.3193 15.625 29.7469 15.625 29.0416V25.8471C15.625 25.1418 16.1974 24.5693 16.9028 24.5693H43.0972C43.8026 24.5693 44.375 25.1418 44.375 25.8471V29.0416C44.375 29.7469 43.8026 30.3193 43.0972 30.3193Z" fill="white"/>
<path d="M30 23.9868C30 23.9868 31.2446 15.5688 38.0871 15.5688C44.9296 15.5688 42.4417 23.9868 30 23.9868Z" fill="white"/>
<path d="M29.9997 23.9868C29.9997 23.9868 28.7552 15.5688 21.9127 15.5688C15.0702 15.5688 17.5593 23.9868 29.9997 23.9868Z" fill="white"/>
<path d="M23.2189 15.6851C22.8062 15.6136 22.3743 15.5688 21.913 15.5688C15.0705 15.5688 17.5583 23.9868 30.0001 23.9868C30.0001 23.9868 29.9898 23.9281 29.9745 23.8437C20.556 22.8535 18.4285 16.5936 23.2189 15.6851Z" fill="#FFD9CE"/>
<path d="M39.3367 15.6851C38.9598 15.6136 38.5483 15.5688 38.0871 15.5688C31.2446 15.5688 30 23.9868 30 23.9868C30.92 23.9868 31.7684 23.9281 32.5811 23.8437C32.7587 22.8535 34.094 16.5936 39.3367 15.6851Z" fill="#FFD9CE"/>
<path d="M20.7352 43.0971V30.3193H18.1797V43.0971C18.1797 43.8024 18.7521 44.3749 19.4575 44.3749H22.013C21.3077 44.3749 20.7352 43.8024 20.7352 43.0971Z" fill="#FFD9CE"/>
<path d="M18.1806 29.0416V25.8471C18.1806 25.1418 18.753 24.5693 19.4583 24.5693H16.9028C16.1974 24.5693 15.625 25.1418 15.625 25.8471V29.0416C15.625 29.7469 16.1974 30.3193 16.9028 30.3193H19.4583C18.753 30.3193 18.1806 29.7469 18.1806 29.0416Z" fill="#FFD9CE"/>
<path d="M40.5421 45.3333H19.4588C18.2257 45.3333 17.2227 44.3303 17.2227 43.0972V30.3194C17.2227 29.7904 17.652 29.3611 18.181 29.3611H34.6362V31.2778H19.1393V43.0972C19.1393 43.2735 19.2824 43.4166 19.4588 43.4166H40.5421C40.7184 43.4166 40.8615 43.2735 40.8615 43.0972V31.2778H38.1118V29.3611H41.8199C42.3489 29.3611 42.7782 29.7904 42.7782 30.3194V43.0972C42.7782 44.3303 41.7752 45.3333 40.5421 45.3333Z" fill="#525252"/>
<path d="M43.0946 31.2778H38.1483V29.3611H43.0946C43.271 29.3611 43.4141 29.218 43.4141 29.0416V25.8472C43.4141 25.6709 43.271 25.5278 43.0946 25.5278H16.9002C16.7238 25.5278 16.5807 25.6709 16.5807 25.8472V29.0416C16.5807 29.218 16.7238 29.3611 16.9002 29.3611H34.6651V31.2778H16.9002C15.6671 31.2778 14.6641 30.2747 14.6641 29.0416V25.8472C14.6641 24.6141 15.6671 23.6111 16.9002 23.6111H43.0946C44.3277 23.6111 45.3307 24.6141 45.3307 25.8472V29.0416C45.3307 30.2747 44.3277 31.2778 43.0946 31.2778Z" fill="#525252"/>
<path d="M30.001 24.9451C29.7224 24.9451 29.4566 24.8237 29.2765 24.6129C29.0937 24.402 29.0132 24.1222 29.0528 23.8462C29.5256 20.6517 32.0211 14.6091 38.088 14.6091C41.5508 14.6104 42.7787 16.4811 42.7787 18.0834C42.7787 20.9316 38.8138 24.9451 30.001 24.9451ZM38.088 16.5271C33.511 16.5271 31.7732 20.8779 31.197 23.0003C34.808 22.8316 37.085 21.918 38.396 21.1399C40.2142 20.0601 40.8621 18.8526 40.8621 18.0821C40.8621 16.9347 39.4297 16.5271 38.088 16.5271Z" fill="#525252"/>
<path d="M30.0004 24.945C21.1876 24.945 17.2227 20.9315 17.2227 18.0834C17.2227 16.481 18.4519 14.6104 21.9147 14.6104C27.9803 14.6104 30.4758 20.653 30.9485 23.8474C30.9882 24.1234 30.9077 24.4032 30.7249 24.6141C30.5448 24.8236 30.279 24.945 30.0004 24.945ZM21.9147 16.527C20.573 16.527 19.1393 16.9359 19.1393 18.0834C19.1393 19.7151 21.9926 22.6885 28.8032 23.0015C28.2282 20.8779 26.4904 16.527 21.9147 16.527Z" fill="#525252"/>
<path d="M29.0391 24.25H30.9557V44.375H29.0391V24.25Z" fill="#525252"/>
</svg>
