<svg width="41" height="40" viewBox="0 0 41 40" fill="none" xmlns="http://www.w3.org/2000/svg">
<rect width="40" height="40" transform="translate(0.666992)" fill="white"/>
<g clip-path="url(#clip0_4362_45133)">
<path d="M36.3544 18.9184C35.5614 18.1378 34.5208 17.7078 33.4238 17.7078C32.6215 17.7078 31.8154 18.0021 31.3723 18.2927C30.4551 18.8945 29.7012 19.5476 28.344 21.2747V22.5162C29.4955 21.0387 30.5852 19.8744 31.4124 19.234C31.9561 18.804 32.7275 18.5376 33.4238 18.5376C35.2209 18.5376 36.7399 20.0331 36.7399 21.804V22.5512C36.7399 23.4262 36.3911 24.2483 35.7554 24.8672C35.1262 25.4802 34.2974 25.8178 33.4238 25.8178C31.9469 25.8178 30.6468 24.8193 30.2935 23.4557L29.6999 24.1645C30.1328 25.5933 31.6966 26.6474 33.4238 26.6474C34.5208 26.6474 35.5614 26.2168 36.3544 25.4377C37.1463 24.657 37.5822 23.6321 37.5822 22.5512V21.804C37.5822 20.7235 37.1463 19.6981 36.3544 18.9184ZM18.3108 18.5376C18.8831 18.5376 19.3779 18.6586 19.8246 18.9078C20.0346 18.6493 20.2466 18.4394 20.4045 18.284C19.932 17.9285 19.1317 17.7078 18.3108 17.7078C17.1408 17.7078 16.0784 18.1233 15.3198 18.8785C14.5669 19.6268 14.151 20.6656 14.151 21.804V26.6474H14.9933V21.804C14.9933 19.8808 16.3575 18.5376 18.3108 18.5376ZM26.3153 26.6474V21.804C26.3153 20.315 25.131 19.1482 23.6189 19.1482C22.9148 19.1482 22.2426 19.4291 21.7246 19.9386C21.2077 20.4478 20.9228 21.1109 20.9228 21.804V22.5512C20.9228 23.9903 22.158 25.2072 23.6189 25.2072C24.0195 25.2072 24.5648 25.1101 24.8985 24.8403V23.9635C24.5706 24.2231 24.0947 24.3775 23.6189 24.3775C22.5797 24.3775 21.7651 23.5747 21.7651 22.5512V21.804C21.7651 20.7802 22.5797 19.9787 23.6189 19.9787C24.6591 19.9787 25.473 20.7802 25.473 21.804V26.6474H26.3153ZM3.75098 21.3233V21.5912C3.75098 23.0297 4.30501 24.372 5.3116 25.3703C6.31571 26.3664 7.66165 26.9141 9.10143 26.9141C10.259 26.9141 11.2841 26.6561 12.1493 26.1492C12.8627 25.7302 13.1789 25.3069 13.2061 25.2681V20.8019H8.89687V21.632H12.3638V25.0103L12.3604 25.0132C11.9544 25.4137 10.9908 26.0838 9.10143 26.0838C7.87026 26.0838 6.73045 25.6216 5.88994 24.7805C5.05371 23.9433 4.59329 22.8105 4.59329 21.5912V21.3233C4.59329 20.172 5.12055 19.0235 6.03914 18.1737C6.97709 17.3077 8.19904 16.8303 9.48062 16.8303C10.6758 16.8303 11.5084 17.0089 12.1772 17.4079V16.4767C11.481 16.185 10.6488 16.0541 9.48062 16.0541C6.37512 16.0541 3.75098 18.4676 3.75098 21.3233ZM18.3108 19.9787C18.6304 19.9787 18.9011 20.0308 19.1167 20.1341C19.2215 19.8766 19.3291 19.6642 19.4859 19.4065C19.2569 19.2451 18.7116 19.1482 18.3108 19.1482C16.7738 19.1482 15.6144 20.2899 15.6144 21.804V26.6474H16.4567V21.804C16.4567 20.7288 17.2194 19.9787 18.3108 19.9787ZM12.1772 19.0046V18.0236C11.415 17.6209 10.5833 17.4413 9.48062 17.4413C8.35544 17.4413 7.28876 17.8481 6.47593 18.5848C5.66243 19.3242 5.21393 20.2968 5.21393 21.3233V21.5912C5.21393 23.7321 6.95751 25.4736 9.10143 25.4736C10.8452 25.4736 11.5611 24.9115 11.7434 24.7337V22.2429H8.89687V23.0723H10.9553V24.3204L10.9478 24.3228C10.683 24.4267 10.133 24.6435 9.10143 24.6435C8.28365 24.6435 7.51853 24.3303 6.94649 23.76C6.37174 23.1877 6.05625 22.4171 6.05625 21.5912V21.3233C6.05625 19.6689 7.62452 18.2714 9.48062 18.2714C10.7647 18.2714 11.5239 18.4762 12.1772 19.0046ZM32.0612 20.5677C32.4413 20.1942 32.9388 19.9787 33.4238 19.9787C34.463 19.9787 35.2781 20.7802 35.2781 21.804V22.5512C35.2781 23.5747 34.463 24.3775 33.4238 24.3775C32.9206 24.3775 32.4345 24.1051 32.0537 23.6129C31.7162 23.1775 31.4975 22.5886 31.4637 22.0593L30.7816 22.8797C30.9155 23.5071 31.2486 24.1085 31.7191 24.5311C32.2047 24.9665 32.8101 25.2072 33.4238 25.2072C34.911 25.2072 36.1199 24.0156 36.1199 22.5512V21.804C36.1199 21.1109 35.835 20.4478 35.3181 19.9386C34.8003 19.4291 34.1279 19.1482 33.4238 19.1482C32.9786 19.1482 32.2707 19.3054 31.427 20.0526L31.4241 20.0554C31.1984 20.278 30.6682 20.8002 30.3457 21.1725C29.8034 21.7552 29.0153 22.635 28.344 23.5151V24.8106C29.0891 23.8678 29.518 23.3396 30.2184 22.543C30.8455 21.8222 31.6219 20.9462 32.0612 20.5677ZM19.4605 22.5512C19.4605 23.6321 19.8969 24.657 20.6888 25.4377C21.4813 26.2168 22.5221 26.6474 23.6189 26.6474C24.0836 26.6474 24.5609 26.5497 24.8985 26.3859V25.5569C24.5042 25.7196 24.0278 25.8178 23.6189 25.8178C21.8218 25.8178 20.3024 24.3221 20.3024 22.5512V21.804C20.3024 20.0331 21.8218 18.5376 23.6189 18.5376C24.5126 18.5376 25.3479 18.8745 25.971 19.4882C26.5935 20.1013 26.9355 20.9238 26.9355 21.804V26.6474H27.7778V21.6444C27.7254 20.5874 27.2672 19.5984 26.4879 18.859C25.7075 18.1167 24.6874 17.7078 23.6189 17.7078C22.5221 17.7078 21.4813 18.1378 20.6888 18.9184C19.8969 19.6981 19.4605 20.7235 19.4605 21.804V22.5512ZM29.2113 19.3393C29.4692 19.0343 29.7361 18.7245 30.0525 18.4629V14.0803H29.2113V19.3393ZM30.6731 18.1233V14.0803H31.515V17.5544C31.2864 17.6681 30.9668 17.8844 30.6731 18.1233Z" fill="#1AAE48"/>
</g>
<defs>
<clipPath id="clip0_4362_45133">
<rect width="34" height="13" fill="white" transform="translate(3.66699 14)"/>
</clipPath>
</defs>
</svg>
