<svg width="41" height="40" viewBox="0 0 41 40" fill="none" xmlns="http://www.w3.org/2000/svg">
<rect width="40" height="40" transform="translate(0.666992)" fill="white"/>
<g clip-path="url(#clip0_4362_45079)">
<path d="M25.8195 15C23.4085 15 21.2438 16.1412 21.2438 18.2353C21.2438 20.6471 25.0677 20.8118 25.0677 22.0118C25.0677 22.5176 24.4196 22.9765 23.3307 22.9765C21.7753 22.9765 20.6087 22.3412 20.6087 22.3412L20.1161 24.4588C20.1161 24.4588 21.4512 25 23.24 25C25.8843 25 27.9583 23.8118 27.9583 21.6706C27.9583 19.1294 24.1214 18.9647 24.1214 17.8471C24.1214 17.4471 24.6529 17.0118 25.7417 17.0118C26.9731 17.0118 27.9842 17.4706 27.9842 17.4706L28.4768 15.4235C28.4638 15.4235 27.362 15 25.8195 15ZM3.7318 15.1529L3.66699 15.4588C3.66699 15.4588 4.67805 15.6235 5.59837 15.9647C6.77793 16.3529 6.85571 16.5765 7.0631 17.2706L9.2278 24.8353H12.1313L16.5774 15.1529H13.6868L10.8222 21.7412L9.65556 16.1529C9.55186 15.5176 9.00744 15.1529 8.33341 15.1529H3.7318ZM17.744 15.1529L15.4756 24.8353H18.2366L20.492 15.1529H17.744ZM33.1172 15.1529C32.4562 15.1529 32.1062 15.4706 31.8469 16.0353L27.8027 24.8353H30.6933L31.2507 23.3647H34.7764L35.1134 24.8353H37.667L35.4504 15.1529H33.1172ZM33.4931 17.7765L34.3487 21.4118H32.0543L33.4931 17.7765Z" fill="#1434CB"/>
</g>
<defs>
<clipPath id="clip0_4362_45079">
<rect width="34" height="10" fill="white" transform="translate(3.66699 15)"/>
</clipPath>
</defs>
</svg>
