<svg width="60" height="60" viewBox="0 0 60 60" fill="none" xmlns="http://www.w3.org/2000/svg">
<path d="M17.7036 47.6754C26.542 47.6754 32.6114 52.2537 36.8702 52.2537C41.1291 52.2537 50.0735 49.8055 50.0735 30.2133C50.0735 10.6212 38.0407 7.74487 33.3563 7.74487C11.4207 7.74487 2.05078 47.6754 17.7036 47.6754Z" fill="#EFEFEF"/>
<path d="M31.1473 17.0164L33.6632 15.8728C35.1225 15.2096 36.8385 15.9201 37.402 17.4215L38.3731 20.009C38.6542 20.7578 39.2446 21.3481 39.9934 21.6292L42.5809 22.6003C44.0822 23.1638 44.7927 24.8799 44.1295 26.3391L42.9859 28.855C42.655 29.5834 42.655 30.4178 42.9859 31.1461L44.1295 33.662C44.7927 35.1213 44.0822 36.8373 42.5809 37.4008L39.9934 38.3719C39.2446 38.653 38.6542 39.2434 38.3731 39.9921L37.402 42.5796C36.8385 44.081 35.1225 44.7915 33.6632 44.1283L31.1473 42.9847C30.419 42.6538 29.5846 42.6538 28.8562 42.9847L26.3403 44.1283C24.8811 44.7915 23.165 44.081 22.6015 42.5796L21.6304 39.9921C21.3493 39.2434 20.759 38.653 20.0102 38.3719L17.4227 37.4008C15.9213 36.8373 15.2109 35.1213 15.874 33.662L17.0176 31.1461C17.3486 30.4178 17.3486 29.5834 17.0176 28.855L15.874 26.3391C15.2109 24.8799 15.9213 23.1638 17.4227 22.6003L20.0102 21.6292C20.759 21.3481 21.3493 20.7578 21.6304 20.009L22.6015 17.4215C23.165 15.9201 24.8811 15.2096 26.3403 15.8728L28.8562 17.0164C29.5833 17.3474 30.419 17.3474 31.1473 17.0164Z" fill="white"/>
<path d="M25.4765 42.5771L24.5054 39.9896C24.2243 39.2409 23.634 38.6505 22.8852 38.3694L20.2977 37.3983C18.7963 36.8348 18.0859 35.1188 18.749 33.6595L19.8926 31.1436C20.2236 30.4153 20.2236 29.5809 19.8926 28.8525L18.749 26.3366C18.0859 24.8774 18.7963 23.1613 20.2977 22.5978L22.8852 21.6267C23.634 21.3456 24.2243 20.7553 24.5054 20.0065L25.4765 17.419C25.7078 16.8005 26.141 16.3278 26.6649 16.0185L26.3403 15.8716C24.8811 15.2084 23.165 15.9189 22.6015 17.4203L21.6304 20.0078C21.3493 20.7565 20.759 21.3469 20.0102 21.628L17.4227 22.5991C15.9213 23.1626 15.2109 24.8786 15.874 26.3379L17.0176 28.8538C17.3486 29.5821 17.3486 30.4165 17.0176 31.1449L15.874 33.6608C15.2109 35.12 15.9213 36.8361 17.4227 37.3996L20.0102 38.3707C20.759 38.6518 21.3493 39.2421 21.6304 39.9909L22.6015 42.5784C23.165 44.0798 24.8811 44.7903 26.3403 44.1271L26.6649 43.9801C26.141 43.6696 25.7078 43.1956 25.4765 42.5771Z" fill="#FFD9CE"/>
<path d="M25.1959 45.3307C24.7103 45.3307 24.226 45.2374 23.7699 45.0483C22.8192 44.6535 22.0666 43.8766 21.7063 42.9131L20.7352 40.3269C20.5512 39.8375 20.1653 39.4504 19.6759 39.2676L17.0884 38.2965C16.1262 37.9362 15.348 37.1836 14.9545 36.2342C14.5609 35.2835 14.5788 34.2013 15.0056 33.2646L16.1492 30.7487C16.3652 30.2734 16.3652 29.7265 16.1492 29.2511L15.0056 26.7352C14.5801 25.7986 14.5609 24.7163 14.9545 23.7656C15.348 22.8163 16.1262 22.0636 17.0897 21.7033L19.6759 20.7322C20.1665 20.5482 20.5524 20.1623 20.7364 19.6729L21.7075 17.0867C22.0692 16.1233 22.8205 15.3464 23.7712 14.9515C24.7205 14.558 25.8028 14.5759 26.7394 15.0026L29.2541 16.1463C29.7294 16.3596 30.275 16.3609 30.7529 16.1463L33.2689 15.0026C34.2042 14.5746 35.2865 14.558 36.2372 14.9515C37.1878 15.3464 37.9404 16.1233 38.3008 17.0867L39.2719 19.6729C39.4559 20.1623 39.8418 20.5495 40.3312 20.7322L42.9187 21.7033C43.8808 22.0636 44.659 22.8163 45.0525 23.7656C45.4461 24.7163 45.4282 25.7986 45.0014 26.7352L43.8578 29.2511C43.6419 29.7265 43.6419 30.2734 43.8578 30.7487L45.0014 33.2646C45.4269 34.2013 45.4461 35.2835 45.0525 36.2342C44.659 37.1836 43.8808 37.9362 42.9174 38.2965L40.3312 39.2676C39.8405 39.4516 39.4546 39.8375 39.2706 40.3269L38.2995 42.9131C37.9379 43.8766 37.1865 44.6535 36.2359 45.0483C35.2865 45.4419 34.2042 45.4227 33.2676 44.9972L30.7529 43.8536C30.2763 43.6389 29.7307 43.6389 29.2541 43.8536L26.7382 44.9972C26.25 45.2195 25.7223 45.3307 25.1959 45.3307ZM25.1959 16.5833C24.962 16.5833 24.7269 16.6293 24.5033 16.7213C24.0344 16.9155 23.6792 17.2835 23.5003 17.7601L22.5292 20.3463C22.1522 21.3532 21.3562 22.148 20.348 22.5262L17.7618 23.4973C17.2864 23.6762 16.9184 24.0314 16.7242 24.4991C16.53 24.9668 16.5389 25.4804 16.7485 25.9417L17.8921 28.4576C18.338 29.439 18.338 30.5609 17.8921 31.5422L16.7485 34.0581C16.5389 34.5194 16.53 35.0331 16.7242 35.5008C16.9184 35.9684 17.2864 36.3249 17.7618 36.5025L20.3493 37.4736C21.3574 37.8519 22.1522 38.6466 22.5304 39.6535L23.5015 42.2398C23.6804 42.7151 24.0357 43.0831 24.5046 43.2786C24.9735 43.4703 25.4859 43.4626 25.9459 43.253L28.4619 42.1094C29.4419 41.6622 30.5651 41.6622 31.5452 42.1094L34.0611 43.253C34.5224 43.4613 35.0348 43.4703 35.5037 43.2786C35.9727 43.0844 36.3279 42.7164 36.5068 42.2398L37.4779 39.6535C37.8548 38.6466 38.6509 37.8519 39.659 37.4736L42.2453 36.5025C42.7206 36.3236 43.0886 35.9684 43.2828 35.5008C43.477 35.0331 43.4681 34.5194 43.2585 34.0581L42.1149 31.5422C41.669 30.5609 41.669 29.439 42.1149 28.4576L43.2585 25.9417C43.4681 25.4804 43.477 24.9668 43.2828 24.4991C43.0886 24.0314 42.7206 23.6749 42.2453 23.4973L39.6578 22.5262C38.6496 22.148 37.8548 21.3532 37.4766 20.3463L36.5055 17.7601C36.3266 17.2848 35.9714 16.9168 35.5024 16.7213C35.0335 16.5283 34.5211 16.536 34.0611 16.7468L31.5452 17.8904C30.5651 18.3376 29.4419 18.3376 28.4619 17.8904L25.9459 16.7468C25.7044 16.6382 25.4514 16.5833 25.1959 16.5833Z" fill="#525252"/>
<path fill-rule="evenodd" clip-rule="evenodd" d="M38.003 27.638L38.0029 27.6375L37.9504 27.451C37.8756 27.1848 37.8012 26.9184 37.7268 26.6521L37.7265 26.651C37.5378 25.9756 37.3491 25.3003 37.1544 24.6267C37.0186 24.157 36.5679 23.9065 36.1231 24.0323C35.663 24.1627 35.4242 24.5806 35.5436 25.0584C35.583 25.2152 35.6276 25.3704 35.6722 25.5255C35.694 25.601 35.7157 25.6765 35.7368 25.7521C35.8866 26.2865 36.0353 26.8209 36.2038 27.4268C36.1051 27.35 36.012 27.2783 35.9229 27.2097L35.9229 27.2097C35.732 27.0627 35.5598 26.9301 35.3914 26.7932C35.0953 26.5531 34.7698 26.4827 34.4198 26.6454C34.0769 26.8047 33.9352 27.0979 33.9329 27.4626C33.9313 27.6726 33.9318 27.882 33.9323 28.0917V28.0918C33.9326 28.1967 33.9329 28.3016 33.9329 28.4067C33.9071 28.4113 33.8814 28.4159 33.8544 28.4206C33.7312 28.2434 33.6083 28.066 33.4854 27.8886L33.4853 27.8885C33.1624 27.4225 32.8396 26.9565 32.5106 26.4942C32.2168 26.081 31.7146 25.9898 31.3213 26.2634C30.9431 26.5265 30.8577 27.0217 31.1386 27.428C32.0704 28.7749 33.0057 30.1184 33.9446 31.4607C34.1845 31.8035 34.5392 31.9374 34.8928 31.8393C35.258 31.7389 35.4909 31.4342 35.5073 31.0083C35.5217 30.6478 35.5307 30.2869 35.5397 29.9261L35.5397 29.926L35.5397 29.9254C35.5446 29.7284 35.5495 29.5315 35.5553 29.3347C35.5568 29.282 35.5619 29.2298 35.5681 29.165C35.5714 29.1304 35.5751 29.0922 35.5787 29.0484C35.7829 29.2076 35.9812 29.3628 36.1761 29.5151C36.4997 29.7682 36.8137 30.0138 37.1286 30.258C37.4833 30.5327 37.8345 30.5581 38.1623 30.3377C38.476 30.1299 38.5977 29.764 38.4853 29.3589C38.3259 28.7842 38.1646 28.2114 38.003 27.638ZM27.247 30.947C27.1758 30.796 27.1049 30.6447 27.034 30.4935L27.034 30.4934C26.8569 30.1154 26.6797 29.7374 26.4966 29.3623C26.3199 29.0022 25.9863 28.8371 25.5953 28.8937C25.2535 28.9422 24.9526 29.2203 24.9187 29.5816C24.9023 29.7593 24.9503 29.9567 25.0193 30.1252C25.1318 30.3971 25.2608 30.6623 25.39 30.9278C25.4396 31.0298 25.4892 31.1319 25.5379 31.2344C25.4267 31.2229 25.3588 31.1767 25.2944 31.1271C25.155 31.0184 25.0159 30.9094 24.8768 30.8004L24.8767 30.8003C24.5933 30.5782 24.3102 30.3562 24.0243 30.1379C23.665 29.8632 23.2599 29.8563 22.9439 30.1068C22.6255 30.3595 22.5447 30.7439 22.7332 31.1524C22.861 31.4315 22.9926 31.7082 23.1244 31.985C23.1735 32.0883 23.2227 32.1916 23.2716 32.2951C23.4406 32.6525 23.6093 33.0101 23.778 33.3676L23.778 33.3677C24.1154 34.0828 24.4528 34.7978 24.7922 35.5118C24.9866 35.9193 25.3717 36.1247 25.7603 36.0393C26.2906 35.9227 26.561 35.3814 26.3328 34.8713C26.2045 34.5838 26.0685 34.2998 25.9324 34.0157L25.9324 34.0156C25.8772 33.9005 25.822 33.7852 25.7674 33.6697L25.789 33.6553L25.8107 33.6409C25.9872 33.7789 26.1634 33.9171 26.3395 34.0553L26.3397 34.0554C26.6378 34.2892 26.9359 34.523 27.2353 34.7558C27.6251 35.0582 28.0348 35.0871 28.3614 34.8378C28.6904 34.5862 28.7676 34.1649 28.5581 33.7205C28.1825 32.9221 27.8052 32.1255 27.4276 31.3283L27.4274 31.3278L27.247 30.947ZM30.7596 31.9351C30.9302 31.857 31.094 31.7821 31.2601 31.7111C31.7318 31.5103 32.2106 31.6765 32.4061 32.1035C32.5981 32.5237 32.4202 32.9865 31.9683 33.2023C31.4837 33.4343 30.9955 33.6594 30.5027 33.8752C30.038 34.0784 29.5826 33.9168 29.3649 33.4597C28.6578 31.9789 27.9543 30.4946 27.259 29.008C27.0518 28.5671 27.225 28.1193 27.671 27.9046C28.1709 27.6634 28.6742 27.4302 29.1823 27.2063C29.6177 27.0147 30.093 27.1901 30.2897 27.5964C30.4887 28.0085 30.3295 28.469 29.9022 28.6883C29.7342 28.775 29.5618 28.8537 29.3814 28.9361C29.2978 28.9743 29.2124 29.0132 29.1249 29.0542C29.181 29.173 29.2356 29.2895 29.2912 29.4078C29.3505 29.5342 29.4108 29.6627 29.4749 29.7986C29.5612 29.7592 29.6454 29.7201 29.7284 29.6817C29.8783 29.6122 30.024 29.5447 30.1703 29.4801C30.6408 29.2712 31.122 29.427 31.3256 29.8506C31.5305 30.2776 31.3526 30.7381 30.8902 30.9667C30.7451 31.0382 30.5985 31.1059 30.4448 31.1769C30.3605 31.2158 30.2739 31.2558 30.1843 31.2979C30.3025 31.5484 30.4149 31.7861 30.5343 32.0378C30.6112 32.003 30.686 31.9688 30.7596 31.9351Z" fill="#525252"/>
</svg>
