<svg width="20" height="18" viewBox="0 0 20 18" fill="none" xmlns="http://www.w3.org/2000/svg">
<path d="M18.4134 1.83508C17.3781 0.712189 15.9575 0.09375 14.413 0.09375C13.2585 0.09375 12.2012 0.45874 11.2704 1.1785C10.8008 1.54181 10.3752 1.9863 10 2.5051C9.62494 1.98645 9.19922 1.54181 8.7294 1.1785C7.79877 0.45874 6.74149 0.09375 5.58701 0.09375C4.04251 0.09375 2.62177 0.712189 1.58646 1.83508C0.563507 2.94485 0 4.46097 0 6.10434C0 7.79578 0.630341 9.34409 1.98364 10.9771C3.19427 12.4378 4.93423 13.9207 6.94916 15.6377C7.63718 16.2241 8.41705 16.8888 9.22684 17.5968C9.44077 17.7842 9.71527 17.8873 10 17.8873C10.2846 17.8873 10.5592 17.7842 10.7729 17.5971C11.5826 16.8889 12.363 16.224 13.0513 15.6373C15.0659 13.9205 16.8059 12.4378 18.0165 10.9769C19.3698 9.34409 20 7.79578 20 6.10419C20 4.46097 19.4365 2.94485 18.4134 1.83508Z" fill="#FF8C82"/>
</svg>
