<?xml version="1.0" encoding="utf-8"?>
<!-- Generator: Adobe Illustrator 26.2.1, SVG Export Plug-In . SVG Version: 6.00 Build 0)  -->
<svg version="1.1" id="Layer_1" xmlns="http://www.w3.org/2000/svg" xmlns:xlink="http://www.w3.org/1999/xlink" x="0px" y="0px"
	 viewBox="0 0 20 20" style="enable-background:new 0 0 20 20;" xml:space="preserve">
<style type="text/css">
	.st0{fill:none;stroke:#7A7A7A;}
</style>
<path class="st0" d="M10.4,3.8L10,4.4L9.6,3.8C9.2,3.3,8.9,2.9,8.4,2.6c-0.8-0.7-1.8-1-2.8-1C4.2,1.6,2.9,2.2,2,3.2 M2,3.2
	C1,4.2,0.5,5.6,0.5,7.1c0,1.5,0.6,3,1.9,4.6c1.2,1.4,2.9,2.9,4.9,4.6c0.7,0.6,1.5,1.3,2.3,2c0.1,0.1,0.3,0.2,0.4,0.2
	c0.2,0,0.3-0.1,0.4-0.2c0.8-0.7,1.6-1.4,2.3-2c2-1.7,3.7-3.2,4.9-4.6c1.3-1.6,1.9-3,1.9-4.6c0-1.5-0.5-2.9-1.5-3.9
	c-0.9-1-2.2-1.6-3.6-1.6c-1,0-2,0.3-2.8,1c-0.4,0.3-0.8,0.7-1.2,1.2"/>
</svg>
