<svg width="60" height="60" viewBox="0 0 60 60" fill="none" xmlns="http://www.w3.org/2000/svg">
<path d="M17.7036 47.6754C26.542 47.6754 32.6114 52.2537 36.8702 52.2537C41.1291 52.2537 50.0735 49.8055 50.0735 30.2133C50.0735 10.6212 38.0407 7.74487 33.3563 7.74487C11.4207 7.74487 2.05078 47.6754 17.7036 47.6754Z" fill="#EFEFEF"/>
<path d="M23.344 29.1847C23.192 26.072 24.1835 20.2607 28.758 15.8703C29.2933 15.3553 30.1328 15.699 30.2453 16.4708C31.325 23.8576 39.1322 27.1926 35.957 36.4169C34.0109 42.0711 27.4252 44.7761 22.3908 41.9944C18.5038 39.8478 16.4568 35.672 16.9896 31.0247C17.2477 28.7758 17.8393 26.4324 19.4672 25.0089C19.9566 24.5809 20.6965 24.8696 20.8856 25.5251C21.3762 27.2361 22.1033 28.2213 23.344 29.1847Z" fill="white"/>
<path d="M33.8316 36.7084C34.7137 36.7084 35.4288 35.9933 35.4288 35.1111C35.4288 34.229 34.7137 33.5139 33.8316 33.5139C32.9495 33.5139 32.2344 34.229 32.2344 35.1111C32.2344 35.9933 32.9495 36.7084 33.8316 36.7084Z" fill="#2FDF84"/>
<path d="M41.4996 44.3751C42.3817 44.3751 43.0968 43.66 43.0968 42.7779C43.0968 41.8958 42.3817 41.1807 41.4996 41.1807C40.6174 41.1807 39.9023 41.8958 39.9023 42.7779C39.9023 43.66 40.6174 44.3751 41.4996 44.3751Z" fill="#2FDF84"/>
<path d="M25.2657 41.9946C21.3787 39.8479 19.3305 35.6721 19.8646 31.0248C20.0499 29.4097 20.414 27.7499 21.205 26.4133C21.0912 26.1335 20.9788 25.8537 20.8855 25.5266C20.6977 24.8711 19.9566 24.5823 19.4672 25.0103C17.8393 26.4325 17.2477 28.7772 16.9896 31.0261C16.4568 35.6747 18.505 39.8492 22.3907 41.9958C24.1975 42.9938 26.2011 43.2749 28.1216 42.9772C27.1428 42.8174 26.1781 42.4993 25.2657 41.9946Z" fill="#FFD9CE"/>
<path d="M35.1094 35.1111C35.1094 34.8684 35.172 34.6448 35.2691 34.439C35.0135 33.896 34.4705 33.5139 33.8316 33.5139C32.9499 33.5139 32.2344 34.2295 32.2344 35.1111C32.2344 35.9928 32.9499 36.7084 33.8316 36.7084C34.4705 36.7084 35.0135 36.3263 35.2691 35.7832C35.172 35.5775 35.1094 35.3539 35.1094 35.1111Z" fill="#FFD9CE"/>
<path d="M42.7773 42.7779C42.7773 42.5351 42.84 42.3115 42.9371 42.1058C42.6815 41.5627 42.1385 41.1807 41.4996 41.1807C40.6179 41.1807 39.9023 41.8962 39.9023 42.7779C39.9023 43.6596 40.6179 44.3751 41.4996 44.3751C42.1385 44.3751 42.6815 43.9931 42.9371 43.45C42.84 43.2443 42.7773 43.0207 42.7773 42.7779Z" fill="#FFD9CE"/>
<path d="M26.9498 44.058C25.249 44.058 23.5854 43.6491 22.0789 42.8428C17.7523 40.5147 15.4395 35.9416 16.0388 30.9084C16.2752 28.9099 16.8285 26.0452 18.9138 24.2729C19.3815 23.8793 20.0089 23.7464 20.5941 23.9202C21.2228 24.1068 21.716 24.6038 21.9115 25.2491C22.1057 25.9123 22.3306 26.4438 22.6309 26.9128C23.0155 23.2813 24.6613 18.6864 28.4243 15.1738C28.9303 14.6947 29.6229 14.5388 30.2809 14.7675C30.9556 15.0013 31.4424 15.6019 31.5498 16.3353C31.9599 19.0429 33.2773 21.2471 34.6688 23.5803C35.8405 25.5417 37.0519 27.5696 37.6371 29.8887C37.7661 30.4024 37.4544 30.9237 36.942 31.0528C36.436 31.1818 35.907 30.8726 35.7779 30.3589C35.263 28.3119 34.1743 26.4924 33.0243 24.5642C31.597 22.1748 30.1212 19.7036 29.6535 16.619C25.5838 20.4459 24.3048 25.7628 24.4683 29.1412C24.4875 29.5131 24.2869 29.8619 23.9598 30.0357C23.6301 30.2082 23.2314 30.1775 22.9337 29.9526C21.4387 28.8218 20.6107 27.6194 20.074 25.7998C18.9585 26.7505 18.2545 28.4666 17.9414 31.1358C17.4354 35.3717 19.3674 39.2101 22.9835 41.1562C24.9871 42.2295 27.3497 42.4352 29.6254 41.7337C30.1289 41.5791 30.6655 41.8615 30.824 42.3675C30.9799 42.8735 30.6949 43.4102 30.1902 43.5661C29.1181 43.8944 28.0256 44.058 26.9498 44.058Z" fill="#525252"/>
<path d="M33.8329 37.6668C32.4235 37.6668 31.2773 36.5206 31.2773 35.1112C31.2773 33.7018 32.4235 32.5557 33.8329 32.5557C35.2423 32.5557 36.3885 33.7018 36.3885 35.1112C36.3885 36.5206 35.2423 37.6668 33.8329 37.6668ZM33.8329 34.4723C33.4815 34.4723 33.194 34.7586 33.194 35.1112C33.194 35.4639 33.4815 35.7501 33.8329 35.7501C34.1843 35.7501 34.4718 35.4639 34.4718 35.1112C34.4718 34.7586 34.1843 34.4723 33.8329 34.4723Z" fill="#525252"/>
<path d="M41.5009 45.3333C40.0915 45.3333 38.9453 44.1871 38.9453 42.7777C38.9453 41.3683 40.0915 40.2222 41.5009 40.2222C42.9103 40.2222 44.0564 41.3683 44.0564 42.7777C44.0564 44.1871 42.9103 45.3333 41.5009 45.3333ZM41.5009 42.1388C41.1495 42.1388 40.862 42.4251 40.862 42.7777C40.862 43.1304 41.1495 43.4166 41.5009 43.4166C41.8523 43.4166 42.1398 43.1304 42.1398 42.7777C42.1398 42.4251 41.8523 42.1388 41.5009 42.1388Z" fill="#525252"/>
<path d="M32.7539 43.8164L41.0666 32.9607L42.5885 34.126L34.2757 44.9817L32.7539 43.8164Z" fill="#525252"/>
</svg>
