<svg width="60" height="60" viewBox="0 0 60 60" fill="none" xmlns="http://www.w3.org/2000/svg">
<g clip-path="url(#clip0_3610_643091)">
<path d="M11.3982 37.5173C19.1428 41.7761 22.2554 48.7119 25.9865 50.764C29.7189 52.8161 38.7362 54.9794 48.1764 37.8111C57.6166 20.6429 48.4588 12.3259 44.3533 10.068C25.133 -0.499188 -2.31751 29.9758 11.3982 37.5173Z" fill="#EFEFEF"/>
<path d="M37.0284 38.5969V43.2442C37.0284 44.1054 36.2783 44.7558 35.4133 44.6893C24.6672 43.8562 16.0869 35.3015 15.3087 24.6001C15.2474 23.7478 15.8939 23.0106 16.7539 23.0042L21.2925 22.9709C21.9621 22.9709 22.546 23.4233 22.7083 24.0686L23.6564 27.8342C23.7983 28.4002 23.5862 28.9957 23.1159 29.3458L20.7968 31.0733C22.5333 34.5514 25.3648 37.3779 28.8238 39.1463L30.6063 36.785C30.9589 36.3186 31.5582 36.1065 32.1281 36.2483L35.9205 37.1901C36.5735 37.3523 37.0284 37.9324 37.0284 38.5969Z" fill="white"/>
<path d="M36.2862 44.4899C36.0307 44.6433 35.7368 44.7199 35.4173 44.6944C24.6712 43.8511 16.0846 35.3027 15.3051 24.5949C15.2412 23.7516 15.8929 23.0105 16.749 23.0105L21.2979 22.9722C21.3618 22.9722 21.4257 22.9722 21.4896 22.9977L19.3046 23.0105C18.4484 23.0105 17.7968 23.7516 17.8607 24.5949C18.6018 34.7405 26.3451 42.9438 36.2862 44.4899Z" fill="#FFD9CE"/>
<path d="M35.5334 45.6527C35.4682 45.6527 35.4031 45.6502 35.3392 45.6451C24.1816 44.7813 15.1592 35.764 14.3542 24.6704C14.3044 23.9906 14.5395 23.3159 14.997 22.8201C15.4518 22.3256 16.0741 22.0509 16.7475 22.0471L21.2862 22.0151C22.4042 22.0151 23.3677 22.7639 23.6386 23.8372L24.5867 27.6041C24.8256 28.5484 24.473 29.5349 23.6897 30.1175L22.0298 31.3531C23.5504 34.0646 25.83 36.3556 28.5567 37.9132L29.8435 36.21C30.4287 35.4356 31.4138 35.0868 32.3607 35.3206L36.1531 36.2624C37.2328 36.5307 37.9867 37.4916 37.9867 38.5994V43.2467C37.9867 43.9188 37.7146 44.5411 37.2188 44.9998C36.7626 45.4189 36.157 45.6527 35.5334 45.6527ZM21.2926 23.9305L16.7603 23.9625C16.584 23.9637 16.469 24.0481 16.4051 24.1196C16.3028 24.2295 16.2543 24.3765 16.2658 24.5311C17.0031 34.6869 25.2665 42.9426 35.4874 43.7335C35.6484 43.7501 35.8056 43.6939 35.9167 43.5904C35.9857 43.5265 36.0688 43.4141 36.0688 43.2441V38.5969C36.0688 38.372 35.9129 38.1752 35.6906 38.1202L31.8981 37.1785C31.7001 37.1261 31.4943 37.2015 31.373 37.3625L29.5892 39.7239C29.3081 40.0944 28.8021 40.2094 28.3881 39.9999C24.7464 38.1381 21.7462 35.12 19.9394 31.5014C19.7311 31.0861 19.8525 30.5826 20.2243 30.3041L22.5435 28.5765C22.7032 28.4577 22.7748 28.2584 22.7275 28.0692L21.7794 24.3024C21.7245 24.0851 21.5238 23.9305 21.2926 23.9305Z" fill="#525252"/>
<path d="M45.8125 25.3206V19H50V20.0907H47.1353V21.6062H49.8379V22.6399H47.1353V24.23H50V25.3206H45.8125Z" fill="#FD6F7F"/>
<path d="M40.6719 25.3206V19H44.8593V20.0907H41.9947V21.6062H44.6973V22.6399H41.9947V24.23H44.8593V25.3206H40.6719Z" fill="#FD6F7F"/>
<path d="M34.9219 25.3206V19H37.5325C38.9517 19 39.7927 19.7534 39.7927 21.0237V21.0324C39.7927 21.8647 39.3503 22.5567 38.6494 22.8327L39.981 25.3206H38.483L37.3047 23.0298H36.2447V25.3206H34.9219ZM36.2447 22.0267H37.3879C38.045 22.0267 38.4392 21.6544 38.4392 21.0324V21.0237C38.4392 20.4192 38.0231 20.0337 37.3704 20.0337H36.2447V22.0267Z" fill="#FD6F7F"/>
<path d="M30 25.3206V19H34.1393V20.0907H31.3228V21.7858H33.894V22.8327H31.3228V25.3206H30Z" fill="#FD6F7F"/>
</g>
<defs>
<clipPath id="clip0_3610_643091">
<rect width="46" height="46" fill="white" transform="translate(7 7)"/>
</clipPath>
</defs>
</svg>
