<svg width="20" height="20" viewBox="0 0 20 20" fill="none" xmlns="http://www.w3.org/2000/svg">
<path d="M17.5 3.75H13.0875C13.0436 3.00415 12.7829 2.28733 12.3375 1.6875C11.8 1.025 11 0.625 10 0.625C9 0.625 8.2 1.025 7.6625 1.6875C7.2164 2.28698 6.95567 3.004 6.9125 3.75H2.5C2.33424 3.75 2.17527 3.81585 2.05806 3.93306C1.94085 4.05027 1.875 4.20924 1.875 4.375C1.875 4.54076 1.94085 4.69973 2.05806 4.81694C2.17527 4.93415 2.33424 5 2.5 5H4.0625V17.5C4.0625 17.85 4.3375 18.125 4.6875 18.125H15.3125C15.4783 18.125 15.6372 18.0592 15.7544 17.9419C15.8717 17.8247 15.9375 17.6658 15.9375 17.5V5H17.5C17.6658 5 17.8247 4.93415 17.9419 4.81694C18.0592 4.69973 18.125 4.54076 18.125 4.375C18.125 4.20924 18.0592 4.05027 17.9419 3.93306C17.8247 3.81585 17.6658 3.75 17.5 3.75ZM8.6375 2.475C8.925 2.1125 9.3625 1.875 10 1.875C10.6375 1.875 11.0625 2.1125 11.3625 2.475C11.6125 2.775 11.7375 3.225 11.8125 3.75H8.1875C8.25 3.225 8.4 2.775 8.6375 2.475ZM14.6875 16.875H5.3125V5H14.6875V16.875Z" fill="#919191"/>
<path d="M8.1875 6.5625C8.02174 6.5625 7.86277 6.62835 7.74556 6.74556C7.62835 6.86277 7.5625 7.02174 7.5625 7.1875V14.6875C7.5625 14.8533 7.62835 15.0122 7.74556 15.1294C7.86277 15.2467 8.02174 15.3125 8.1875 15.3125C8.35326 15.3125 8.51223 15.2467 8.62944 15.1294C8.74665 15.0122 8.8125 14.8533 8.8125 14.6875V7.1875C8.8125 7.02174 8.74665 6.86277 8.62944 6.74556C8.51223 6.62835 8.35326 6.5625 8.1875 6.5625ZM11.8125 6.5625C11.6467 6.5625 11.4878 6.62835 11.3706 6.74556C11.2533 6.86277 11.1875 7.02174 11.1875 7.1875V14.6875C11.1875 14.8533 11.2533 15.0122 11.3706 15.1294C11.4878 15.2467 11.6467 15.3125 11.8125 15.3125C11.9783 15.3125 12.1372 15.2467 12.2544 15.1294C12.3717 15.0122 12.4375 14.8533 12.4375 14.6875V7.1875C12.4375 7.02174 12.3717 6.86277 12.2544 6.74556C12.1372 6.62835 11.9783 6.5625 11.8125 6.5625Z" fill="#919191"/>
</svg>
