<svg width="70" height="70" viewBox="0 0 70 70" fill="none" xmlns="http://www.w3.org/2000/svg">
<g clip-path="url(#clip0_4362_45006)">
<path d="M70 35C70 39.5344 66.1344 43.2678 64.4933 47.2189C62.7978 51.31 62.8289 56.6689 59.7489 59.7489C56.6689 62.8289 51.3022 62.7978 47.2189 64.4933C43.2756 66.1267 39.5422 70 35 70C30.4578 70 26.7322 66.1344 22.7811 64.4933C18.69 62.7978 13.3311 62.8289 10.2511 59.7489C7.17111 56.6689 7.20222 51.3022 5.50667 47.2189C3.87333 43.2756 0 39.5422 0 35C0 30.4578 3.86556 26.7322 5.50667 22.7811C7.20222 18.69 7.17111 13.3311 10.2511 10.2511C13.3311 7.17111 18.6978 7.20222 22.7811 5.50667C26.7244 3.87333 30.4578 0 35 0C39.5422 0 43.2678 3.86556 47.2189 5.50667C51.31 7.20222 56.6689 7.17111 59.7489 10.2511C62.8289 13.3311 62.7978 18.6978 64.4933 22.7811C66.1267 26.7244 70 30.4578 70 35Z" fill="#EEEEFF"/>
<path d="M43.906 25.5117C44.4349 29.7272 40.5693 31.6561 40.5693 31.6561C40.7482 17.4305 29.6805 17.6017 29.6805 17.6017C31.9671 19.3594 34.596 25.6828 27.9227 29.7194C27.8216 29.7817 27.7282 29.8361 27.6349 29.8983C18.1616 35.8717 21.5838 49.9883 31.7338 52.3917C30.1627 49.6072 28.0082 43.3305 35.0005 36.6805C41.876 43.2139 39.916 49.3894 38.3527 52.2439C43.8594 50.6805 47.8493 45.6017 47.9427 39.5661C48.0438 33.0794 43.906 25.5039 43.906 25.5039V25.5117Z" fill="#525252"/>
</g>
<defs>
<clipPath id="clip0_4362_45006">
<rect width="70" height="70" fill="white"/>
</clipPath>
</defs>
</svg>
