<svg width="16" height="17" viewBox="0 0 16 17" fill="none" xmlns="http://www.w3.org/2000/svg">
<g clip-path="url(#clip0_5051_51008)">
<mask id="mask0_5051_51008" style="mask-type:luminance" maskUnits="userSpaceOnUse" x="0" y="0" width="16" height="17">
<path d="M0 0.5H16V16.5H0V0.5Z" fill="white"/>
</mask>
<g mask="url(#mask0_5051_51008)">
<path d="M2.33203 3.83325C1.7807 3.83325 1.33203 3.38459 1.33203 2.83325C1.33203 2.28192 1.7807 1.83325 2.33203 1.83325C2.88336 1.83325 3.33203 2.28192 3.33203 2.83325C3.33203 3.38459 2.88336 3.83325 2.33203 3.83325ZM2.33203 2.49992C2.14803 2.49992 1.9987 2.64925 1.9987 2.83325C1.9987 3.01725 2.14803 3.16659 2.33203 3.16659C2.51603 3.16659 2.66536 3.01725 2.66536 2.83325C2.66536 2.64925 2.51603 2.49992 2.33203 2.49992Z" fill="#919191"/>
<path d="M2.33333 7.16667C2.224 7.16667 2.12133 7.11267 2.05867 7.02267C1.848 6.718 0 4.008 0 2.83333C0 1.54667 1.04667 0.5 2.33333 0.5C3.62 0.5 4.66667 1.54667 4.66667 2.83333C4.66667 4.008 2.81867 6.718 2.608 7.02267C2.54533 7.11267 2.44267 7.16667 2.33333 7.16667ZM2.33333 1.16667C1.41467 1.16667 0.666667 1.91467 0.666667 2.83333C0.666667 3.478 1.59867 5.11467 2.33333 6.236C3.068 5.11467 4 3.478 4 2.83333C4 1.91467 3.252 1.16667 2.33333 1.16667Z" fill="#919191"/>
<path d="M12.9987 11.8333C12.08 11.8333 11.332 11.0853 11.332 10.1667C11.332 9.248 12.08 8.5 12.9987 8.5C13.9174 8.5 14.6654 9.248 14.6654 10.1667C14.6654 11.0853 13.9174 11.8333 12.9987 11.8333ZM12.9987 9.16667C12.4474 9.16667 11.9987 9.61533 11.9987 10.1667C11.9987 10.718 12.4474 11.1667 12.9987 11.1667C13.55 11.1667 13.9987 10.718 13.9987 10.1667C13.9987 9.61533 13.55 9.16667 12.9987 9.16667Z" fill="#919191"/>
<path d="M13 16.5C12.882 16.5 12.7727 16.4373 12.7127 16.336C12.4353 15.8646 10 11.686 10 10.1666C10 8.51263 11.346 7.16663 13 7.16663C14.654 7.16663 16 8.51263 16 10.1666C16 11.686 13.5647 15.8646 13.2873 16.336C13.2273 16.4373 13.118 16.5 13 16.5ZM13 7.83329C11.7133 7.83329 10.6667 8.87996 10.6667 10.1666C10.6667 11.172 12.1547 14.008 13 15.4993C13.8453 14.008 15.3333 11.172 15.3333 10.1666C15.3333 8.87996 14.2867 7.83329 13 7.83329Z" fill="#919191"/>
<path d="M11.6654 16.5C11.1574 16.5 10.6914 16.458 10.28 16.3746C10.0994 16.338 9.98336 16.162 10.0194 15.9813C10.056 15.8006 10.2287 15.686 10.4127 15.7206C10.7807 15.7953 11.202 15.8333 11.6654 15.8333C11.8494 15.8333 11.9987 15.9826 11.9987 16.1666C11.9987 16.3506 11.8494 16.5 11.6654 16.5ZM9.11803 15.9093C9.0567 15.9093 8.9947 15.8926 8.9387 15.8566C8.5147 15.586 8.1847 15.236 7.93003 14.788C7.8387 14.628 7.89536 14.4246 8.05536 14.3333C8.21536 14.242 8.4187 14.2986 8.51003 14.4586C8.71003 14.8106 8.96736 15.084 9.29803 15.2946C9.45336 15.3933 9.4987 15.6 9.39936 15.7546C9.33603 15.8546 9.22803 15.9093 9.11803 15.9093ZM7.77936 13.706C7.62403 13.706 7.48536 13.5966 7.45336 13.4393C7.35603 12.962 7.3087 12.4593 7.27803 12.0753C7.26336 11.892 7.4007 11.7313 7.58403 11.7166C7.7667 11.7006 7.92803 11.8393 7.9427 12.0226C7.97136 12.388 8.0167 12.864 8.1067 13.3066C8.14336 13.4873 8.0267 13.6633 7.8467 13.6993C7.82403 13.704 7.80203 13.706 7.77936 13.706ZM7.5147 11.0493C7.34336 11.0493 7.19736 10.918 7.1827 10.744C7.13736 10.2086 7.0827 9.81528 7.00336 9.46862C6.96203 9.28928 7.0747 9.11062 7.25403 9.06928C7.43136 9.02728 7.61203 9.14062 7.65336 9.32062C7.73936 9.69862 7.7987 10.1206 7.8467 10.6873C7.86203 10.8706 7.72603 11.032 7.5427 11.0473C7.53336 11.0486 7.52403 11.0493 7.5147 11.0493ZM6.8427 8.49862C6.73336 8.49862 6.62603 8.44462 6.5627 8.34595C6.34936 8.01595 6.0747 7.76462 5.7227 7.57728C5.56003 7.49062 5.4987 7.28862 5.5847 7.12662C5.67136 6.96462 5.87336 6.90328 6.03536 6.98862C6.48336 7.22728 6.84936 7.56195 7.12203 7.98395C7.22203 8.13795 7.17736 8.34462 7.02336 8.44462C6.96736 8.48128 6.9047 8.49862 6.8427 8.49862ZM4.6207 7.22928C4.60536 7.22928 4.58936 7.22862 4.5727 7.22595C4.29603 7.18662 3.98203 7.17528 3.66536 7.16662C3.48136 7.16662 3.33203 7.01728 3.33203 6.83328C3.33203 6.64662 3.48936 6.48528 3.6727 6.49995C4.0267 6.49995 4.36136 6.52195 4.66736 6.56595C4.84936 6.59262 4.97603 6.76128 4.95003 6.94328C4.92603 7.10995 4.78336 7.22928 4.6207 7.22928Z" fill="#919191"/>
</g>
</g>
<defs>
<clipPath id="clip0_5051_51008">
<rect width="16" height="16" fill="white" transform="translate(0 0.5)"/>
</clipPath>
</defs>
</svg>
