<svg width="41" height="40" viewBox="0 0 41 40" fill="none" xmlns="http://www.w3.org/2000/svg">
<rect width="40" height="40" transform="translate(0.666992)" fill="white"/>
<path d="M26.6751 23.3962L17.4622 25.4571C17.458 25.4571 17.4498 25.4613 17.4456 25.4613C16.8497 25.5854 16.266 25.2089 16.1378 24.6128C16.1337 24.6087 16.1337 24.6087 16.1337 24.6047L14.2588 15.7144L15.2356 13.972C15.3969 13.6907 15.6701 13.4878 15.9929 13.4258L18.1948 12.9996L20.5787 12.536L23.3971 11.9895C23.7075 11.9275 24.0345 12.0061 24.2829 12.2007L25.6404 13.2437L27.5194 22.08C27.6436 22.676 27.271 23.2636 26.6751 23.3962Z" fill="#FA990E"/>
<path d="M26.6746 23.3968L17.4612 25.4556C17.4574 25.4556 17.4499 25.4592 17.4462 25.4592C16.8499 25.583 16.2649 25.208 16.1375 24.6118C16.1337 24.608 16.1337 24.608 16.1337 24.6043L14.2588 15.7135L25.6395 13.2422L27.5183 22.0807C27.6457 22.6769 27.2707 23.2619 26.6746 23.3968Z" fill="#FBAD3E"/>
<path d="M18.4287 14.8281L21.1099 14.2088L23.3982 24.1147L20.717 24.734L18.4287 14.8281Z" fill="#B53016"/>
<path d="M23.7829 7.42114L22.5808 10.7557C22.4487 11.122 22.0435 11.3132 21.6791 11.1813L15.3654 8.89477C15.001 8.76281 14.8113 8.35611 14.9434 7.98978L16.1455 4.65527C16.2788 4.28529 16.6828 4.09771 17.0472 4.22967L23.3608 6.51615C23.7252 6.64811 23.9163 7.05116 23.7829 7.42114Z" fill="#617F4D"/>
<path d="M23.0372 7.77905L22.2369 9.99917C21.9202 9.88449 21.5697 10.0501 21.455 10.3684L16.0563 8.41324C16.171 8.095 16.0071 7.74306 15.6904 7.62838L16.4908 5.40826C16.8074 5.52294 17.1579 5.3575 17.2727 5.03906L22.6714 6.99419C22.5566 7.31263 22.7206 7.66438 23.0372 7.77905Z" fill="#3D5E2A"/>
<path d="M17.4766 6.89719C17.5145 6.70898 17.3932 6.52586 17.2058 6.48819C17.0184 6.45051 16.8358 6.57255 16.798 6.76077C16.7602 6.94898 16.8814 7.1321 17.0688 7.16977C17.2562 7.20745 17.4388 7.08541 17.4766 6.89719Z" fill="#255299"/>
<path d="M22.085 8.56907C22.1229 8.38085 22.0016 8.19773 21.8142 8.16006C21.6268 8.12239 21.4442 8.24443 21.4064 8.43264C21.3686 8.62086 21.4898 8.80398 21.6772 8.84165C21.8646 8.87932 22.0472 8.75728 22.085 8.56907Z" fill="#255299"/>
<path d="M20.4917 8.10236C20.7362 7.40985 20.4288 6.66989 19.805 6.44962C19.1813 6.22935 18.4774 6.61218 18.2328 7.30469C17.9883 7.9972 18.2957 8.73716 18.9195 8.95743C19.5432 9.1777 20.2471 8.79487 20.4917 8.10236Z" fill="#8A9BEA"/>
<path d="M19.6732 8.0217C19.6705 7.84963 19.5511 7.68908 19.3902 7.63181C19.2846 7.59635 19.2067 7.49377 19.2009 7.38164C19.1907 7.26934 19.2557 7.15384 19.3594 7.09912C19.4623 7.04334 19.602 7.05255 19.7006 7.13236C19.8017 7.2088 19.8539 7.35253 19.821 7.49138C19.8877 7.36435 19.8618 7.18815 19.7521 7.07587C19.7254 7.04838 19.6944 7.02509 19.6605 7.00635C19.6708 6.99949 19.6799 6.99227 19.6881 6.98471C19.7068 6.96613 19.7199 6.94544 19.7281 6.92299C19.7363 6.90057 19.7395 6.87628 19.7369 6.84992C19.7334 6.82328 19.7263 6.79527 19.7038 6.76172C19.6652 6.77314 19.6418 6.79011 19.6221 6.80837C19.6034 6.82699 19.5903 6.84767 19.5823 6.87016C19.5743 6.89268 19.5711 6.91698 19.5737 6.9433C19.575 6.95304 19.5771 6.96308 19.5799 6.97336C19.569 6.9701 19.5583 6.96626 19.5471 6.96385C19.4683 6.94745 19.3841 6.9573 19.3084 6.9889C19.1541 7.05074 19.0486 7.21749 19.0541 7.38852C19.0571 7.56054 19.1762 7.72129 19.3373 7.77841C19.443 7.81368 19.5207 7.91641 19.5268 8.02857C19.5369 8.14084 19.4719 8.25658 19.3681 8.31129C19.2652 8.36708 19.1254 8.35788 19.0267 8.27797C18.9257 8.20145 18.8734 8.05764 18.9064 7.91883C18.8399 8.04588 18.8658 8.22199 18.9755 8.33419C19.0017 8.36207 19.0326 8.38537 19.0665 8.40398C19.0563 8.41071 19.0473 8.41788 19.0392 8.4254C19.0204 8.44402 19.0073 8.46466 18.9993 8.48719C18.9913 8.50971 18.9882 8.53397 18.9908 8.56033C18.9943 8.58703 19.0014 8.61497 19.0237 8.64846C19.0621 8.63697 19.0854 8.62001 19.1051 8.60174C19.1239 8.58312 19.137 8.56247 19.1452 8.54001C19.1534 8.51757 19.1565 8.49331 19.1539 8.46695C19.1527 8.4571 19.1505 8.44696 19.1477 8.43653C19.2352 8.46202 19.3323 8.45968 19.419 8.42108C19.5732 8.35927 19.6787 8.19269 19.6732 8.0217Z" fill="white"/>
<path d="M17.3956 6.94016C17.4334 6.75194 17.3122 6.56883 17.1248 6.53115C16.9374 6.49348 16.7548 6.61552 16.7169 6.80374C16.6791 6.99195 16.8004 7.17507 16.9878 7.21274C17.1752 7.25041 17.3578 7.12837 17.3956 6.94016Z" fill="#8A9BEA"/>
<path d="M22.0059 8.61203C22.0438 8.42382 21.9225 8.2407 21.7351 8.20303C21.5477 8.16536 21.3651 8.2874 21.3273 8.47561C21.2895 8.66383 21.4107 8.84695 21.5981 8.88462C21.7855 8.92229 21.9681 8.80025 22.0059 8.61203Z" fill="#8A9BEA"/>
<path d="M24.3923 7.51592L22.5802 10.5481C22.3812 10.8812 21.9468 10.9905 21.6136 10.7915L15.8419 7.34228C15.5088 7.14322 15.3993 6.70884 15.5984 6.37573L17.4104 3.34357C17.6115 3.00714 18.0439 2.90111 18.377 3.10018L24.1487 6.54936C24.4818 6.74843 24.5933 7.17949 24.3923 7.51592Z" fill="#AEC46E"/>
<path d="M23.5914 7.72506L22.3849 9.74388C22.0955 9.57089 21.7197 9.66569 21.5467 9.95507L16.6114 7.00574C16.7844 6.71635 16.6899 6.3405 16.4004 6.16751L17.6068 4.1487C17.8963 4.32169 18.272 4.22706 18.445 3.9375L23.3803 6.88684C23.2073 7.1764 23.3019 7.55207 23.5914 7.72506Z" fill="#617F4D"/>
<path d="M22.1893 8.52891C22.3806 8.52891 22.5357 8.37378 22.5357 8.18242C22.5357 7.99106 22.3806 7.83594 22.1893 7.83594C21.9979 7.83594 21.8428 7.99106 21.8428 8.18242C21.8428 8.37378 21.9979 8.52891 22.1893 8.52891Z" fill="#255299"/>
<path d="M21.0228 7.56602C21.3983 6.93806 21.242 6.15357 20.6737 5.81381C20.1055 5.47405 19.3404 5.70768 18.965 6.33564C18.5895 6.9636 18.7458 7.74809 19.3141 8.08785C19.8823 8.42761 20.6474 8.19398 21.0228 7.56602Z" fill="white"/>
<path d="M20.2401 7.31297C20.27 7.14407 20.183 6.96406 20.0357 6.87713C19.9388 6.82218 19.8815 6.70684 19.897 6.59601C19.9083 6.48417 19.9941 6.38363 20.1063 6.34999C20.2179 6.31515 20.3534 6.35097 20.4353 6.44801C20.5201 6.5422 20.5443 6.69286 20.4857 6.82242C20.5752 6.71091 20.5831 6.53354 20.4966 6.4026C20.4755 6.37058 20.4494 6.34183 20.4197 6.31701C20.4311 6.31226 20.4414 6.30694 20.4509 6.30111C20.4729 6.28653 20.4896 6.26881 20.5019 6.24841C20.5142 6.22805 20.5219 6.20488 20.5243 6.17859C20.526 6.15186 20.5243 6.12308 20.5085 6.08594C20.4684 6.08969 20.4422 6.10181 20.4195 6.11591C20.3975 6.13052 20.3807 6.14825 20.3686 6.16872C20.3565 6.18922 20.3488 6.21239 20.3464 6.23865C20.3458 6.24842 20.346 6.25866 20.3468 6.26926C20.3367 6.26397 20.3269 6.25815 20.3163 6.25365C20.2419 6.22247 20.1574 6.21596 20.077 6.23234C19.9136 6.26323 19.7785 6.40616 19.7515 6.57456C19.7219 6.74347 19.8086 6.92363 19.9561 7.01044C20.0532 7.06523 20.1102 7.18069 20.095 7.2916C20.0836 7.4034 19.9979 7.50418 19.8856 7.53779C19.7738 7.57262 19.6382 7.5368 19.5564 7.43966C19.4715 7.34539 19.4474 7.19464 19.5061 7.06515C19.4167 7.1767 19.4088 7.354 19.4954 7.48485C19.5159 7.51715 19.5419 7.54589 19.5716 7.57059C19.5604 7.57524 19.5501 7.58052 19.5407 7.58632C19.5188 7.60093 19.502 7.61862 19.4899 7.63913C19.4777 7.65963 19.4701 7.68277 19.4676 7.70906C19.4661 7.73587 19.4677 7.76455 19.4833 7.8016C19.5233 7.79775 19.5493 7.78561 19.5722 7.77152C19.5942 7.75691 19.6109 7.73922 19.6232 7.71882C19.6355 7.69843 19.6432 7.67528 19.6456 7.649C19.6462 7.63912 19.646 7.62878 19.6452 7.61803C19.7264 7.65977 19.8223 7.67612 19.9148 7.65499C20.078 7.6241 20.2132 7.48135 20.2401 7.31297Z" fill="#617F4D"/>
<path d="M17.8855 6.03282C18.0769 6.03282 18.232 5.87769 18.232 5.68633C18.232 5.49497 18.0769 5.33984 17.8855 5.33984C17.6942 5.33984 17.5391 5.49497 17.5391 5.68633C17.5391 5.87769 17.6942 6.03282 17.8855 6.03282Z" fill="white"/>
<path d="M22.1004 8.55235C22.2918 8.55235 22.4469 8.39722 22.4469 8.20586C22.4469 8.0145 22.2918 7.85938 22.1004 7.85938C21.909 7.85938 21.7539 8.0145 21.7539 8.20586C21.7539 8.39722 21.909 8.55235 22.1004 8.55235Z" fill="white"/>
<path d="M17.8098 21.4729L10.4644 17.3065C10.1067 17.1036 9.6572 17.3272 9.60321 17.7349L9.00603 22.2447C8.97109 22.5085 9.12019 22.7623 9.36768 22.8602L12.3318 24.0328C13.2862 24.4104 14.3033 24.6042 15.3296 24.6042H16.7297L17.8098 21.4729Z" fill="#51504F"/>
<path d="M33.0005 9.74476C33.0124 9.85942 32.9372 9.96634 32.8263 9.99805C30.9771 10.4613 28.8506 9.94275 28.8506 9.94275V6.82631C29.9475 6.82631 31.5948 5.79671 32.2957 5.35316C32.4462 5.25823 32.6441 5.35722 32.656 5.5353L33.0005 9.74476Z" fill="#4269C4"/>
<path d="M27.765 7.16547L27.6027 9.20475L25.4248 9.45031C24.7318 9.52958 24.0309 9.40274 23.4052 9.09396L22.443 8.6187C22.1413 8.46966 21.8206 8.36243 21.4899 8.29998L20.5779 8.12778C20.2603 8.06781 20.116 7.69154 20.3144 7.43633C20.584 7.08948 21.0502 6.91637 21.5084 7.05855L21.7461 7.12989C22.6405 7.38222 23.2246 7.40178 23.606 7.32176C24.0716 7.22409 24.1792 6.60822 23.7761 6.35564L22.5974 5.61711C22.9973 5.2886 23.5676 5.27275 23.9833 5.57747L25.9791 7.02684C26.2128 7.19718 26.4979 7.27626 26.783 7.25267L27.765 7.16547Z" fill="#FFCECF"/>
<path d="M29.4713 10.343C29.4825 10.508 29.3438 10.6431 29.1788 10.6281L27.9789 10.5157C27.8551 10.5043 27.7539 10.4069 27.7388 10.2831L27.3114 6.88939C27.2964 6.76196 27.3751 6.63818 27.4989 6.60065L28.8676 6.18062C29.0326 6.12826 29.2012 6.24452 29.2126 6.417L29.4713 10.343Z" fill="#8A9BEA"/>
<path d="M28.3068 10.0023C28.493 10.0023 28.6439 9.85142 28.6439 9.66524C28.6439 9.47905 28.493 9.32812 28.3068 9.32812C28.1207 9.32812 27.9697 9.47905 27.9697 9.66524C27.9697 9.85142 28.1207 10.0023 28.3068 10.0023Z" fill="white"/>
<path d="M25.1759 23.7315C25.1139 24.8656 24.4062 24.7953 24.3317 24.7953H24.3275C24.3027 24.8531 24.2778 24.907 24.2488 24.9525C24.0213 25.3539 23.7522 25.3747 23.6984 25.3747C23.6943 25.3747 23.6902 25.3747 23.6902 25.3747C23.6695 25.4284 23.6363 25.4781 23.5949 25.5236C23.3218 25.8257 22.6968 25.9169 22.6968 25.9169C22.6968 25.9209 22.6927 25.9209 22.6927 25.9252C22.6596 25.9832 22.6182 26.0327 22.5727 26.0781C22.5685 26.0781 22.5685 26.0781 22.5685 26.0781C22.4237 26.2313 22.2126 26.3182 22.0015 26.3182C21.8815 26.3182 21.7614 26.2893 21.6498 26.2313L20.6068 25.6974C20.0149 25.3953 19.4024 25.1429 18.7691 24.9359L17.7676 24.6049L18.4877 22.072L19.1665 22.3698C19.5431 22.5313 19.9694 22.5273 20.3377 22.3367L21.8442 21.5669C22.1795 21.3974 22.5602 21.3725 22.912 21.4926L24.8159 22.1463C24.9648 22.2003 25.0517 22.3452 25.0517 22.4858C25.0517 22.5313 25.0394 22.5893 25.0187 22.6348C24.8821 22.9203 24.5965 23.0901 24.2903 23.0901C24.2034 23.0901 24.1205 23.0775 24.0336 23.0486C23.566 22.8955 23.0569 22.9906 22.6679 23.2887V23.293L25.1759 23.7315Z" fill="#FFCECF"/>
<path d="M19.6199 22.0915L18.4049 25.3576C18.3261 25.5564 18.1237 25.6577 17.9212 25.5976L16.9499 25.3239C16.7399 25.2677 16.62 25.0652 16.6724 24.8551L17.4599 21.4653C17.5199 21.2478 17.7412 21.1165 17.9586 21.1802L19.3536 21.5665C19.5748 21.6302 19.6948 21.8664 19.6199 22.0915Z" fill="#3A3A3A"/>
<path d="M17.7676 24.9024C17.9327 24.9024 18.0665 24.7686 18.0665 24.6035C18.0665 24.4385 17.9327 24.3047 17.7676 24.3047C17.6026 24.3047 17.4688 24.4385 17.4688 24.6035C17.4688 24.7686 17.6026 24.9024 17.7676 24.9024Z" fill="white"/>
<path d="M24.3265 24.7966C24.3017 24.8544 24.2768 24.9083 24.2478 24.9538C24.1361 24.9207 24.0243 24.8752 23.9168 24.8255C23.6477 24.6889 23.3952 24.4985 23.2256 24.2461C23.3663 24.3081 23.4904 24.3827 23.6229 24.4447L24.0078 24.6394L24.3265 24.7966Z" fill="#FEA9AD"/>
<path d="M23.6992 25.3747C23.6952 25.3747 23.6911 25.3747 23.6911 25.3747C23.6703 25.4285 23.6372 25.4782 23.5958 25.5236C23.4841 25.4905 23.3806 25.4493 23.2772 25.3996C23.0081 25.263 22.7598 25.0766 22.5859 24.8242C22.7267 24.8822 22.855 24.9566 22.9832 25.0229L23.3682 25.2132L23.6992 25.3747Z" fill="#FEA9AD"/>
<path d="M22.6924 25.9274C22.6594 25.9854 22.618 26.0349 22.5725 26.0803C22.5682 26.0803 22.5682 26.0803 22.5682 26.0803C22.4979 26.0557 22.4234 26.0225 22.3573 25.9894C22.0882 25.8568 21.8399 25.6665 21.666 25.4141C21.8068 25.4761 21.9351 25.5507 22.0634 25.6127L22.4483 25.8073L22.6924 25.9274Z" fill="#FEA9AD"/>
<path d="M21.1194 14.2072L18.4375 14.828L18.1934 12.9987L20.5773 12.5352L21.1194 14.2072Z" fill="#912010"/>
<path d="M15.2354 35.0977C13.501 35.0977 12.4658 34.0234 12.4658 32.1797C12.4658 30.3398 13.5244 29.2656 15.1885 29.2656C16.2549 29.2656 17.0596 29.7031 17.4814 30.5039C17.5752 30.6758 17.626 30.8555 17.626 31.0273C17.626 31.3945 17.376 31.6328 17.001 31.6328C16.6846 31.6328 16.4893 31.5039 16.333 31.1914C16.0791 30.668 15.7002 30.4141 15.2041 30.4141C14.4229 30.4141 13.9268 31.082 13.9268 32.1758C13.9268 33.2812 14.4189 33.9492 15.208 33.9492C15.7275 33.9492 16.1064 33.6992 16.3486 33.168C16.4971 32.8594 16.6729 32.7344 16.9736 32.7344C17.3799 32.7344 17.6455 32.9883 17.6455 33.3672C17.6455 33.5039 17.6143 33.6445 17.5557 33.7812C17.2158 34.582 16.3174 35.0977 15.2354 35.0977ZM21.0635 35.0977C19.3525 35.0977 18.2783 33.9805 18.2783 32.1836C18.2783 30.3867 19.3564 29.2656 21.0635 29.2656C22.7705 29.2656 23.8447 30.3867 23.8447 32.1836C23.8447 33.9805 22.7705 35.0977 21.0635 35.0977ZM21.0635 33.9336C21.8643 33.9336 22.3877 33.2539 22.3877 32.1836C22.3877 31.1094 21.8643 30.4297 21.0635 30.4297C20.2627 30.4297 19.7393 31.1094 19.7393 32.1836C19.7393 33.2539 20.2588 33.9336 21.0635 33.9336ZM25.2627 35C24.8096 35 24.5439 34.7266 24.5439 34.25V30.1133C24.5439 29.6367 24.8096 29.3633 25.2627 29.3633H26.833C28.5361 29.3633 29.5361 30.3516 29.5361 32.1484C29.5361 33.9492 28.5322 35 26.833 35H25.2627ZM25.9775 33.8438H26.6455C27.5791 33.8438 28.0791 33.2773 28.0791 32.1523C28.0791 31.0938 27.5518 30.5195 26.6455 30.5195H25.9775V33.8438Z" fill="#7A7A7A"/>
</svg>
