<svg width="70" height="70" viewBox="0 0 70 70" fill="none" xmlns="http://www.w3.org/2000/svg">
<g clip-path="url(#clip0_3562_38766)">
<path d="M70 35C70 39.5344 66.1344 43.2678 64.4933 47.2189C62.7978 51.31 62.8289 56.6689 59.7489 59.7489C56.6689 62.8289 51.3022 62.7978 47.2189 64.4933C43.2756 66.1267 39.5422 70 35 70C30.4578 70 26.7322 66.1344 22.7811 64.4933C18.69 62.7978 13.3311 62.8289 10.2511 59.7489C7.17111 56.6689 7.20222 51.3022 5.50667 47.2189C3.87333 43.2756 0 39.5422 0 35C0 30.4578 3.86556 26.7322 5.50667 22.7811C7.20222 18.69 7.17111 13.3311 10.2511 10.2511C13.3311 7.17111 18.6978 7.20222 22.7811 5.50667C26.7244 3.87333 30.4578 0 35 0C39.5422 0 43.2678 3.86556 47.2189 5.50667C51.31 7.20222 56.6689 7.17111 59.7489 10.2511C62.8289 13.3311 62.7978 18.6978 64.4933 22.7811C66.1267 26.7244 70 30.4578 70 35Z" fill="white" fill-opacity="0.1"/>
<path d="M45.4859 36.1895H37.0859V50.3372H45.4859C46.1004 50.3372 46.5982 49.8395 46.5982 49.225V37.3017C46.5982 36.6872 46.1004 36.1895 45.4859 36.1895Z" fill="white" fill-opacity="0.8"/>
<path d="M23.4141 37.3017V49.225C23.4141 49.8395 23.9118 50.3372 24.5263 50.3372H32.9263V36.1895H24.5263C23.9118 36.1895 23.4141 36.6872 23.4141 37.3017Z" fill="white" fill-opacity="0.8"/>
<path d="M21.8867 30.2626V33.7471C21.8867 34.3615 22.3845 34.8593 22.9989 34.8593H32.9156V29.1582H22.9989C22.3845 29.1582 21.8867 29.656 21.8867 30.2704V30.2626Z" fill="white" fill-opacity="0.8"/>
<path d="M47.0025 29.1504H37.0625L37.0858 34.8515H47.0025C47.6169 34.8515 48.1147 34.3537 48.1147 33.7392V30.2548C48.1147 29.6404 47.6169 29.1426 47.0025 29.1426V29.1504Z" fill="white" fill-opacity="0.8"/>
<path d="M26.5004 27.8988C26.6326 27.9688 26.8349 28.0854 27.426 28.0854H42.4371C43.0904 28.0854 43.3471 27.961 43.4793 27.8832C44.4749 27.2999 45.0971 26.0632 45.0971 24.4999C45.0971 23.3332 44.7315 22.1666 44.086 21.3032C43.2926 20.2454 42.126 19.6621 40.7882 19.6621C40.6793 19.6621 40.5704 19.6621 40.4537 19.6777C36.9537 19.9188 35.5304 23.2477 34.9704 25.3866C34.4182 23.2399 32.9949 19.9188 29.4871 19.6777C29.3704 19.6699 29.2615 19.6621 29.1526 19.6621C27.8149 19.6621 26.6482 20.2454 25.8549 21.3032C25.2093 22.1666 24.8438 23.3254 24.8438 24.4999C24.8438 26.0866 25.4815 27.3232 26.4926 27.9066L26.5004 27.8988ZM40.5937 21.6688C40.6637 21.6688 40.726 21.6688 40.7882 21.6688C41.496 21.6688 42.0638 21.9488 42.476 22.5088C42.8649 23.0299 43.0904 23.761 43.0904 24.5077C43.0904 25.1221 42.8804 26.2732 42.0715 26.2732H36.8138C37.1715 24.671 38.1515 21.8477 40.586 21.6766L40.5937 21.6688ZM27.4649 22.501C27.8771 21.9488 28.4449 21.661 29.1526 21.661C29.2149 21.661 29.2849 21.661 29.3471 21.661C31.7815 21.8321 32.7538 24.6477 33.1193 26.2577H27.8615C27.0604 26.2577 26.8426 25.0988 26.8426 24.4921C26.8426 23.7454 27.0682 23.0221 27.4571 22.4932L27.4649 22.501Z" fill="white" fill-opacity="0.8"/>
</g>
<defs>
<clipPath id="clip0_3562_38766">
<rect width="70" height="70" fill="white"/>
</clipPath>
</defs>
</svg>
