<svg width="20" height="18" viewBox="0 0 20 18" fill="none" xmlns="http://www.w3.org/2000/svg">
<path d="M9.99998 3.35833L9.59484 2.79809C9.24558 2.31512 8.85263 1.90585 8.42353 1.57403L8.42351 1.57401C7.57865 0.920588 6.6285 0.59375 5.58701 0.59375C4.18041 0.59375 2.89354 1.15507 1.9541 2.17396L9.99998 3.35833ZM9.99998 3.35833L10.4051 2.79811M9.99998 3.35833L10.4051 2.79811M10.4051 2.79811C10.7546 2.31499 11.1474 1.90587 11.5763 1.57403C12.4213 0.920584 13.3715 0.59375 14.413 0.59375C15.8196 0.59375 17.1063 1.15507 18.0458 2.17401C18.9759 3.18292 19.5 4.57446 19.5 6.10419C19.5 7.65216 18.9299 9.09137 17.6315 10.6579L17.6315 10.6579C16.4546 12.0781 14.7529 13.5303 12.727 15.2567L12.727 15.2567L12.7093 15.2718C12.0256 15.8546 11.2493 16.5162 10.4437 17.2207L10.4435 17.221C10.3212 17.328 10.1637 17.3873 10 17.3873C9.83631 17.3873 9.67892 17.3281 9.55628 17.2207L9.55594 17.2204C8.74429 16.5107 7.96289 15.8448 7.27563 15.259L7.27349 15.2572L7.27346 15.2572M10.4051 2.79811L7.27346 15.2572M7.27346 15.2572C5.24726 13.5305 3.54556 12.0781 2.36862 10.658C1.07027 9.09135 0.5 7.65213 0.5 6.10434C0.5 4.57447 1.0241 3.18292 1.95406 2.17401L7.27346 15.2572Z" fill="#F9F9F9" stroke="#F9F9F9"/>
</svg>
