<svg width="70" height="70" viewBox="0 0 70 70" fill="none" xmlns="http://www.w3.org/2000/svg">
<g clip-path="url(#clip0_3562_38732)">
<path d="M70 35C70 39.5344 66.1344 43.2678 64.4933 47.2189C62.7978 51.31 62.8289 56.6689 59.7489 59.7489C56.6689 62.8289 51.3022 62.7978 47.2189 64.4933C43.2756 66.1267 39.5422 70 35 70C30.4578 70 26.7322 66.1344 22.7811 64.4933C18.69 62.7978 13.3311 62.8289 10.2511 59.7489C7.17111 56.6689 7.20222 51.3022 5.50667 47.2189C3.87333 43.2756 0 39.5422 0 35C0 30.4578 3.86556 26.7322 5.50667 22.7811C7.20222 18.69 7.17111 13.3311 10.2511 10.2511C13.3311 7.17111 18.6978 7.20222 22.7811 5.50667C26.7244 3.87333 30.4578 0 35 0C39.5422 0 43.2678 3.86556 47.2189 5.50667C51.31 7.20222 56.6689 7.17111 59.7489 10.2511C62.8289 13.3311 62.7978 18.6978 64.4933 22.7811C66.1267 26.7244 70 30.4578 70 35Z" fill="white" fill-opacity="0.1"/>
<path d="M32.8348 33.5998L30.377 31.142C29.817 30.582 29.817 29.6643 30.377 29.0965C30.937 28.5365 31.8548 28.5365 32.4226 29.0965L33.7681 30.442L37.5793 26.6309C38.1393 26.0709 39.057 26.0709 39.6248 26.6309C40.1848 27.1909 40.1848 28.1087 39.6248 28.6765L34.7015 33.5998C34.1881 34.1132 33.3559 34.1132 32.8426 33.5998H32.8348Z" fill="white" fill-opacity="0.8"/>
<path d="M31.155 43.7023C30.8439 43.8423 30.5094 43.92 30.1672 43.92C29.1561 43.92 28.2539 43.2823 27.9194 42.3256C27.8339 42.0923 27.7483 41.9056 27.655 41.7578L25.2828 49.6911C25.205 49.94 25.485 50.1734 25.7339 50.0723L29.7628 48.5011C29.9105 48.4467 30.0817 48.5011 30.1672 48.6256L32.6639 52.1489C32.8194 52.3745 33.1772 52.3278 33.2472 52.0789L34.305 48.5323L32.7105 43.71C32.4072 43.5078 32.1817 43.4767 32.0183 43.4767C31.7772 43.4767 31.4817 43.5545 31.155 43.7023Z" fill="white" fill-opacity="0.8"/>
<path d="M48.2278 29.2595C47.0845 28.2017 46.8434 27.105 47.4656 25.7361C47.7456 25.1295 47.4345 24.4139 46.8123 24.1961C45.4278 23.7061 44.829 22.835 44.899 21.3884C44.9301 20.735 44.409 20.1984 43.7634 20.1984C43.7478 20.1984 43.7245 20.1984 43.709 20.1984C43.639 20.1984 43.5612 20.1984 43.4912 20.1984C42.169 20.1984 41.3601 19.5917 40.8934 18.285C40.7301 17.8184 40.2867 17.5228 39.8201 17.5228C39.6645 17.5228 39.5012 17.5539 39.3534 17.6239C38.8634 17.8495 38.4045 17.9661 37.969 17.9661C37.199 17.9661 36.5067 17.6006 35.8223 16.8695C35.5967 16.6284 35.2934 16.5039 34.9901 16.5039C34.6867 16.5039 34.3834 16.6284 34.1578 16.8695C33.4812 17.6006 32.789 17.9661 32.0112 17.9661C31.5756 17.9661 31.1245 17.8495 30.6267 17.6239C30.4712 17.5539 30.3156 17.5228 30.1601 17.5228C29.6934 17.5228 29.2578 17.8106 29.0867 18.285C28.6278 19.5995 27.8112 20.1984 26.489 20.1984C26.419 20.1984 26.349 20.1984 26.2712 20.1984C26.2556 20.1984 26.2323 20.1984 26.2167 20.1984C25.5712 20.1984 25.0501 20.735 25.0812 21.3884C25.1512 22.835 24.5523 23.7139 23.1678 24.1961C22.5378 24.4139 22.2345 25.1295 22.5145 25.7361C23.1445 27.1128 22.9034 28.2017 21.7523 29.2595C21.2701 29.7106 21.2701 30.4728 21.7523 30.9239C22.8956 31.9817 23.1367 33.0784 22.5145 34.4472C22.2345 35.0539 22.5456 35.7695 23.1678 35.9872C24.5523 36.4772 25.1512 37.3484 25.0812 38.795C25.0501 39.4484 25.5712 39.985 26.2167 39.985C26.2323 39.985 26.2556 39.985 26.2712 39.985C26.3412 39.985 26.419 39.985 26.489 39.985C27.8112 39.985 28.6201 40.5917 29.0867 41.8983C29.2501 42.365 29.6934 42.6606 30.1601 42.6606C30.3156 42.6606 30.479 42.6295 30.6267 42.5595C31.1167 42.3339 31.5756 42.2172 32.0112 42.2172C32.7812 42.2172 33.4734 42.5828 34.1578 43.3139C34.3834 43.555 34.6867 43.6795 34.9901 43.6795C35.2934 43.6795 35.5967 43.555 35.8223 43.3139C36.499 42.5828 37.1912 42.2172 37.969 42.2172C38.4045 42.2172 38.8556 42.3339 39.3534 42.5595C39.509 42.6295 39.6645 42.6606 39.8201 42.6606C40.2867 42.6606 40.7223 42.3728 40.8934 41.8983C41.3523 40.5839 42.169 39.985 43.4912 39.985C43.5612 39.985 43.6312 39.985 43.709 39.985C43.7245 39.985 43.7478 39.985 43.7634 39.985C44.409 39.985 44.9301 39.4484 44.899 38.795C44.829 37.3484 45.4278 36.4695 46.8123 35.9872C47.4423 35.7695 47.7456 35.0539 47.4656 34.4472C46.8356 33.0706 47.0767 31.9817 48.2278 30.9239C48.7101 30.4728 48.7101 29.7106 48.2278 29.2595ZM34.9978 38.9817C30.0901 38.9817 26.1078 34.9995 26.1078 30.0917C26.1078 25.1839 30.0901 21.2017 34.9978 21.2017C39.9056 21.2017 43.8878 25.1839 43.8878 30.0917C43.8878 34.9995 39.9056 38.9817 34.9978 38.9817Z" fill="white" fill-opacity="0.8"/>
<path d="M39.8274 43.9131C39.4852 43.9131 39.1507 43.8431 38.8396 43.6953C38.513 43.5476 38.2252 43.4698 37.9763 43.4698C37.7274 43.4698 37.323 43.5398 36.7474 44.162C36.2963 44.652 35.6585 44.9242 34.9974 44.9242C34.803 44.9242 34.6085 44.9009 34.4141 44.8542L37.2063 53.2776C37.253 53.4098 37.3774 53.4798 37.5018 53.4798C37.6107 53.4798 37.7196 53.4331 37.7896 53.3242L40.1852 49.7231C40.2474 49.6298 40.3641 49.5676 40.473 49.5676C40.5118 49.5676 40.5507 49.5676 40.5896 49.5909L44.6574 51.0453C44.6574 51.0453 44.7352 51.0687 44.7741 51.0687C44.9841 51.0687 45.1707 50.8665 45.1007 50.6565L42.2152 41.9531C42.1607 42.0542 42.1141 42.1787 42.0674 42.3109C41.733 43.2676 40.8307 43.9053 39.8196 43.9053L39.8274 43.9131Z" fill="white" fill-opacity="0.8"/>
</g>
<defs>
<clipPath id="clip0_3562_38732">
<rect width="70" height="70" fill="white"/>
</clipPath>
</defs>
</svg>
