<svg width="41" height="40" viewBox="0 0 41 40" fill="none" xmlns="http://www.w3.org/2000/svg">
<rect width="40" height="40" transform="translate(0.666992)" fill="white"/>
<path d="M35.667 26.3635C35.667 28.919 33.5068 31 30.854 31H4.66699V12.6365C4.66699 10.081 6.82714 8 9.47995 8H35.667V26.3635Z" fill="white"/>
<path d="M27.1401 21.654H29.1297C29.1866 21.654 29.3192 21.6357 29.376 21.6357C29.755 21.5627 30.0771 21.2341 30.0771 20.7778C30.0771 20.3397 29.755 20.0111 29.376 19.9198C29.3192 19.9016 29.2055 19.9016 29.1297 19.9016H27.1401V21.654Z" fill="url(#paint0_linear_4362_45083)"/>
<path d="M28.9023 9.55159C27.0075 9.55159 25.4537 11.0302 25.4537 12.8738V16.3238H30.3235C30.4372 16.3238 30.5698 16.3238 30.6646 16.3421C31.7636 16.3968 32.5784 16.9444 32.5784 17.8937C32.5784 18.6421 32.0289 19.281 31.0056 19.4087V19.4452C32.1236 19.5183 32.9763 20.1206 32.9763 21.0516C32.9763 22.0556 32.0289 22.7127 30.7782 22.7127H25.4347V29.4667H30.494C32.3889 29.4667 33.9427 27.9881 33.9427 26.1444V9.55159H28.9023Z" fill="url(#paint1_linear_4362_45083)"/>
<path d="M29.8308 18.1127C29.8308 17.6746 29.5087 17.3825 29.1297 17.3278C29.0918 17.3278 28.9971 17.3095 28.9402 17.3095H27.1401V18.9159H28.9402C28.9971 18.9159 29.1108 18.9159 29.1297 18.8976C29.5087 18.8429 29.8308 18.5508 29.8308 18.1127Z" fill="url(#paint2_linear_4362_45083)"/>
<path d="M9.83998 9.55159C7.94511 9.55159 6.39132 11.0302 6.39132 12.8738V21.0698C7.3577 21.5262 8.36198 21.8183 9.36626 21.8183C10.56 21.8183 11.2043 21.1246 11.2043 20.1754V16.3056H14.1603V20.1571C14.1603 21.654 13.1939 22.877 9.91577 22.877C7.92616 22.877 6.37237 22.4571 6.37237 22.4571V29.4484H11.4317C13.3265 29.4484 14.8803 27.9698 14.8803 26.1262V9.55159H9.83998Z" fill="url(#paint3_linear_4362_45083)"/>
<path d="M19.3711 9.55159C17.4763 9.55159 15.9225 11.0302 15.9225 12.8738V17.2183C16.7941 16.5064 18.31 16.05 20.7544 16.1595C22.0619 16.2143 23.4641 16.5611 23.4641 16.5611V17.9667C22.763 17.6198 21.9292 17.3095 20.8491 17.2365C18.9922 17.1087 17.8742 17.9849 17.8742 19.5183C17.8742 21.0698 18.9922 21.946 20.8491 21.8C21.9292 21.727 22.763 21.3984 23.4641 21.0698V22.4754C23.4641 22.4754 22.0808 22.8222 20.7544 22.877C18.31 22.9865 16.7941 22.5302 15.9225 21.8183V29.4849H20.9818C22.8766 29.4849 24.4304 28.0064 24.4304 26.1627V9.55159H19.3711Z" fill="url(#paint4_linear_4362_45083)"/>
<defs>
<linearGradient id="paint0_linear_4362_45083" x1="-13.1664" y1="19.5286" x2="76.7083" y2="19.5286" gradientUnits="userSpaceOnUse">
<stop stop-color="#007940"/>
<stop offset="0.2285" stop-color="#00873F"/>
<stop offset="0.7433" stop-color="#40A737"/>
<stop offset="1" stop-color="#5CB531"/>
</linearGradient>
<linearGradient id="paint1_linear_4362_45083" x1="4.72357" y1="19.4908" x2="35.7518" y2="19.4908" gradientUnits="userSpaceOnUse">
<stop stop-color="#007940"/>
<stop offset="0.2285" stop-color="#00873F"/>
<stop offset="0.7433" stop-color="#40A737"/>
<stop offset="1" stop-color="#5CB531"/>
</linearGradient>
<linearGradient id="paint2_linear_4362_45083" x1="-14.8015" y1="19.4673" x2="83.3051" y2="19.4673" gradientUnits="userSpaceOnUse">
<stop stop-color="#007940"/>
<stop offset="0.2285" stop-color="#00873F"/>
<stop offset="0.7433" stop-color="#40A737"/>
<stop offset="1" stop-color="#5CB531"/>
</linearGradient>
<linearGradient id="paint3_linear_4362_45083" x1="4.72141" y1="19.5013" x2="36.2275" y2="19.5013" gradientUnits="userSpaceOnUse">
<stop stop-color="#1F286F"/>
<stop offset="0.4751" stop-color="#004E94"/>
<stop offset="0.8261" stop-color="#0066B1"/>
<stop offset="1" stop-color="#006FBC"/>
</linearGradient>
<linearGradient id="paint4_linear_4362_45083" x1="15.8735" y1="19.5012" x2="24.2716" y2="19.5012" gradientUnits="userSpaceOnUse">
<stop stop-color="#6C2C2F"/>
<stop offset="0.1735" stop-color="#882730"/>
<stop offset="0.5731" stop-color="#BE1833"/>
<stop offset="0.8585" stop-color="#DC0436"/>
<stop offset="1" stop-color="#E60039"/>
</linearGradient>
</defs>
</svg>
