<svg width="24" height="24" viewBox="0 0 24 24" fill="none" xmlns="http://www.w3.org/2000/svg">
<path d="M14 6H21V18H14V6Z" fill="#E5E5E5"/>
<path d="M21 4C21.5304 4 22.0391 4.21071 22.4142 4.58579C22.7893 4.96086 23 5.46957 23 6V9.112L22.5 9.401C22.0437 9.66423 21.6648 10.0431 21.4014 10.4993C21.1381 10.9556 20.9996 11.4732 21 12C21 13.084 21.579 14.066 22.5 14.6L23 14.888V18C23 18.5304 22.7893 19.0391 22.4142 19.4142C22.0391 19.7893 21.5304 20 21 20H3C2.46957 20 1.96086 19.7893 1.58579 19.4142C1.21071 19.0391 1 18.5304 1 18V14.888L1.5 14.599C1.95633 14.3358 2.33524 13.9569 2.59858 13.5007C2.86191 13.0444 3.00037 12.5268 3 12C3.00054 11.473 2.86217 10.9552 2.59883 10.4988C2.33548 10.0423 1.95648 9.66331 1.5 9.4L1 9.113V6C1 5.46957 1.21071 4.96086 1.58579 4.58579C1.96086 4.21071 2.46957 4 3 4H21ZM21 6L15 5.999C15.0002 6.24411 14.9104 6.48075 14.7476 6.664C14.5848 6.84724 14.3604 6.96432 14.117 6.993L14 7C13.8686 7 13.7385 6.9741 13.6171 6.92378C13.4957 6.87347 13.3854 6.79972 13.2925 6.70675C13.1997 6.61379 13.126 6.50343 13.0758 6.38199C13.0256 6.26055 12.9999 6.13041 13 5.999L3 6V8C4.241 8.93 5 10.4 5 12C5 13.6 4.241 15.07 3 16V18L13 17.999C13.0005 17.7442 13.0983 17.4992 13.2734 17.3141C13.4484 17.1289 13.6875 17.0176 13.9419 17.0028C14.1963 16.988 14.4467 17.0708 14.642 17.2344C14.8374 17.398 14.9629 17.63 14.993 17.883L15 18H21V16C19.759 15.07 19 13.6 19 12C19 10.4 19.759 8.93 21 8V6ZM14 14C14.2652 14 14.5196 14.1054 14.7071 14.2929C14.8946 14.4804 15 14.7348 15 15C15 15.2652 14.8946 15.5196 14.7071 15.7071C14.5196 15.8946 14.2652 16 14 16C13.7348 16 13.4804 15.8946 13.2929 15.7071C13.1054 15.5196 13 15.2652 13 15C13 14.7348 13.1054 14.4804 13.2929 14.2929C13.4804 14.1054 13.7348 14 14 14ZM14 11C14.2652 11 14.5196 11.1054 14.7071 11.2929C14.8946 11.4804 15 11.7348 15 12C15 12.2652 14.8946 12.5196 14.7071 12.7071C14.5196 12.8946 14.2652 13 14 13C13.7348 13 13.4804 12.8946 13.2929 12.7071C13.1054 12.5196 13 12.2652 13 12C13 11.7348 13.1054 11.4804 13.2929 11.2929C13.4804 11.1054 13.7348 11 14 11ZM14 8C14.2652 8 14.5196 8.10536 14.7071 8.29289C14.8946 8.48043 15 8.73478 15 9C15 9.26522 14.8946 9.51957 14.7071 9.70711C14.5196 9.89464 14.2652 10 14 10C13.7348 10 13.4804 9.89464 13.2929 9.70711C13.1054 9.51957 13 9.26522 13 9C13 8.73478 13.1054 8.48043 13.2929 8.29289C13.4804 8.10536 13.7348 8 14 8Z" fill="#919191"/>
</svg>
