<svg width="41" height="40" viewBox="0 0 41 40" fill="none" xmlns="http://www.w3.org/2000/svg">
<rect width="40" height="40" transform="translate(0.666992)" fill="white"/>
<g clip-path="url(#clip0_4362_45126)">
<path fill-rule="evenodd" clip-rule="evenodd" d="M22.0477 15.9796L19.7482 18.2791L19.6341 18.3917L18.3588 19.6685L17.1961 20.8312L17.0835 20.9453L16.0061 22.0212L15.8935 22.1354C15.5708 22.458 15.2132 22.7228 14.8343 22.9328C14.6425 23.0378 14.4462 23.1291 14.2453 23.2067C13.7979 23.3802 13.3277 23.4806 12.8544 23.5111C12.5637 23.5309 12.27 23.5233 11.9809 23.4867C11.3554 23.4122 10.7436 23.2128 10.1836 22.8887C9.94467 22.7502 9.69813 22.6056 9.49421 22.4032C9.49421 22.4032 9.49319 22.4032 9.49116 22.4032L5.08093 17.993C5.00788 17.9123 4.94244 17.8256 4.88766 17.7312C4.74765 17.4938 4.66699 17.2199 4.66699 16.9262C4.66699 16.8805 4.66851 16.8333 4.67308 16.7892C4.67917 16.7207 4.68982 16.6553 4.70352 16.5914L4.73091 16.4864C4.79026 16.29 4.88766 16.1044 5.02158 15.937C5.05658 15.8944 5.09462 15.8533 5.13419 15.8107L5.20876 15.7376L9.66769 11.2772H9.66922L12.3704 8.57441C12.9731 7.97177 13.9334 7.94438 14.5649 8.4968L22.0477 15.9796Z" fill="#005AAA"/>
<path fill-rule="evenodd" clip-rule="evenodd" d="M9.44712 22.3616C9.46082 22.3753 9.47451 22.389 9.48973 22.4027C9.69365 22.6051 9.94019 22.7512 10.1822 22.8897C10.7422 23.2138 11.354 23.4132 11.9794 23.4877C12.2686 23.5227 12.5623 23.5303 12.853 23.5121C13.3262 23.4832 13.7965 23.3812 14.2439 23.2092C14.4448 23.1316 14.6411 23.0403 14.8328 22.9353C15.2118 22.7253 15.5694 22.4605 15.892 22.1379L16.0046 22.0253L17.0821 20.9478L17.6269 20.4015L18.9022 19.1262L19.6327 18.3942L19.7468 18.2816L24.3792 13.6507L26.2891 11.581L26.4032 11.4684C26.9861 10.8855 27.9327 10.8855 28.5155 11.4684L29.561 12.5139L29.5945 12.5489C29.1319 12.5276 28.6647 12.6935 28.3147 13.0359L24.7749 16.5178L24.7384 16.5604L18.578 22.6218L18.5689 22.6142L16.2999 24.8437L16.1477 25.0035C15.9696 25.177 15.5953 25.5072 15.0961 25.7431C14.8694 25.8496 14.6396 25.9272 14.4113 25.9759C14.2759 26.0033 14.1374 26.02 14.0019 26.0261H13.8984C13.5378 26.0261 13.1847 25.9455 12.8453 25.7902L11.7785 24.7265L11.3433 24.2897L9.34668 22.2703L9.43799 22.3631L9.44712 22.3616ZM35.2298 20.2904L30.0998 25.4981L24.8312 30.8473C24.6638 31.0162 24.4873 31.1668 24.3016 31.3038C24.2955 31.3099 24.2879 31.316 24.2803 31.3221C24.2544 31.3403 24.2301 31.3586 24.2027 31.3769C24.1997 31.3799 24.1966 31.3814 24.1936 31.3845C23.3992 31.9536 22.4237 32.2869 21.3736 32.2869C20.0755 32.2869 18.8976 31.7786 18.0256 30.9492L17.9054 30.8427L16.9984 29.9372L14.4524 27.3897L13.4845 26.4218C13.623 26.4446 13.763 26.4538 13.903 26.4538H14.0202C14.183 26.4462 14.3443 26.4264 14.5041 26.3944C14.7644 26.3411 15.0276 26.2514 15.2863 26.1296C15.8433 25.8663 16.2588 25.5011 16.4551 25.3078C16.5327 25.2317 16.5905 25.1678 16.6149 25.1404L18.5735 23.2169L18.5811 23.226L25.3136 16.6015L25.3501 16.5589L28.6205 13.3402C29.0603 12.9096 29.7482 12.8532 30.2489 13.1972L31.0235 13.9718H31.025L35.2298 18.1766C35.2663 18.2146 35.3029 18.2527 35.3348 18.2922C35.8111 18.8797 35.7746 19.7471 35.2298 20.2904Z" fill="#ED1C24"/>
<path d="M21.3541 16.6724L20.9219 17.103L20.1641 16.3406C20.0454 16.2204 20.0469 16.0271 20.1641 15.9099C20.2843 15.7912 20.476 15.7912 20.5963 15.9099L21.3526 16.6708L21.3541 16.6724ZM20.0773 17.9492L19.6451 18.3783L17.265 15.9799C16.3808 15.0912 15.0903 14.7777 13.8957 15.1642C13.7359 15.216 13.5639 15.1292 13.5122 14.9694C13.4604 14.8081 13.5487 14.6362 13.7085 14.5844C15.1223 14.1264 16.6517 14.4962 17.6972 15.5508L20.0758 17.9492H20.0773ZM17.5252 20.5013L17.093 20.9335L14.7022 18.5244C14.5835 18.4057 14.5851 18.2124 14.7022 18.0922C14.8225 17.9735 15.0157 17.975 15.1344 18.0937L17.5237 20.5013H17.5252ZM18.8005 19.226L18.3683 19.6567L15.9836 17.2522C15.4023 16.6648 14.4496 16.6617 13.8637 17.243C13.2778 17.8259 13.2733 18.777 13.8561 19.3629L15.3931 20.9137C15.5118 21.0324 15.5118 21.2257 15.3931 21.3459C15.2744 21.4646 15.0812 21.4631 14.9609 21.3444L13.4224 19.7936C12.6036 18.9673 12.6082 17.6296 13.4346 16.8093C14.2609 15.9906 15.6001 15.9967 16.4173 16.8215L18.8005 19.2245V19.226ZM14.8453 22.924C14.8453 22.924 14.8362 22.9286 14.8316 22.9316C14.6444 23.0336 14.4542 23.1234 14.2579 23.1995L12.1425 21.0659C10.8186 19.7312 10.6298 17.6402 11.6921 16.0926C11.788 15.9541 11.9782 15.9191 12.1167 16.0134C12.2567 16.1093 12.2902 16.2995 12.1958 16.438C11.2994 17.7437 11.4592 19.5075 12.5763 20.6337L14.8468 22.9225L14.8453 22.924ZM18.9786 14.7138C18.8599 14.831 18.6651 14.8279 18.5448 14.7092C16.5604 12.7095 13.3189 12.6974 11.3192 14.6803C9.32108 16.6648 9.30739 19.9062 11.2918 21.9059L12.8456 23.4734C12.8563 23.484 12.8669 23.4962 12.873 23.5084C12.8654 23.5084 12.8578 23.5084 12.8502 23.5084C12.5671 23.5282 12.281 23.5206 12.001 23.4871L10.8596 22.3351C8.63778 20.098 8.65148 16.4684 10.8901 14.2466C13.1287 12.0247 16.7567 12.0399 18.9786 14.2785L18.9831 14.2831C19.1018 14.4018 19.0988 14.5936 18.9786 14.7138Z" fill="#009EDB"/>
</g>
<defs>
<clipPath id="clip0_4362_45126">
<rect width="31" height="31" fill="white" transform="translate(4.66699 5)"/>
</clipPath>
</defs>
</svg>
