<svg width="70" height="70" viewBox="0 0 70 70" fill="none" xmlns="http://www.w3.org/2000/svg">
<g clip-path="url(#clip0_4362_44957)">
<path d="M70 35C70 39.5344 66.1344 43.2678 64.4933 47.2189C62.7978 51.31 62.8289 56.6689 59.7489 59.7489C56.6689 62.8289 51.3022 62.7978 47.2189 64.4933C43.2756 66.1267 39.5422 70 35 70C30.4578 70 26.7322 66.1344 22.7811 64.4933C18.69 62.7978 13.3311 62.8289 10.2511 59.7489C7.17111 56.6689 7.20222 51.3022 5.50667 47.2189C3.87333 43.2756 0 39.5422 0 35C0 30.4578 3.86556 26.7322 5.50667 22.7811C7.20222 18.69 7.17111 13.3311 10.2511 10.2511C13.3311 7.17111 18.6978 7.20222 22.7811 5.50667C26.7244 3.87333 30.4578 0 35 0C39.5422 0 43.2678 3.86556 47.2189 5.50667C51.31 7.20222 56.6689 7.17111 59.7489 10.2511C62.8289 13.3311 62.7978 18.6978 64.4933 22.7811C66.1267 26.7244 70 30.4578 70 35Z" fill="#FFF1F1"/>
<path d="M32.8368 33.5998L30.379 31.142C29.819 30.582 29.819 29.6643 30.379 29.0965C30.939 28.5365 31.8568 28.5365 32.4245 29.0965L33.7701 30.442L37.5812 26.6309C38.1412 26.0709 39.059 26.0709 39.6268 26.6309C40.1868 27.1909 40.1868 28.1087 39.6268 28.6765L34.7034 33.5998C34.1901 34.1132 33.3579 34.1132 32.8445 33.5998H32.8368Z" fill="#525252"/>
<path d="M31.1569 43.7023C30.8458 43.8423 30.5114 43.92 30.1692 43.92C29.1581 43.92 28.2558 43.2823 27.9214 42.3256C27.8358 42.0923 27.7503 41.9056 27.6569 41.7578L25.2847 49.6911C25.2069 49.94 25.4869 50.1734 25.7358 50.0723L29.7647 48.5011C29.9125 48.4467 30.0836 48.5011 30.1692 48.6256L32.6658 52.1489C32.8214 52.3745 33.1792 52.3278 33.2492 52.0789L34.3069 48.5323L32.7125 43.71C32.4092 43.5078 32.1836 43.4767 32.0203 43.4767C31.7792 43.4767 31.4836 43.5545 31.1569 43.7023Z" fill="#525252"/>
<path d="M48.2298 29.2595C47.0865 28.2017 46.8454 27.105 47.4676 25.7361C47.7476 25.1295 47.4365 24.4139 46.8142 24.1961C45.4298 23.7061 44.8309 22.835 44.9009 21.3884C44.932 20.735 44.4109 20.1984 43.7654 20.1984C43.7498 20.1984 43.7265 20.1984 43.7109 20.1984C43.6409 20.1984 43.5631 20.1984 43.4931 20.1984C42.1709 20.1984 41.362 19.5917 40.8954 18.285C40.732 17.8184 40.2887 17.5228 39.822 17.5228C39.6665 17.5228 39.5031 17.5539 39.3554 17.6239C38.8654 17.8495 38.4065 17.9661 37.9709 17.9661C37.2009 17.9661 36.5087 17.6006 35.8242 16.8695C35.5987 16.6284 35.2954 16.5039 34.992 16.5039C34.6887 16.5039 34.3854 16.6284 34.1598 16.8695C33.4831 17.6006 32.7909 17.9661 32.0131 17.9661C31.5776 17.9661 31.1265 17.8495 30.6287 17.6239C30.4731 17.5539 30.3176 17.5228 30.162 17.5228C29.6954 17.5228 29.2598 17.8106 29.0887 18.285C28.6298 19.5995 27.8131 20.1984 26.4909 20.1984C26.4209 20.1984 26.3509 20.1984 26.2731 20.1984C26.2576 20.1984 26.2342 20.1984 26.2187 20.1984C25.5731 20.1984 25.052 20.735 25.0831 21.3884C25.1531 22.835 24.5542 23.7139 23.1698 24.1961C22.5398 24.4139 22.2365 25.1295 22.5165 25.7361C23.1465 27.1128 22.9054 28.2017 21.7542 29.2595C21.272 29.7106 21.272 30.4728 21.7542 30.9239C22.8976 31.9817 23.1387 33.0784 22.5165 34.4472C22.2365 35.0539 22.5476 35.7695 23.1698 35.9872C24.5542 36.4772 25.1531 37.3484 25.0831 38.795C25.052 39.4484 25.5731 39.985 26.2187 39.985C26.2342 39.985 26.2576 39.985 26.2731 39.985C26.3431 39.985 26.4209 39.985 26.4909 39.985C27.8131 39.985 28.622 40.5917 29.0887 41.8983C29.252 42.365 29.6954 42.6606 30.162 42.6606C30.3176 42.6606 30.4809 42.6295 30.6287 42.5595C31.1187 42.3339 31.5776 42.2172 32.0131 42.2172C32.7831 42.2172 33.4754 42.5828 34.1598 43.3139C34.3854 43.555 34.6887 43.6795 34.992 43.6795C35.2954 43.6795 35.5987 43.555 35.8242 43.3139C36.5009 42.5828 37.1931 42.2172 37.9709 42.2172C38.4065 42.2172 38.8576 42.3339 39.3554 42.5595C39.5109 42.6295 39.6665 42.6606 39.822 42.6606C40.2887 42.6606 40.7242 42.3728 40.8954 41.8983C41.3542 40.5839 42.1709 39.985 43.4931 39.985C43.5631 39.985 43.6331 39.985 43.7109 39.985C43.7265 39.985 43.7498 39.985 43.7654 39.985C44.4109 39.985 44.932 39.4484 44.9009 38.795C44.8309 37.3484 45.4298 36.4695 46.8142 35.9872C47.4442 35.7695 47.7476 35.0539 47.4676 34.4472C46.8376 33.0706 47.0787 31.9817 48.2298 30.9239C48.712 30.4728 48.712 29.7106 48.2298 29.2595ZM34.9998 38.9817C30.092 38.9817 26.1098 34.9995 26.1098 30.0917C26.1098 25.1839 30.092 21.2017 34.9998 21.2017C39.9076 21.2017 43.8898 25.1839 43.8898 30.0917C43.8898 34.9995 39.9076 38.9817 34.9998 38.9817Z" fill="#525252"/>
<path d="M39.8293 43.9131C39.4871 43.9131 39.1527 43.8431 38.8416 43.6953C38.5149 43.5476 38.2271 43.4698 37.9782 43.4698C37.7294 43.4698 37.3249 43.5398 36.7493 44.162C36.2982 44.652 35.6605 44.9242 34.9993 44.9242C34.8049 44.9242 34.6105 44.9009 34.416 44.8542L37.2082 53.2776C37.2549 53.4098 37.3793 53.4798 37.5038 53.4798C37.6127 53.4798 37.7216 53.4331 37.7916 53.3242L40.1871 49.7231C40.2493 49.6298 40.366 49.5676 40.4749 49.5676C40.5138 49.5676 40.5527 49.5676 40.5916 49.5909L44.6593 51.0453C44.6593 51.0453 44.7371 51.0687 44.776 51.0687C44.986 51.0687 45.1727 50.8665 45.1027 50.6565L42.2171 41.9531C42.1627 42.0542 42.116 42.1787 42.0693 42.3109C41.7349 43.2676 40.8327 43.9053 39.8216 43.9053L39.8293 43.9131Z" fill="#525252"/>
</g>
<defs>
<clipPath id="clip0_4362_44957">
<rect width="70" height="70" fill="white"/>
</clipPath>
</defs>
</svg>
