<svg width="17" height="17" viewBox="0 0 17 17" fill="none" xmlns="http://www.w3.org/2000/svg">
<g clip-path="url(#clip0_5051_51020)">
<path d="M11.4577 7.43143C11.4063 7.43143 11.3534 7.43883 11.3006 7.45333L10.7034 7.61783L10.0833 6.10721C9.90761 5.67927 9.38831 5.33105 8.92573 5.33105H3.12219C2.65955 5.33105 2.14031 5.67927 1.96465 6.10721L1.34537 7.61572L0.75556 7.45327C0.702779 7.43877 0.64994 7.43137 0.59845 7.43137C0.31617 7.43137 0.111328 7.64701 0.111328 7.94403V8.29606C0.111328 8.6428 0.393491 8.92497 0.740236 8.92497H0.807812L0.707711 9.16879C0.544495 9.56626 0.411633 10.2394 0.411633 10.6693V13.6703C0.411633 14.0171 0.693796 14.2992 1.04054 14.2992H1.8619C2.20865 14.2992 2.49081 14.0171 2.49081 13.6703V12.9209H9.55705V13.6703C9.55705 14.0171 9.83921 14.2992 10.186 14.2992H11.0072C11.3539 14.2992 11.6361 14.0171 11.6361 13.6703V10.6694C11.6361 10.2396 11.5032 9.56638 11.34 9.16885L11.2399 8.92503H11.3159C11.6626 8.92503 11.9448 8.64286 11.9448 8.29612V7.94409C11.9449 7.64707 11.74 7.43143 11.4577 7.43143ZM1.79621 8.58345L2.73428 6.29855C2.83938 6.04257 3.15172 5.83309 3.42842 5.83309H8.6195C8.8962 5.83309 9.20854 6.04251 9.31363 6.29855L10.2517 8.58345C10.3567 8.83943 10.2164 9.04891 9.93966 9.04891H2.10831C1.83155 9.04885 1.69117 8.83943 1.79621 8.58345ZM3.89024 11.4736C3.89024 11.612 3.77699 11.7251 3.63872 11.7251H1.85674C1.71836 11.7251 1.60516 11.6119 1.60516 11.4736V10.6184C1.60516 10.4801 1.71836 10.3669 1.85674 10.3669H3.63872C3.77699 10.3669 3.89024 10.4801 3.89024 10.6184V11.4736ZM10.4258 11.4736C10.4258 11.612 10.3126 11.7251 10.1743 11.7251H8.39235C8.25408 11.7251 8.14083 11.6119 8.14083 11.4736V10.6184C8.14083 10.4801 8.25408 10.3669 8.39235 10.3669H10.1743C10.3126 10.3669 10.4258 10.4801 10.4258 10.6184V11.4736Z" fill="#919191"/>
<path d="M15.3239 2.70093H12.3452C11.9114 2.70093 11.5586 3.05384 11.5586 3.48753V6.46628C11.5586 6.90003 11.9115 7.25294 12.3452 7.25294H13.541V13.9384C13.541 14.1006 13.6724 14.232 13.8345 14.232C13.9967 14.232 14.1281 14.1006 14.1281 13.9384V7.253H15.3239C15.7576 7.253 16.1105 6.90009 16.1105 6.46633V3.48759C16.1105 3.05384 15.7576 2.70093 15.3239 2.70093ZM14.6492 5.17071C14.4779 5.32494 14.2256 5.40314 13.8993 5.40314H13.4679C13.4161 5.40314 13.374 5.44536 13.374 5.49714V6.22451C13.374 6.30353 13.3097 6.36776 13.2307 6.36776H12.904C12.8249 6.36776 12.7607 6.30347 12.7607 6.22451V3.7296C12.7607 3.65051 12.825 3.58623 12.904 3.58623H13.7269C14.272 3.58623 14.4755 3.66836 14.6427 3.81027C14.8191 3.95992 14.9084 4.18912 14.9084 4.49166C14.9084 4.78727 14.8213 5.01565 14.6492 5.17071Z" fill="#919191"/>
<path d="M14.1814 4.18855C14.1018 4.12843 13.9609 4.0979 13.7628 4.0979H13.467C13.4152 4.0979 13.373 4.14005 13.373 4.19178V4.78957C13.373 4.84129 13.4152 4.88345 13.467 4.88345H13.6442C13.7093 4.88345 13.8146 4.87863 13.8787 4.8727C13.941 4.86701 14.1169 4.84153 14.1814 4.7928C14.2588 4.73421 14.2981 4.63287 14.2981 4.49167C14.2981 4.34912 14.2588 4.24714 14.1814 4.18855Z" fill="#919191"/>
</g>
<defs>
<clipPath id="clip0_5051_51020">
<rect width="16" height="16" fill="white" transform="translate(0.111328 0.5)"/>
</clipPath>
</defs>
</svg>
