<svg width="20" height="20" viewBox="0 0 20 20" fill="none" xmlns="http://www.w3.org/2000/svg">
<rect width="20" height="20" transform="translate(0 0.000488281)" fill="white"/>
<path d="M9.99998 4.35881L9.59484 3.79858C9.24558 3.31561 8.85263 2.90634 8.42353 2.57452L8.42351 2.5745C7.57865 1.92108 6.6285 1.59424 5.58701 1.59424C4.18041 1.59424 2.89354 2.15556 1.9541 3.17445L9.99998 4.35881ZM9.99998 4.35881L10.4051 3.7986M9.99998 4.35881L10.4051 3.7986M10.4051 3.7986C10.7546 3.31548 11.1474 2.90635 11.5763 2.57452C12.4213 1.92107 13.3715 1.59424 14.413 1.59424C15.8196 1.59424 17.1063 2.15556 18.0458 3.1745C18.9759 4.18341 19.5 5.57495 19.5 7.10468C19.5 8.65265 18.9299 10.0919 17.6315 11.6584L17.6315 11.6584C16.4546 13.0786 14.7529 14.5308 12.727 16.2572L12.727 16.2572L12.7093 16.2722C12.0256 16.8551 11.2493 17.5167 10.4437 18.2212L10.4435 18.2214C10.3212 18.3285 10.1637 18.3878 10 18.3878C9.83631 18.3878 9.67892 18.3286 9.55628 18.2212L9.55594 18.2209C8.74429 17.5112 7.96289 16.8452 7.27563 16.2595L7.27349 16.2577L7.27346 16.2577M10.4051 3.7986L7.27346 16.2577M7.27346 16.2577C5.24726 14.531 3.54556 13.0786 2.36862 11.6585C1.07027 10.0918 0.5 8.65262 0.5 7.10483C0.5 5.57496 1.0241 4.18341 1.95406 3.1745L7.27346 16.2577Z" stroke="#525252"/>
</svg>
