<svg width="70" height="70" viewBox="0 0 70 70" fill="none" xmlns="http://www.w3.org/2000/svg">
<g clip-path="url(#clip0_4362_44976)">
<path d="M70 35C70 39.5344 66.1344 43.2678 64.4933 47.2189C62.7978 51.31 62.8289 56.6689 59.7489 59.7489C56.6689 62.8289 51.3022 62.7978 47.2189 64.4933C43.2756 66.1267 39.5422 70 35 70C30.4578 70 26.7322 66.1344 22.7811 64.4933C18.69 62.7978 13.3311 62.8289 10.2511 59.7489C7.17111 56.6689 7.20222 51.3022 5.50667 47.2189C3.87333 43.2756 0 39.5422 0 35C0 30.4578 3.86556 26.7322 5.50667 22.7811C7.20222 18.69 7.17111 13.3311 10.2511 10.2511C13.3311 7.17111 18.6978 7.20222 22.7811 5.50667C26.7244 3.87333 30.4578 0 35 0C39.5422 0 43.2678 3.86556 47.2189 5.50667C51.31 7.20222 56.6689 7.17111 59.7489 10.2511C62.8289 13.3311 62.7978 18.6978 64.4933 22.7811C66.1267 26.7244 70 30.4578 70 35Z" fill="#EDFFFF"/>
<path d="M36.3158 34.7047V28.5524C36.3158 27.7902 35.7014 27.1758 34.9392 27.1758C34.1769 27.1758 33.5625 27.7902 33.5625 28.5524V35.3891C33.5625 35.6847 33.6792 35.9647 33.8892 36.1747L39.5981 41.8836C40.1347 42.4202 41.0058 42.4202 41.5425 41.8836C42.0792 41.3469 42.0792 40.4758 41.5425 39.9391L36.3081 34.7047H36.3158Z" fill="#525252"/>
<path d="M40.2808 47.3902C40.063 46.8846 39.4953 46.6279 38.9741 46.8068C38.2586 47.0479 37.5119 47.2268 36.7575 47.3357C36.213 47.4135 35.8241 47.8957 35.8553 48.4479L35.9253 49.5913C35.9641 50.2057 36.5164 50.6491 37.123 50.5713C38.1341 50.4313 39.1297 50.1979 40.1019 49.8635C40.6853 49.6613 40.973 49.0157 40.7319 48.4479L40.2808 47.3902Z" fill="#525252"/>
<path d="M47.8802 41.8512L46.8614 41.3145C46.3791 41.0578 45.7725 41.2134 45.4769 41.6801C45.0725 42.3256 44.6058 42.9245 44.0847 43.4845C43.7114 43.8889 43.7114 44.5112 44.0847 44.9156L44.8625 45.7634C45.2747 46.2145 45.9902 46.2145 46.4102 45.7634C47.1102 45.0167 47.7325 44.2078 48.2769 43.3445C48.6036 42.8234 48.4169 42.139 47.8725 41.8512H47.8802Z" fill="#525252"/>
<path d="M50.5331 33.1329C50.4553 32.5263 49.8798 32.114 49.2809 32.2307L48.1531 32.4563C47.6165 32.5652 47.2431 33.0707 47.3131 33.6152C47.3676 34.0974 47.3987 34.5874 47.3987 35.0774C47.3987 35.3496 47.3909 35.6218 47.3753 35.894C47.3365 36.4463 47.7331 36.9285 48.2776 37.0063L49.4131 37.1696C50.0198 37.2552 50.572 36.8118 50.6187 36.1974C50.642 35.824 50.6576 35.4507 50.6576 35.0774C50.6576 34.4318 50.6187 33.7785 50.5409 33.1407L50.5331 33.1329Z" fill="#525252"/>
<path d="M30.746 46.7141C30.4116 46.5896 30.0927 46.4574 29.7738 46.3096C25.4182 44.2796 22.6105 39.8696 22.6105 35.0707C22.6105 28.2341 28.1716 22.673 35.0082 22.673C37.8082 22.673 40.4838 23.6141 42.646 25.3018L41.3782 26.173C41.2382 26.2741 41.2538 26.4918 41.4093 26.5618L47.6005 29.5018C47.756 29.5796 47.9349 29.4552 47.9271 29.2763L47.3749 22.4474C47.3593 22.2763 47.1649 22.183 47.0171 22.2763L45.4227 23.3807C42.576 20.8374 38.8816 19.4141 35.0082 19.4141C32.8927 19.4141 30.8471 19.8263 28.9182 20.643C27.9927 21.0318 27.0982 21.5218 26.2582 22.0896C25.4338 22.6496 24.6482 23.2952 23.9405 24.003C23.2327 24.7107 22.5871 25.4885 22.0271 26.3207C21.4593 27.1607 20.9771 28.0552 20.5805 28.9807C19.7638 30.9096 19.3516 32.963 19.3516 35.0707C19.3516 38.1041 20.2227 41.0518 21.8716 43.5874C23.4738 46.053 25.7293 48.0207 28.3971 49.2574C28.8327 49.4596 29.276 49.6385 29.7271 49.8018C30.2638 49.9963 30.8549 49.693 31.0105 49.1407L31.3605 47.9041C31.5005 47.4063 31.236 46.8852 30.7538 46.7063L30.746 46.7141Z" fill="#525252"/>
</g>
<defs>
<clipPath id="clip0_4362_44976">
<rect width="70" height="70" fill="white"/>
</clipPath>
</defs>
</svg>
