<svg width="70" height="70" viewBox="0 0 70 70" fill="none" xmlns="http://www.w3.org/2000/svg">
<g clip-path="url(#clip0_4362_44991)">
<path d="M70 35C70 39.5344 66.1344 43.2678 64.4933 47.2189C62.7978 51.31 62.8289 56.6689 59.7489 59.7489C56.6689 62.8289 51.3022 62.7978 47.2189 64.4933C43.2756 66.1267 39.5422 70 35 70C30.4578 70 26.7322 66.1344 22.7811 64.4933C18.69 62.7978 13.3311 62.8289 10.2511 59.7489C7.17111 56.6689 7.20222 51.3022 5.50667 47.2189C3.87333 43.2756 0 39.5422 0 35C0 30.4578 3.86556 26.7322 5.50667 22.7811C7.20222 18.69 7.17111 13.3311 10.2511 10.2511C13.3311 7.17111 18.6978 7.20222 22.7811 5.50667C26.7244 3.87333 30.4578 0 35 0C39.5422 0 43.2678 3.86556 47.2189 5.50667C51.31 7.20222 56.6689 7.17111 59.7489 10.2511C62.8289 13.3311 62.7978 18.6978 64.4933 22.7811C66.1267 26.7244 70 30.4578 70 35Z" fill="#FFFAE0"/>
<path d="M45.484 36.1914H37.084V50.3392H45.484C46.0984 50.3392 46.5962 49.8414 46.5962 49.227V37.3036C46.5962 36.6892 46.0984 36.1914 45.484 36.1914Z" fill="#525252"/>
<path d="M23.4121 37.3036V49.227C23.4121 49.8414 23.9099 50.3392 24.5243 50.3392H32.9243V36.1914H24.5243C23.9099 36.1914 23.4121 36.6892 23.4121 37.3036Z" fill="#525252"/>
<path d="M21.8867 30.2646V33.749C21.8867 34.3635 22.3845 34.8613 22.9989 34.8613H32.9156V29.1602H22.9989C22.3845 29.1602 21.8867 29.6579 21.8867 30.2724V30.2646Z" fill="#525252"/>
<path d="M47.0005 29.1523H37.0605L37.0839 34.8534H47.0005C47.615 34.8534 48.1128 34.3556 48.1128 33.7412V30.2568C48.1128 29.6423 47.615 29.1445 47.0005 29.1445V29.1523Z" fill="#525252"/>
<path d="M26.4985 27.9007C26.6307 27.9707 26.8329 28.0874 27.424 28.0874H42.4351C43.0885 28.0874 43.3451 27.9629 43.4774 27.8852C44.4729 27.3018 45.0951 26.0652 45.0951 24.5018C45.0951 23.3352 44.7296 22.1685 44.084 21.3052C43.2907 20.2474 42.124 19.6641 40.7862 19.6641C40.6774 19.6641 40.5685 19.6641 40.4518 19.6796C36.9518 19.9207 35.5285 23.2496 34.9685 25.3885C34.4162 23.2418 32.9929 19.9207 29.4851 19.6796C29.3685 19.6718 29.2596 19.6641 29.1507 19.6641C27.8129 19.6641 26.6462 20.2474 25.8529 21.3052C25.2074 22.1685 24.8418 23.3274 24.8418 24.5018C24.8418 26.0885 25.4796 27.3252 26.4907 27.9085L26.4985 27.9007ZM40.5918 21.6707C40.6618 21.6707 40.724 21.6707 40.7862 21.6707C41.494 21.6707 42.0618 21.9507 42.474 22.5107C42.8629 23.0318 43.0885 23.763 43.0885 24.5096C43.0885 25.1241 42.8785 26.2752 42.0696 26.2752H36.8118C37.1696 24.673 38.1496 21.8496 40.584 21.6785L40.5918 21.6707ZM27.4629 22.503C27.8751 21.9507 28.4429 21.663 29.1507 21.663C29.2129 21.663 29.2829 21.663 29.3451 21.663C31.7796 21.8341 32.7518 24.6496 33.1174 26.2596H27.8596C27.0585 26.2596 26.8407 25.1007 26.8407 24.4941C26.8407 23.7474 27.0662 23.0241 27.4551 22.4952L27.4629 22.503Z" fill="#525252"/>
</g>
<defs>
<clipPath id="clip0_4362_44991">
<rect width="70" height="70" fill="white"/>
</clipPath>
</defs>
</svg>
