<svg width="17" height="13" viewBox="0 0 17 13" fill="none" xmlns="http://www.w3.org/2000/svg">
<path d="M8.85712 12.9334C8.74488 12.9342 8.6344 12.9054 8.53673 12.8502C7.70055 12.3669 1.50754 8.48789 1.27366 8.36946C1.09567 8.28649 0.97413 8.11651 0.953277 7.92139V2.48055C0.948671 2.27746 1.04918 2.08633 1.21919 1.97487L1.26405 1.94927C1.86316 1.57801 3.86875 0.355421 4.18593 0.179393C4.25872 0.136246 4.34161 0.113061 4.42622 0.112183C4.50555 0.113079 4.58352 0.132827 4.6537 0.169792C4.6537 0.169792 7.46026 1.99728 7.88956 2.1605C8.19079 2.29875 8.51926 2.36766 8.85072 2.36213C9.22631 2.36998 9.59744 2.2795 9.92719 2.09969C10.3469 1.87886 13.0285 0.179393 13.0573 0.179393C13.1249 0.138601 13.2026 0.117536 13.2816 0.118584C13.3663 0.118998 13.4493 0.142216 13.5219 0.185794C13.8871 0.387425 16.3733 1.90766 16.479 1.97487C16.6539 2.08026 16.7599 2.27016 16.7578 2.47415V7.915C16.7381 8.11058 16.6162 8.2811 16.4374 8.36307C16.2035 8.49108 10.0297 12.3701 9.1775 12.8438C9.08048 12.9013 8.96995 12.9322 8.85712 12.9334Z" fill="#525252"/>
<path d="M8.82422 12.9335L8.85626 12.9334C8.9685 12.9342 9.07898 12.9055 9.17663 12.8502C10.0128 12.3669 16.2026 8.48795 16.4365 8.36952C16.6154 8.28755 16.7373 8.11704 16.7569 7.92145V2.4806C16.7579 2.3885 16.7371 2.29746 16.696 2.21497L8.82422 6.53243V12.9335Z" fill="#525252"/>
<path d="M8.79688 12.8566L8.76517 12.8566C8.65413 12.8574 8.54483 12.829 8.44822 12.7743C7.62092 12.2961 1.49707 8.45847 1.26568 8.3413C1.08875 8.26021 0.968118 8.09151 0.948718 7.89801V2.51513C0.947696 2.424 0.968328 2.33393 1.00894 2.25232L8.79688 6.52379V12.8566Z" fill="#525252"/>
</svg>
