<svg width="16" height="18" viewBox="0 0 16 18" fill="none" xmlns="http://www.w3.org/2000/svg">
<path d="M13.6483 3.82717C13.5289 3.76545 13.4127 3.69779 13.3 3.62444C12.9724 3.40787 12.6721 3.15269 12.4054 2.86438C11.7382 2.101 11.4891 1.32657 11.3973 0.784352H11.401C11.3243 0.334288 11.356 0.0430908 11.3608 0.0430908H8.32202V11.7934C8.32202 11.9512 8.32202 12.1071 8.31539 12.2612C8.31539 12.2804 8.31354 12.2981 8.31244 12.3187C8.31244 12.3272 8.31244 12.336 8.3106 12.3449C8.3106 12.3471 8.3106 12.3493 8.3106 12.3515C8.27856 12.7731 8.14342 13.1804 7.91704 13.5375C7.69067 13.8946 7.38 14.1906 7.01237 14.3995C6.62923 14.6174 6.19588 14.7318 5.75507 14.7312C4.33926 14.7312 3.1918 13.5767 3.1918 12.151C3.1918 10.7252 4.33926 9.57076 5.75507 9.57076C6.02307 9.57051 6.28943 9.61268 6.54425 9.69571L6.54793 6.60165C5.77437 6.50173 4.98849 6.56321 4.23987 6.78221C3.49126 7.00121 2.79615 7.37298 2.19841 7.87407C1.67465 8.32915 1.23432 8.87214 0.897242 9.4786C0.768968 9.69977 0.284991 10.5885 0.226384 12.0308C0.189523 12.8495 0.435382 13.6976 0.552598 14.0482V14.0556C0.626318 14.262 0.911986 14.9664 1.37753 15.5602C1.75293 16.0365 2.19645 16.455 2.69381 16.802V16.7946L2.70119 16.802C4.17228 17.8017 5.80335 17.7361 5.80335 17.7361C6.0857 17.7246 7.03154 17.7361 8.10565 17.227C9.29698 16.6627 9.97521 15.8219 9.97521 15.8219C10.4085 15.3195 10.753 14.747 10.994 14.1289C11.269 13.4061 11.3608 12.5391 11.3608 12.1926V5.95881C11.3976 5.98093 11.8886 6.30566 11.8886 6.30566C11.8886 6.30566 12.596 6.75905 13.6996 7.0543C14.4913 7.2644 15.5581 7.30863 15.5581 7.30863V4.29198C15.1843 4.33253 14.4254 4.21458 13.6483 3.82717Z" fill="#525252"/>
</svg>
