<svg width="24" height="24" viewBox="0 0 24 24" fill="none" xmlns="http://www.w3.org/2000/svg">
<path d="M12.3475 24.0006C18.7839 24.0006 24.0017 19.016 24.0017 12.8672C24.0017 6.71845 18.7839 1.73389 12.3475 1.73389C5.91111 1.73389 0.693359 6.71845 0.693359 12.8672C0.693359 19.016 5.91111 24.0006 12.3475 24.0006Z" fill="#F4900C"/>
<path d="M11.6542 22.2667C18.0906 22.2667 23.3083 17.2821 23.3083 11.1333C23.3083 4.98456 18.0906 0 11.6542 0C5.21775 0 0 4.98456 0 11.1333C0 17.2821 5.21775 22.2667 11.6542 22.2667Z" fill="#FFE8B6"/>
<path d="M11.9628 23.4656C18.3992 23.4656 23.6169 18.3269 23.6169 11.9879C23.6169 5.64898 18.3992 0.510254 11.9628 0.510254C5.52634 0.510254 0.308594 5.64898 0.308594 11.9879C0.308594 18.3269 5.52634 23.4656 11.9628 23.4656Z" fill="#FFCC4D"/>
<path d="M11.9724 21.3956C17.2503 21.3956 21.5289 17.1819 21.5289 11.984C21.5289 6.78602 17.2503 2.57227 11.9724 2.57227C6.69457 2.57227 2.41602 6.78602 2.41602 11.984C2.41602 17.1819 6.69457 21.3956 11.9724 21.3956Z" fill="#FFAC33"/>
<path d="M6.40507 10.2181L5.90234 8.53882L8.51653 9.03273L12.4378 11.0084L15.9569 14.1695L16.158 20.294C15.6553 20.9526 14.2074 22.1709 12.4378 21.7757C15.3335 15.6907 9.62254 11.5352 6.40507 10.2181Z" fill="#F4900C"/>
<path fill-rule="evenodd" clip-rule="evenodd" d="M21.5672 12.9127C21.0749 17.6841 16.9833 21.4074 12.0086 21.4074C6.70214 21.4074 2.40039 17.1708 2.40039 11.9447C2.40039 11.868 2.40132 11.7914 2.40316 11.7151C2.37033 12.0333 2.35352 12.3562 2.35352 12.683C2.35352 17.9091 6.65526 22.1457 11.9617 22.1457C17.1903 22.1457 21.4434 18.0327 21.5672 12.9127Z" fill="#FFE8B6"/>
<path fill-rule="evenodd" clip-rule="evenodd" d="M18.4099 4.8697C16.7105 3.37349 14.4674 2.46387 12.0086 2.46387C6.70214 2.46387 2.40039 6.70046 2.40039 11.9266C2.40039 12.1133 2.40589 12.2989 2.41673 12.483C2.71786 7.22211 7.14495 3.04746 12.5621 3.04746C14.7391 3.04746 16.7562 3.72169 18.4099 4.8697Z" fill="#F4900C"/>
<path d="M8.77767 4.71592L8.46484 3.26611C9.88297 3.26611 11.6973 4.42596 12.4273 5.00589C12.3602 5.44094 11.5882 6.74522 9.06333 8.57181C8.97819 8.64374 8.88321 8.7118 8.77767 8.77539C8.87529 8.70684 8.9705 8.63897 9.06333 8.57181C10.324 7.5067 9.42885 5.59114 8.77767 4.71592Z" fill="#F4900C"/>
<path d="M9.80818 10.1519C14.0066 10.0739 14.3161 7.51779 13.9461 6.24951L10.7165 7.71291C10.1782 7.84299 9.243 8.51291 9.80818 10.1519Z" fill="#F4900C"/>
<path d="M11.6264 2.57227C10.5 2.60703 9.42206 2.82766 8.42416 3.20352C9.64196 4.48148 10.1792 5.76218 9.77994 6.79802C9.33753 7.90578 7.9062 8.53518 5.90234 8.66107C11.9399 11.2542 15.6874 15.786 14.5944 19.7387C14.4515 20.2456 14.2383 20.7222 13.9608 21.1661C16.0193 20.7442 17.837 19.6906 19.1874 18.2245C19.2474 14.7942 15.5919 11.0976 10.1963 9.06389C12.0961 8.76178 13.4233 8.05684 13.8137 6.94908C14.2484 5.66932 13.393 4.11076 11.6264 2.57227Z" fill="#FFCC4D"/>
<path fill-rule="evenodd" clip-rule="evenodd" d="M11.4199 9.57349C14.1382 11.1917 17.9841 14.527 18.5625 18.8802C18.7614 18.695 18.9523 18.5014 19.1346 18.3002C19.1896 15.1094 16.1035 11.6895 11.4199 9.57349Z" fill="white"/>
<path fill-rule="evenodd" clip-rule="evenodd" d="M13.7271 7.18579C13.7644 7.10974 13.797 7.0316 13.8248 6.95135C14.255 5.66321 13.4084 4.09446 11.6598 2.5459C11.1208 2.56282 10.5931 2.62345 10.0801 2.72431C11.276 3.1839 13.0772 4.49041 13.7271 7.18579Z" fill="white"/>
<path d="M6.84126 11.5312L7.53375 13.3743L9.40518 14.0563L7.53375 14.7383L6.84126 16.5814L6.14877 14.7383L4.27734 14.0563L6.14877 13.3743L6.84126 11.5312Z" fill="white"/>
<path d="M18.724 9.92578L19.2277 11.2662L20.5887 11.7622L19.2277 12.2582L18.724 13.5986L18.2204 12.2582L16.8594 11.7622L18.2204 11.2662L18.724 9.92578Z" fill="white"/>
<path d="M15.6967 8.77686L16.0114 9.61462L16.8621 9.92462L16.0114 10.2346L15.6967 11.0724L15.3819 10.2346L14.5312 9.92462L15.3819 9.61462L15.6967 8.77686Z" fill="white"/>
<path d="M17.323 5.79248L17.7637 7.04913L18.9546 7.51413L17.7637 7.97913L17.323 9.23578L16.8823 7.97913L15.6914 7.51413L16.8823 7.04913L17.323 5.79248Z" fill="white"/>
<path d="M9.39708 14.9707L9.08231 15.8085L8.23167 16.1185L9.08231 16.4285L9.39708 17.2662L9.71185 16.4285L10.5625 16.1185L9.71185 15.8085L9.39708 14.9707Z" fill="white"/>
</svg>
