<svg width="17" height="19" viewBox="0 0 17 19" fill="none" xmlns="http://www.w3.org/2000/svg">
<path fill-rule="evenodd" clip-rule="evenodd" d="M11.6735 13.5312C11.5689 14.3995 11.0456 15.0949 10.235 15.4431C9.78357 15.637 9.17746 15.7418 8.6977 15.7089C7.94928 15.6801 7.24616 15.4971 6.59804 15.1626C6.3665 15.043 6.02133 14.8043 5.7563 14.5807C5.68917 14.5242 5.68119 14.488 5.72561 14.4246C5.7496 14.3883 5.79381 14.3227 5.89156 14.1787C6.03333 13.9699 6.05101 13.9437 6.06696 13.9192C6.11231 13.8492 6.18601 13.8431 6.2587 13.9006C6.26634 13.9066 6.26634 13.9066 6.2721 13.9111C6.28402 13.9204 6.28403 13.9204 6.31216 13.9424C6.34064 13.9647 6.35752 13.9779 6.36435 13.983C7.06332 14.5334 7.87739 14.8508 8.69924 14.8826C9.84266 14.8669 10.6649 14.35 10.8122 13.5563C10.9742 12.6828 10.2922 11.9283 8.95784 11.5077C8.54052 11.3762 7.48567 10.9517 7.29118 10.837C6.37782 10.2982 5.95079 9.59249 6.01148 8.72082C6.10448 7.51253 7.22016 6.61135 8.6299 6.60532C9.26033 6.60402 9.88943 6.73574 10.4938 6.99178C10.7078 7.08246 11.0899 7.29149 11.2218 7.39052C11.2978 7.44661 11.3128 7.51199 11.2692 7.58253C11.2449 7.62343 11.2047 7.68826 11.1199 7.82344L11.119 7.82492C11.0075 8.00296 11.004 8.00852 10.9784 8.05017C10.9342 8.11785 10.8822 8.12416 10.8024 8.07329C10.1557 7.63651 9.4388 7.41676 8.65033 7.40089C7.6687 7.42042 6.93295 8.00778 6.88457 8.8079C6.87171 9.53056 7.41083 10.0582 8.57536 10.4604C10.9392 11.2241 11.8438 12.1195 11.6735 13.5312ZM8.75424 1.05568C10.2932 1.05568 11.5476 2.524 11.6063 4.36204H5.90221C5.9609 2.524 7.21534 1.05568 8.75424 1.05568ZM16.7189 4.7076C16.7189 4.51674 16.566 4.36204 16.3775 4.36204H12.6802C12.5895 1.93516 10.8665 0 8.75424 0C6.64205 0 4.91904 1.93516 4.82833 4.36204L1.12579 4.3621C0.940139 4.3655 0.790671 4.51891 0.790671 4.7076C0.790671 4.71662 0.791007 4.72557 0.791675 4.73439H0.789062L1.31686 16.4317C1.31693 16.4642 1.31813 16.497 1.32054 16.5301C1.32108 16.5375 1.32168 16.5449 1.32229 16.5523L1.32343 16.577L1.3247 16.5783C1.40489 17.3923 1.99245 18.0478 2.79138 18.0781L2.79319 18.0799H14.538C14.5435 18.0799 14.5491 18.08 14.5546 18.08C14.5602 18.08 14.5658 18.0799 14.5713 18.0799H14.5963C15.4092 18.0575 16.0681 17.3923 16.1377 16.5683L16.1386 16.5569C16.1393 16.5482 16.1399 16.5396 16.1405 16.5309C16.1417 16.5101 16.1426 16.4895 16.1429 16.4689L16.7188 4.72544C16.7192 4.71954 16.7189 4.71357 16.7189 4.7076Z" fill="#525252"/>
</svg>
