<svg width="17" height="16" viewBox="0 0 17 16" fill="none" xmlns="http://www.w3.org/2000/svg">
<path fill-rule="evenodd" clip-rule="evenodd" d="M8.39844 0C3.8914 0 0.398438 3.30141 0.398438 7.76016C0.398438 10.0926 1.35457 12.1078 2.91111 13.5002C3.0415 13.6177 3.12037 13.7803 3.12681 13.9557L3.17027 15.3787C3.18476 15.8326 3.65317 16.1272 4.06846 15.9453L5.65558 15.2451C5.79079 15.1855 5.94049 15.1742 6.08214 15.2129C6.81131 15.4141 7.58878 15.5203 8.39844 15.5203C12.9055 15.5203 16.3984 12.2189 16.3984 7.76016C16.3984 3.30141 12.9055 0 8.39844 0Z" fill="#525252"/>
<path fill-rule="evenodd" clip-rule="evenodd" d="M3.59357 10.0297L5.94367 6.30177C6.31712 5.70942 7.11872 5.56133 7.67889 5.98145L9.5477 7.38346C9.71993 7.51223 9.95494 7.51062 10.1256 7.38185L12.6495 5.46636C12.9859 5.21042 13.427 5.61445 13.2 5.97179L10.8515 9.69815C10.4781 10.2905 9.67647 10.4386 9.11631 10.0185L7.2475 8.61646C7.07526 8.48769 6.84025 8.4893 6.66963 8.61807L4.14408 10.5352C3.80766 10.7911 3.36661 10.3871 3.59357 10.0297Z" fill="white"/>
</svg>
