<svg width="60" height="60" viewBox="0 0 60 60" fill="none" xmlns="http://www.w3.org/2000/svg">
<path d="M47.6727 17.7041C47.6727 26.5424 52.251 32.6119 52.251 36.8707C52.251 41.1296 49.8028 50.074 30.2106 50.074C10.6185 50.074 7.74219 38.0412 7.74219 33.3568C7.74219 11.4212 47.6727 2.05127 47.6727 17.7041Z" fill="#EFEFEF"/>
<path d="M36.7075 18.1806V41.8194C36.7075 43.225 35.5575 44.375 34.1519 44.375H20.7352C19.3297 44.375 18.1797 43.225 18.1797 41.8194V18.1806C18.1797 16.775 19.3297 15.625 20.7352 15.625H21.3741C22.4347 15.625 23.2908 16.4811 23.2908 17.5417C23.2908 18.2444 23.8658 18.8194 24.5686 18.8194H30.3186C31.0214 18.8194 31.5964 18.2444 31.5964 17.5417C31.5964 16.4811 32.4525 15.625 33.513 15.625H34.1519C35.5575 15.625 36.7075 16.775 36.7075 18.1806Z" fill="white"/>
<path d="M33.5139 15.625C32.4533 15.625 31.5972 16.4811 31.5972 17.5417C31.5972 18.2444 31.0222 18.8194 30.3194 18.8194H24.5694C23.8667 18.8194 23.2917 18.2444 23.2917 17.5417C23.2917 16.4811 22.4356 15.625 21.375 15.625H33.5139Z" fill="#F3F3F1"/>
<path d="M41.819 25.5279L35.1107 27.764L28.4023 25.5279L35.1107 23.2917L41.819 25.5279Z" fill="white"/>
<path d="M41.8177 25.5278V34.4723L35.1094 36.7084V27.7639L41.8177 25.5278Z" fill="white"/>
<path d="M35.1107 27.7639V36.7084L28.4023 34.4723V25.5278L35.1107 27.7639Z" fill="white"/>
<path d="M34.4731 17.5417C34.4731 16.867 34.8206 16.2779 35.3471 15.9355C34.9893 15.7438 34.5868 15.625 34.1536 15.625H33.5148C32.4542 15.625 31.5981 16.4811 31.5981 17.5417C31.5981 18.2444 31.0231 18.8194 30.3203 18.8194H33.1953C33.8981 18.8194 34.4731 18.2444 34.4731 17.5417Z" fill="#FFD9CE"/>
<path d="M21.0547 41.8194V18.1806C21.0547 17.2082 21.6118 16.3674 22.4168 15.9355C22.1165 15.7413 21.76 15.625 21.3741 15.625H20.7352C19.3297 15.625 18.1797 16.775 18.1797 18.1806V41.8194C18.1797 43.225 19.3297 44.375 20.7352 44.375H23.6102C22.2047 44.375 21.0547 43.225 21.0547 41.8194Z" fill="#FFD9CE"/>
<path d="M26.1667 17.5417C26.1667 16.4811 25.3106 15.625 24.25 15.625H21.375C22.4356 15.625 23.2917 16.4811 23.2917 17.5417C23.2917 18.2444 23.8667 18.8194 24.5694 18.8194H27.4444C26.7417 18.8194 26.1667 18.2444 26.1667 17.5417Z" fill="#FFD9CE"/>
<path d="M37.9844 27.7639L41.8177 26.4862V25.5278L35.1094 27.7639V36.7084L37.9844 35.7501V27.7639Z" fill="#FFD9CE"/>
<path d="M31.2773 34.4723V26.4862L28.4023 25.5278V34.4723L35.1107 36.7084V35.7501L31.2773 34.4723Z" fill="#FFD9CE"/>
<path d="M30.3177 19.7779H24.5677C23.3347 19.7779 22.3316 18.7748 22.3316 17.5417C22.3316 17.0127 21.9023 16.5834 21.3733 16.5834H20.7344V14.6667H21.3733C22.959 14.6667 24.2483 15.956 24.2483 17.5417C24.2483 17.7181 24.3914 17.8612 24.5677 17.8612H30.3177C30.494 17.8612 30.6372 17.7181 30.6372 17.5417C30.6372 15.956 31.9264 14.6667 33.5122 14.6667H34.151V16.5834H33.5122C32.9832 16.5834 32.5538 17.0127 32.5538 17.5417C32.5538 18.7748 31.5508 19.7779 30.3177 19.7779Z" fill="#525252"/>
<path d="M34.1532 45.3334H20.7365C18.7982 45.3334 17.2227 43.7579 17.2227 41.8195V18.1806C17.2227 16.2422 18.7982 14.6667 20.7365 14.6667H34.1532C36.0916 14.6667 37.6671 16.2422 37.6671 18.1806V18.8195H35.7504V18.1806C35.7504 17.3002 35.0336 16.5834 34.1532 16.5834H20.7365C19.8562 16.5834 19.1393 17.3002 19.1393 18.1806V41.8195C19.1393 42.6999 19.8562 43.4167 20.7365 43.4167H34.1532C35.0336 43.4167 35.7504 42.6999 35.7504 41.8195V41.1806H37.6671V41.8195C37.6671 43.7579 36.0916 45.3334 34.1532 45.3334Z" fill="#525252"/>
<path d="M35.112 28.7221C35.0098 28.7221 34.9075 28.7055 34.8091 28.6723L28.1008 26.4362C27.7098 26.3059 27.4453 25.9404 27.4453 25.5277C27.4453 25.115 27.7098 24.7495 28.1008 24.6192L34.8091 22.3831C35.0059 22.3166 35.218 22.3166 35.4161 22.3831L42.1244 24.6192C42.5141 24.7495 42.7786 25.115 42.7786 25.5277C42.7786 25.9404 42.5141 26.3059 42.1231 26.4362L35.4148 28.6723C35.3164 28.7055 35.2142 28.7221 35.112 28.7221ZM31.4345 25.5277L35.112 26.7531L38.7894 25.5277L35.112 24.3023L31.4345 25.5277Z" fill="#525252"/>
<path d="M35.112 37.6667C35.0098 37.6667 34.9075 37.6501 34.8091 37.6182L28.1008 35.3821C27.7098 35.2504 27.4453 34.885 27.4453 34.4723V25.5278H29.362V33.781L35.112 35.6977L40.862 33.781V25.5278H42.7786V34.4723C42.7786 34.885 42.5141 35.2504 42.1231 35.3821L35.4148 37.6182C35.3164 37.6501 35.2142 37.6667 35.112 37.6667Z" fill="#525252"/>
<path d="M34.1523 27.7639H36.069V36.7084H34.1523V27.7639Z" fill="#525252"/>
</svg>
