<svg width="60" height="60" viewBox="0 0 60 60" fill="none" xmlns="http://www.w3.org/2000/svg">
<path d="M51.6295 33.0527C46.9107 25.5802 47.5419 18.003 45.2674 14.4022C42.993 10.8015 36.1467 4.54419 19.5803 15.0054C3.01387 25.4665 7.00693 37.1748 9.50882 41.1359C21.2209 59.6841 59.9862 46.2866 51.6295 33.0527Z" fill="#EFEFEF"/>
<path d="M28.0754 16.5591C29.0223 17.5072 29.9998 21.9181 29.9998 21.9181C29.9998 21.9181 25.5889 20.9406 24.6408 19.9937C23.6927 19.0456 23.6927 17.5085 24.6408 16.5603C25.5889 15.611 27.1273 15.611 28.0754 16.5591Z" fill="white"/>
<path d="M31.9243 16.5591C30.9775 17.5072 30 21.9181 30 21.9181C30 21.9181 34.4109 20.9406 35.359 19.9937C36.3071 19.0456 36.3071 17.5085 35.359 16.5603C34.4109 15.611 32.8724 15.611 31.9243 16.5591Z" fill="white"/>
<path d="M43.0972 29.1057H16.9028C16.1974 29.1057 15.625 28.5332 15.625 27.8279V23.3557C15.625 22.6503 16.1974 22.0779 16.9028 22.0779H43.0972C43.8026 22.0779 44.375 22.6503 44.375 23.3557V27.8279C44.375 28.5332 43.8026 29.1057 43.0972 29.1057Z" fill="white"/>
<path d="M27.5158 19.9936C26.5677 19.0455 26.5677 17.5083 27.5158 16.5602C27.6027 16.4733 27.6985 16.4031 27.7956 16.3315C26.8449 15.6287 25.5033 15.699 24.6408 16.5602C23.6927 17.5083 23.6927 19.0455 24.6408 19.9936C25.5889 20.9404 29.9985 21.9179 29.9985 21.9179C29.9985 21.9179 29.9231 21.5781 29.7953 21.0733C28.8178 20.7513 27.8927 20.3706 27.5158 19.9936Z" fill="#FFD9CE"/>
<path d="M34.7993 16.5602C34.8862 16.4733 34.9821 16.4031 35.0792 16.3315C34.1285 15.6287 32.7868 15.699 31.9243 16.5602C30.9775 17.5083 30 21.9179 30 21.9179C30 21.9179 31.5985 21.5627 33.0782 21.0733C33.4129 19.747 34.1132 17.2464 34.7993 16.5602Z" fill="#FFD9CE"/>
<path d="M18.5 27.8279V23.3557C18.5 22.6503 19.0724 22.0779 19.7778 22.0779H16.9028C16.1974 22.0779 15.625 22.6503 15.625 23.3557V27.8279C15.625 28.5332 16.1974 29.1057 16.9028 29.1057H19.7778C19.0724 29.1057 18.5 28.5332 18.5 27.8279Z" fill="#FFD9CE"/>
<path d="M43.0946 29.0641H16.9002C15.6671 29.0641 14.6641 28.061 14.6641 26.828V23.3557C14.6641 22.1227 15.6671 21.1196 16.9002 21.1196H43.0946C44.3277 21.1196 45.3307 22.1227 45.3307 23.3557V26.828C45.3307 28.061 44.3277 29.0641 43.0946 29.0641ZM16.9002 23.0363C16.7238 23.0363 16.5807 23.1794 16.5807 23.3557V26.828C16.5807 27.0043 16.7238 27.1474 16.9002 27.1474H43.0946C43.271 27.1474 43.4141 27.0043 43.4141 26.828V23.3557C43.4141 23.1794 43.271 23.0363 43.0946 23.0363H16.9002Z" fill="#525252"/>
<path d="M41 29H43V35H41V29Z" fill="#525252"/>
<path d="M17 29H18.9167V32.8943H17V29Z" fill="#525252"/>
<path d="M29.9965 22.8765C29.9275 22.8765 29.8585 22.8688 29.7895 22.8535C28.6919 22.6107 25.0247 21.7341 23.9603 20.671C23.3201 20.0321 22.9688 19.1811 22.9688 18.2765C22.9688 17.3718 23.3201 16.5208 23.9603 15.8819C25.2406 14.6028 27.4704 14.6028 28.7481 15.8819C29.8113 16.9463 30.6891 20.611 30.9319 21.7098C31.0034 22.0293 30.905 22.3628 30.6738 22.5941C30.4923 22.7768 30.247 22.8765 29.9965 22.8765ZM26.3549 16.807C25.9613 16.807 25.5933 16.9603 25.316 17.2376C25.0387 17.5149 24.8854 17.8842 24.8854 18.2765C24.8854 18.6687 25.0387 19.038 25.316 19.3153C25.6546 19.6526 27.1241 20.1765 28.683 20.6033C28.2562 19.0444 27.7323 17.575 27.3937 17.2363C27.1164 16.9591 26.7471 16.807 26.3549 16.807Z" fill="#525252"/>
<path d="M29.9975 22.8764C29.747 22.8764 29.5017 22.7767 29.3203 22.5953C29.0877 22.364 28.9906 22.0305 29.0622 21.7111C29.3049 20.6122 30.1828 16.9462 31.2459 15.8831C32.5237 14.6041 34.7534 14.6041 36.0337 15.8831C36.6739 16.522 37.0253 17.373 37.0253 18.2777C37.0253 19.1823 36.6739 20.0321 36.0337 20.6722C34.9706 21.7353 31.3034 22.6119 30.2045 22.8547C30.1355 22.8687 30.0665 22.8764 29.9975 22.8764ZM33.6392 16.807C33.2469 16.807 32.8776 16.9603 32.6016 17.2363C32.263 17.5749 31.7391 19.0443 31.3123 20.6032C32.8712 20.1765 34.3407 19.6513 34.6793 19.314C34.9553 19.038 35.1086 18.6687 35.1086 18.2764C35.1086 17.8841 34.9553 17.5148 34.678 17.2376C34.3994 16.959 34.0314 16.807 33.6392 16.807Z" fill="#525252"/>
<path d="M21.6905 32.3857L21.3966 33.459L19.5183 40.3974L19.135 41.8157H15.6211V30.9546C19.8378 30.9546 21.6905 32.3857 21.6905 32.3857Z" fill="white"/>
<path d="M15.6211 30.9546V41.8157H18.4961V31.2101C17.6962 31.0594 16.7494 30.9546 15.6211 30.9546Z" fill="#FFD9CE"/>
<path d="M44.3684 39.2601C44.3684 39.2601 35.1045 44.3712 31.2712 44.3712C28.2301 44.3712 21.969 41.5473 19.5156 40.3973L21.394 33.459L33.699 35.9762C34.8873 36.219 35.7434 37.2668 35.7434 38.4806V39.0429C37.5834 38.4679 39.5128 37.6629 41.174 37.6629C43.7295 37.6629 44.3684 39.2601 44.3684 39.2601Z" fill="white"/>
<path d="M22.3906 41.0362L24.269 34.0979L34.1653 36.1219C34.0158 36.0605 33.8612 36.0094 33.699 35.9762L21.394 33.459L19.5156 40.3973C21.8016 41.4694 27.3918 43.9917 30.6042 44.3303C27.5925 43.4205 24.0837 41.8297 22.3906 41.0362Z" fill="#FFD9CE"/>
<path d="M19.5183 41.3544L18.8359 41.0772L19.4927 40.4038V39.4263L20.175 39.7035L19.5183 40.3782V41.3544Z" fill="#525252"/>
<path d="M34.7891 39.0557V39.043H36.7057L34.7891 39.0557Z" fill="#525252"/>
<path d="M19.1363 42.7778H15.6224C15.0934 42.7778 14.6641 42.3484 14.6641 41.8194V30.9583C14.6641 30.4293 15.0934 30 15.6224 30C20.101 30 22.1876 31.5551 22.2732 31.6215C22.5825 31.8579 22.7192 32.2578 22.617 32.6335L20.0614 42.0712C19.9477 42.4877 19.5695 42.7778 19.1363 42.7778ZM16.5807 40.8611H18.4028L20.5725 32.8482C19.9042 32.5326 18.5971 32.0623 16.5795 31.9448L16.5807 40.8611Z" fill="#525252"/>
<path d="M31.2759 45.3334C28.1978 45.3334 22.3174 42.7779 19.0859 41.2561L19.9037 39.5221C25.1554 41.9984 29.3005 43.4181 31.2759 43.4181C33.8673 43.4181 39.7502 40.6197 42.8322 39.0046C42.4769 38.8014 41.9479 38.6264 41.1787 38.6264C40.0568 38.6264 38.6704 39.0877 37.3288 39.5362C35.8427 40.0319 34.3055 40.5431 32.8732 40.5431C30.1796 40.5431 26.6261 39.2614 26.4766 39.2078L27.1308 37.4061C27.164 37.4189 30.5195 38.6264 32.8732 38.6264C33.995 38.6264 35.3814 38.1651 36.7231 37.7166C38.2092 37.2208 39.7463 36.7097 41.1787 36.7097C44.3463 36.7097 45.2267 38.8193 45.2625 38.9101C45.4427 39.3598 45.2599 39.8709 44.8357 40.1048C44.4498 40.3169 35.3099 45.3334 31.2759 45.3334Z" fill="#525252"/>
<path d="M36.7065 39.0593H34.7898V38.4843C34.7898 37.7279 34.2531 37.0698 33.512 36.9191L21.207 34.3993L21.5916 32.5222L33.8966 35.0407C35.5245 35.3717 36.7078 36.8207 36.7078 38.483L36.7065 39.0593Z" fill="#525252"/>
</svg>
