<svg width="60" height="60" viewBox="0 0 60 60" fill="none" xmlns="http://www.w3.org/2000/svg">
<path d="M51.6295 33.0527C46.9107 25.5802 47.5419 18.003 45.2674 14.4022C42.993 10.8015 36.1467 4.54419 19.5803 15.0054C3.01387 25.4665 7.00693 37.1748 9.50882 41.1359C21.2209 59.6841 59.9862 46.2866 51.6295 33.0527Z" fill="#EFEFEF"/>
<path d="M36.3885 31.5972C40.7991 31.5972 44.3746 28.0217 44.3746 23.6111C44.3746 19.2005 40.7991 15.625 36.3885 15.625C31.9778 15.625 28.4023 19.2005 28.4023 23.6111C28.4023 28.0217 31.9778 31.5972 36.3885 31.5972Z" fill="white"/>
<path d="M31.2773 23.6111C31.2773 19.6922 34.1025 16.4389 37.826 15.7604C37.3596 15.6761 36.8804 15.625 36.3885 15.625C31.9776 15.625 28.4023 19.2002 28.4023 23.6111C28.4023 28.022 31.9776 31.5972 36.3885 31.5972C36.8804 31.5972 37.3596 31.5461 37.826 31.4618C34.1025 30.7833 31.2773 27.5301 31.2773 23.6111Z" fill="#FFD9CE"/>
<path d="M21.6905 32.3857L21.3966 33.459L19.5183 40.3974L19.135 41.8157H15.6211V30.9546C19.8378 30.9546 21.6905 32.3857 21.6905 32.3857Z" fill="white"/>
<path d="M15.6211 30.9546V41.8157H18.4961V31.2101C17.6962 31.0594 16.7494 30.9546 15.6211 30.9546Z" fill="#FFD9CE"/>
<path d="M44.3684 39.2601C44.3684 39.2601 35.1045 44.3712 31.2712 44.3712C28.2301 44.3712 21.969 41.5473 19.5156 40.3973L21.394 33.459L33.699 35.9762C34.8873 36.219 35.7434 37.2668 35.7434 38.4806V39.0429C37.5834 38.4679 39.5128 37.6629 41.174 37.6629C43.7295 37.6629 44.3684 39.2601 44.3684 39.2601Z" fill="white"/>
<path d="M22.3906 41.0362L24.269 34.0979L34.1653 36.1219C34.0158 36.0605 33.8612 36.0094 33.699 35.9762L21.394 33.459L19.5156 40.3973C21.8016 41.4694 27.3918 43.9917 30.6042 44.3303C27.5925 43.4205 24.0837 41.8297 22.3906 41.0362Z" fill="#FFD9CE"/>
<path d="M19.5183 41.3544L18.8359 41.0772L19.4927 40.4038V39.4263L20.175 39.7035L19.5183 40.3782V41.3544Z" fill="#525252"/>
<path d="M34.7891 39.0555V39.0427H36.7057L34.7891 39.0555Z" fill="#525252"/>
<path d="M36.3859 32.5556C31.4536 32.5556 27.4414 28.5421 27.4414 23.6112C27.4414 18.6802 31.4536 14.6667 36.3859 14.6667C41.3181 14.6667 45.3303 18.6802 45.3303 23.6112C45.3303 28.5421 41.3181 32.5556 36.3859 32.5556ZM36.3859 16.5834C32.5104 16.5834 29.3581 19.737 29.3581 23.6112C29.3581 27.4854 32.5104 30.639 36.3859 30.639C40.2614 30.639 43.4136 27.4854 43.4136 23.6112C43.4136 19.737 40.2614 16.5834 36.3859 16.5834Z" fill="#525252"/>
<path d="M36.8714 28.0834H34.1497V26.1667H36.8714C37.3084 26.1667 37.6636 25.8115 37.6636 25.3745C37.6636 24.9247 37.3084 24.5695 36.8714 24.5695H35.9003C34.4066 24.5695 33.1914 23.3543 33.1914 21.8606C33.1914 20.3541 34.4066 19.1389 35.9003 19.1389H38.622V21.0556H35.9003C35.4633 21.0556 35.1081 21.4108 35.1081 21.8478C35.1081 22.2976 35.4633 22.6528 35.9003 22.6528H36.8714C38.3651 22.6528 39.5803 23.868 39.5803 25.3617C39.5803 26.8682 38.3651 28.0834 36.8714 28.0834Z" fill="#525252"/>
<path d="M35.4258 18.1807H37.3424V20.0973H35.4258V18.1807Z" fill="#525252"/>
<path d="M35.4258 27.125H37.3424V29.0417H35.4258V27.125Z" fill="#525252"/>
<path d="M19.1363 42.7778H15.6224C15.0934 42.7778 14.6641 42.3484 14.6641 41.8194V30.9583C14.6641 30.4293 15.0934 30 15.6224 30C20.101 30 22.1876 31.5551 22.2732 31.6215C22.5825 31.8579 22.7192 32.2578 22.617 32.6335L20.0614 42.0712C19.9477 42.4877 19.5695 42.7778 19.1363 42.7778ZM16.5807 40.8611H18.4028L20.5725 32.8482C19.9042 32.5326 18.5971 32.0623 16.5795 31.9448L16.5807 40.8611Z" fill="#525252"/>
<path d="M31.2759 45.3334C28.1978 45.3334 22.3174 42.7779 19.0859 41.2561L19.9037 39.5221C25.1554 41.9984 29.3005 43.4181 31.2759 43.4181C33.8673 43.4181 39.7502 40.6197 42.8322 39.0046C42.4769 38.8014 41.9479 38.6264 41.1787 38.6264C40.0568 38.6264 38.6704 39.0877 37.3288 39.5362C35.8427 40.0319 34.3055 40.5431 32.8732 40.5431C30.1796 40.5431 26.6261 39.2614 26.4766 39.2078L27.1308 37.4061C27.164 37.4189 30.5195 38.6264 32.8732 38.6264C33.995 38.6264 35.3814 38.1651 36.7231 37.7166C38.2092 37.2208 39.7463 36.7097 41.1787 36.7097C44.3463 36.7097 45.2267 38.8193 45.2625 38.9101C45.4427 39.3598 45.2599 39.8709 44.8357 40.1048C44.4498 40.3169 35.3099 45.3334 31.2759 45.3334Z" fill="#525252"/>
<path d="M36.7065 39.0596H34.7898V38.4846C34.7898 37.7281 34.2531 37.0701 33.512 36.9193L21.207 34.3995L21.5916 32.5225L33.8966 35.041C35.5245 35.3719 36.7078 36.8209 36.7078 38.4833L36.7065 39.0596Z" fill="#525252"/>
</svg>
