<svg width="20" height="20" viewBox="0 0 20 20" fill="none" xmlns="http://www.w3.org/2000/svg">
<g clip-path="url(#clip0_4207_52953)">
<path d="M18.8928 5.7217L14.2797 1.10857C14.0353 0.864199 13.6403 0.864199 13.3959 1.10857L1.10906 13.3954C0.864687 13.6398 0.864687 14.0348 1.10906 14.2792L5.72094 18.8923C5.83844 19.0098 5.99656 19.0754 6.16281 19.0754C6.32906 19.0754 6.48781 19.0098 6.60469 18.8923L18.8922 6.60607C19.0097 6.48857 19.0753 6.32982 19.0753 6.1642C19.0753 5.99857 19.0097 5.8392 18.8928 5.7217ZM16.5209 7.20982L14.6559 5.34732C14.4116 5.10357 14.0159 5.10295 13.7716 5.34795C13.5278 5.59232 13.5278 5.98795 13.7722 6.2317L15.6372 8.0942L14.4578 9.27357L13.3641 8.1792C13.1197 7.9342 12.7247 7.93482 12.4803 8.17857C12.2359 8.42232 12.2359 8.81795 12.4803 9.06232L13.5741 10.1573L12.3953 11.3361L10.5309 9.4717C10.2866 9.22732 9.89156 9.22732 9.64719 9.4717C9.40281 9.71607 9.40281 10.1111 9.64719 10.3554L11.5109 12.2198L10.3328 13.398L9.23656 12.3036C8.99219 12.0598 8.59719 12.0592 8.35281 12.3042C8.10844 12.5486 8.10844 12.9442 8.35281 13.188L9.44844 14.2823L8.26906 15.4611L6.40594 13.5979C6.16156 13.3536 5.76656 13.3536 5.52219 13.5979C5.27781 13.8423 5.27781 14.2373 5.52219 14.4817L7.38531 16.3448L6.16281 17.5673L2.43469 13.8379L13.8378 2.43482L17.5672 6.1642L16.5209 7.20982Z" fill="#919191"/>
</g>
<defs>
<clipPath id="clip0_4207_52953">
<rect width="20" height="20" fill="white" transform="translate(0 0.000488281)"/>
</clipPath>
</defs>
</svg>
