<svg width="36" height="36" viewBox="0 0 36 36" fill="none" xmlns="http://www.w3.org/2000/svg">
<path d="M23.6483 12.8271C23.5289 12.7653 23.4127 12.6977 23.3 12.6243C22.9724 12.4077 22.6721 12.1526 22.4054 11.8643C21.7382 11.1009 21.4891 10.3264 21.3973 9.78423H21.401C21.3243 9.33417 21.356 9.04297 21.3608 9.04297H18.322V20.7933C18.322 20.9511 18.322 21.107 18.3154 21.2611C18.3154 21.2802 18.3135 21.2979 18.3124 21.3186C18.3124 21.327 18.3124 21.3359 18.3106 21.3447C18.3106 21.347 18.3106 21.3492 18.3106 21.3514C18.2786 21.773 18.1434 22.1802 17.917 22.5374C17.6907 22.8945 17.38 23.1905 17.0124 23.3993C16.6292 23.6173 16.1959 23.7317 15.7551 23.7311C14.3393 23.7311 13.1918 22.5766 13.1918 21.1509C13.1918 19.7251 14.3393 18.5706 15.7551 18.5706C16.0231 18.5704 16.2894 18.6126 16.5442 18.6956L16.5479 15.6015C15.7744 15.5016 14.9885 15.5631 14.2399 15.7821C13.4913 16.0011 12.7962 16.3729 12.1984 16.874C11.6747 17.329 11.2343 17.872 10.8972 18.4785C10.769 18.6996 10.285 19.5883 10.2264 21.0307C10.1895 21.8494 10.4354 22.6975 10.5526 23.0481V23.0554C10.6263 23.2618 10.912 23.9663 11.3775 24.5601C11.7529 25.0364 12.1965 25.4548 12.6938 25.8019V25.7945L12.7012 25.8019C14.1723 26.8015 15.8034 26.7359 15.8034 26.7359C16.0857 26.7245 17.0315 26.7359 18.1057 26.2269C19.297 25.6626 19.9752 24.8218 19.9752 24.8218C20.4085 24.3194 20.753 23.7469 20.994 23.1288C21.269 22.406 21.3608 21.539 21.3608 21.1925V14.9587C21.3976 14.9808 21.8886 15.3055 21.8886 15.3055C21.8886 15.3055 22.596 15.7589 23.6996 16.0542C24.4913 16.2643 25.5581 16.3085 25.5581 16.3085V13.2919C25.1843 13.3324 24.4254 13.2145 23.6483 12.8271Z" fill="#525252"/>
</svg>
