<svg width="37" height="36" viewBox="0 0 37 36" fill="none" xmlns="http://www.w3.org/2000/svg">
<rect x="0.222656" width="36" height="36" rx="2" fill="#F1F1F1"/>
<path d="M23.871 12.8271C23.7516 12.7653 23.6353 12.6977 23.5227 12.6243C23.1951 12.4077 22.8947 12.1526 22.6281 11.8643C21.9609 11.1009 21.7117 10.3264 21.6199 9.78423H21.6236C21.547 9.33417 21.5787 9.04297 21.5834 9.04297H18.5447V20.7933C18.5447 20.9511 18.5447 21.107 18.538 21.2611C18.538 21.2802 18.5362 21.2979 18.5351 21.3186C18.5351 21.327 18.5351 21.3359 18.5333 21.3447C18.5333 21.347 18.5333 21.3492 18.5333 21.3514C18.5012 21.773 18.3661 22.1802 18.1397 22.5374C17.9133 22.8945 17.6027 23.1905 17.235 23.3993C16.8519 23.6173 16.4185 23.7317 15.9777 23.7311C14.5619 23.7311 13.4145 22.5766 13.4145 21.1509C13.4145 19.7251 14.5619 18.5706 15.9777 18.5706C16.2457 18.5704 16.5121 18.6126 16.7669 18.6956L16.7706 15.6015C15.997 15.5016 15.2111 15.5631 14.4625 15.7821C13.7139 16.0011 13.0188 16.3729 12.4211 16.874C11.8973 17.329 11.457 17.872 11.1199 18.4785C10.9916 18.6996 10.5076 19.5883 10.449 21.0307C10.4122 21.8494 10.658 22.6975 10.7753 23.0481V23.0554C10.849 23.2618 11.1346 23.9663 11.6002 24.5601C11.9756 25.0364 12.4191 25.4548 12.9165 25.8019V25.7945L12.9238 25.8019C14.3949 26.8015 16.026 26.7359 16.026 26.7359C16.3084 26.7245 17.2542 26.7359 18.3283 26.2269C19.5196 25.6626 20.1979 24.8218 20.1979 24.8218C20.6312 24.3194 20.9757 23.7469 21.2167 23.1288C21.4917 22.406 21.5834 21.539 21.5834 21.1925V14.9587C21.6203 14.9808 22.1113 15.3055 22.1113 15.3055C22.1113 15.3055 22.8186 15.7589 23.9222 16.0542C24.714 16.2643 25.7807 16.3085 25.7807 16.3085V13.2919C25.407 13.3324 24.648 13.2145 23.871 12.8271Z" fill="black"/>
</svg>
