<svg width="46" height="46" viewBox="0 0 46 46" fill="none" xmlns="http://www.w3.org/2000/svg">
<path d="M40.6767 35.296C40.6767 26.4576 45.2549 20.3881 45.2549 16.1293C45.2549 11.8705 42.8067 2.92603 23.2145 2.92603C3.62237 2.92603 0.746094 14.9589 0.746094 19.6432C0.746094 41.5788 40.6767 50.9487 40.6767 35.296Z" fill="#EFEFEF"/>
<path d="M13.4951 12.1389C12.179 12.1389 11.0801 13.1356 10.9523 14.4389L8.90787 34.5639C8.75454 36.0717 9.94287 37.375 11.4506 37.375H23.0145H34.5529C36.0606 37.375 37.249 36.0717 37.0956 34.5639L35.0512 14.4389C34.9234 13.1356 33.8245 12.1389 32.5084 12.1389H13.4951Z" fill="white"/>
<path d="M28.4314 14.1361C28.4314 18.6734 23.0009 23.3207 23.0009 23.3207C23.0009 23.3207 17.5703 18.6747 17.5703 14.1361C17.5703 11.0924 20.0019 8.625 23.0009 8.625C25.9998 8.625 28.4314 11.0924 28.4314 14.1361Z" fill="white"/>
<path d="M22.9996 15.6527C23.8817 15.6527 24.5968 14.9376 24.5968 14.0555C24.5968 13.1734 23.8817 12.4583 22.9996 12.4583C22.1174 12.4583 21.4023 13.1734 21.4023 14.0555C21.4023 14.9376 22.1174 15.6527 22.9996 15.6527Z" fill="#F3F3F1"/>
<path d="M20.4453 14.1361C20.4453 11.6009 22.1422 9.48878 24.4384 8.84606C23.9771 8.71572 23.5018 8.625 23.0009 8.625C20.0019 8.625 17.5703 11.0924 17.5703 14.1361C17.5703 18.6734 23.0009 23.3207 23.0009 23.3207C23.0009 23.3207 23.6219 22.7853 24.4384 21.9126C22.8296 20.194 20.4453 17.1452 20.4453 14.1361Z" fill="#FFD9CE"/>
<path d="M11.7829 34.5639L13.8273 14.4389C13.9551 13.1356 15.054 12.1389 16.3701 12.1389H13.4951C12.179 12.1389 11.0801 13.1356 10.9523 14.4389L8.90787 34.5639C8.75454 36.0717 9.94287 37.375 11.4506 37.375H14.3256C12.8179 37.375 11.6295 36.0717 11.7829 34.5639Z" fill="#FFD9CE"/>
<path d="M24.2773 14.0555C24.2773 13.8127 24.34 13.5891 24.4371 13.3834C24.1815 12.8403 23.6385 12.4583 22.9996 12.4583C22.1179 12.4583 21.4023 13.1738 21.4023 14.0555C21.4023 14.9371 22.1179 15.6527 22.9996 15.6527C23.6385 15.6527 24.1815 15.2706 24.4371 14.7276C24.34 14.5219 24.2773 14.2983 24.2773 14.0555Z" fill="white"/>
<path d="M22.9983 24.2779C22.7759 24.2779 22.5536 24.2012 22.376 24.0479C22.1396 23.846 16.6094 19.0581 16.6094 14.1361C16.6094 10.5686 19.4754 7.66675 22.9983 7.66675C26.5211 7.66675 29.3872 10.5686 29.3872 14.1361C29.3872 19.0594 23.8569 23.8472 23.6205 24.0479C23.4429 24.2012 23.2206 24.2779 22.9983 24.2779ZM22.9983 9.58341C20.5322 9.58341 18.526 11.6253 18.526 14.1361C18.526 17.3076 21.6387 20.686 22.9983 22.0124C24.3578 20.6873 27.4705 17.3076 27.4705 14.1361C27.4705 11.6253 25.4644 9.58341 22.9983 9.58341Z" fill="#525252"/>
<path d="M23.0009 16.6111C21.5915 16.6111 20.4453 15.4649 20.4453 14.0556C20.4453 12.6462 21.5915 11.5 23.0009 11.5C24.4103 11.5 25.5564 12.6462 25.5564 14.0556C25.5564 15.4649 24.4103 16.6111 23.0009 16.6111ZM23.0009 13.4167C22.6495 13.4167 22.362 13.7029 22.362 14.0556C22.362 14.4082 22.6495 14.6944 23.0009 14.6944C23.3523 14.6944 23.6398 14.4082 23.6398 14.0556C23.6398 13.7029 23.3523 13.4167 23.0009 13.4167Z" fill="#525252"/>
<path d="M34.5496 38.3334H11.4474C10.4558 38.3334 9.5039 37.9105 8.83817 37.1732C8.17373 36.4372 7.85173 35.4508 7.95139 34.4656L9.99712 14.3419C10.1406 12.8664 11.1757 11.6861 12.5448 11.3082C13.055 11.1674 13.4918 11.6097 13.4918 12.139C13.4918 12.6683 13.0266 13.0757 12.5889 13.3733C12.2116 13.6299 11.9507 14.0452 11.9036 14.5323L9.85784 34.6624C9.81184 35.1147 9.95495 35.5504 10.2603 35.8891C10.5683 36.2289 10.99 36.4168 11.4474 36.4168H34.5496C35.0071 36.4168 35.4287 36.2289 35.7367 35.8891C36.0421 35.5504 36.1865 35.1147 36.1392 34.6611L34.0935 14.5348C34.0456 14.047 33.7849 13.631 33.4079 13.374C32.9706 13.0758 32.5052 12.6683 32.5052 12.139C32.5052 11.6097 32.942 11.1674 33.4522 11.3082C34.8213 11.6863 35.8564 12.8671 35.9999 14.3457L38.0456 34.4656C38.1453 35.4521 37.822 36.4385 37.1588 37.1745C36.4931 37.9105 35.5412 38.3334 34.5496 38.3334Z" fill="#525252"/>
<path d="M10.2148 24.2932L18.776 24.2847L18.7779 26.2013L10.2168 26.2099L10.2148 24.2932Z" fill="#525252"/>
<path d="M19.7422 37.6752L18.168 36.5827L26.4301 24.6904C26.609 24.4323 26.9029 24.2777 27.2159 24.2777L35.777 24.2649L35.7796 26.1816L27.7181 26.1943L19.7422 37.6752Z" fill="#525252"/>
</svg>
