<svg width="14" height="14" viewBox="0 0 14 14" fill="none" xmlns="http://www.w3.org/2000/svg">
<path d="M12.7756 10.6938C12.7756 10.9038 12.729 11.1196 12.6298 11.3296C12.5306 11.5396 12.4023 11.738 12.2331 11.9246C11.9473 12.2396 11.6323 12.4671 11.2765 12.613C10.9265 12.7588 10.5473 12.8346 10.139 12.8346C9.54397 12.8346 8.90813 12.6946 8.2373 12.4088C7.56646 12.123 6.89563 11.738 6.23063 11.2538C5.5598 10.7638 4.92396 10.2213 4.3173 9.62047C3.71646 9.0138 3.17396 8.37797 2.6898 7.71297C2.21146 7.04797 1.82646 6.38297 1.54646 5.7238C1.26646 5.0588 1.12646 4.42297 1.12646 3.8163C1.12646 3.41964 1.19646 3.04047 1.33646 2.69047C1.47646 2.33464 1.69813 2.00797 2.0073 1.7163C2.38063 1.3488 2.78896 1.16797 3.22063 1.16797C3.38396 1.16797 3.5473 1.20297 3.69313 1.27297C3.8448 1.34297 3.97896 1.44797 4.08396 1.59964L5.4373 3.50714C5.5423 3.65297 5.61813 3.78714 5.67063 3.91547C5.72313 4.03797 5.7523 4.16047 5.7523 4.2713C5.7523 4.4113 5.71146 4.5513 5.6298 4.68547C5.55396 4.81964 5.44313 4.95964 5.30313 5.09964L4.8598 5.56047C4.79563 5.62464 4.76646 5.70047 4.76646 5.7938C4.76646 5.84047 4.7723 5.8813 4.78396 5.92797C4.80146 5.97464 4.81896 6.00964 4.83063 6.04464C4.93563 6.23714 5.11646 6.48797 5.37313 6.7913C5.63563 7.09464 5.91563 7.4038 6.21896 7.71297C6.53396 8.02214 6.8373 8.30797 7.14646 8.57047C7.4498 8.82714 7.70063 9.00214 7.89896 9.10714C7.92813 9.1188 7.96313 9.1363 8.00396 9.1538C8.05063 9.1713 8.0973 9.17714 8.1498 9.17714C8.24896 9.17714 8.3248 9.14214 8.38896 9.07797L8.8323 8.64047C8.97813 8.49464 9.11813 8.3838 9.2523 8.3138C9.38646 8.23214 9.52063 8.1913 9.66646 8.1913C9.7773 8.1913 9.89396 8.21464 10.0223 8.26714C10.1506 8.31964 10.2848 8.39547 10.4306 8.49464L12.3615 9.86547C12.5131 9.97047 12.6181 10.093 12.6823 10.2388C12.7406 10.3846 12.7756 10.5305 12.7756 10.6938Z" stroke="#7A7A7A" stroke-miterlimit="10"/>
</svg>
