<svg width="60" height="60" viewBox="0 0 60 60" fill="none" xmlns="http://www.w3.org/2000/svg">
<path d="M17.7036 12.3847C26.542 12.3847 32.6114 7.8064 36.8702 7.8064C41.1291 7.8064 50.0735 10.2546 50.0735 29.8481C50.0735 49.4415 38.0407 52.3152 33.3563 52.3152C11.4207 52.3152 2.05078 12.3847 17.7036 12.3847Z" fill="#EFEFEF"/>
<path d="M37.9822 18.1767V22.01H18.1766C16.7711 22.01 15.6211 20.8728 15.6211 19.4545C15.6211 18.7517 15.9022 18.1128 16.375 17.6528C16.835 17.18 17.4739 16.8989 18.1766 16.8989H36.7044C37.42 16.8989 37.9822 17.4739 37.9822 18.1767Z" fill="white"/>
<path d="M18.4961 19.4545C18.4961 18.7517 18.7772 18.1128 19.25 17.6528C19.71 17.18 20.3489 16.8989 21.0516 16.8989H18.1766C17.4739 16.8989 16.835 17.18 16.375 17.6528C15.9022 18.1128 15.6211 18.7517 15.6211 19.4545C15.6211 20.8728 16.7711 22.01 18.1766 22.01H21.0516C19.6461 22.01 18.4961 20.8728 18.4961 19.4545Z" fill="#FFD9CE"/>
<path d="M41.8155 23.2879V40.5379C41.8155 41.2407 41.2405 41.8157 40.5378 41.8157H18.1766C16.7711 41.8157 15.6211 40.6657 15.6211 39.2601V19.4546C15.6211 20.8729 16.7711 22.0101 18.1766 22.0101H40.5378C41.2405 22.0101 41.8155 22.5851 41.8155 23.2879Z" fill="white"/>
<path d="M18.4961 39.2601V22.0101H18.1766C16.7711 22.0101 15.6211 20.8729 15.6211 19.4546V39.2601C15.6211 40.6657 16.7711 41.8157 18.1766 41.8157H21.0516C19.6461 41.8157 18.4961 40.6657 18.4961 39.2601Z" fill="#FFD9CE"/>
<path d="M44.3776 34.7917H39.5859C37.9977 34.7917 36.7109 33.505 36.7109 31.9167C36.7109 30.3285 37.9977 29.0417 39.5859 29.0417H44.3776V34.7917Z" fill="white"/>
<path d="M39.5859 31.9167C39.5859 30.3285 40.8727 29.0417 42.4609 29.0417H39.5859C37.9977 29.0417 36.7109 30.3285 36.7109 31.9167C36.7109 33.505 37.9977 34.7917 39.5859 34.7917H42.4609C40.8727 34.7917 39.5859 33.505 39.5859 31.9167Z" fill="#FFD9CE"/>
<path d="M40.5391 42.7777H18.178C16.2396 42.7777 14.6641 41.2022 14.6641 39.2638V19.4583H16.5807V39.2638C16.5807 40.1442 17.2976 40.861 18.178 40.861H40.5391C40.7128 40.861 40.8585 40.7154 40.8585 40.5416V34.7916H42.7752V40.5416C42.7752 41.7746 41.7721 42.7777 40.5391 42.7777Z" fill="#525252"/>
<path d="M44.375 35.7499H39.5833C37.4699 35.7499 35.75 34.03 35.75 31.9166C35.75 29.8031 37.4699 28.0833 39.5833 28.0833H44.375C44.904 28.0833 45.3333 28.5126 45.3333 29.0416V34.7916C45.3333 35.3206 44.904 35.7499 44.375 35.7499ZM39.5833 29.9999C38.5266 29.9999 37.6667 30.8599 37.6667 31.9166C37.6667 32.9733 38.5266 33.8333 39.5833 33.8333H43.4167V29.9999H39.5833Z" fill="#525252"/>
<path d="M42.7752 29.0416H40.8585V23.2916C40.8585 23.1178 40.7128 22.9721 40.5391 22.9721H18.178C16.2396 22.9721 14.6641 21.3966 14.6641 19.4582C14.6641 17.5198 16.2396 15.9443 18.178 15.9443H36.7057C37.9388 15.9443 38.9418 16.9474 38.9418 18.1804V21.0554H40.5391C41.7721 21.0554 42.7752 22.0585 42.7752 23.2916V29.0416ZM18.178 17.861C17.2963 17.861 16.5807 18.5778 16.5807 19.4582C16.5807 20.3386 17.2963 21.0554 18.178 21.0554H37.0252V18.1804C37.0252 18.0041 36.8821 17.861 36.7057 17.861H18.178Z" fill="#525252"/>
</svg>
