<svg width="37" height="36" viewBox="0 0 37 36" fill="none" xmlns="http://www.w3.org/2000/svg">
<rect x="0.886719" width="36" height="36" rx="2" fill="#F1F1F1"/>
<path d="M9.88672 26.3334L11.1782 21.5314C10.1366 19.6608 9.80574 17.478 10.2462 15.3835C10.6866 13.289 11.8689 11.4233 13.576 10.1287C15.2831 8.8342 17.4005 8.19769 19.5398 8.33598C21.679 8.47427 23.6966 9.3781 25.2222 10.8816C26.7478 12.3851 27.6792 14.3875 27.8454 16.5212C28.0116 18.6549 27.4014 20.7769 26.127 22.4978C24.8525 24.2187 22.9991 25.423 20.907 25.8898C18.8149 26.3566 16.6243 26.0545 14.7373 25.039L9.88672 26.3334ZM14.9712 23.2421L15.2712 23.4197C16.638 24.2285 18.2344 24.5632 19.8117 24.3717C21.3889 24.1801 22.8584 23.473 23.9911 22.3606C25.1238 21.2483 25.8561 19.793 26.0739 18.2218C26.2916 16.6505 25.9827 15.0514 25.1951 13.6738C24.4075 12.2961 23.1856 11.2173 21.7197 10.6053C20.2539 9.99334 18.6264 9.88267 17.0909 10.2905C15.5555 10.6984 14.1983 11.6019 13.2309 12.8602C12.2635 14.1185 11.7402 15.661 11.7426 17.2472C11.7413 18.5625 12.1056 19.8523 12.795 20.9731L12.9832 21.2827L12.2612 23.9629L14.9712 23.2421Z" fill="black"/>
<path fill-rule="evenodd" clip-rule="evenodd" d="M22.2511 18.4806C22.0752 18.339 21.8693 18.2393 21.649 18.1892C21.4288 18.139 21.1999 18.1397 20.98 18.1912C20.6495 18.3283 20.4359 18.8461 20.2224 19.1049C20.1774 19.167 20.1112 19.2105 20.0363 19.2273C19.9614 19.2442 19.8829 19.2331 19.8156 19.1963C18.6057 18.7232 17.5915 17.8556 16.9378 16.7344C16.8821 16.6644 16.8557 16.5756 16.8642 16.4866C16.8727 16.3976 16.9155 16.3154 16.9836 16.2573C17.2217 16.0219 17.3966 15.7303 17.492 15.4096C17.5132 15.0558 17.432 14.7034 17.2581 14.3944C17.1237 13.9611 16.8679 13.5754 16.5209 13.2827C16.3419 13.2023 16.1435 13.1754 15.9495 13.2051C15.7555 13.2348 15.5743 13.32 15.4277 13.4502C15.1732 13.6694 14.9712 13.9428 14.8366 14.2503C14.702 14.5578 14.6381 14.8915 14.6498 15.2268C14.6506 15.4152 14.6745 15.6027 14.721 15.7852C14.839 16.2237 15.0206 16.6427 15.2599 17.0288C15.4326 17.3246 15.621 17.611 15.8243 17.8867C16.4851 18.7922 17.3156 19.5611 18.2699 20.1506C18.7488 20.4502 19.2606 20.6937 19.7953 20.8765C20.3507 21.1278 20.9639 21.2243 21.5698 21.1557C21.915 21.1035 22.2421 20.9674 22.5222 20.7594C22.8024 20.5514 23.0271 20.2778 23.1765 19.9628C23.2642 19.7725 23.2909 19.5597 23.2527 19.3537C23.1612 18.9323 22.5968 18.6836 22.2511 18.4806Z" fill="black"/>
</svg>
