<svg width="36" height="36" viewBox="0 0 36 36" fill="none" xmlns="http://www.w3.org/2000/svg">
<g clip-path="url(#clip0_4362_45150)">
<path fill-rule="evenodd" clip-rule="evenodd" d="M18.4004 10C13.8933 10 10.4004 13.3014 10.4004 17.7602C10.4004 20.0926 11.3565 22.1078 12.9131 23.5002C13.0434 23.6177 13.1223 23.7803 13.1288 23.9557L13.1722 25.3787C13.1867 25.8326 13.6551 26.1272 14.0704 25.9453L15.6575 25.2451C15.7927 25.1855 15.9424 25.1742 16.0841 25.2129C16.8133 25.4141 17.5907 25.5203 18.4004 25.5203C22.9074 25.5203 26.4004 22.2189 26.4004 17.7602C26.4004 13.3014 22.9074 10 18.4004 10Z" fill="#525252"/>
<path fill-rule="evenodd" clip-rule="evenodd" d="M13.5975 20.0307L15.9476 16.3027C16.321 15.7104 17.1226 15.5623 17.6828 15.9824L19.5516 17.3844C19.7238 17.5132 19.9588 17.5116 20.1295 17.3828L22.6534 15.4673C22.9898 15.2114 23.4309 15.6154 23.2039 15.9728L20.8554 19.6991C20.482 20.2915 19.6804 20.4396 19.1202 20.0194L17.2514 18.6174C17.0792 18.4887 16.8442 18.4903 16.6735 18.619L14.148 20.5361C13.8116 20.7921 13.3705 20.3881 13.5975 20.0307Z" fill="white"/>
</g>
<defs>
<clipPath id="clip0_4362_45150">
<rect width="16" height="16" fill="white" transform="translate(10.4004 10)"/>
</clipPath>
</defs>
</svg>
