<svg width="37" height="36" viewBox="0 0 37 36" fill="none" xmlns="http://www.w3.org/2000/svg">
<rect x="0.554688" width="36" height="36" rx="2" fill="#F1F1F1"/>
<path d="M28.5689 13.0482C28.3339 12.1645 27.6386 11.4674 26.7539 11.2285C25.1544 10.7998 18.7366 10.7998 18.7366 10.7998C18.7366 10.7998 12.322 10.7998 10.7192 11.2285C9.83782 11.4642 9.1425 12.1613 8.9042 13.0482C8.47656 14.6518 8.47656 17.9998 8.47656 17.9998C8.47656 17.9998 8.47656 21.3478 8.9042 22.9514C9.13924 23.8351 9.83455 24.5322 10.7192 24.7711C12.322 25.1998 18.7366 25.1998 18.7366 25.1998C18.7366 25.1998 25.1544 25.1998 26.7539 24.7711C27.6353 24.5354 28.3306 23.8384 28.5689 22.9514C28.9966 21.3478 28.9966 17.9998 28.9966 17.9998C28.9966 17.9998 28.9966 14.6518 28.5689 13.0482Z" fill="black"/>
<path d="M16.6865 21.086L22.0173 17.9998L16.6865 14.9136V21.086Z" fill="white"/>
</svg>
