<svg width="36" height="36" viewBox="0 0 36 36" fill="none" xmlns="http://www.w3.org/2000/svg">
<path d="M18.0671 24.9345C17.9548 24.9353 17.8444 24.9065 17.7467 24.8513C16.9105 24.368 10.7175 20.489 10.4836 20.3706C10.3056 20.2876 10.1841 20.1176 10.1632 19.9225V14.4816C10.1586 14.2786 10.2591 14.0874 10.4292 13.976L10.474 13.9504C11.0731 13.5791 13.0787 12.3565 13.3959 12.1805C13.4687 12.1373 13.5516 12.1142 13.6362 12.1133C13.7155 12.1142 13.7935 12.1339 13.8637 12.1709C13.8637 12.1709 16.6702 13.9984 17.0995 14.1616C17.4008 14.2998 17.7292 14.3688 18.0607 14.3632C18.4363 14.3711 18.8074 14.2806 19.1372 14.1008C19.5569 13.88 22.2385 12.1805 22.2673 12.1805C22.3349 12.1397 22.4126 12.1186 22.4916 12.1197C22.5763 12.1201 22.6593 12.1433 22.7319 12.1869C23.0971 12.3885 25.5833 13.9088 25.689 13.976C25.8638 14.0814 25.9698 14.2713 25.9677 14.4752V19.9161C25.9481 20.1117 25.8262 20.2822 25.6473 20.3642C25.4135 20.4922 19.2397 24.3712 18.3875 24.8449C18.2904 24.9024 18.1799 24.9333 18.0671 24.9345Z" fill="#525252"/>
<path d="M18.0352 24.9333L18.0672 24.9333C18.1794 24.9341 18.2899 24.9054 18.3876 24.8501C19.2238 24.3668 25.4136 20.4878 25.6475 20.3694C25.8263 20.2874 25.9482 20.1169 25.9678 19.9213V14.4805C25.9689 14.3884 25.948 14.2973 25.907 14.2148L18.0352 18.5323V24.9333Z" fill="#525252"/>
<path d="M18.0078 24.8582L17.9761 24.8582C17.8651 24.8589 17.7558 24.8306 17.6592 24.7759C16.8319 24.2977 10.708 20.4601 10.4766 20.3429C10.2997 20.2618 10.1791 20.0931 10.1597 19.8996V14.5167C10.1586 14.4256 10.1793 14.3355 10.2199 14.2539L18.0078 18.5254V24.8582Z" fill="#525252"/>
</svg>
