<svg width="36" height="36" viewBox="0 0 36 36" fill="none" xmlns="http://www.w3.org/2000/svg">
<g clip-path="url(#clip0_4362_45163)">
<path fill-rule="evenodd" clip-rule="evenodd" d="M20.8845 22.5312C20.7798 23.3995 20.2565 24.0949 19.4459 24.4431C18.9945 24.637 18.3884 24.7418 17.9086 24.7089C17.1602 24.6801 16.4571 24.4971 15.809 24.1626C15.5774 24.043 15.2323 23.8043 14.9672 23.5807C14.9001 23.5242 14.8921 23.488 14.9365 23.4246C14.9605 23.3883 15.0048 23.3227 15.1025 23.1787C15.2443 22.9699 15.262 22.9437 15.2779 22.9192C15.3233 22.8492 15.3969 22.8431 15.4696 22.9006C15.4773 22.9066 15.4773 22.9066 15.483 22.9111C15.495 22.9204 15.495 22.9204 15.5231 22.9424C15.5516 22.9647 15.5685 22.9779 15.5753 22.983C16.2743 23.5334 17.0883 23.8508 17.9102 23.8826C19.0536 23.8669 19.8758 23.35 20.0232 22.5563C20.1852 21.6828 19.5031 20.9283 18.1688 20.5077C17.7515 20.3762 16.6966 19.9517 16.5021 19.837C15.5888 19.2982 15.1617 18.5925 15.2224 17.7208C15.3154 16.5125 16.4311 15.6114 17.8408 15.6053C18.4713 15.604 19.1004 15.7357 19.7047 15.9918C19.9187 16.0825 20.3008 16.2915 20.4327 16.3905C20.5087 16.4466 20.5237 16.512 20.4801 16.5825C20.4558 16.6234 20.4156 16.6883 20.3309 16.8234L20.3299 16.8249C20.2184 17.003 20.2149 17.0085 20.1893 17.0502C20.1451 17.1179 20.0931 17.1242 20.0134 17.0733C19.3667 16.6365 18.6497 16.4168 17.8613 16.4009C16.8796 16.4204 16.1439 17.0078 16.0955 17.8079C16.0827 18.5306 16.6218 19.0582 17.7863 19.4604C20.1501 20.2241 21.0547 21.1195 20.8845 22.5312ZM17.9652 10.0557C19.5041 10.0557 20.7586 11.524 20.8173 13.362H15.1132C15.1718 11.524 16.4263 10.0557 17.9652 10.0557ZM25.9298 13.7076C25.9298 13.5167 25.7769 13.362 25.5884 13.362H21.8912C21.8004 10.9352 20.0774 9 17.9652 9C15.853 9 14.13 10.9352 14.0393 13.362L10.3367 13.3621C10.1511 13.3655 10.0016 13.5189 10.0016 13.7076C10.0016 13.7166 10.0019 13.7256 10.0026 13.7344H10L10.5278 25.4317C10.5279 25.4642 10.5291 25.497 10.5315 25.5301C10.532 25.5375 10.5326 25.5449 10.5332 25.5523L10.5344 25.577L10.5356 25.5783C10.6158 26.3923 11.2034 27.0478 12.0023 27.0781L12.0041 27.0799H23.7489C23.7545 27.0799 23.76 27.08 23.7656 27.08C23.7711 27.08 23.7767 27.0799 23.7823 27.0799H23.8072C24.6201 27.0575 25.2791 26.3923 25.3486 25.5683L25.3496 25.5569C25.3502 25.5482 25.3509 25.5396 25.3514 25.5309C25.3527 25.5101 25.3535 25.4895 25.3539 25.4689L25.9298 13.7254C25.9301 13.7195 25.9298 13.7136 25.9298 13.7076Z" fill="#525252"/>
</g>
<defs>
<clipPath id="clip0_4362_45163">
<rect width="16" height="18.08" fill="white" transform="translate(10 9)"/>
</clipPath>
</defs>
</svg>
