<svg width="36" height="36" viewBox="0 0 36 36" fill="none" xmlns="http://www.w3.org/2000/svg">
<g clip-path="url(#clip0_4362_45156)">
<path d="M28.9113 12.4985C28.6492 11.515 27.8771 10.7405 26.8966 10.4777C25.1196 10 17.9935 10 17.9935 10C17.9935 10 10.8676 10 9.09047 10.4777C8.11003 10.7405 7.33783 11.515 7.07579 12.4985C6.59961 14.2809 6.59961 18 6.59961 18C6.59961 18 6.59961 21.719 7.07579 23.5017C7.33783 24.485 8.11003 25.2595 9.09047 25.5224C10.8676 26 17.9935 26 17.9935 26C17.9935 26 25.1196 26 26.8966 25.5224C27.8771 25.2595 28.6492 24.485 28.9113 23.5017C29.3875 21.719 29.3875 18 29.3875 18C29.3875 18 29.3875 14.2809 28.9113 12.4985Z" fill="#525252"/>
<path d="M15.6631 21.375L21.619 17.9985L15.6631 14.6218V21.375Z" fill="white"/>
</g>
<defs>
<clipPath id="clip0_4362_45156">
<rect width="22.7879" height="16" fill="white" transform="translate(6.59961 10)"/>
</clipPath>
</defs>
</svg>
